%TF.GenerationSoftware,KiCad,Pcbnew,4.0.7-e2-6376~58~ubuntu16.04.1*%
%TF.CreationDate,2017-12-06T16:05:08+02:00*%
%TF.ProjectId,ecu_emu,6563755F656D752E6B696361645F7063,rev?*%
%TF.FileFunction,Other,User*%
%FSLAX46Y46*%
G04 Gerber Fmt 4.6, Leading zero omitted, Abs format (unit mm)*
G04 Created by KiCad (PCBNEW 4.0.7-e2-6376~58~ubuntu16.04.1) date Wed Dec  6 16:05:08 2017*
%MOMM*%
%LPD*%
G01*
G04 APERTURE LIST*
%ADD10C,0.100000*%
%ADD11C,0.050000*%
G04 APERTURE END LIST*
D10*
D11*
X40620000Y-24750000D02*
X40620000Y-21250000D01*
X40620000Y-24750000D02*
X42370000Y-24750000D01*
X42370000Y-21250000D02*
X40620000Y-21250000D01*
X42370000Y-21250000D02*
X42370000Y-24750000D01*
X42380000Y-24750000D02*
X42380000Y-28250000D01*
X42380000Y-24750000D02*
X40630000Y-24750000D01*
X40630000Y-28250000D02*
X42380000Y-28250000D01*
X40630000Y-28250000D02*
X40630000Y-24750000D01*
X53880000Y-33250000D02*
X53880000Y-36750000D01*
X53880000Y-33250000D02*
X52130000Y-33250000D01*
X52130000Y-36750000D02*
X53880000Y-36750000D01*
X52130000Y-36750000D02*
X52130000Y-33250000D01*
X36750000Y-28153000D02*
X36750000Y-21153000D01*
X36750000Y-21153000D02*
X40250000Y-21153000D01*
X40250000Y-21153000D02*
X40250000Y-28153000D01*
X40250000Y-28153000D02*
X36750000Y-28153000D01*
X55650000Y-35650000D02*
X54300000Y-35650000D01*
X55700000Y-33350000D02*
X55700000Y-35600000D01*
X54350000Y-33350000D02*
X55700000Y-33350000D01*
X54300000Y-35650000D02*
X54300000Y-33400000D01*
X54300000Y-33350000D02*
X54350000Y-33350000D01*
X54300000Y-33400000D02*
X54300000Y-33350000D01*
X55700000Y-35650000D02*
X55700000Y-35600000D01*
X55650000Y-35650000D02*
X55700000Y-35650000D01*
X36440000Y-37280000D02*
X36440000Y-20980000D01*
X36440000Y-20980000D02*
X21540000Y-20980000D01*
X21540000Y-20980000D02*
X21540000Y-37280000D01*
X21540000Y-37280000D02*
X36440000Y-37280000D01*
X40600000Y-33000000D02*
X40600000Y-29900000D01*
X40600000Y-33000000D02*
X42400000Y-33000000D01*
X42400000Y-29900000D02*
X40600000Y-29900000D01*
X42400000Y-29900000D02*
X42400000Y-33000000D01*
X36600000Y-33000000D02*
X36600000Y-29900000D01*
X36600000Y-33000000D02*
X38400000Y-33000000D01*
X38400000Y-29900000D02*
X36600000Y-29900000D01*
X38400000Y-29900000D02*
X38400000Y-33000000D01*
X38600000Y-33000000D02*
X38600000Y-29900000D01*
X38600000Y-33000000D02*
X40400000Y-33000000D01*
X40400000Y-29900000D02*
X38600000Y-29900000D01*
X40400000Y-29900000D02*
X40400000Y-33000000D01*
X40600000Y-37100000D02*
X40600000Y-34000000D01*
X40600000Y-37100000D02*
X42400000Y-37100000D01*
X42400000Y-34000000D02*
X40600000Y-34000000D01*
X42400000Y-34000000D02*
X42400000Y-37100000D01*
X36600000Y-37100000D02*
X36600000Y-34000000D01*
X36600000Y-37100000D02*
X38400000Y-37100000D01*
X38400000Y-34000000D02*
X36600000Y-34000000D01*
X38400000Y-34000000D02*
X38400000Y-37100000D01*
X38600000Y-37100000D02*
X38600000Y-34000000D01*
X38600000Y-37100000D02*
X40400000Y-37100000D01*
X40400000Y-34000000D02*
X38600000Y-34000000D01*
X40400000Y-34000000D02*
X40400000Y-37100000D01*
X56550000Y-21200000D02*
X47750000Y-21200000D01*
X56550000Y-28400000D02*
X56550000Y-21200000D01*
X47750000Y-28400000D02*
X56550000Y-28400000D01*
X47750000Y-21200000D02*
X47750000Y-28400000D01*
X61800000Y-22800000D02*
X61800000Y-35700000D01*
X74700000Y-22800000D02*
X74700000Y-35700000D01*
X61800000Y-22800000D02*
X74700000Y-22800000D01*
X61800000Y-35700000D02*
X74700000Y-35700000D01*
X42500000Y-31625000D02*
X47500000Y-31625000D01*
X47500000Y-31625000D02*
X47500000Y-21125000D01*
X47500000Y-21125000D02*
X42500000Y-21125000D01*
X42500000Y-21125000D02*
X42500000Y-31625000D01*
X51775000Y-37000000D02*
X51775000Y-33000000D01*
X51775000Y-33000000D02*
X42975000Y-33000000D01*
X42975000Y-33000000D02*
X42975000Y-37000000D01*
X42975000Y-37000000D02*
X51775000Y-37000000D01*
X75200000Y-34740000D02*
X75200000Y-23540000D01*
X75200000Y-23540000D02*
X87550000Y-23540000D01*
X87550000Y-23540000D02*
X87550000Y-34740000D01*
X87550000Y-34740000D02*
X75200000Y-34740000D01*
M02*
