%TF.GenerationSoftware,KiCad,Pcbnew,4.0.7-e2-6376~58~ubuntu16.04.1*%
%TF.CreationDate,2017-12-06T16:05:08+02:00*%
%TF.ProjectId,ecu_emu,6563755F656D752E6B696361645F7063,rev?*%
%TF.FileFunction,Copper,L2,Bot,Signal*%
%FSLAX46Y46*%
G04 Gerber Fmt 4.6, Leading zero omitted, Abs format (unit mm)*
G04 Created by KiCad (PCBNEW 4.0.7-e2-6376~58~ubuntu16.04.1) date Wed Dec  6 16:05:08 2017*
%MOMM*%
%LPD*%
G01*
G04 APERTURE LIST*
%ADD10C,0.100000*%
%ADD11R,1.000000X1.250000*%
%ADD12R,1.700000X1.700000*%
%ADD13O,1.700000X1.700000*%
%ADD14R,1.300000X0.700000*%
%ADD15R,1.550000X0.600000*%
%ADD16R,1.300000X1.600000*%
%ADD17R,1.250000X1.000000*%
%ADD18R,1.200000X1.200000*%
%ADD19R,0.700000X1.300000*%
%ADD20C,0.600000*%
%ADD21C,0.200000*%
%ADD22C,0.300000*%
%ADD23C,0.600000*%
%ADD24C,0.025400*%
G04 APERTURE END LIST*
D10*
D11*
X65500000Y-23000000D03*
X67500000Y-23000000D03*
X65500000Y-31000000D03*
X67500000Y-31000000D03*
X72000000Y-25000000D03*
X70000000Y-25000000D03*
D12*
X34640000Y-35480000D03*
D13*
X32100000Y-35480000D03*
X34640000Y-32940000D03*
X32100000Y-32940000D03*
X34640000Y-30400000D03*
X32100000Y-30400000D03*
X34640000Y-27860000D03*
X32100000Y-27860000D03*
X34640000Y-25320000D03*
X32100000Y-25320000D03*
X34640000Y-22780000D03*
X32100000Y-22780000D03*
D14*
X59500000Y-22550000D03*
X59500000Y-24450000D03*
X39500000Y-32400000D03*
X39500000Y-30500000D03*
D15*
X57820000Y-29130000D03*
X57820000Y-30400000D03*
X57820000Y-31670000D03*
X57820000Y-32940000D03*
X52420000Y-32940000D03*
X52420000Y-31670000D03*
X52420000Y-30400000D03*
X52420000Y-29130000D03*
D16*
X67500000Y-25350000D03*
X67500000Y-28650000D03*
X65500000Y-28650000D03*
X65500000Y-25350000D03*
D14*
X62000000Y-22550000D03*
X62000000Y-24450000D03*
D17*
X39500000Y-26500000D03*
X39500000Y-28500000D03*
D11*
X72000000Y-29000000D03*
X70000000Y-29000000D03*
X72000000Y-33000000D03*
X70000000Y-33000000D03*
X72000000Y-27000000D03*
X70000000Y-27000000D03*
X72000000Y-23000000D03*
X70000000Y-23000000D03*
X72000000Y-31000000D03*
X70000000Y-31000000D03*
D15*
X48942000Y-29130000D03*
X48942000Y-30400000D03*
X48942000Y-31670000D03*
X48942000Y-32940000D03*
X43542000Y-32940000D03*
X43542000Y-31670000D03*
X43542000Y-30400000D03*
X43542000Y-29130000D03*
D12*
X77000000Y-32940000D03*
D13*
X77000000Y-30400000D03*
X77000000Y-27860000D03*
X77000000Y-25320000D03*
D18*
X75800000Y-36000000D03*
X78000000Y-36000000D03*
D19*
X73950000Y-36000000D03*
X72050000Y-36000000D03*
D20*
X47776239Y-34781506D03*
X68767493Y-31834671D03*
X47196638Y-25277015D03*
X45552384Y-26480015D03*
X43855310Y-26854083D03*
X64633833Y-26908132D03*
X66000000Y-27500000D03*
X51500000Y-24500000D03*
X52500000Y-26500000D03*
X52500000Y-25500000D03*
X52500000Y-24500000D03*
X52500000Y-23500000D03*
X52500000Y-22500000D03*
X57500000Y-27500000D03*
X57500000Y-26500000D03*
X57500000Y-25500000D03*
X57500000Y-24500000D03*
X57500000Y-23500000D03*
X57500000Y-22500000D03*
X74000000Y-24500000D03*
X73998414Y-34000962D03*
X63487764Y-35853046D03*
X56500000Y-34500000D03*
X63752992Y-22672254D03*
X36532494Y-29407533D03*
X59685111Y-25555653D03*
X62476045Y-35005131D03*
X75000000Y-26500000D03*
X61001200Y-27546326D03*
X41500000Y-33500000D03*
X61000131Y-28500355D03*
X37500000Y-33500000D03*
X61000059Y-29500026D03*
X39500000Y-33500000D03*
X61000000Y-25500000D03*
X59501682Y-34002064D03*
X50498162Y-30990414D03*
X61000000Y-32000000D03*
X47413306Y-27152032D03*
X43500370Y-25500316D03*
X46003049Y-32501122D03*
X69500476Y-35999854D03*
X70870305Y-36092142D03*
X68000000Y-33853631D03*
D21*
X78000000Y-36000000D02*
X78000000Y-34971636D01*
X78000000Y-34971636D02*
X77000000Y-33971636D01*
X77000000Y-33971636D02*
X77000000Y-32940000D01*
X77000000Y-32940000D02*
X77000000Y-33990000D01*
X77000000Y-33990000D02*
X76239037Y-34750963D01*
X76239037Y-34750963D02*
X72400988Y-34750963D01*
X71049999Y-33399974D02*
X70650025Y-33000000D01*
X72400988Y-34750963D02*
X71725026Y-34075001D01*
X71725026Y-34075001D02*
X71139999Y-34075001D01*
X71139999Y-34075001D02*
X71049999Y-33985001D01*
X71049999Y-33985001D02*
X71049999Y-33399974D01*
X70650025Y-33000000D02*
X70000000Y-33000000D01*
X70000000Y-33000000D02*
X68944178Y-33000000D01*
X68944178Y-33000000D02*
X68767493Y-32823315D01*
X68767493Y-32823315D02*
X68767493Y-31834671D01*
X52420000Y-32940000D02*
X52420000Y-33618780D01*
X52420000Y-33618780D02*
X51257274Y-34781506D01*
X51257274Y-34781506D02*
X48200503Y-34781506D01*
X48200503Y-34781506D02*
X47776239Y-34781506D01*
X65500000Y-25350000D02*
X64045384Y-25350000D01*
X64045384Y-25350000D02*
X63153679Y-24458295D01*
X62000000Y-23304616D02*
X62000000Y-22550000D01*
X63153679Y-24458295D02*
X63153679Y-23877114D01*
X63153679Y-23877114D02*
X62905614Y-23629049D01*
X62324433Y-23629049D02*
X62000000Y-23304616D01*
X62905614Y-23629049D02*
X62324433Y-23629049D01*
X55000000Y-30334998D02*
X55000000Y-30094998D01*
X55000000Y-30094998D02*
X52667709Y-27762707D01*
X52667709Y-27762707D02*
X48995256Y-27762707D01*
X48995256Y-27762707D02*
X47197162Y-25964613D01*
X47197162Y-25964613D02*
X47197162Y-25277539D01*
X47197162Y-25277539D02*
X47196638Y-25277015D01*
X55000000Y-30500000D02*
X55000000Y-30835000D01*
X65500000Y-25350000D02*
X62038002Y-25350000D01*
X62038002Y-25350000D02*
X61288001Y-26100001D01*
X57809672Y-28529999D02*
X56804999Y-28529999D01*
X61288001Y-26100001D02*
X60239670Y-26100001D01*
X60239670Y-26100001D02*
X57809672Y-28529999D01*
X56804999Y-28529999D02*
X55000000Y-30334998D01*
X55000000Y-30334998D02*
X55000000Y-30500000D01*
X55000000Y-30835000D02*
X52895000Y-32940000D01*
X52895000Y-32940000D02*
X52420000Y-32940000D01*
X39500000Y-28500000D02*
X40389274Y-28500000D01*
X40389274Y-28500000D02*
X42030975Y-26858299D01*
X42030975Y-26858299D02*
X43851094Y-26858299D01*
X43851094Y-26858299D02*
X43855310Y-26854083D01*
X48954000Y-29130000D02*
X48202369Y-29130000D01*
X48202369Y-29130000D02*
X45852383Y-26780014D01*
X45852383Y-26780014D02*
X45552384Y-26480015D01*
X67500000Y-31000000D02*
X70000000Y-31000000D01*
X67500000Y-23000000D02*
X70000000Y-23000000D01*
X70000000Y-33000000D02*
X70000000Y-31000000D01*
X70000000Y-31000000D02*
X70000000Y-29000000D01*
X70000000Y-29000000D02*
X70000000Y-27000000D01*
X70000000Y-27000000D02*
X70000000Y-25000000D01*
X70000000Y-23000000D02*
X70000000Y-25000000D01*
X67500000Y-31000000D02*
X67500000Y-28650000D01*
X65500000Y-23000000D02*
X65500000Y-23200000D01*
X65500000Y-23200000D02*
X67500000Y-25200000D01*
X67500000Y-25200000D02*
X67500000Y-25350000D01*
X67500000Y-25350000D02*
X67500000Y-26350000D01*
X67500000Y-26350000D02*
X67241867Y-26608133D01*
X67241867Y-26608133D02*
X64933832Y-26608133D01*
X64933832Y-26608133D02*
X64633833Y-26908132D01*
X65500000Y-31000000D02*
X65500000Y-28650000D01*
X65500000Y-28650000D02*
X65500000Y-28000000D01*
X65500000Y-28000000D02*
X66000000Y-27500000D01*
D22*
X52500000Y-26500000D02*
X52500000Y-25500000D01*
X52500000Y-25500000D02*
X51500000Y-24500000D01*
X52500000Y-24500000D02*
X52500000Y-25500000D01*
X52500000Y-22500000D02*
X52500000Y-23500000D01*
X57500000Y-26500000D02*
X57500000Y-27500000D01*
X57500000Y-24500000D02*
X57500000Y-25500000D01*
X57500000Y-22500000D02*
X57500000Y-23500000D01*
D21*
X48954000Y-31670000D02*
X47944459Y-31670000D01*
X47944459Y-31670000D02*
X47536803Y-31262344D01*
X47536803Y-31262344D02*
X47536803Y-29336673D01*
X36156640Y-21428520D02*
X33451480Y-21428520D01*
X47536803Y-29336673D02*
X44336895Y-26136765D01*
X40864885Y-26136765D02*
X36156640Y-21428520D01*
X32949999Y-21930001D02*
X32100000Y-22780000D01*
X44336895Y-26136765D02*
X40864885Y-26136765D01*
X33451480Y-21428520D02*
X32949999Y-21930001D01*
D22*
X72000000Y-25000000D02*
X73500000Y-25000000D01*
X73500000Y-25000000D02*
X74000000Y-24500000D01*
X77000000Y-25320000D02*
X74680000Y-23000000D01*
X74680000Y-23000000D02*
X72000000Y-23000000D01*
X72000000Y-33000000D02*
X72997452Y-33000000D01*
X72997452Y-33000000D02*
X73998414Y-34000962D01*
X70500000Y-21799365D02*
X64625881Y-21799365D01*
X72000000Y-23000000D02*
X72000000Y-22875000D01*
X72000000Y-22875000D02*
X70924365Y-21799365D01*
X70924365Y-21799365D02*
X70500000Y-21799365D01*
X72000000Y-25000000D02*
X72000000Y-23000000D01*
X72000000Y-27000000D02*
X72000000Y-25000000D01*
X72000000Y-29000000D02*
X72000000Y-27000000D01*
X72000000Y-31000000D02*
X72000000Y-29000000D01*
X72000000Y-33000000D02*
X72000000Y-31000000D01*
X74000000Y-33999376D02*
X73998414Y-34000962D01*
X64625881Y-21799365D02*
X63752992Y-22672254D01*
X57820000Y-31670000D02*
X56745000Y-31670000D01*
X56745000Y-31670000D02*
X56500000Y-31915000D01*
X56500000Y-31915000D02*
X56500000Y-34500000D01*
D23*
X36532494Y-29831797D02*
X36532494Y-29407533D01*
X36532494Y-31047506D02*
X36532494Y-29831797D01*
X34640000Y-32940000D02*
X36532494Y-31047506D01*
D21*
X35730001Y-36630001D02*
X35778453Y-36581549D01*
X32700453Y-36581549D02*
X33501547Y-36581549D01*
X31547999Y-36630001D02*
X32652001Y-36630001D01*
X33501547Y-36581549D02*
X33549999Y-36630001D01*
X33549999Y-36630001D02*
X35730001Y-36630001D01*
X32100000Y-25320000D02*
X30610898Y-26809102D01*
X30610898Y-26809102D02*
X30610898Y-36077077D01*
X30610898Y-36077077D02*
X31115370Y-36581549D01*
X31115370Y-36581549D02*
X31499547Y-36581549D01*
X31499547Y-36581549D02*
X31547999Y-36630001D01*
X32652001Y-36630001D02*
X32700453Y-36581549D01*
X35778453Y-36581549D02*
X60899627Y-36581549D01*
X60899627Y-36581549D02*
X62176046Y-35305130D01*
X62176046Y-35305130D02*
X62476045Y-35005131D01*
X59500000Y-25370542D02*
X59685111Y-25555653D01*
X59500000Y-24450000D02*
X59500000Y-25370542D01*
X77000000Y-27860000D02*
X75640000Y-26500000D01*
X75640000Y-26500000D02*
X75000000Y-26500000D01*
X60169400Y-29740266D02*
X60169400Y-28378126D01*
X61738515Y-31309381D02*
X60169400Y-29740266D01*
X60169400Y-28378126D02*
X60701201Y-27846325D01*
X61738515Y-33467100D02*
X61738515Y-31309381D01*
X43381516Y-35381516D02*
X59824099Y-35381516D01*
X41500000Y-33500000D02*
X43381516Y-35381516D01*
X60701201Y-27846325D02*
X61001200Y-27546326D01*
X59824099Y-35381516D02*
X61738515Y-33467100D01*
X40181538Y-36181538D02*
X60155477Y-36181538D01*
X61300130Y-28800354D02*
X61000131Y-28500355D01*
X37500000Y-33500000D02*
X40181538Y-36181538D01*
X60155477Y-36181538D02*
X62875517Y-33461498D01*
X62875517Y-33461498D02*
X62875517Y-30375741D01*
X62875517Y-30375741D02*
X61300130Y-28800354D01*
X59989788Y-35781527D02*
X62303693Y-33467622D01*
X62303693Y-30803660D02*
X61300058Y-29800025D01*
X39500000Y-33500000D02*
X41781527Y-35781527D01*
X61300058Y-29800025D02*
X61000059Y-29500026D01*
X62303693Y-33467622D02*
X62303693Y-30803660D01*
X41781527Y-35781527D02*
X59989788Y-35781527D01*
X62000000Y-24450000D02*
X62000000Y-24500000D01*
X62000000Y-24500000D02*
X61000000Y-25500000D01*
X59500000Y-22550000D02*
X59800000Y-22550000D01*
X59800000Y-22550000D02*
X61700000Y-24450000D01*
X61700000Y-24450000D02*
X62000000Y-24450000D01*
X59801681Y-33702065D02*
X59501682Y-34002064D01*
X61000000Y-32503746D02*
X59801681Y-33702065D01*
X61000000Y-32000000D02*
X61000000Y-32503746D01*
X50073898Y-30990414D02*
X50498162Y-30990414D01*
X49981914Y-30990414D02*
X50073898Y-30990414D01*
X49391500Y-30400000D02*
X49981914Y-30990414D01*
X48954000Y-30400000D02*
X49391500Y-30400000D01*
X52420000Y-29130000D02*
X51072728Y-29130000D01*
X50186318Y-28243590D02*
X48504864Y-28243590D01*
X51072728Y-29130000D02*
X50186318Y-28243590D01*
X48504864Y-28243590D02*
X47413306Y-27152032D01*
D23*
X45761590Y-25500316D02*
X47113307Y-26852033D01*
X47113307Y-26852033D02*
X47413306Y-27152032D01*
X43500370Y-25500316D02*
X45761590Y-25500316D01*
D21*
X52420000Y-30400000D02*
X52420000Y-29130000D01*
X43530000Y-30400000D02*
X39600000Y-30400000D01*
X39600000Y-30400000D02*
X39500000Y-30500000D01*
X43530000Y-31670000D02*
X43967500Y-31670000D01*
X43967500Y-31670000D02*
X44798622Y-32501122D01*
X44798622Y-32501122D02*
X46003049Y-32501122D01*
X43530000Y-30400000D02*
X43967500Y-30400000D01*
X46003049Y-32435549D02*
X46003049Y-32501122D01*
X43967500Y-30400000D02*
X46003049Y-32435549D01*
X46003049Y-32501122D02*
X46003049Y-31165549D01*
X46003049Y-31165549D02*
X43967500Y-29130000D01*
X43967500Y-29130000D02*
X43530000Y-29130000D01*
X43530000Y-32940000D02*
X45564171Y-32940000D01*
X45564171Y-32940000D02*
X46003049Y-32501122D01*
X51945000Y-31670000D02*
X49433495Y-34181505D01*
X40350000Y-32400000D02*
X39500000Y-32400000D01*
X41373404Y-32400000D02*
X40350000Y-32400000D01*
X43154909Y-34181505D02*
X41373404Y-32400000D01*
X52420000Y-31670000D02*
X51945000Y-31670000D01*
X49433495Y-34181505D02*
X43154909Y-34181505D01*
X39500000Y-26500000D02*
X39498685Y-26500000D01*
X39498685Y-26500000D02*
X38318685Y-25320000D01*
X38318685Y-25320000D02*
X34640000Y-25320000D01*
X38000000Y-28000000D02*
X39500000Y-26500000D01*
X38000000Y-31750000D02*
X38000000Y-28000000D01*
X39500000Y-32400000D02*
X38650000Y-32400000D01*
X38650000Y-32400000D02*
X38000000Y-31750000D01*
X39200000Y-32400000D02*
X39500000Y-32400000D01*
X34960000Y-25000000D02*
X34640000Y-25320000D01*
X63628952Y-32808129D02*
X66820677Y-35999854D01*
X59550090Y-31684910D02*
X59550090Y-28065954D01*
X66820677Y-35999854D02*
X69076212Y-35999854D01*
X61719603Y-26946316D02*
X63628952Y-28855665D01*
X60669728Y-26946316D02*
X61719603Y-26946316D01*
X59550090Y-28065954D02*
X60669728Y-26946316D01*
X58295000Y-32940000D02*
X59550090Y-31684910D01*
X57820000Y-32940000D02*
X58295000Y-32940000D01*
X63628952Y-28855665D02*
X63628952Y-32808129D01*
X69076212Y-35999854D02*
X69500476Y-35999854D01*
X57820000Y-29130000D02*
X57820000Y-29085369D01*
X57820000Y-29085369D02*
X60359064Y-26546305D01*
X60359064Y-26546305D02*
X62078486Y-26546305D01*
X64028963Y-28496782D02*
X64028963Y-32642440D01*
X62078486Y-26546305D02*
X64028963Y-28496782D01*
X64028963Y-32642440D02*
X66736534Y-35350011D01*
X66736534Y-35350011D02*
X70552438Y-35350011D01*
X70552438Y-35350011D02*
X70870305Y-35667878D01*
X70870305Y-35667878D02*
X70870305Y-36092142D01*
X73950000Y-36000000D02*
X75800000Y-36000000D01*
X72050000Y-36000000D02*
X72050000Y-35700000D01*
X71500000Y-35150000D02*
X71200000Y-35150000D01*
X72050000Y-35700000D02*
X71500000Y-35150000D01*
X71200000Y-35150000D02*
X69975001Y-33925001D01*
X69975001Y-33925001D02*
X68071370Y-33925001D01*
X68071370Y-33925001D02*
X68000000Y-33853631D01*
D24*
G36*
X78956300Y-35019919D02*
X78894953Y-34958572D01*
X78703574Y-34879300D01*
X78371475Y-34879300D01*
X78241300Y-35009475D01*
X78241300Y-35758700D01*
X78261300Y-35758700D01*
X78261300Y-36241300D01*
X78241300Y-36241300D01*
X78241300Y-36261300D01*
X77758700Y-36261300D01*
X77758700Y-36241300D01*
X77009475Y-36241300D01*
X76879300Y-36371475D01*
X76879300Y-36703573D01*
X76958572Y-36894953D01*
X77060919Y-36997300D01*
X35908866Y-36997300D01*
X35913433Y-36994249D01*
X60899627Y-36994249D01*
X61057561Y-36962834D01*
X61191450Y-36873372D01*
X62080535Y-35984287D01*
X62824949Y-35984287D01*
X62925627Y-36227945D01*
X63111885Y-36414528D01*
X63355367Y-36515631D01*
X63619005Y-36515861D01*
X63862663Y-36415183D01*
X64049246Y-36228925D01*
X64150349Y-35985443D01*
X64150579Y-35721805D01*
X64049901Y-35478147D01*
X63863643Y-35291564D01*
X63620161Y-35190461D01*
X63356523Y-35190231D01*
X63112865Y-35290909D01*
X62926282Y-35477167D01*
X62825179Y-35720649D01*
X62824949Y-35984287D01*
X62080535Y-35984287D01*
X62447015Y-35617807D01*
X62597384Y-35617938D01*
X62822659Y-35524856D01*
X62995164Y-35352651D01*
X63088639Y-35127539D01*
X63088852Y-34883792D01*
X62995770Y-34658517D01*
X62823565Y-34486012D01*
X62598453Y-34392537D01*
X62528185Y-34392476D01*
X63167340Y-33753321D01*
X63233340Y-33654544D01*
X63256802Y-33619431D01*
X63288217Y-33461498D01*
X63288217Y-33026750D01*
X63337129Y-33099952D01*
X66528854Y-36291677D01*
X66662743Y-36381139D01*
X66820677Y-36412554D01*
X69046722Y-36412554D01*
X69152956Y-36518973D01*
X69378068Y-36612448D01*
X69621815Y-36612661D01*
X69847090Y-36519579D01*
X70019595Y-36347374D01*
X70113070Y-36122262D01*
X70113283Y-35878515D01*
X70065434Y-35762711D01*
X70343675Y-35762711D01*
X70257711Y-35969734D01*
X70257498Y-36213481D01*
X70350580Y-36438756D01*
X70522785Y-36611261D01*
X70747897Y-36704736D01*
X70991644Y-36704949D01*
X71216919Y-36611867D01*
X71381174Y-36447898D01*
X71381174Y-36650000D01*
X71402978Y-36765880D01*
X71471463Y-36872308D01*
X71575959Y-36943707D01*
X71700000Y-36968826D01*
X72400000Y-36968826D01*
X72515880Y-36947022D01*
X72622308Y-36878537D01*
X72693707Y-36774041D01*
X72718826Y-36650000D01*
X72718826Y-35350000D01*
X73281174Y-35350000D01*
X73281174Y-36650000D01*
X73302978Y-36765880D01*
X73371463Y-36872308D01*
X73475959Y-36943707D01*
X73600000Y-36968826D01*
X74300000Y-36968826D01*
X74415880Y-36947022D01*
X74522308Y-36878537D01*
X74593707Y-36774041D01*
X74618826Y-36650000D01*
X74618826Y-36412700D01*
X74881174Y-36412700D01*
X74881174Y-36600000D01*
X74902978Y-36715880D01*
X74971463Y-36822308D01*
X75075959Y-36893707D01*
X75200000Y-36918826D01*
X76400000Y-36918826D01*
X76515880Y-36897022D01*
X76622308Y-36828537D01*
X76693707Y-36724041D01*
X76718826Y-36600000D01*
X76718826Y-35400000D01*
X76699338Y-35296427D01*
X76879300Y-35296427D01*
X76879300Y-35628525D01*
X77009475Y-35758700D01*
X77758700Y-35758700D01*
X77758700Y-35009475D01*
X77628525Y-34879300D01*
X77296426Y-34879300D01*
X77105047Y-34958572D01*
X76958572Y-35105047D01*
X76879300Y-35296427D01*
X76699338Y-35296427D01*
X76697022Y-35284120D01*
X76628537Y-35177692D01*
X76524041Y-35106293D01*
X76400000Y-35081174D01*
X75200000Y-35081174D01*
X75084120Y-35102978D01*
X74977692Y-35171463D01*
X74906293Y-35275959D01*
X74881174Y-35400000D01*
X74881174Y-35587300D01*
X74618826Y-35587300D01*
X74618826Y-35350000D01*
X74597022Y-35234120D01*
X74528537Y-35127692D01*
X74424041Y-35056293D01*
X74300000Y-35031174D01*
X73600000Y-35031174D01*
X73484120Y-35052978D01*
X73377692Y-35121463D01*
X73306293Y-35225959D01*
X73281174Y-35350000D01*
X72718826Y-35350000D01*
X72697022Y-35234120D01*
X72628537Y-35127692D01*
X72524041Y-35056293D01*
X72400000Y-35031174D01*
X71964820Y-35031174D01*
X71791823Y-34858177D01*
X71657934Y-34768715D01*
X71500000Y-34737300D01*
X71370946Y-34737300D01*
X70727863Y-34094217D01*
X70794953Y-34066428D01*
X70941428Y-33919953D01*
X71020700Y-33728573D01*
X71020700Y-33371475D01*
X70890525Y-33241300D01*
X70241300Y-33241300D01*
X70241300Y-33261300D01*
X69758700Y-33261300D01*
X69758700Y-33241300D01*
X69109475Y-33241300D01*
X68979300Y-33371475D01*
X68979300Y-33512301D01*
X68521908Y-33512301D01*
X68519725Y-33507017D01*
X68347520Y-33334512D01*
X68122408Y-33241037D01*
X67878661Y-33240824D01*
X67653386Y-33333906D01*
X67480881Y-33506111D01*
X67387406Y-33731223D01*
X67387193Y-33974970D01*
X67480275Y-34200245D01*
X67652480Y-34372750D01*
X67877592Y-34466225D01*
X68121339Y-34466438D01*
X68346614Y-34373356D01*
X68382331Y-34337701D01*
X69804055Y-34337701D01*
X70403665Y-34937311D01*
X66907480Y-34937311D01*
X64441663Y-32471494D01*
X64441663Y-28496782D01*
X64410248Y-28338849D01*
X64410248Y-28338848D01*
X64320786Y-28204959D01*
X62370309Y-26254482D01*
X62236420Y-26165020D01*
X62078486Y-26133605D01*
X61812700Y-26133605D01*
X61812700Y-25270946D01*
X61964820Y-25118826D01*
X62650000Y-25118826D01*
X62765880Y-25097022D01*
X62872308Y-25028537D01*
X62943707Y-24924041D01*
X62968826Y-24800000D01*
X62968826Y-24446426D01*
X64329300Y-24446426D01*
X64329300Y-24978525D01*
X64459475Y-25108700D01*
X65258700Y-25108700D01*
X65258700Y-24159475D01*
X65128525Y-24029300D01*
X64746427Y-24029300D01*
X64555047Y-24108572D01*
X64408572Y-24255047D01*
X64329300Y-24446426D01*
X62968826Y-24446426D01*
X62968826Y-24100000D01*
X62947022Y-23984120D01*
X62878537Y-23877692D01*
X62774041Y-23806293D01*
X62650000Y-23781174D01*
X61812700Y-23781174D01*
X61812700Y-21809475D01*
X62241300Y-21809475D01*
X62241300Y-22375000D01*
X62261300Y-22375000D01*
X62261300Y-22725000D01*
X62241300Y-22725000D01*
X62241300Y-23290525D01*
X62371475Y-23420700D01*
X62753573Y-23420700D01*
X62944953Y-23341428D01*
X63091428Y-23194953D01*
X63170700Y-23003574D01*
X63170700Y-22998374D01*
X63190855Y-23047153D01*
X63377113Y-23233736D01*
X63620595Y-23334839D01*
X63884233Y-23335069D01*
X64127891Y-23234391D01*
X64314474Y-23048133D01*
X64415577Y-22804651D01*
X64415638Y-22734676D01*
X64681174Y-22469139D01*
X64681174Y-23625000D01*
X64702978Y-23740880D01*
X64771463Y-23847308D01*
X64875959Y-23918707D01*
X65000000Y-23943826D01*
X65660180Y-23943826D01*
X65808565Y-24092211D01*
X65741300Y-24159475D01*
X65741300Y-25108700D01*
X65761300Y-25108700D01*
X65761300Y-25591300D01*
X65741300Y-25591300D01*
X65741300Y-25611300D01*
X65258700Y-25611300D01*
X65258700Y-25591300D01*
X64459475Y-25591300D01*
X64329300Y-25721475D01*
X64329300Y-26253574D01*
X64370838Y-26353856D01*
X64287219Y-26388407D01*
X64114714Y-26560612D01*
X64021239Y-26785724D01*
X64021026Y-27029471D01*
X64114108Y-27254746D01*
X64286313Y-27427251D01*
X64511425Y-27520726D01*
X64755172Y-27520939D01*
X64980447Y-27427857D01*
X65152952Y-27255652D01*
X65246427Y-27030540D01*
X65246435Y-27020833D01*
X65612757Y-27020833D01*
X65480881Y-27152480D01*
X65387406Y-27377592D01*
X65387274Y-27529080D01*
X65385180Y-27531174D01*
X64850000Y-27531174D01*
X64734120Y-27552978D01*
X64627692Y-27621463D01*
X64556293Y-27725959D01*
X64531174Y-27850000D01*
X64531174Y-29450000D01*
X64552978Y-29565880D01*
X64621463Y-29672308D01*
X64725959Y-29743707D01*
X64850000Y-29768826D01*
X65087300Y-29768826D01*
X65087300Y-30056174D01*
X65000000Y-30056174D01*
X64884120Y-30077978D01*
X64777692Y-30146463D01*
X64706293Y-30250959D01*
X64681174Y-30375000D01*
X64681174Y-31625000D01*
X64702978Y-31740880D01*
X64771463Y-31847308D01*
X64875959Y-31918707D01*
X65000000Y-31943826D01*
X66000000Y-31943826D01*
X66115880Y-31922022D01*
X66222308Y-31853537D01*
X66293707Y-31749041D01*
X66318826Y-31625000D01*
X66318826Y-31371475D01*
X66479300Y-31371475D01*
X66479300Y-31728573D01*
X66558572Y-31919953D01*
X66705047Y-32066428D01*
X66896426Y-32145700D01*
X67128525Y-32145700D01*
X67258700Y-32015525D01*
X67258700Y-31241300D01*
X67741300Y-31241300D01*
X67741300Y-32015525D01*
X67871475Y-32145700D01*
X68103574Y-32145700D01*
X68294953Y-32066428D01*
X68441428Y-31919953D01*
X68520700Y-31728573D01*
X68520700Y-31371475D01*
X68979300Y-31371475D01*
X68979300Y-31728573D01*
X69058572Y-31919953D01*
X69138619Y-32000000D01*
X69058572Y-32080047D01*
X68979300Y-32271427D01*
X68979300Y-32628525D01*
X69109475Y-32758700D01*
X69758700Y-32758700D01*
X69758700Y-31241300D01*
X70241300Y-31241300D01*
X70241300Y-32758700D01*
X70890525Y-32758700D01*
X71020700Y-32628525D01*
X71020700Y-32271427D01*
X70941428Y-32080047D01*
X70861381Y-32000000D01*
X70941428Y-31919953D01*
X71020700Y-31728573D01*
X71020700Y-31371475D01*
X70890525Y-31241300D01*
X70241300Y-31241300D01*
X69758700Y-31241300D01*
X69109475Y-31241300D01*
X68979300Y-31371475D01*
X68520700Y-31371475D01*
X68390525Y-31241300D01*
X67741300Y-31241300D01*
X67258700Y-31241300D01*
X66609475Y-31241300D01*
X66479300Y-31371475D01*
X66318826Y-31371475D01*
X66318826Y-30375000D01*
X66297022Y-30259120D01*
X66228537Y-30152692D01*
X66124041Y-30081293D01*
X66000000Y-30056174D01*
X65912700Y-30056174D01*
X65912700Y-29768826D01*
X66150000Y-29768826D01*
X66265880Y-29747022D01*
X66372308Y-29678537D01*
X66377758Y-29670561D01*
X66408572Y-29744953D01*
X66555047Y-29891428D01*
X66690913Y-29947706D01*
X66558572Y-30080047D01*
X66479300Y-30271427D01*
X66479300Y-30628525D01*
X66609475Y-30758700D01*
X67258700Y-30758700D01*
X67258700Y-29984475D01*
X67186725Y-29912500D01*
X67258700Y-29840525D01*
X67258700Y-28891300D01*
X67741300Y-28891300D01*
X67741300Y-29840525D01*
X67813275Y-29912500D01*
X67741300Y-29984475D01*
X67741300Y-30758700D01*
X68390525Y-30758700D01*
X68520700Y-30628525D01*
X68520700Y-30271427D01*
X68441428Y-30080047D01*
X68309087Y-29947706D01*
X68444953Y-29891428D01*
X68591428Y-29744953D01*
X68670700Y-29553574D01*
X68670700Y-29371475D01*
X68979300Y-29371475D01*
X68979300Y-29728573D01*
X69058572Y-29919953D01*
X69138619Y-30000000D01*
X69058572Y-30080047D01*
X68979300Y-30271427D01*
X68979300Y-30628525D01*
X69109475Y-30758700D01*
X69758700Y-30758700D01*
X69758700Y-29241300D01*
X70241300Y-29241300D01*
X70241300Y-30758700D01*
X70890525Y-30758700D01*
X71020700Y-30628525D01*
X71020700Y-30271427D01*
X70941428Y-30080047D01*
X70861381Y-30000000D01*
X70941428Y-29919953D01*
X71020700Y-29728573D01*
X71020700Y-29371475D01*
X70890525Y-29241300D01*
X70241300Y-29241300D01*
X69758700Y-29241300D01*
X69109475Y-29241300D01*
X68979300Y-29371475D01*
X68670700Y-29371475D01*
X68670700Y-29021475D01*
X68540525Y-28891300D01*
X67741300Y-28891300D01*
X67258700Y-28891300D01*
X67238700Y-28891300D01*
X67238700Y-28408700D01*
X67258700Y-28408700D01*
X67258700Y-27459475D01*
X67741300Y-27459475D01*
X67741300Y-28408700D01*
X68540525Y-28408700D01*
X68670700Y-28278525D01*
X68670700Y-27746426D01*
X68591428Y-27555047D01*
X68444953Y-27408572D01*
X68355393Y-27371475D01*
X68979300Y-27371475D01*
X68979300Y-27728573D01*
X69058572Y-27919953D01*
X69138619Y-28000000D01*
X69058572Y-28080047D01*
X68979300Y-28271427D01*
X68979300Y-28628525D01*
X69109475Y-28758700D01*
X69758700Y-28758700D01*
X69758700Y-27241300D01*
X70241300Y-27241300D01*
X70241300Y-28758700D01*
X70890525Y-28758700D01*
X71020700Y-28628525D01*
X71020700Y-28271427D01*
X70941428Y-28080047D01*
X70861381Y-28000000D01*
X70941428Y-27919953D01*
X71020700Y-27728573D01*
X71020700Y-27371475D01*
X70890525Y-27241300D01*
X70241300Y-27241300D01*
X69758700Y-27241300D01*
X69109475Y-27241300D01*
X68979300Y-27371475D01*
X68355393Y-27371475D01*
X68253573Y-27329300D01*
X67871475Y-27329300D01*
X67741300Y-27459475D01*
X67258700Y-27459475D01*
X67128525Y-27329300D01*
X66746427Y-27329300D01*
X66612802Y-27384649D01*
X66612807Y-27378661D01*
X66519725Y-27153386D01*
X66387403Y-27020833D01*
X67241867Y-27020833D01*
X67399801Y-26989418D01*
X67533690Y-26899956D01*
X67791823Y-26641823D01*
X67881285Y-26507934D01*
X67889064Y-26468826D01*
X68150000Y-26468826D01*
X68265880Y-26447022D01*
X68372308Y-26378537D01*
X68443707Y-26274041D01*
X68468826Y-26150000D01*
X68468826Y-25371475D01*
X68979300Y-25371475D01*
X68979300Y-25728573D01*
X69058572Y-25919953D01*
X69138619Y-26000000D01*
X69058572Y-26080047D01*
X68979300Y-26271427D01*
X68979300Y-26628525D01*
X69109475Y-26758700D01*
X69758700Y-26758700D01*
X69758700Y-25241300D01*
X70241300Y-25241300D01*
X70241300Y-26758700D01*
X70890525Y-26758700D01*
X71020700Y-26628525D01*
X71020700Y-26271427D01*
X70941428Y-26080047D01*
X70861381Y-26000000D01*
X70941428Y-25919953D01*
X71020700Y-25728573D01*
X71020700Y-25371475D01*
X70890525Y-25241300D01*
X70241300Y-25241300D01*
X69758700Y-25241300D01*
X69109475Y-25241300D01*
X68979300Y-25371475D01*
X68468826Y-25371475D01*
X68468826Y-24550000D01*
X68447022Y-24434120D01*
X68378537Y-24327692D01*
X68274041Y-24256293D01*
X68150000Y-24231174D01*
X67114820Y-24231174D01*
X67029346Y-24145700D01*
X67128525Y-24145700D01*
X67258700Y-24015525D01*
X67258700Y-23241300D01*
X67741300Y-23241300D01*
X67741300Y-24015525D01*
X67871475Y-24145700D01*
X68103574Y-24145700D01*
X68294953Y-24066428D01*
X68441428Y-23919953D01*
X68520700Y-23728573D01*
X68520700Y-23371475D01*
X68979300Y-23371475D01*
X68979300Y-23728573D01*
X69058572Y-23919953D01*
X69138619Y-24000000D01*
X69058572Y-24080047D01*
X68979300Y-24271427D01*
X68979300Y-24628525D01*
X69109475Y-24758700D01*
X69758700Y-24758700D01*
X69758700Y-23241300D01*
X70241300Y-23241300D01*
X70241300Y-24758700D01*
X70890525Y-24758700D01*
X71020700Y-24628525D01*
X71020700Y-24271427D01*
X70941428Y-24080047D01*
X70861381Y-24000000D01*
X70941428Y-23919953D01*
X71020700Y-23728573D01*
X71020700Y-23371475D01*
X70890525Y-23241300D01*
X70241300Y-23241300D01*
X69758700Y-23241300D01*
X69109475Y-23241300D01*
X68979300Y-23371475D01*
X68520700Y-23371475D01*
X68390525Y-23241300D01*
X67741300Y-23241300D01*
X67258700Y-23241300D01*
X66609475Y-23241300D01*
X66479300Y-23371475D01*
X66479300Y-23595654D01*
X66318826Y-23435180D01*
X66318826Y-22375000D01*
X66306984Y-22312065D01*
X66479300Y-22312065D01*
X66479300Y-22628525D01*
X66609475Y-22758700D01*
X67258700Y-22758700D01*
X67258700Y-22738700D01*
X67741300Y-22738700D01*
X67741300Y-22758700D01*
X68390525Y-22758700D01*
X68520700Y-22628525D01*
X68520700Y-22312065D01*
X68979300Y-22312065D01*
X68979300Y-22628525D01*
X69109475Y-22758700D01*
X69758700Y-22758700D01*
X69758700Y-22738700D01*
X70241300Y-22738700D01*
X70241300Y-22758700D01*
X70890525Y-22758700D01*
X71020700Y-22628525D01*
X71020700Y-22620768D01*
X71130195Y-22730262D01*
X71130195Y-23625000D01*
X71155486Y-23759408D01*
X71234921Y-23882854D01*
X71356125Y-23965670D01*
X71487300Y-23992233D01*
X71487300Y-24007585D01*
X71365592Y-24030486D01*
X71242146Y-24109921D01*
X71159330Y-24231125D01*
X71130195Y-24375000D01*
X71130195Y-25625000D01*
X71155486Y-25759408D01*
X71234921Y-25882854D01*
X71356125Y-25965670D01*
X71487300Y-25992233D01*
X71487300Y-26007585D01*
X71365592Y-26030486D01*
X71242146Y-26109921D01*
X71159330Y-26231125D01*
X71130195Y-26375000D01*
X71130195Y-27625000D01*
X71155486Y-27759408D01*
X71234921Y-27882854D01*
X71356125Y-27965670D01*
X71487300Y-27992233D01*
X71487300Y-28007585D01*
X71365592Y-28030486D01*
X71242146Y-28109921D01*
X71159330Y-28231125D01*
X71130195Y-28375000D01*
X71130195Y-29625000D01*
X71155486Y-29759408D01*
X71234921Y-29882854D01*
X71356125Y-29965670D01*
X71487300Y-29992233D01*
X71487300Y-30007585D01*
X71365592Y-30030486D01*
X71242146Y-30109921D01*
X71159330Y-30231125D01*
X71130195Y-30375000D01*
X71130195Y-31625000D01*
X71155486Y-31759408D01*
X71234921Y-31882854D01*
X71356125Y-31965670D01*
X71487300Y-31992233D01*
X71487300Y-32007585D01*
X71365592Y-32030486D01*
X71242146Y-32109921D01*
X71159330Y-32231125D01*
X71130195Y-32375000D01*
X71130195Y-33625000D01*
X71155486Y-33759408D01*
X71234921Y-33882854D01*
X71356125Y-33965670D01*
X71500000Y-33994805D01*
X72500000Y-33994805D01*
X72634408Y-33969514D01*
X72757854Y-33890079D01*
X72840670Y-33768875D01*
X72869805Y-33625000D01*
X72869805Y-33597421D01*
X73335659Y-34063275D01*
X73335599Y-34132203D01*
X73436277Y-34375861D01*
X73622535Y-34562444D01*
X73866017Y-34663547D01*
X74129655Y-34663777D01*
X74373313Y-34563099D01*
X74559896Y-34376841D01*
X74660999Y-34133359D01*
X74661229Y-33869721D01*
X74560551Y-33626063D01*
X74374293Y-33439480D01*
X74130811Y-33338377D01*
X74060836Y-33338316D01*
X74033995Y-33311475D01*
X75629300Y-33311475D01*
X75629300Y-33893573D01*
X75708572Y-34084953D01*
X75855047Y-34231428D01*
X76046426Y-34310700D01*
X76628525Y-34310700D01*
X76758700Y-34180525D01*
X76758700Y-33181300D01*
X77241300Y-33181300D01*
X77241300Y-34180525D01*
X77371475Y-34310700D01*
X77953574Y-34310700D01*
X78144953Y-34231428D01*
X78291428Y-34084953D01*
X78370700Y-33893573D01*
X78370700Y-33311475D01*
X78240525Y-33181300D01*
X77241300Y-33181300D01*
X76758700Y-33181300D01*
X75759475Y-33181300D01*
X75629300Y-33311475D01*
X74033995Y-33311475D01*
X73359986Y-32637466D01*
X73193654Y-32526327D01*
X72997452Y-32487300D01*
X72869805Y-32487300D01*
X72869805Y-32375000D01*
X72844514Y-32240592D01*
X72765079Y-32117146D01*
X72643875Y-32034330D01*
X72512700Y-32007767D01*
X72512700Y-31992415D01*
X72544523Y-31986427D01*
X75629300Y-31986427D01*
X75629300Y-32568525D01*
X75759475Y-32698700D01*
X76758700Y-32698700D01*
X76758700Y-31699475D01*
X77241300Y-31699475D01*
X77241300Y-32698700D01*
X78240525Y-32698700D01*
X78370700Y-32568525D01*
X78370700Y-31986427D01*
X78291428Y-31795047D01*
X78144953Y-31648572D01*
X77953574Y-31569300D01*
X77371475Y-31569300D01*
X77241300Y-31699475D01*
X76758700Y-31699475D01*
X76628525Y-31569300D01*
X76046426Y-31569300D01*
X75855047Y-31648572D01*
X75708572Y-31795047D01*
X75629300Y-31986427D01*
X72544523Y-31986427D01*
X72634408Y-31969514D01*
X72757854Y-31890079D01*
X72840670Y-31768875D01*
X72869805Y-31625000D01*
X72869805Y-30400000D01*
X75814521Y-30400000D01*
X75903026Y-30844946D01*
X76155068Y-31222153D01*
X76532275Y-31474195D01*
X76977221Y-31562700D01*
X77022779Y-31562700D01*
X77467725Y-31474195D01*
X77844932Y-31222153D01*
X78096974Y-30844946D01*
X78185479Y-30400000D01*
X78096974Y-29955054D01*
X77844932Y-29577847D01*
X77467725Y-29325805D01*
X77022779Y-29237300D01*
X76977221Y-29237300D01*
X76532275Y-29325805D01*
X76155068Y-29577847D01*
X75903026Y-29955054D01*
X75814521Y-30400000D01*
X72869805Y-30400000D01*
X72869805Y-30375000D01*
X72844514Y-30240592D01*
X72765079Y-30117146D01*
X72643875Y-30034330D01*
X72512700Y-30007767D01*
X72512700Y-29992415D01*
X72634408Y-29969514D01*
X72757854Y-29890079D01*
X72840670Y-29768875D01*
X72869805Y-29625000D01*
X72869805Y-28375000D01*
X72844514Y-28240592D01*
X72765079Y-28117146D01*
X72643875Y-28034330D01*
X72512700Y-28007767D01*
X72512700Y-27992415D01*
X72634408Y-27969514D01*
X72757854Y-27890079D01*
X72840670Y-27768875D01*
X72869805Y-27625000D01*
X72869805Y-26621339D01*
X74387193Y-26621339D01*
X74480275Y-26846614D01*
X74652480Y-27019119D01*
X74877592Y-27112594D01*
X75121339Y-27112807D01*
X75346614Y-27019725D01*
X75453825Y-26912700D01*
X75469054Y-26912700D01*
X75930416Y-27374062D01*
X75903026Y-27415054D01*
X75814521Y-27860000D01*
X75903026Y-28304946D01*
X76155068Y-28682153D01*
X76532275Y-28934195D01*
X76977221Y-29022700D01*
X77022779Y-29022700D01*
X77467725Y-28934195D01*
X77844932Y-28682153D01*
X78096974Y-28304946D01*
X78185479Y-27860000D01*
X78096974Y-27415054D01*
X77844932Y-27037847D01*
X77467725Y-26785805D01*
X77022779Y-26697300D01*
X76977221Y-26697300D01*
X76532275Y-26785805D01*
X76518593Y-26794947D01*
X75931823Y-26208177D01*
X75797934Y-26118715D01*
X75640000Y-26087300D01*
X75453754Y-26087300D01*
X75347520Y-25980881D01*
X75122408Y-25887406D01*
X74878661Y-25887193D01*
X74653386Y-25980275D01*
X74480881Y-26152480D01*
X74387406Y-26377592D01*
X74387193Y-26621339D01*
X72869805Y-26621339D01*
X72869805Y-26375000D01*
X72844514Y-26240592D01*
X72765079Y-26117146D01*
X72643875Y-26034330D01*
X72512700Y-26007767D01*
X72512700Y-25992415D01*
X72634408Y-25969514D01*
X72757854Y-25890079D01*
X72840670Y-25768875D01*
X72869805Y-25625000D01*
X72869805Y-25512700D01*
X73500000Y-25512700D01*
X73696202Y-25473673D01*
X73862534Y-25362534D01*
X74062313Y-25162755D01*
X74131241Y-25162815D01*
X74374899Y-25062137D01*
X74561482Y-24875879D01*
X74662585Y-24632397D01*
X74662815Y-24368759D01*
X74562137Y-24125101D01*
X74375879Y-23938518D01*
X74132397Y-23837415D01*
X73868759Y-23837185D01*
X73625101Y-23937863D01*
X73438518Y-24124121D01*
X73337415Y-24367603D01*
X73337354Y-24437578D01*
X73287632Y-24487300D01*
X72869805Y-24487300D01*
X72869805Y-24375000D01*
X72844514Y-24240592D01*
X72765079Y-24117146D01*
X72643875Y-24034330D01*
X72512700Y-24007767D01*
X72512700Y-23992415D01*
X72634408Y-23969514D01*
X72757854Y-23890079D01*
X72840670Y-23768875D01*
X72869805Y-23625000D01*
X72869805Y-23512700D01*
X74467632Y-23512700D01*
X75848387Y-24893454D01*
X75763542Y-25320000D01*
X75855853Y-25784080D01*
X76118734Y-26177508D01*
X76512162Y-26440389D01*
X76976242Y-26532700D01*
X77023758Y-26532700D01*
X77487838Y-26440389D01*
X77881266Y-26177508D01*
X78144147Y-25784080D01*
X78236458Y-25320000D01*
X78144147Y-24855920D01*
X77881266Y-24462492D01*
X77487838Y-24199611D01*
X77023758Y-24107300D01*
X76976242Y-24107300D01*
X76589329Y-24184262D01*
X75042534Y-22637466D01*
X74876202Y-22526327D01*
X74680000Y-22487300D01*
X72869805Y-22487300D01*
X72869805Y-22375000D01*
X72844514Y-22240592D01*
X72765079Y-22117146D01*
X72643875Y-22034330D01*
X72500000Y-22005195D01*
X71855262Y-22005195D01*
X71286899Y-21436831D01*
X71120567Y-21325692D01*
X70924365Y-21286665D01*
X64625881Y-21286665D01*
X64429679Y-21325692D01*
X64263347Y-21436831D01*
X64263345Y-21436834D01*
X63690679Y-22009499D01*
X63621751Y-22009439D01*
X63378093Y-22110117D01*
X63191510Y-22296375D01*
X63170700Y-22346491D01*
X63170700Y-22308698D01*
X63106827Y-22308698D01*
X63170700Y-22244825D01*
X63170700Y-22096426D01*
X63091428Y-21905047D01*
X62944953Y-21758572D01*
X62753573Y-21679300D01*
X62371475Y-21679300D01*
X62241300Y-21809475D01*
X61812700Y-21809475D01*
X61812700Y-21262700D01*
X78956300Y-21262700D01*
X78956300Y-35019919D01*
X78956300Y-35019919D01*
G37*
X78956300Y-35019919D02*
X78894953Y-34958572D01*
X78703574Y-34879300D01*
X78371475Y-34879300D01*
X78241300Y-35009475D01*
X78241300Y-35758700D01*
X78261300Y-35758700D01*
X78261300Y-36241300D01*
X78241300Y-36241300D01*
X78241300Y-36261300D01*
X77758700Y-36261300D01*
X77758700Y-36241300D01*
X77009475Y-36241300D01*
X76879300Y-36371475D01*
X76879300Y-36703573D01*
X76958572Y-36894953D01*
X77060919Y-36997300D01*
X35908866Y-36997300D01*
X35913433Y-36994249D01*
X60899627Y-36994249D01*
X61057561Y-36962834D01*
X61191450Y-36873372D01*
X62080535Y-35984287D01*
X62824949Y-35984287D01*
X62925627Y-36227945D01*
X63111885Y-36414528D01*
X63355367Y-36515631D01*
X63619005Y-36515861D01*
X63862663Y-36415183D01*
X64049246Y-36228925D01*
X64150349Y-35985443D01*
X64150579Y-35721805D01*
X64049901Y-35478147D01*
X63863643Y-35291564D01*
X63620161Y-35190461D01*
X63356523Y-35190231D01*
X63112865Y-35290909D01*
X62926282Y-35477167D01*
X62825179Y-35720649D01*
X62824949Y-35984287D01*
X62080535Y-35984287D01*
X62447015Y-35617807D01*
X62597384Y-35617938D01*
X62822659Y-35524856D01*
X62995164Y-35352651D01*
X63088639Y-35127539D01*
X63088852Y-34883792D01*
X62995770Y-34658517D01*
X62823565Y-34486012D01*
X62598453Y-34392537D01*
X62528185Y-34392476D01*
X63167340Y-33753321D01*
X63233340Y-33654544D01*
X63256802Y-33619431D01*
X63288217Y-33461498D01*
X63288217Y-33026750D01*
X63337129Y-33099952D01*
X66528854Y-36291677D01*
X66662743Y-36381139D01*
X66820677Y-36412554D01*
X69046722Y-36412554D01*
X69152956Y-36518973D01*
X69378068Y-36612448D01*
X69621815Y-36612661D01*
X69847090Y-36519579D01*
X70019595Y-36347374D01*
X70113070Y-36122262D01*
X70113283Y-35878515D01*
X70065434Y-35762711D01*
X70343675Y-35762711D01*
X70257711Y-35969734D01*
X70257498Y-36213481D01*
X70350580Y-36438756D01*
X70522785Y-36611261D01*
X70747897Y-36704736D01*
X70991644Y-36704949D01*
X71216919Y-36611867D01*
X71381174Y-36447898D01*
X71381174Y-36650000D01*
X71402978Y-36765880D01*
X71471463Y-36872308D01*
X71575959Y-36943707D01*
X71700000Y-36968826D01*
X72400000Y-36968826D01*
X72515880Y-36947022D01*
X72622308Y-36878537D01*
X72693707Y-36774041D01*
X72718826Y-36650000D01*
X72718826Y-35350000D01*
X73281174Y-35350000D01*
X73281174Y-36650000D01*
X73302978Y-36765880D01*
X73371463Y-36872308D01*
X73475959Y-36943707D01*
X73600000Y-36968826D01*
X74300000Y-36968826D01*
X74415880Y-36947022D01*
X74522308Y-36878537D01*
X74593707Y-36774041D01*
X74618826Y-36650000D01*
X74618826Y-36412700D01*
X74881174Y-36412700D01*
X74881174Y-36600000D01*
X74902978Y-36715880D01*
X74971463Y-36822308D01*
X75075959Y-36893707D01*
X75200000Y-36918826D01*
X76400000Y-36918826D01*
X76515880Y-36897022D01*
X76622308Y-36828537D01*
X76693707Y-36724041D01*
X76718826Y-36600000D01*
X76718826Y-35400000D01*
X76699338Y-35296427D01*
X76879300Y-35296427D01*
X76879300Y-35628525D01*
X77009475Y-35758700D01*
X77758700Y-35758700D01*
X77758700Y-35009475D01*
X77628525Y-34879300D01*
X77296426Y-34879300D01*
X77105047Y-34958572D01*
X76958572Y-35105047D01*
X76879300Y-35296427D01*
X76699338Y-35296427D01*
X76697022Y-35284120D01*
X76628537Y-35177692D01*
X76524041Y-35106293D01*
X76400000Y-35081174D01*
X75200000Y-35081174D01*
X75084120Y-35102978D01*
X74977692Y-35171463D01*
X74906293Y-35275959D01*
X74881174Y-35400000D01*
X74881174Y-35587300D01*
X74618826Y-35587300D01*
X74618826Y-35350000D01*
X74597022Y-35234120D01*
X74528537Y-35127692D01*
X74424041Y-35056293D01*
X74300000Y-35031174D01*
X73600000Y-35031174D01*
X73484120Y-35052978D01*
X73377692Y-35121463D01*
X73306293Y-35225959D01*
X73281174Y-35350000D01*
X72718826Y-35350000D01*
X72697022Y-35234120D01*
X72628537Y-35127692D01*
X72524041Y-35056293D01*
X72400000Y-35031174D01*
X71964820Y-35031174D01*
X71791823Y-34858177D01*
X71657934Y-34768715D01*
X71500000Y-34737300D01*
X71370946Y-34737300D01*
X70727863Y-34094217D01*
X70794953Y-34066428D01*
X70941428Y-33919953D01*
X71020700Y-33728573D01*
X71020700Y-33371475D01*
X70890525Y-33241300D01*
X70241300Y-33241300D01*
X70241300Y-33261300D01*
X69758700Y-33261300D01*
X69758700Y-33241300D01*
X69109475Y-33241300D01*
X68979300Y-33371475D01*
X68979300Y-33512301D01*
X68521908Y-33512301D01*
X68519725Y-33507017D01*
X68347520Y-33334512D01*
X68122408Y-33241037D01*
X67878661Y-33240824D01*
X67653386Y-33333906D01*
X67480881Y-33506111D01*
X67387406Y-33731223D01*
X67387193Y-33974970D01*
X67480275Y-34200245D01*
X67652480Y-34372750D01*
X67877592Y-34466225D01*
X68121339Y-34466438D01*
X68346614Y-34373356D01*
X68382331Y-34337701D01*
X69804055Y-34337701D01*
X70403665Y-34937311D01*
X66907480Y-34937311D01*
X64441663Y-32471494D01*
X64441663Y-28496782D01*
X64410248Y-28338849D01*
X64410248Y-28338848D01*
X64320786Y-28204959D01*
X62370309Y-26254482D01*
X62236420Y-26165020D01*
X62078486Y-26133605D01*
X61812700Y-26133605D01*
X61812700Y-25270946D01*
X61964820Y-25118826D01*
X62650000Y-25118826D01*
X62765880Y-25097022D01*
X62872308Y-25028537D01*
X62943707Y-24924041D01*
X62968826Y-24800000D01*
X62968826Y-24446426D01*
X64329300Y-24446426D01*
X64329300Y-24978525D01*
X64459475Y-25108700D01*
X65258700Y-25108700D01*
X65258700Y-24159475D01*
X65128525Y-24029300D01*
X64746427Y-24029300D01*
X64555047Y-24108572D01*
X64408572Y-24255047D01*
X64329300Y-24446426D01*
X62968826Y-24446426D01*
X62968826Y-24100000D01*
X62947022Y-23984120D01*
X62878537Y-23877692D01*
X62774041Y-23806293D01*
X62650000Y-23781174D01*
X61812700Y-23781174D01*
X61812700Y-21809475D01*
X62241300Y-21809475D01*
X62241300Y-22375000D01*
X62261300Y-22375000D01*
X62261300Y-22725000D01*
X62241300Y-22725000D01*
X62241300Y-23290525D01*
X62371475Y-23420700D01*
X62753573Y-23420700D01*
X62944953Y-23341428D01*
X63091428Y-23194953D01*
X63170700Y-23003574D01*
X63170700Y-22998374D01*
X63190855Y-23047153D01*
X63377113Y-23233736D01*
X63620595Y-23334839D01*
X63884233Y-23335069D01*
X64127891Y-23234391D01*
X64314474Y-23048133D01*
X64415577Y-22804651D01*
X64415638Y-22734676D01*
X64681174Y-22469139D01*
X64681174Y-23625000D01*
X64702978Y-23740880D01*
X64771463Y-23847308D01*
X64875959Y-23918707D01*
X65000000Y-23943826D01*
X65660180Y-23943826D01*
X65808565Y-24092211D01*
X65741300Y-24159475D01*
X65741300Y-25108700D01*
X65761300Y-25108700D01*
X65761300Y-25591300D01*
X65741300Y-25591300D01*
X65741300Y-25611300D01*
X65258700Y-25611300D01*
X65258700Y-25591300D01*
X64459475Y-25591300D01*
X64329300Y-25721475D01*
X64329300Y-26253574D01*
X64370838Y-26353856D01*
X64287219Y-26388407D01*
X64114714Y-26560612D01*
X64021239Y-26785724D01*
X64021026Y-27029471D01*
X64114108Y-27254746D01*
X64286313Y-27427251D01*
X64511425Y-27520726D01*
X64755172Y-27520939D01*
X64980447Y-27427857D01*
X65152952Y-27255652D01*
X65246427Y-27030540D01*
X65246435Y-27020833D01*
X65612757Y-27020833D01*
X65480881Y-27152480D01*
X65387406Y-27377592D01*
X65387274Y-27529080D01*
X65385180Y-27531174D01*
X64850000Y-27531174D01*
X64734120Y-27552978D01*
X64627692Y-27621463D01*
X64556293Y-27725959D01*
X64531174Y-27850000D01*
X64531174Y-29450000D01*
X64552978Y-29565880D01*
X64621463Y-29672308D01*
X64725959Y-29743707D01*
X64850000Y-29768826D01*
X65087300Y-29768826D01*
X65087300Y-30056174D01*
X65000000Y-30056174D01*
X64884120Y-30077978D01*
X64777692Y-30146463D01*
X64706293Y-30250959D01*
X64681174Y-30375000D01*
X64681174Y-31625000D01*
X64702978Y-31740880D01*
X64771463Y-31847308D01*
X64875959Y-31918707D01*
X65000000Y-31943826D01*
X66000000Y-31943826D01*
X66115880Y-31922022D01*
X66222308Y-31853537D01*
X66293707Y-31749041D01*
X66318826Y-31625000D01*
X66318826Y-31371475D01*
X66479300Y-31371475D01*
X66479300Y-31728573D01*
X66558572Y-31919953D01*
X66705047Y-32066428D01*
X66896426Y-32145700D01*
X67128525Y-32145700D01*
X67258700Y-32015525D01*
X67258700Y-31241300D01*
X67741300Y-31241300D01*
X67741300Y-32015525D01*
X67871475Y-32145700D01*
X68103574Y-32145700D01*
X68294953Y-32066428D01*
X68441428Y-31919953D01*
X68520700Y-31728573D01*
X68520700Y-31371475D01*
X68979300Y-31371475D01*
X68979300Y-31728573D01*
X69058572Y-31919953D01*
X69138619Y-32000000D01*
X69058572Y-32080047D01*
X68979300Y-32271427D01*
X68979300Y-32628525D01*
X69109475Y-32758700D01*
X69758700Y-32758700D01*
X69758700Y-31241300D01*
X70241300Y-31241300D01*
X70241300Y-32758700D01*
X70890525Y-32758700D01*
X71020700Y-32628525D01*
X71020700Y-32271427D01*
X70941428Y-32080047D01*
X70861381Y-32000000D01*
X70941428Y-31919953D01*
X71020700Y-31728573D01*
X71020700Y-31371475D01*
X70890525Y-31241300D01*
X70241300Y-31241300D01*
X69758700Y-31241300D01*
X69109475Y-31241300D01*
X68979300Y-31371475D01*
X68520700Y-31371475D01*
X68390525Y-31241300D01*
X67741300Y-31241300D01*
X67258700Y-31241300D01*
X66609475Y-31241300D01*
X66479300Y-31371475D01*
X66318826Y-31371475D01*
X66318826Y-30375000D01*
X66297022Y-30259120D01*
X66228537Y-30152692D01*
X66124041Y-30081293D01*
X66000000Y-30056174D01*
X65912700Y-30056174D01*
X65912700Y-29768826D01*
X66150000Y-29768826D01*
X66265880Y-29747022D01*
X66372308Y-29678537D01*
X66377758Y-29670561D01*
X66408572Y-29744953D01*
X66555047Y-29891428D01*
X66690913Y-29947706D01*
X66558572Y-30080047D01*
X66479300Y-30271427D01*
X66479300Y-30628525D01*
X66609475Y-30758700D01*
X67258700Y-30758700D01*
X67258700Y-29984475D01*
X67186725Y-29912500D01*
X67258700Y-29840525D01*
X67258700Y-28891300D01*
X67741300Y-28891300D01*
X67741300Y-29840525D01*
X67813275Y-29912500D01*
X67741300Y-29984475D01*
X67741300Y-30758700D01*
X68390525Y-30758700D01*
X68520700Y-30628525D01*
X68520700Y-30271427D01*
X68441428Y-30080047D01*
X68309087Y-29947706D01*
X68444953Y-29891428D01*
X68591428Y-29744953D01*
X68670700Y-29553574D01*
X68670700Y-29371475D01*
X68979300Y-29371475D01*
X68979300Y-29728573D01*
X69058572Y-29919953D01*
X69138619Y-30000000D01*
X69058572Y-30080047D01*
X68979300Y-30271427D01*
X68979300Y-30628525D01*
X69109475Y-30758700D01*
X69758700Y-30758700D01*
X69758700Y-29241300D01*
X70241300Y-29241300D01*
X70241300Y-30758700D01*
X70890525Y-30758700D01*
X71020700Y-30628525D01*
X71020700Y-30271427D01*
X70941428Y-30080047D01*
X70861381Y-30000000D01*
X70941428Y-29919953D01*
X71020700Y-29728573D01*
X71020700Y-29371475D01*
X70890525Y-29241300D01*
X70241300Y-29241300D01*
X69758700Y-29241300D01*
X69109475Y-29241300D01*
X68979300Y-29371475D01*
X68670700Y-29371475D01*
X68670700Y-29021475D01*
X68540525Y-28891300D01*
X67741300Y-28891300D01*
X67258700Y-28891300D01*
X67238700Y-28891300D01*
X67238700Y-28408700D01*
X67258700Y-28408700D01*
X67258700Y-27459475D01*
X67741300Y-27459475D01*
X67741300Y-28408700D01*
X68540525Y-28408700D01*
X68670700Y-28278525D01*
X68670700Y-27746426D01*
X68591428Y-27555047D01*
X68444953Y-27408572D01*
X68355393Y-27371475D01*
X68979300Y-27371475D01*
X68979300Y-27728573D01*
X69058572Y-27919953D01*
X69138619Y-28000000D01*
X69058572Y-28080047D01*
X68979300Y-28271427D01*
X68979300Y-28628525D01*
X69109475Y-28758700D01*
X69758700Y-28758700D01*
X69758700Y-27241300D01*
X70241300Y-27241300D01*
X70241300Y-28758700D01*
X70890525Y-28758700D01*
X71020700Y-28628525D01*
X71020700Y-28271427D01*
X70941428Y-28080047D01*
X70861381Y-28000000D01*
X70941428Y-27919953D01*
X71020700Y-27728573D01*
X71020700Y-27371475D01*
X70890525Y-27241300D01*
X70241300Y-27241300D01*
X69758700Y-27241300D01*
X69109475Y-27241300D01*
X68979300Y-27371475D01*
X68355393Y-27371475D01*
X68253573Y-27329300D01*
X67871475Y-27329300D01*
X67741300Y-27459475D01*
X67258700Y-27459475D01*
X67128525Y-27329300D01*
X66746427Y-27329300D01*
X66612802Y-27384649D01*
X66612807Y-27378661D01*
X66519725Y-27153386D01*
X66387403Y-27020833D01*
X67241867Y-27020833D01*
X67399801Y-26989418D01*
X67533690Y-26899956D01*
X67791823Y-26641823D01*
X67881285Y-26507934D01*
X67889064Y-26468826D01*
X68150000Y-26468826D01*
X68265880Y-26447022D01*
X68372308Y-26378537D01*
X68443707Y-26274041D01*
X68468826Y-26150000D01*
X68468826Y-25371475D01*
X68979300Y-25371475D01*
X68979300Y-25728573D01*
X69058572Y-25919953D01*
X69138619Y-26000000D01*
X69058572Y-26080047D01*
X68979300Y-26271427D01*
X68979300Y-26628525D01*
X69109475Y-26758700D01*
X69758700Y-26758700D01*
X69758700Y-25241300D01*
X70241300Y-25241300D01*
X70241300Y-26758700D01*
X70890525Y-26758700D01*
X71020700Y-26628525D01*
X71020700Y-26271427D01*
X70941428Y-26080047D01*
X70861381Y-26000000D01*
X70941428Y-25919953D01*
X71020700Y-25728573D01*
X71020700Y-25371475D01*
X70890525Y-25241300D01*
X70241300Y-25241300D01*
X69758700Y-25241300D01*
X69109475Y-25241300D01*
X68979300Y-25371475D01*
X68468826Y-25371475D01*
X68468826Y-24550000D01*
X68447022Y-24434120D01*
X68378537Y-24327692D01*
X68274041Y-24256293D01*
X68150000Y-24231174D01*
X67114820Y-24231174D01*
X67029346Y-24145700D01*
X67128525Y-24145700D01*
X67258700Y-24015525D01*
X67258700Y-23241300D01*
X67741300Y-23241300D01*
X67741300Y-24015525D01*
X67871475Y-24145700D01*
X68103574Y-24145700D01*
X68294953Y-24066428D01*
X68441428Y-23919953D01*
X68520700Y-23728573D01*
X68520700Y-23371475D01*
X68979300Y-23371475D01*
X68979300Y-23728573D01*
X69058572Y-23919953D01*
X69138619Y-24000000D01*
X69058572Y-24080047D01*
X68979300Y-24271427D01*
X68979300Y-24628525D01*
X69109475Y-24758700D01*
X69758700Y-24758700D01*
X69758700Y-23241300D01*
X70241300Y-23241300D01*
X70241300Y-24758700D01*
X70890525Y-24758700D01*
X71020700Y-24628525D01*
X71020700Y-24271427D01*
X70941428Y-24080047D01*
X70861381Y-24000000D01*
X70941428Y-23919953D01*
X71020700Y-23728573D01*
X71020700Y-23371475D01*
X70890525Y-23241300D01*
X70241300Y-23241300D01*
X69758700Y-23241300D01*
X69109475Y-23241300D01*
X68979300Y-23371475D01*
X68520700Y-23371475D01*
X68390525Y-23241300D01*
X67741300Y-23241300D01*
X67258700Y-23241300D01*
X66609475Y-23241300D01*
X66479300Y-23371475D01*
X66479300Y-23595654D01*
X66318826Y-23435180D01*
X66318826Y-22375000D01*
X66306984Y-22312065D01*
X66479300Y-22312065D01*
X66479300Y-22628525D01*
X66609475Y-22758700D01*
X67258700Y-22758700D01*
X67258700Y-22738700D01*
X67741300Y-22738700D01*
X67741300Y-22758700D01*
X68390525Y-22758700D01*
X68520700Y-22628525D01*
X68520700Y-22312065D01*
X68979300Y-22312065D01*
X68979300Y-22628525D01*
X69109475Y-22758700D01*
X69758700Y-22758700D01*
X69758700Y-22738700D01*
X70241300Y-22738700D01*
X70241300Y-22758700D01*
X70890525Y-22758700D01*
X71020700Y-22628525D01*
X71020700Y-22620768D01*
X71130195Y-22730262D01*
X71130195Y-23625000D01*
X71155486Y-23759408D01*
X71234921Y-23882854D01*
X71356125Y-23965670D01*
X71487300Y-23992233D01*
X71487300Y-24007585D01*
X71365592Y-24030486D01*
X71242146Y-24109921D01*
X71159330Y-24231125D01*
X71130195Y-24375000D01*
X71130195Y-25625000D01*
X71155486Y-25759408D01*
X71234921Y-25882854D01*
X71356125Y-25965670D01*
X71487300Y-25992233D01*
X71487300Y-26007585D01*
X71365592Y-26030486D01*
X71242146Y-26109921D01*
X71159330Y-26231125D01*
X71130195Y-26375000D01*
X71130195Y-27625000D01*
X71155486Y-27759408D01*
X71234921Y-27882854D01*
X71356125Y-27965670D01*
X71487300Y-27992233D01*
X71487300Y-28007585D01*
X71365592Y-28030486D01*
X71242146Y-28109921D01*
X71159330Y-28231125D01*
X71130195Y-28375000D01*
X71130195Y-29625000D01*
X71155486Y-29759408D01*
X71234921Y-29882854D01*
X71356125Y-29965670D01*
X71487300Y-29992233D01*
X71487300Y-30007585D01*
X71365592Y-30030486D01*
X71242146Y-30109921D01*
X71159330Y-30231125D01*
X71130195Y-30375000D01*
X71130195Y-31625000D01*
X71155486Y-31759408D01*
X71234921Y-31882854D01*
X71356125Y-31965670D01*
X71487300Y-31992233D01*
X71487300Y-32007585D01*
X71365592Y-32030486D01*
X71242146Y-32109921D01*
X71159330Y-32231125D01*
X71130195Y-32375000D01*
X71130195Y-33625000D01*
X71155486Y-33759408D01*
X71234921Y-33882854D01*
X71356125Y-33965670D01*
X71500000Y-33994805D01*
X72500000Y-33994805D01*
X72634408Y-33969514D01*
X72757854Y-33890079D01*
X72840670Y-33768875D01*
X72869805Y-33625000D01*
X72869805Y-33597421D01*
X73335659Y-34063275D01*
X73335599Y-34132203D01*
X73436277Y-34375861D01*
X73622535Y-34562444D01*
X73866017Y-34663547D01*
X74129655Y-34663777D01*
X74373313Y-34563099D01*
X74559896Y-34376841D01*
X74660999Y-34133359D01*
X74661229Y-33869721D01*
X74560551Y-33626063D01*
X74374293Y-33439480D01*
X74130811Y-33338377D01*
X74060836Y-33338316D01*
X74033995Y-33311475D01*
X75629300Y-33311475D01*
X75629300Y-33893573D01*
X75708572Y-34084953D01*
X75855047Y-34231428D01*
X76046426Y-34310700D01*
X76628525Y-34310700D01*
X76758700Y-34180525D01*
X76758700Y-33181300D01*
X77241300Y-33181300D01*
X77241300Y-34180525D01*
X77371475Y-34310700D01*
X77953574Y-34310700D01*
X78144953Y-34231428D01*
X78291428Y-34084953D01*
X78370700Y-33893573D01*
X78370700Y-33311475D01*
X78240525Y-33181300D01*
X77241300Y-33181300D01*
X76758700Y-33181300D01*
X75759475Y-33181300D01*
X75629300Y-33311475D01*
X74033995Y-33311475D01*
X73359986Y-32637466D01*
X73193654Y-32526327D01*
X72997452Y-32487300D01*
X72869805Y-32487300D01*
X72869805Y-32375000D01*
X72844514Y-32240592D01*
X72765079Y-32117146D01*
X72643875Y-32034330D01*
X72512700Y-32007767D01*
X72512700Y-31992415D01*
X72544523Y-31986427D01*
X75629300Y-31986427D01*
X75629300Y-32568525D01*
X75759475Y-32698700D01*
X76758700Y-32698700D01*
X76758700Y-31699475D01*
X77241300Y-31699475D01*
X77241300Y-32698700D01*
X78240525Y-32698700D01*
X78370700Y-32568525D01*
X78370700Y-31986427D01*
X78291428Y-31795047D01*
X78144953Y-31648572D01*
X77953574Y-31569300D01*
X77371475Y-31569300D01*
X77241300Y-31699475D01*
X76758700Y-31699475D01*
X76628525Y-31569300D01*
X76046426Y-31569300D01*
X75855047Y-31648572D01*
X75708572Y-31795047D01*
X75629300Y-31986427D01*
X72544523Y-31986427D01*
X72634408Y-31969514D01*
X72757854Y-31890079D01*
X72840670Y-31768875D01*
X72869805Y-31625000D01*
X72869805Y-30400000D01*
X75814521Y-30400000D01*
X75903026Y-30844946D01*
X76155068Y-31222153D01*
X76532275Y-31474195D01*
X76977221Y-31562700D01*
X77022779Y-31562700D01*
X77467725Y-31474195D01*
X77844932Y-31222153D01*
X78096974Y-30844946D01*
X78185479Y-30400000D01*
X78096974Y-29955054D01*
X77844932Y-29577847D01*
X77467725Y-29325805D01*
X77022779Y-29237300D01*
X76977221Y-29237300D01*
X76532275Y-29325805D01*
X76155068Y-29577847D01*
X75903026Y-29955054D01*
X75814521Y-30400000D01*
X72869805Y-30400000D01*
X72869805Y-30375000D01*
X72844514Y-30240592D01*
X72765079Y-30117146D01*
X72643875Y-30034330D01*
X72512700Y-30007767D01*
X72512700Y-29992415D01*
X72634408Y-29969514D01*
X72757854Y-29890079D01*
X72840670Y-29768875D01*
X72869805Y-29625000D01*
X72869805Y-28375000D01*
X72844514Y-28240592D01*
X72765079Y-28117146D01*
X72643875Y-28034330D01*
X72512700Y-28007767D01*
X72512700Y-27992415D01*
X72634408Y-27969514D01*
X72757854Y-27890079D01*
X72840670Y-27768875D01*
X72869805Y-27625000D01*
X72869805Y-26621339D01*
X74387193Y-26621339D01*
X74480275Y-26846614D01*
X74652480Y-27019119D01*
X74877592Y-27112594D01*
X75121339Y-27112807D01*
X75346614Y-27019725D01*
X75453825Y-26912700D01*
X75469054Y-26912700D01*
X75930416Y-27374062D01*
X75903026Y-27415054D01*
X75814521Y-27860000D01*
X75903026Y-28304946D01*
X76155068Y-28682153D01*
X76532275Y-28934195D01*
X76977221Y-29022700D01*
X77022779Y-29022700D01*
X77467725Y-28934195D01*
X77844932Y-28682153D01*
X78096974Y-28304946D01*
X78185479Y-27860000D01*
X78096974Y-27415054D01*
X77844932Y-27037847D01*
X77467725Y-26785805D01*
X77022779Y-26697300D01*
X76977221Y-26697300D01*
X76532275Y-26785805D01*
X76518593Y-26794947D01*
X75931823Y-26208177D01*
X75797934Y-26118715D01*
X75640000Y-26087300D01*
X75453754Y-26087300D01*
X75347520Y-25980881D01*
X75122408Y-25887406D01*
X74878661Y-25887193D01*
X74653386Y-25980275D01*
X74480881Y-26152480D01*
X74387406Y-26377592D01*
X74387193Y-26621339D01*
X72869805Y-26621339D01*
X72869805Y-26375000D01*
X72844514Y-26240592D01*
X72765079Y-26117146D01*
X72643875Y-26034330D01*
X72512700Y-26007767D01*
X72512700Y-25992415D01*
X72634408Y-25969514D01*
X72757854Y-25890079D01*
X72840670Y-25768875D01*
X72869805Y-25625000D01*
X72869805Y-25512700D01*
X73500000Y-25512700D01*
X73696202Y-25473673D01*
X73862534Y-25362534D01*
X74062313Y-25162755D01*
X74131241Y-25162815D01*
X74374899Y-25062137D01*
X74561482Y-24875879D01*
X74662585Y-24632397D01*
X74662815Y-24368759D01*
X74562137Y-24125101D01*
X74375879Y-23938518D01*
X74132397Y-23837415D01*
X73868759Y-23837185D01*
X73625101Y-23937863D01*
X73438518Y-24124121D01*
X73337415Y-24367603D01*
X73337354Y-24437578D01*
X73287632Y-24487300D01*
X72869805Y-24487300D01*
X72869805Y-24375000D01*
X72844514Y-24240592D01*
X72765079Y-24117146D01*
X72643875Y-24034330D01*
X72512700Y-24007767D01*
X72512700Y-23992415D01*
X72634408Y-23969514D01*
X72757854Y-23890079D01*
X72840670Y-23768875D01*
X72869805Y-23625000D01*
X72869805Y-23512700D01*
X74467632Y-23512700D01*
X75848387Y-24893454D01*
X75763542Y-25320000D01*
X75855853Y-25784080D01*
X76118734Y-26177508D01*
X76512162Y-26440389D01*
X76976242Y-26532700D01*
X77023758Y-26532700D01*
X77487838Y-26440389D01*
X77881266Y-26177508D01*
X78144147Y-25784080D01*
X78236458Y-25320000D01*
X78144147Y-24855920D01*
X77881266Y-24462492D01*
X77487838Y-24199611D01*
X77023758Y-24107300D01*
X76976242Y-24107300D01*
X76589329Y-24184262D01*
X75042534Y-22637466D01*
X74876202Y-22526327D01*
X74680000Y-22487300D01*
X72869805Y-22487300D01*
X72869805Y-22375000D01*
X72844514Y-22240592D01*
X72765079Y-22117146D01*
X72643875Y-22034330D01*
X72500000Y-22005195D01*
X71855262Y-22005195D01*
X71286899Y-21436831D01*
X71120567Y-21325692D01*
X70924365Y-21286665D01*
X64625881Y-21286665D01*
X64429679Y-21325692D01*
X64263347Y-21436831D01*
X64263345Y-21436834D01*
X63690679Y-22009499D01*
X63621751Y-22009439D01*
X63378093Y-22110117D01*
X63191510Y-22296375D01*
X63170700Y-22346491D01*
X63170700Y-22308698D01*
X63106827Y-22308698D01*
X63170700Y-22244825D01*
X63170700Y-22096426D01*
X63091428Y-21905047D01*
X62944953Y-21758572D01*
X62753573Y-21679300D01*
X62371475Y-21679300D01*
X62241300Y-21809475D01*
X61812700Y-21809475D01*
X61812700Y-21262700D01*
X78956300Y-21262700D01*
X78956300Y-35019919D01*
G36*
X32581407Y-21714947D02*
X32567725Y-21705805D01*
X32122779Y-21617300D01*
X32077221Y-21617300D01*
X31632275Y-21705805D01*
X31255068Y-21957847D01*
X31003026Y-22335054D01*
X30914521Y-22780000D01*
X31003026Y-23224946D01*
X31255068Y-23602153D01*
X31632275Y-23854195D01*
X32077221Y-23942700D01*
X32122779Y-23942700D01*
X32567725Y-23854195D01*
X32944932Y-23602153D01*
X33196974Y-23224946D01*
X33285479Y-22780000D01*
X33196974Y-22335054D01*
X33169584Y-22294062D01*
X33622426Y-21841220D01*
X33969612Y-21841220D01*
X33795068Y-21957847D01*
X33543026Y-22335054D01*
X33454521Y-22780000D01*
X33543026Y-23224946D01*
X33795068Y-23602153D01*
X34172275Y-23854195D01*
X34617221Y-23942700D01*
X34662779Y-23942700D01*
X35107725Y-23854195D01*
X35484932Y-23602153D01*
X35736974Y-23224946D01*
X35825479Y-22780000D01*
X35736974Y-22335054D01*
X35484932Y-21957847D01*
X35310388Y-21841220D01*
X35898996Y-21841220D01*
X39738950Y-25681174D01*
X39263505Y-25681174D01*
X38610508Y-25028177D01*
X38476619Y-24938715D01*
X38318685Y-24907300D01*
X35743388Y-24907300D01*
X35736974Y-24875054D01*
X35484932Y-24497847D01*
X35107725Y-24245805D01*
X34662779Y-24157300D01*
X34617221Y-24157300D01*
X34172275Y-24245805D01*
X33795068Y-24497847D01*
X33543026Y-24875054D01*
X33454521Y-25320000D01*
X33543026Y-25764946D01*
X33795068Y-26142153D01*
X34172275Y-26394195D01*
X34617221Y-26482700D01*
X34662779Y-26482700D01*
X35107725Y-26394195D01*
X35484932Y-26142153D01*
X35736974Y-25764946D01*
X35743388Y-25732700D01*
X38147739Y-25732700D01*
X38556174Y-26141135D01*
X38556174Y-26860180D01*
X37708177Y-27708177D01*
X37618715Y-27842066D01*
X37617630Y-27847520D01*
X37587300Y-28000000D01*
X37587300Y-31750000D01*
X37618715Y-31907934D01*
X37708177Y-32041823D01*
X38358177Y-32691823D01*
X38492066Y-32781285D01*
X38538810Y-32790583D01*
X38552978Y-32865880D01*
X38621463Y-32972308D01*
X38725959Y-33043707D01*
X38850000Y-33068826D01*
X38897253Y-33068826D01*
X39028754Y-33104690D01*
X38980881Y-33152480D01*
X38887406Y-33377592D01*
X38887193Y-33621339D01*
X38980275Y-33846614D01*
X39152480Y-34019119D01*
X39377592Y-34112594D01*
X39529080Y-34112726D01*
X41185192Y-35768838D01*
X40352484Y-35768838D01*
X38112676Y-33529030D01*
X38112807Y-33378661D01*
X38019725Y-33153386D01*
X37847520Y-32980881D01*
X37622408Y-32887406D01*
X37378661Y-32887193D01*
X37153386Y-32980275D01*
X36980881Y-33152480D01*
X36887406Y-33377592D01*
X36887193Y-33621339D01*
X36980275Y-33846614D01*
X37152480Y-34019119D01*
X37377592Y-34112594D01*
X37529080Y-34112726D01*
X39585203Y-36168849D01*
X36010700Y-36168849D01*
X36010700Y-35851475D01*
X35880525Y-35721300D01*
X34881300Y-35721300D01*
X34881300Y-35741300D01*
X34398700Y-35741300D01*
X34398700Y-35721300D01*
X33399475Y-35721300D01*
X33339383Y-35781392D01*
X33316831Y-35721300D01*
X32341300Y-35721300D01*
X32341300Y-35741300D01*
X31858700Y-35741300D01*
X31858700Y-35721300D01*
X31838700Y-35721300D01*
X31838700Y-35238700D01*
X31858700Y-35238700D01*
X31858700Y-34260861D01*
X32341300Y-34260861D01*
X32341300Y-35238700D01*
X33316831Y-35238700D01*
X33339383Y-35178608D01*
X33399475Y-35238700D01*
X34398700Y-35238700D01*
X34398700Y-34239475D01*
X34881300Y-34239475D01*
X34881300Y-35238700D01*
X35880525Y-35238700D01*
X36010700Y-35108525D01*
X36010700Y-34526427D01*
X35931428Y-34335047D01*
X35784953Y-34188572D01*
X35593574Y-34109300D01*
X35011475Y-34109300D01*
X34881300Y-34239475D01*
X34398700Y-34239475D01*
X34268525Y-34109300D01*
X33686426Y-34109300D01*
X33495047Y-34188572D01*
X33348572Y-34335047D01*
X33269300Y-34526427D01*
X33269300Y-34797320D01*
X33010756Y-34455599D01*
X32549408Y-34185046D01*
X32341300Y-34260861D01*
X31858700Y-34260861D01*
X31650592Y-34185046D01*
X31189244Y-34455599D01*
X31023598Y-34674536D01*
X31023598Y-33415734D01*
X31255068Y-33762153D01*
X31632275Y-34014195D01*
X32077221Y-34102700D01*
X32122779Y-34102700D01*
X32567725Y-34014195D01*
X32944932Y-33762153D01*
X33196974Y-33384946D01*
X33285479Y-32940000D01*
X33454521Y-32940000D01*
X33543026Y-33384946D01*
X33795068Y-33762153D01*
X34172275Y-34014195D01*
X34617221Y-34102700D01*
X34662779Y-34102700D01*
X35107725Y-34014195D01*
X35484932Y-33762153D01*
X35736974Y-33384946D01*
X35825479Y-32940000D01*
X35772555Y-32673933D01*
X36965739Y-31480750D01*
X37098555Y-31281976D01*
X37145194Y-31047506D01*
X37145194Y-29408640D01*
X37145301Y-29286194D01*
X37052219Y-29060919D01*
X36880014Y-28888414D01*
X36654902Y-28794939D01*
X36411155Y-28794726D01*
X36185880Y-28887808D01*
X36013375Y-29060013D01*
X35919900Y-29285125D01*
X35919687Y-29528872D01*
X35919794Y-29529131D01*
X35919794Y-30793717D01*
X34890846Y-31822665D01*
X34662779Y-31777300D01*
X34617221Y-31777300D01*
X34172275Y-31865805D01*
X33795068Y-32117847D01*
X33543026Y-32495054D01*
X33454521Y-32940000D01*
X33285479Y-32940000D01*
X33196974Y-32495054D01*
X32944932Y-32117847D01*
X32567725Y-31865805D01*
X32122779Y-31777300D01*
X32077221Y-31777300D01*
X31632275Y-31865805D01*
X31255068Y-32117847D01*
X31023598Y-32464266D01*
X31023598Y-30875734D01*
X31255068Y-31222153D01*
X31632275Y-31474195D01*
X32077221Y-31562700D01*
X32122779Y-31562700D01*
X32567725Y-31474195D01*
X32944932Y-31222153D01*
X33196974Y-30844946D01*
X33285479Y-30400000D01*
X33454521Y-30400000D01*
X33543026Y-30844946D01*
X33795068Y-31222153D01*
X34172275Y-31474195D01*
X34617221Y-31562700D01*
X34662779Y-31562700D01*
X35107725Y-31474195D01*
X35484932Y-31222153D01*
X35736974Y-30844946D01*
X35825479Y-30400000D01*
X35736974Y-29955054D01*
X35484932Y-29577847D01*
X35107725Y-29325805D01*
X34662779Y-29237300D01*
X34617221Y-29237300D01*
X34172275Y-29325805D01*
X33795068Y-29577847D01*
X33543026Y-29955054D01*
X33454521Y-30400000D01*
X33285479Y-30400000D01*
X33196974Y-29955054D01*
X32944932Y-29577847D01*
X32567725Y-29325805D01*
X32122779Y-29237300D01*
X32077221Y-29237300D01*
X31632275Y-29325805D01*
X31255068Y-29577847D01*
X31023598Y-29924266D01*
X31023598Y-28335734D01*
X31255068Y-28682153D01*
X31632275Y-28934195D01*
X32077221Y-29022700D01*
X32122779Y-29022700D01*
X32567725Y-28934195D01*
X32944932Y-28682153D01*
X33196974Y-28304946D01*
X33285479Y-27860000D01*
X33454521Y-27860000D01*
X33543026Y-28304946D01*
X33795068Y-28682153D01*
X34172275Y-28934195D01*
X34617221Y-29022700D01*
X34662779Y-29022700D01*
X35107725Y-28934195D01*
X35484932Y-28682153D01*
X35736974Y-28304946D01*
X35825479Y-27860000D01*
X35736974Y-27415054D01*
X35484932Y-27037847D01*
X35107725Y-26785805D01*
X34662779Y-26697300D01*
X34617221Y-26697300D01*
X34172275Y-26785805D01*
X33795068Y-27037847D01*
X33543026Y-27415054D01*
X33454521Y-27860000D01*
X33285479Y-27860000D01*
X33196974Y-27415054D01*
X32944932Y-27037847D01*
X32567725Y-26785805D01*
X32122779Y-26697300D01*
X32077221Y-26697300D01*
X31632275Y-26785805D01*
X31255068Y-27037847D01*
X31023598Y-27384266D01*
X31023598Y-26980048D01*
X31618593Y-26385053D01*
X31632275Y-26394195D01*
X32077221Y-26482700D01*
X32122779Y-26482700D01*
X32567725Y-26394195D01*
X32944932Y-26142153D01*
X33196974Y-25764946D01*
X33285479Y-25320000D01*
X33196974Y-24875054D01*
X32944932Y-24497847D01*
X32567725Y-24245805D01*
X32122779Y-24157300D01*
X32077221Y-24157300D01*
X31632275Y-24245805D01*
X31255068Y-24497847D01*
X31003026Y-24875054D01*
X30914521Y-25320000D01*
X31003026Y-25764946D01*
X31030416Y-25805938D01*
X30319075Y-26517279D01*
X30229613Y-26651168D01*
X30228267Y-26657934D01*
X30198198Y-26809102D01*
X30198198Y-36077077D01*
X30229613Y-36235011D01*
X30319075Y-36368900D01*
X30823547Y-36873372D01*
X30957436Y-36962834D01*
X31115370Y-36994249D01*
X31364568Y-36994249D01*
X31369134Y-36997300D01*
X28423700Y-36997300D01*
X28423700Y-21262700D01*
X33033654Y-21262700D01*
X32581407Y-21714947D01*
X32581407Y-21714947D01*
G37*
X32581407Y-21714947D02*
X32567725Y-21705805D01*
X32122779Y-21617300D01*
X32077221Y-21617300D01*
X31632275Y-21705805D01*
X31255068Y-21957847D01*
X31003026Y-22335054D01*
X30914521Y-22780000D01*
X31003026Y-23224946D01*
X31255068Y-23602153D01*
X31632275Y-23854195D01*
X32077221Y-23942700D01*
X32122779Y-23942700D01*
X32567725Y-23854195D01*
X32944932Y-23602153D01*
X33196974Y-23224946D01*
X33285479Y-22780000D01*
X33196974Y-22335054D01*
X33169584Y-22294062D01*
X33622426Y-21841220D01*
X33969612Y-21841220D01*
X33795068Y-21957847D01*
X33543026Y-22335054D01*
X33454521Y-22780000D01*
X33543026Y-23224946D01*
X33795068Y-23602153D01*
X34172275Y-23854195D01*
X34617221Y-23942700D01*
X34662779Y-23942700D01*
X35107725Y-23854195D01*
X35484932Y-23602153D01*
X35736974Y-23224946D01*
X35825479Y-22780000D01*
X35736974Y-22335054D01*
X35484932Y-21957847D01*
X35310388Y-21841220D01*
X35898996Y-21841220D01*
X39738950Y-25681174D01*
X39263505Y-25681174D01*
X38610508Y-25028177D01*
X38476619Y-24938715D01*
X38318685Y-24907300D01*
X35743388Y-24907300D01*
X35736974Y-24875054D01*
X35484932Y-24497847D01*
X35107725Y-24245805D01*
X34662779Y-24157300D01*
X34617221Y-24157300D01*
X34172275Y-24245805D01*
X33795068Y-24497847D01*
X33543026Y-24875054D01*
X33454521Y-25320000D01*
X33543026Y-25764946D01*
X33795068Y-26142153D01*
X34172275Y-26394195D01*
X34617221Y-26482700D01*
X34662779Y-26482700D01*
X35107725Y-26394195D01*
X35484932Y-26142153D01*
X35736974Y-25764946D01*
X35743388Y-25732700D01*
X38147739Y-25732700D01*
X38556174Y-26141135D01*
X38556174Y-26860180D01*
X37708177Y-27708177D01*
X37618715Y-27842066D01*
X37617630Y-27847520D01*
X37587300Y-28000000D01*
X37587300Y-31750000D01*
X37618715Y-31907934D01*
X37708177Y-32041823D01*
X38358177Y-32691823D01*
X38492066Y-32781285D01*
X38538810Y-32790583D01*
X38552978Y-32865880D01*
X38621463Y-32972308D01*
X38725959Y-33043707D01*
X38850000Y-33068826D01*
X38897253Y-33068826D01*
X39028754Y-33104690D01*
X38980881Y-33152480D01*
X38887406Y-33377592D01*
X38887193Y-33621339D01*
X38980275Y-33846614D01*
X39152480Y-34019119D01*
X39377592Y-34112594D01*
X39529080Y-34112726D01*
X41185192Y-35768838D01*
X40352484Y-35768838D01*
X38112676Y-33529030D01*
X38112807Y-33378661D01*
X38019725Y-33153386D01*
X37847520Y-32980881D01*
X37622408Y-32887406D01*
X37378661Y-32887193D01*
X37153386Y-32980275D01*
X36980881Y-33152480D01*
X36887406Y-33377592D01*
X36887193Y-33621339D01*
X36980275Y-33846614D01*
X37152480Y-34019119D01*
X37377592Y-34112594D01*
X37529080Y-34112726D01*
X39585203Y-36168849D01*
X36010700Y-36168849D01*
X36010700Y-35851475D01*
X35880525Y-35721300D01*
X34881300Y-35721300D01*
X34881300Y-35741300D01*
X34398700Y-35741300D01*
X34398700Y-35721300D01*
X33399475Y-35721300D01*
X33339383Y-35781392D01*
X33316831Y-35721300D01*
X32341300Y-35721300D01*
X32341300Y-35741300D01*
X31858700Y-35741300D01*
X31858700Y-35721300D01*
X31838700Y-35721300D01*
X31838700Y-35238700D01*
X31858700Y-35238700D01*
X31858700Y-34260861D01*
X32341300Y-34260861D01*
X32341300Y-35238700D01*
X33316831Y-35238700D01*
X33339383Y-35178608D01*
X33399475Y-35238700D01*
X34398700Y-35238700D01*
X34398700Y-34239475D01*
X34881300Y-34239475D01*
X34881300Y-35238700D01*
X35880525Y-35238700D01*
X36010700Y-35108525D01*
X36010700Y-34526427D01*
X35931428Y-34335047D01*
X35784953Y-34188572D01*
X35593574Y-34109300D01*
X35011475Y-34109300D01*
X34881300Y-34239475D01*
X34398700Y-34239475D01*
X34268525Y-34109300D01*
X33686426Y-34109300D01*
X33495047Y-34188572D01*
X33348572Y-34335047D01*
X33269300Y-34526427D01*
X33269300Y-34797320D01*
X33010756Y-34455599D01*
X32549408Y-34185046D01*
X32341300Y-34260861D01*
X31858700Y-34260861D01*
X31650592Y-34185046D01*
X31189244Y-34455599D01*
X31023598Y-34674536D01*
X31023598Y-33415734D01*
X31255068Y-33762153D01*
X31632275Y-34014195D01*
X32077221Y-34102700D01*
X32122779Y-34102700D01*
X32567725Y-34014195D01*
X32944932Y-33762153D01*
X33196974Y-33384946D01*
X33285479Y-32940000D01*
X33454521Y-32940000D01*
X33543026Y-33384946D01*
X33795068Y-33762153D01*
X34172275Y-34014195D01*
X34617221Y-34102700D01*
X34662779Y-34102700D01*
X35107725Y-34014195D01*
X35484932Y-33762153D01*
X35736974Y-33384946D01*
X35825479Y-32940000D01*
X35772555Y-32673933D01*
X36965739Y-31480750D01*
X37098555Y-31281976D01*
X37145194Y-31047506D01*
X37145194Y-29408640D01*
X37145301Y-29286194D01*
X37052219Y-29060919D01*
X36880014Y-28888414D01*
X36654902Y-28794939D01*
X36411155Y-28794726D01*
X36185880Y-28887808D01*
X36013375Y-29060013D01*
X35919900Y-29285125D01*
X35919687Y-29528872D01*
X35919794Y-29529131D01*
X35919794Y-30793717D01*
X34890846Y-31822665D01*
X34662779Y-31777300D01*
X34617221Y-31777300D01*
X34172275Y-31865805D01*
X33795068Y-32117847D01*
X33543026Y-32495054D01*
X33454521Y-32940000D01*
X33285479Y-32940000D01*
X33196974Y-32495054D01*
X32944932Y-32117847D01*
X32567725Y-31865805D01*
X32122779Y-31777300D01*
X32077221Y-31777300D01*
X31632275Y-31865805D01*
X31255068Y-32117847D01*
X31023598Y-32464266D01*
X31023598Y-30875734D01*
X31255068Y-31222153D01*
X31632275Y-31474195D01*
X32077221Y-31562700D01*
X32122779Y-31562700D01*
X32567725Y-31474195D01*
X32944932Y-31222153D01*
X33196974Y-30844946D01*
X33285479Y-30400000D01*
X33454521Y-30400000D01*
X33543026Y-30844946D01*
X33795068Y-31222153D01*
X34172275Y-31474195D01*
X34617221Y-31562700D01*
X34662779Y-31562700D01*
X35107725Y-31474195D01*
X35484932Y-31222153D01*
X35736974Y-30844946D01*
X35825479Y-30400000D01*
X35736974Y-29955054D01*
X35484932Y-29577847D01*
X35107725Y-29325805D01*
X34662779Y-29237300D01*
X34617221Y-29237300D01*
X34172275Y-29325805D01*
X33795068Y-29577847D01*
X33543026Y-29955054D01*
X33454521Y-30400000D01*
X33285479Y-30400000D01*
X33196974Y-29955054D01*
X32944932Y-29577847D01*
X32567725Y-29325805D01*
X32122779Y-29237300D01*
X32077221Y-29237300D01*
X31632275Y-29325805D01*
X31255068Y-29577847D01*
X31023598Y-29924266D01*
X31023598Y-28335734D01*
X31255068Y-28682153D01*
X31632275Y-28934195D01*
X32077221Y-29022700D01*
X32122779Y-29022700D01*
X32567725Y-28934195D01*
X32944932Y-28682153D01*
X33196974Y-28304946D01*
X33285479Y-27860000D01*
X33454521Y-27860000D01*
X33543026Y-28304946D01*
X33795068Y-28682153D01*
X34172275Y-28934195D01*
X34617221Y-29022700D01*
X34662779Y-29022700D01*
X35107725Y-28934195D01*
X35484932Y-28682153D01*
X35736974Y-28304946D01*
X35825479Y-27860000D01*
X35736974Y-27415054D01*
X35484932Y-27037847D01*
X35107725Y-26785805D01*
X34662779Y-26697300D01*
X34617221Y-26697300D01*
X34172275Y-26785805D01*
X33795068Y-27037847D01*
X33543026Y-27415054D01*
X33454521Y-27860000D01*
X33285479Y-27860000D01*
X33196974Y-27415054D01*
X32944932Y-27037847D01*
X32567725Y-26785805D01*
X32122779Y-26697300D01*
X32077221Y-26697300D01*
X31632275Y-26785805D01*
X31255068Y-27037847D01*
X31023598Y-27384266D01*
X31023598Y-26980048D01*
X31618593Y-26385053D01*
X31632275Y-26394195D01*
X32077221Y-26482700D01*
X32122779Y-26482700D01*
X32567725Y-26394195D01*
X32944932Y-26142153D01*
X33196974Y-25764946D01*
X33285479Y-25320000D01*
X33196974Y-24875054D01*
X32944932Y-24497847D01*
X32567725Y-24245805D01*
X32122779Y-24157300D01*
X32077221Y-24157300D01*
X31632275Y-24245805D01*
X31255068Y-24497847D01*
X31003026Y-24875054D01*
X30914521Y-25320000D01*
X31003026Y-25764946D01*
X31030416Y-25805938D01*
X30319075Y-26517279D01*
X30229613Y-26651168D01*
X30228267Y-26657934D01*
X30198198Y-26809102D01*
X30198198Y-36077077D01*
X30229613Y-36235011D01*
X30319075Y-36368900D01*
X30823547Y-36873372D01*
X30957436Y-36962834D01*
X31115370Y-36994249D01*
X31364568Y-36994249D01*
X31369134Y-36997300D01*
X28423700Y-36997300D01*
X28423700Y-21262700D01*
X33033654Y-21262700D01*
X32581407Y-21714947D01*
G36*
X50780905Y-29421823D02*
X50914794Y-29511285D01*
X51072728Y-29542700D01*
X51347380Y-29542700D01*
X51347978Y-29545880D01*
X51416463Y-29652308D01*
X51520959Y-29723707D01*
X51645000Y-29748826D01*
X52007300Y-29748826D01*
X52007300Y-29781174D01*
X51645000Y-29781174D01*
X51529120Y-29802978D01*
X51422692Y-29871463D01*
X51351293Y-29975959D01*
X51326174Y-30100000D01*
X51326174Y-30700000D01*
X51347978Y-30815880D01*
X51416463Y-30922308D01*
X51520959Y-30993707D01*
X51645000Y-31018826D01*
X53195000Y-31018826D01*
X53310880Y-30997022D01*
X53417308Y-30928537D01*
X53488707Y-30824041D01*
X53513826Y-30700000D01*
X53513826Y-30100000D01*
X53492022Y-29984120D01*
X53423537Y-29877692D01*
X53319041Y-29806293D01*
X53195000Y-29781174D01*
X52832700Y-29781174D01*
X52832700Y-29748826D01*
X53195000Y-29748826D01*
X53310880Y-29727022D01*
X53417308Y-29658537D01*
X53488707Y-29554041D01*
X53513826Y-29430000D01*
X53513826Y-29312700D01*
X56726174Y-29312700D01*
X56726174Y-29430000D01*
X56747978Y-29545880D01*
X56816463Y-29652308D01*
X56920959Y-29723707D01*
X57045000Y-29748826D01*
X58595000Y-29748826D01*
X58710880Y-29727022D01*
X58817308Y-29658537D01*
X58888707Y-29554041D01*
X58913826Y-29430000D01*
X58913826Y-29312700D01*
X59137390Y-29312700D01*
X59137390Y-31513964D01*
X58964805Y-31686549D01*
X58964805Y-31370000D01*
X58939514Y-31235592D01*
X58860079Y-31112146D01*
X58738875Y-31029330D01*
X58642691Y-31009852D01*
X58710880Y-30997022D01*
X58817308Y-30928537D01*
X58888707Y-30824041D01*
X58913826Y-30700000D01*
X58913826Y-30100000D01*
X58892022Y-29984120D01*
X58823537Y-29877692D01*
X58719041Y-29806293D01*
X58595000Y-29781174D01*
X57045000Y-29781174D01*
X56929120Y-29802978D01*
X56822692Y-29871463D01*
X56751293Y-29975959D01*
X56726174Y-30100000D01*
X56726174Y-30700000D01*
X56747978Y-30815880D01*
X56816463Y-30922308D01*
X56920959Y-30993707D01*
X56997310Y-31009169D01*
X56910592Y-31025486D01*
X56787146Y-31104921D01*
X56751357Y-31157300D01*
X56745000Y-31157300D01*
X56548798Y-31196327D01*
X56382466Y-31307466D01*
X56382464Y-31307469D01*
X56137466Y-31552466D01*
X56026327Y-31718798D01*
X55987300Y-31915000D01*
X55987300Y-34075424D01*
X55938518Y-34124121D01*
X55837415Y-34367603D01*
X55837185Y-34631241D01*
X55937863Y-34874899D01*
X56031616Y-34968816D01*
X43552462Y-34968816D01*
X43177851Y-34594205D01*
X49433495Y-34594205D01*
X49591429Y-34562790D01*
X49725318Y-34473328D01*
X51124300Y-33074346D01*
X51124300Y-33181302D01*
X51163173Y-33181302D01*
X51124300Y-33220175D01*
X51124300Y-33343573D01*
X51203572Y-33534953D01*
X51350047Y-33681428D01*
X51541426Y-33760700D01*
X52048525Y-33760700D01*
X52178700Y-33630525D01*
X52178700Y-33090000D01*
X52661300Y-33090000D01*
X52661300Y-33630525D01*
X52791475Y-33760700D01*
X53298574Y-33760700D01*
X53489953Y-33681428D01*
X53636428Y-33534953D01*
X53715700Y-33343573D01*
X53715700Y-33220175D01*
X53585525Y-33090000D01*
X52661300Y-33090000D01*
X52178700Y-33090000D01*
X52158700Y-33090000D01*
X52158700Y-32790000D01*
X52178700Y-32790000D01*
X52178700Y-32678700D01*
X52661300Y-32678700D01*
X52661300Y-32790000D01*
X53585525Y-32790000D01*
X53715700Y-32659825D01*
X53715700Y-32536427D01*
X53636428Y-32345047D01*
X53489953Y-32198572D01*
X53433314Y-32175111D01*
X53488707Y-32094041D01*
X53513826Y-31970000D01*
X53513826Y-31370000D01*
X53492022Y-31254120D01*
X53423537Y-31147692D01*
X53319041Y-31076293D01*
X53195000Y-31051174D01*
X51645000Y-31051174D01*
X51529120Y-31072978D01*
X51422692Y-31141463D01*
X51351293Y-31245959D01*
X51326174Y-31370000D01*
X51326174Y-31705180D01*
X50035826Y-32995528D01*
X50035826Y-32640000D01*
X50014022Y-32524120D01*
X49945537Y-32417692D01*
X49841041Y-32346293D01*
X49717000Y-32321174D01*
X48812700Y-32321174D01*
X48812700Y-32288826D01*
X49717000Y-32288826D01*
X49832880Y-32267022D01*
X49939308Y-32198537D01*
X50010707Y-32094041D01*
X50035826Y-31970000D01*
X50035826Y-31403114D01*
X50044408Y-31403114D01*
X50150642Y-31509533D01*
X50375754Y-31603008D01*
X50619501Y-31603221D01*
X50844776Y-31510139D01*
X51017281Y-31337934D01*
X51110756Y-31112822D01*
X51110969Y-30869075D01*
X51017887Y-30643800D01*
X50845682Y-30471295D01*
X50620570Y-30377820D01*
X50376823Y-30377607D01*
X50151548Y-30470689D01*
X50098645Y-30523499D01*
X50035826Y-30460680D01*
X50035826Y-30100000D01*
X50014022Y-29984120D01*
X49956332Y-29894467D01*
X50011953Y-29871428D01*
X50158428Y-29724953D01*
X50237700Y-29533573D01*
X50237700Y-29410175D01*
X50198827Y-29371302D01*
X50237700Y-29371302D01*
X50237700Y-29312700D01*
X50671782Y-29312700D01*
X50780905Y-29421823D01*
X50780905Y-29421823D01*
G37*
X50780905Y-29421823D02*
X50914794Y-29511285D01*
X51072728Y-29542700D01*
X51347380Y-29542700D01*
X51347978Y-29545880D01*
X51416463Y-29652308D01*
X51520959Y-29723707D01*
X51645000Y-29748826D01*
X52007300Y-29748826D01*
X52007300Y-29781174D01*
X51645000Y-29781174D01*
X51529120Y-29802978D01*
X51422692Y-29871463D01*
X51351293Y-29975959D01*
X51326174Y-30100000D01*
X51326174Y-30700000D01*
X51347978Y-30815880D01*
X51416463Y-30922308D01*
X51520959Y-30993707D01*
X51645000Y-31018826D01*
X53195000Y-31018826D01*
X53310880Y-30997022D01*
X53417308Y-30928537D01*
X53488707Y-30824041D01*
X53513826Y-30700000D01*
X53513826Y-30100000D01*
X53492022Y-29984120D01*
X53423537Y-29877692D01*
X53319041Y-29806293D01*
X53195000Y-29781174D01*
X52832700Y-29781174D01*
X52832700Y-29748826D01*
X53195000Y-29748826D01*
X53310880Y-29727022D01*
X53417308Y-29658537D01*
X53488707Y-29554041D01*
X53513826Y-29430000D01*
X53513826Y-29312700D01*
X56726174Y-29312700D01*
X56726174Y-29430000D01*
X56747978Y-29545880D01*
X56816463Y-29652308D01*
X56920959Y-29723707D01*
X57045000Y-29748826D01*
X58595000Y-29748826D01*
X58710880Y-29727022D01*
X58817308Y-29658537D01*
X58888707Y-29554041D01*
X58913826Y-29430000D01*
X58913826Y-29312700D01*
X59137390Y-29312700D01*
X59137390Y-31513964D01*
X58964805Y-31686549D01*
X58964805Y-31370000D01*
X58939514Y-31235592D01*
X58860079Y-31112146D01*
X58738875Y-31029330D01*
X58642691Y-31009852D01*
X58710880Y-30997022D01*
X58817308Y-30928537D01*
X58888707Y-30824041D01*
X58913826Y-30700000D01*
X58913826Y-30100000D01*
X58892022Y-29984120D01*
X58823537Y-29877692D01*
X58719041Y-29806293D01*
X58595000Y-29781174D01*
X57045000Y-29781174D01*
X56929120Y-29802978D01*
X56822692Y-29871463D01*
X56751293Y-29975959D01*
X56726174Y-30100000D01*
X56726174Y-30700000D01*
X56747978Y-30815880D01*
X56816463Y-30922308D01*
X56920959Y-30993707D01*
X56997310Y-31009169D01*
X56910592Y-31025486D01*
X56787146Y-31104921D01*
X56751357Y-31157300D01*
X56745000Y-31157300D01*
X56548798Y-31196327D01*
X56382466Y-31307466D01*
X56382464Y-31307469D01*
X56137466Y-31552466D01*
X56026327Y-31718798D01*
X55987300Y-31915000D01*
X55987300Y-34075424D01*
X55938518Y-34124121D01*
X55837415Y-34367603D01*
X55837185Y-34631241D01*
X55937863Y-34874899D01*
X56031616Y-34968816D01*
X43552462Y-34968816D01*
X43177851Y-34594205D01*
X49433495Y-34594205D01*
X49591429Y-34562790D01*
X49725318Y-34473328D01*
X51124300Y-33074346D01*
X51124300Y-33181302D01*
X51163173Y-33181302D01*
X51124300Y-33220175D01*
X51124300Y-33343573D01*
X51203572Y-33534953D01*
X51350047Y-33681428D01*
X51541426Y-33760700D01*
X52048525Y-33760700D01*
X52178700Y-33630525D01*
X52178700Y-33090000D01*
X52661300Y-33090000D01*
X52661300Y-33630525D01*
X52791475Y-33760700D01*
X53298574Y-33760700D01*
X53489953Y-33681428D01*
X53636428Y-33534953D01*
X53715700Y-33343573D01*
X53715700Y-33220175D01*
X53585525Y-33090000D01*
X52661300Y-33090000D01*
X52178700Y-33090000D01*
X52158700Y-33090000D01*
X52158700Y-32790000D01*
X52178700Y-32790000D01*
X52178700Y-32678700D01*
X52661300Y-32678700D01*
X52661300Y-32790000D01*
X53585525Y-32790000D01*
X53715700Y-32659825D01*
X53715700Y-32536427D01*
X53636428Y-32345047D01*
X53489953Y-32198572D01*
X53433314Y-32175111D01*
X53488707Y-32094041D01*
X53513826Y-31970000D01*
X53513826Y-31370000D01*
X53492022Y-31254120D01*
X53423537Y-31147692D01*
X53319041Y-31076293D01*
X53195000Y-31051174D01*
X51645000Y-31051174D01*
X51529120Y-31072978D01*
X51422692Y-31141463D01*
X51351293Y-31245959D01*
X51326174Y-31370000D01*
X51326174Y-31705180D01*
X50035826Y-32995528D01*
X50035826Y-32640000D01*
X50014022Y-32524120D01*
X49945537Y-32417692D01*
X49841041Y-32346293D01*
X49717000Y-32321174D01*
X48812700Y-32321174D01*
X48812700Y-32288826D01*
X49717000Y-32288826D01*
X49832880Y-32267022D01*
X49939308Y-32198537D01*
X50010707Y-32094041D01*
X50035826Y-31970000D01*
X50035826Y-31403114D01*
X50044408Y-31403114D01*
X50150642Y-31509533D01*
X50375754Y-31603008D01*
X50619501Y-31603221D01*
X50844776Y-31510139D01*
X51017281Y-31337934D01*
X51110756Y-31112822D01*
X51110969Y-30869075D01*
X51017887Y-30643800D01*
X50845682Y-30471295D01*
X50620570Y-30377820D01*
X50376823Y-30377607D01*
X50151548Y-30470689D01*
X50098645Y-30523499D01*
X50035826Y-30460680D01*
X50035826Y-30100000D01*
X50014022Y-29984120D01*
X49956332Y-29894467D01*
X50011953Y-29871428D01*
X50158428Y-29724953D01*
X50237700Y-29533573D01*
X50237700Y-29410175D01*
X50198827Y-29371302D01*
X50237700Y-29371302D01*
X50237700Y-29312700D01*
X50671782Y-29312700D01*
X50780905Y-29421823D01*
G36*
X46680063Y-27285278D02*
X46680066Y-27285280D01*
X46979683Y-27584898D01*
X47065786Y-27671151D01*
X47290898Y-27764626D01*
X47442386Y-27764758D01*
X48009334Y-28331706D01*
X47872047Y-28388572D01*
X47725572Y-28535047D01*
X47646300Y-28726427D01*
X47646300Y-28849825D01*
X47685173Y-28888698D01*
X47672474Y-28888698D01*
X44896792Y-26113016D01*
X45507802Y-26113016D01*
X46680063Y-27285278D01*
X46680063Y-27285278D01*
G37*
X46680063Y-27285278D02*
X46680066Y-27285280D01*
X46979683Y-27584898D01*
X47065786Y-27671151D01*
X47290898Y-27764626D01*
X47442386Y-27764758D01*
X48009334Y-28331706D01*
X47872047Y-28388572D01*
X47725572Y-28535047D01*
X47646300Y-28726427D01*
X47646300Y-28849825D01*
X47685173Y-28888698D01*
X47672474Y-28888698D01*
X44896792Y-26113016D01*
X45507802Y-26113016D01*
X46680063Y-27285278D01*
G36*
X61487300Y-21885787D02*
X61350000Y-21885787D01*
X61300204Y-21889758D01*
X61215744Y-21915914D01*
X61141915Y-21964564D01*
X61084562Y-22031856D01*
X61048227Y-22112462D01*
X61035787Y-22200000D01*
X61035787Y-22900000D01*
X61039758Y-22949796D01*
X61065914Y-23034256D01*
X61114564Y-23108085D01*
X61181856Y-23165438D01*
X61262462Y-23201773D01*
X61350000Y-23214213D01*
X61487300Y-23214213D01*
X61487300Y-23653654D01*
X60464213Y-22630567D01*
X60464213Y-22200000D01*
X60460242Y-22150204D01*
X60434086Y-22065744D01*
X60385436Y-21991915D01*
X60318144Y-21934562D01*
X60237538Y-21898227D01*
X60150000Y-21885787D01*
X58850000Y-21885787D01*
X58800204Y-21889758D01*
X58715744Y-21915914D01*
X58641915Y-21964564D01*
X58584562Y-22031856D01*
X58548227Y-22112462D01*
X58535787Y-22200000D01*
X58535787Y-22900000D01*
X58539758Y-22949796D01*
X58565914Y-23034256D01*
X58614564Y-23108085D01*
X58681856Y-23165438D01*
X58762462Y-23201773D01*
X58850000Y-23214213D01*
X59880567Y-23214213D01*
X61035787Y-24369433D01*
X61035787Y-24800000D01*
X61039758Y-24849796D01*
X61046095Y-24870259D01*
X61028894Y-24887460D01*
X60944201Y-24886869D01*
X60826172Y-24909384D01*
X60714765Y-24954395D01*
X60614222Y-25020189D01*
X60528373Y-25104258D01*
X60460489Y-25203401D01*
X60413154Y-25313841D01*
X60388172Y-25431372D01*
X60386494Y-25551518D01*
X60408185Y-25669700D01*
X60415154Y-25687301D01*
X60283543Y-25687301D01*
X60295921Y-25632816D01*
X60297838Y-25495575D01*
X60274499Y-25377706D01*
X60228711Y-25266616D01*
X60162217Y-25166535D01*
X60110260Y-25114213D01*
X60150000Y-25114213D01*
X60199796Y-25110242D01*
X60284256Y-25084086D01*
X60358085Y-25035436D01*
X60415438Y-24968144D01*
X60451773Y-24887538D01*
X60464213Y-24800000D01*
X60464213Y-24100000D01*
X60460242Y-24050204D01*
X60434086Y-23965744D01*
X60385436Y-23891915D01*
X60318144Y-23834562D01*
X60237538Y-23798227D01*
X60150000Y-23785787D01*
X58850000Y-23785787D01*
X58800204Y-23789758D01*
X58715744Y-23815914D01*
X58641915Y-23864564D01*
X58584562Y-23931856D01*
X58548227Y-24012462D01*
X58535787Y-24100000D01*
X58535787Y-24800000D01*
X58539758Y-24849796D01*
X58565914Y-24934256D01*
X58614564Y-25008085D01*
X58681856Y-25065438D01*
X58762462Y-25101773D01*
X58850000Y-25114213D01*
X59087300Y-25114213D01*
X59087300Y-25370542D01*
X59090691Y-25405126D01*
X59073283Y-25487025D01*
X59071605Y-25607171D01*
X59093296Y-25725353D01*
X59137528Y-25837072D01*
X59202618Y-25938072D01*
X59286086Y-26024505D01*
X59384753Y-26093081D01*
X59494860Y-26141185D01*
X59593215Y-26162810D01*
X57638726Y-28117299D01*
X56804999Y-28117299D01*
X56767024Y-28121023D01*
X56729083Y-28124342D01*
X56727001Y-28124947D01*
X56724838Y-28125159D01*
X56688311Y-28136187D01*
X56651736Y-28146813D01*
X56649810Y-28147811D01*
X56647731Y-28148439D01*
X56614075Y-28166334D01*
X56580226Y-28183879D01*
X56578529Y-28185234D01*
X56576614Y-28186252D01*
X56547065Y-28210352D01*
X56517279Y-28234130D01*
X56514262Y-28237106D01*
X56514196Y-28237159D01*
X56514146Y-28237220D01*
X56513176Y-28238176D01*
X55764052Y-28987300D01*
X54475948Y-28987300D01*
X52959532Y-27470884D01*
X52930078Y-27446691D01*
X52900871Y-27422183D01*
X52898969Y-27421137D01*
X52897292Y-27419760D01*
X52863707Y-27401752D01*
X52830289Y-27383380D01*
X52828220Y-27382724D01*
X52826307Y-27381698D01*
X52789869Y-27370558D01*
X52753514Y-27359025D01*
X52751355Y-27358783D01*
X52749282Y-27358149D01*
X52711363Y-27354297D01*
X52673471Y-27350047D01*
X52669233Y-27350018D01*
X52669149Y-27350009D01*
X52669070Y-27350016D01*
X52667709Y-27350007D01*
X49166202Y-27350007D01*
X47609862Y-25793667D01*
X47609862Y-25729614D01*
X47662693Y-25679303D01*
X47731956Y-25581118D01*
X47780828Y-25471349D01*
X47807448Y-25354178D01*
X47809365Y-25216937D01*
X47786026Y-25099068D01*
X47740238Y-24987978D01*
X47673744Y-24887897D01*
X47589078Y-24802637D01*
X47489463Y-24735446D01*
X47378695Y-24688884D01*
X47260993Y-24664723D01*
X47140839Y-24663884D01*
X47022810Y-24686399D01*
X46911403Y-24731410D01*
X46810860Y-24797204D01*
X46725011Y-24881273D01*
X46657127Y-24980416D01*
X46609792Y-25090856D01*
X46584810Y-25208387D01*
X46583132Y-25328533D01*
X46604823Y-25446715D01*
X46624712Y-25496950D01*
X46194834Y-25067072D01*
X46151120Y-25031165D01*
X46107745Y-24994769D01*
X46104921Y-24993217D01*
X46102432Y-24991172D01*
X46052558Y-24964430D01*
X46002958Y-24937162D01*
X45999887Y-24936188D01*
X45997047Y-24934665D01*
X45942911Y-24918114D01*
X45888977Y-24901005D01*
X45885776Y-24900646D01*
X45882695Y-24899704D01*
X45826389Y-24893985D01*
X45770145Y-24887676D01*
X45763845Y-24887632D01*
X45763729Y-24887620D01*
X45763621Y-24887630D01*
X45761590Y-24887616D01*
X43506295Y-24887616D01*
X43444571Y-24887185D01*
X43326542Y-24909700D01*
X43215135Y-24954711D01*
X43114592Y-25020505D01*
X43028743Y-25104574D01*
X42960859Y-25203717D01*
X42913524Y-25314157D01*
X42888542Y-25431688D01*
X42886864Y-25551834D01*
X42908555Y-25670016D01*
X42929954Y-25724065D01*
X41035831Y-25724065D01*
X36574466Y-21262700D01*
X61487300Y-21262700D01*
X61487300Y-21885787D01*
X61487300Y-21885787D01*
G37*
X61487300Y-21885787D02*
X61350000Y-21885787D01*
X61300204Y-21889758D01*
X61215744Y-21915914D01*
X61141915Y-21964564D01*
X61084562Y-22031856D01*
X61048227Y-22112462D01*
X61035787Y-22200000D01*
X61035787Y-22900000D01*
X61039758Y-22949796D01*
X61065914Y-23034256D01*
X61114564Y-23108085D01*
X61181856Y-23165438D01*
X61262462Y-23201773D01*
X61350000Y-23214213D01*
X61487300Y-23214213D01*
X61487300Y-23653654D01*
X60464213Y-22630567D01*
X60464213Y-22200000D01*
X60460242Y-22150204D01*
X60434086Y-22065744D01*
X60385436Y-21991915D01*
X60318144Y-21934562D01*
X60237538Y-21898227D01*
X60150000Y-21885787D01*
X58850000Y-21885787D01*
X58800204Y-21889758D01*
X58715744Y-21915914D01*
X58641915Y-21964564D01*
X58584562Y-22031856D01*
X58548227Y-22112462D01*
X58535787Y-22200000D01*
X58535787Y-22900000D01*
X58539758Y-22949796D01*
X58565914Y-23034256D01*
X58614564Y-23108085D01*
X58681856Y-23165438D01*
X58762462Y-23201773D01*
X58850000Y-23214213D01*
X59880567Y-23214213D01*
X61035787Y-24369433D01*
X61035787Y-24800000D01*
X61039758Y-24849796D01*
X61046095Y-24870259D01*
X61028894Y-24887460D01*
X60944201Y-24886869D01*
X60826172Y-24909384D01*
X60714765Y-24954395D01*
X60614222Y-25020189D01*
X60528373Y-25104258D01*
X60460489Y-25203401D01*
X60413154Y-25313841D01*
X60388172Y-25431372D01*
X60386494Y-25551518D01*
X60408185Y-25669700D01*
X60415154Y-25687301D01*
X60283543Y-25687301D01*
X60295921Y-25632816D01*
X60297838Y-25495575D01*
X60274499Y-25377706D01*
X60228711Y-25266616D01*
X60162217Y-25166535D01*
X60110260Y-25114213D01*
X60150000Y-25114213D01*
X60199796Y-25110242D01*
X60284256Y-25084086D01*
X60358085Y-25035436D01*
X60415438Y-24968144D01*
X60451773Y-24887538D01*
X60464213Y-24800000D01*
X60464213Y-24100000D01*
X60460242Y-24050204D01*
X60434086Y-23965744D01*
X60385436Y-23891915D01*
X60318144Y-23834562D01*
X60237538Y-23798227D01*
X60150000Y-23785787D01*
X58850000Y-23785787D01*
X58800204Y-23789758D01*
X58715744Y-23815914D01*
X58641915Y-23864564D01*
X58584562Y-23931856D01*
X58548227Y-24012462D01*
X58535787Y-24100000D01*
X58535787Y-24800000D01*
X58539758Y-24849796D01*
X58565914Y-24934256D01*
X58614564Y-25008085D01*
X58681856Y-25065438D01*
X58762462Y-25101773D01*
X58850000Y-25114213D01*
X59087300Y-25114213D01*
X59087300Y-25370542D01*
X59090691Y-25405126D01*
X59073283Y-25487025D01*
X59071605Y-25607171D01*
X59093296Y-25725353D01*
X59137528Y-25837072D01*
X59202618Y-25938072D01*
X59286086Y-26024505D01*
X59384753Y-26093081D01*
X59494860Y-26141185D01*
X59593215Y-26162810D01*
X57638726Y-28117299D01*
X56804999Y-28117299D01*
X56767024Y-28121023D01*
X56729083Y-28124342D01*
X56727001Y-28124947D01*
X56724838Y-28125159D01*
X56688311Y-28136187D01*
X56651736Y-28146813D01*
X56649810Y-28147811D01*
X56647731Y-28148439D01*
X56614075Y-28166334D01*
X56580226Y-28183879D01*
X56578529Y-28185234D01*
X56576614Y-28186252D01*
X56547065Y-28210352D01*
X56517279Y-28234130D01*
X56514262Y-28237106D01*
X56514196Y-28237159D01*
X56514146Y-28237220D01*
X56513176Y-28238176D01*
X55764052Y-28987300D01*
X54475948Y-28987300D01*
X52959532Y-27470884D01*
X52930078Y-27446691D01*
X52900871Y-27422183D01*
X52898969Y-27421137D01*
X52897292Y-27419760D01*
X52863707Y-27401752D01*
X52830289Y-27383380D01*
X52828220Y-27382724D01*
X52826307Y-27381698D01*
X52789869Y-27370558D01*
X52753514Y-27359025D01*
X52751355Y-27358783D01*
X52749282Y-27358149D01*
X52711363Y-27354297D01*
X52673471Y-27350047D01*
X52669233Y-27350018D01*
X52669149Y-27350009D01*
X52669070Y-27350016D01*
X52667709Y-27350007D01*
X49166202Y-27350007D01*
X47609862Y-25793667D01*
X47609862Y-25729614D01*
X47662693Y-25679303D01*
X47731956Y-25581118D01*
X47780828Y-25471349D01*
X47807448Y-25354178D01*
X47809365Y-25216937D01*
X47786026Y-25099068D01*
X47740238Y-24987978D01*
X47673744Y-24887897D01*
X47589078Y-24802637D01*
X47489463Y-24735446D01*
X47378695Y-24688884D01*
X47260993Y-24664723D01*
X47140839Y-24663884D01*
X47022810Y-24686399D01*
X46911403Y-24731410D01*
X46810860Y-24797204D01*
X46725011Y-24881273D01*
X46657127Y-24980416D01*
X46609792Y-25090856D01*
X46584810Y-25208387D01*
X46583132Y-25328533D01*
X46604823Y-25446715D01*
X46624712Y-25496950D01*
X46194834Y-25067072D01*
X46151120Y-25031165D01*
X46107745Y-24994769D01*
X46104921Y-24993217D01*
X46102432Y-24991172D01*
X46052558Y-24964430D01*
X46002958Y-24937162D01*
X45999887Y-24936188D01*
X45997047Y-24934665D01*
X45942911Y-24918114D01*
X45888977Y-24901005D01*
X45885776Y-24900646D01*
X45882695Y-24899704D01*
X45826389Y-24893985D01*
X45770145Y-24887676D01*
X45763845Y-24887632D01*
X45763729Y-24887620D01*
X45763621Y-24887630D01*
X45761590Y-24887616D01*
X43506295Y-24887616D01*
X43444571Y-24887185D01*
X43326542Y-24909700D01*
X43215135Y-24954711D01*
X43114592Y-25020505D01*
X43028743Y-25104574D01*
X42960859Y-25203717D01*
X42913524Y-25314157D01*
X42888542Y-25431688D01*
X42886864Y-25551834D01*
X42908555Y-25670016D01*
X42929954Y-25724065D01*
X41035831Y-25724065D01*
X36574466Y-21262700D01*
X61487300Y-21262700D01*
X61487300Y-21885787D01*
G36*
X44835707Y-27219223D02*
X47124103Y-29507619D01*
X47124103Y-31262344D01*
X47155518Y-31420278D01*
X47244980Y-31554167D01*
X47652636Y-31961823D01*
X47786526Y-32051285D01*
X47866460Y-32067185D01*
X47869978Y-32085880D01*
X47938463Y-32192308D01*
X48042959Y-32263707D01*
X48167000Y-32288826D01*
X48487300Y-32288826D01*
X48487300Y-32321174D01*
X48167000Y-32321174D01*
X48051120Y-32342978D01*
X47944692Y-32411463D01*
X47873293Y-32515959D01*
X47848174Y-32640000D01*
X47848174Y-33240000D01*
X47869978Y-33355880D01*
X47938463Y-33462308D01*
X47986743Y-33495297D01*
X47713235Y-33768805D01*
X43325855Y-33768805D01*
X41665227Y-32108177D01*
X41531338Y-32018715D01*
X41373404Y-31987300D01*
X40457028Y-31987300D01*
X40447022Y-31934120D01*
X40378537Y-31827692D01*
X40274041Y-31756293D01*
X40150000Y-31731174D01*
X38850000Y-31731174D01*
X38734120Y-31752978D01*
X38644374Y-31810728D01*
X38412700Y-31579054D01*
X38412700Y-29105260D01*
X38556174Y-28961786D01*
X38556174Y-29000000D01*
X38577978Y-29115880D01*
X38646463Y-29222308D01*
X38750959Y-29293707D01*
X38875000Y-29318826D01*
X40125000Y-29318826D01*
X40240880Y-29297022D01*
X40347308Y-29228537D01*
X40418707Y-29124041D01*
X40443826Y-29000000D01*
X40443826Y-28901849D01*
X40547208Y-28881285D01*
X40681097Y-28791823D01*
X42201921Y-27270999D01*
X43405765Y-27270999D01*
X43507790Y-27373202D01*
X43732902Y-27466677D01*
X43976649Y-27466890D01*
X44201924Y-27373808D01*
X44374429Y-27201603D01*
X44467904Y-26976491D01*
X44467981Y-26888270D01*
X44835707Y-27219223D01*
X44835707Y-27219223D01*
G37*
X44835707Y-27219223D02*
X47124103Y-29507619D01*
X47124103Y-31262344D01*
X47155518Y-31420278D01*
X47244980Y-31554167D01*
X47652636Y-31961823D01*
X47786526Y-32051285D01*
X47866460Y-32067185D01*
X47869978Y-32085880D01*
X47938463Y-32192308D01*
X48042959Y-32263707D01*
X48167000Y-32288826D01*
X48487300Y-32288826D01*
X48487300Y-32321174D01*
X48167000Y-32321174D01*
X48051120Y-32342978D01*
X47944692Y-32411463D01*
X47873293Y-32515959D01*
X47848174Y-32640000D01*
X47848174Y-33240000D01*
X47869978Y-33355880D01*
X47938463Y-33462308D01*
X47986743Y-33495297D01*
X47713235Y-33768805D01*
X43325855Y-33768805D01*
X41665227Y-32108177D01*
X41531338Y-32018715D01*
X41373404Y-31987300D01*
X40457028Y-31987300D01*
X40447022Y-31934120D01*
X40378537Y-31827692D01*
X40274041Y-31756293D01*
X40150000Y-31731174D01*
X38850000Y-31731174D01*
X38734120Y-31752978D01*
X38644374Y-31810728D01*
X38412700Y-31579054D01*
X38412700Y-29105260D01*
X38556174Y-28961786D01*
X38556174Y-29000000D01*
X38577978Y-29115880D01*
X38646463Y-29222308D01*
X38750959Y-29293707D01*
X38875000Y-29318826D01*
X40125000Y-29318826D01*
X40240880Y-29297022D01*
X40347308Y-29228537D01*
X40418707Y-29124041D01*
X40443826Y-29000000D01*
X40443826Y-28901849D01*
X40547208Y-28881285D01*
X40681097Y-28791823D01*
X42201921Y-27270999D01*
X43405765Y-27270999D01*
X43507790Y-27373202D01*
X43732902Y-27466677D01*
X43976649Y-27466890D01*
X44201924Y-27373808D01*
X44374429Y-27201603D01*
X44467904Y-26976491D01*
X44467981Y-26888270D01*
X44835707Y-27219223D01*
M02*
