M48
;DRILL file {KiCad 4.0.7-e2-6376~58~ubuntu16.04.1} date Wed Dec  6 16:05:13 2017
;FORMAT={3:3/ absolute / metric / suppress leading zeros}
FMAT,2
METRIC,TZ
T1C0.400
T2C1.000
%
G90
G05
M71
T1
X36532Y-29408
X37500Y-33500
X39500Y-33500
X41500Y-33500
X43500Y-25500
X43855Y-26854
X45552Y-26480
X46003Y-32501
X47197Y-25277
X47413Y-27152
X47776Y-34782
X50498Y-30990
X51500Y-24500
X52500Y-22500
X52500Y-23500
X52500Y-24500
X52500Y-25500
X52500Y-26500
X56500Y-34500
X57500Y-22500
X57500Y-23500
X57500Y-24500
X57500Y-25500
X57500Y-26500
X57500Y-27500
X59502Y-34002
X59685Y-25556
X61000Y-25500
X61000Y-32000
X61000Y-29500
X61000Y-28500
X61001Y-27546
X62476Y-35005
X63488Y-35853
X63753Y-22672
X64634Y-26908
X66000Y-27500
X68000Y-33854
X68767Y-31835
X69500Y-36000
X70870Y-36092
X73998Y-34001
X74000Y-24500
X75000Y-26500
T2
X32100Y-22780
X32100Y-25320
X32100Y-27860
X32100Y-30400
X32100Y-32940
X32100Y-35480
X34640Y-22780
X34640Y-25320
X34640Y-27860
X34640Y-30400
X34640Y-32940
X34640Y-35480
X77000Y-25320
X77000Y-27860
X77000Y-30400
X77000Y-32940
T0
M30
