%TF.GenerationSoftware,KiCad,Pcbnew,4.0.7-e2-6376~58~ubuntu16.04.1*%
%TF.CreationDate,2017-12-06T16:05:08+02:00*%
%TF.ProjectId,ecu_emu,6563755F656D752E6B696361645F7063,rev?*%
%TF.FileFunction,Other,User*%
%FSLAX46Y46*%
G04 Gerber Fmt 4.6, Leading zero omitted, Abs format (unit mm)*
G04 Created by KiCad (PCBNEW 4.0.7-e2-6376~58~ubuntu16.04.1) date Wed Dec  6 16:05:08 2017*
%MOMM*%
%LPD*%
G01*
G04 APERTURE LIST*
%ADD10C,0.100000*%
%ADD11C,0.050000*%
G04 APERTURE END LIST*
D10*
D11*
X64750000Y-23880000D02*
X68250000Y-23880000D01*
X64750000Y-23880000D02*
X64750000Y-22130000D01*
X68250000Y-22130000D02*
X68250000Y-23880000D01*
X68250000Y-22130000D02*
X64750000Y-22130000D01*
X64750000Y-31880000D02*
X68250000Y-31880000D01*
X64750000Y-31880000D02*
X64750000Y-30130000D01*
X68250000Y-30130000D02*
X68250000Y-31880000D01*
X68250000Y-30130000D02*
X64750000Y-30130000D01*
X72750000Y-24120000D02*
X69250000Y-24120000D01*
X72750000Y-24120000D02*
X72750000Y-25870000D01*
X69250000Y-25870000D02*
X69250000Y-24120000D01*
X69250000Y-25870000D02*
X72750000Y-25870000D01*
X58600000Y-21950000D02*
X58600000Y-25050000D01*
X58600000Y-21950000D02*
X60400000Y-21950000D01*
X60400000Y-25050000D02*
X58600000Y-25050000D01*
X60400000Y-25050000D02*
X60400000Y-21950000D01*
X40400000Y-33000000D02*
X40400000Y-29900000D01*
X40400000Y-33000000D02*
X38600000Y-33000000D01*
X38600000Y-29900000D02*
X40400000Y-29900000D01*
X38600000Y-29900000D02*
X38600000Y-33000000D01*
X58850000Y-28335000D02*
X58850000Y-33735000D01*
X51390000Y-28335000D02*
X51390000Y-33735000D01*
X58850000Y-28335000D02*
X51390000Y-28335000D01*
X58850000Y-33735000D02*
X51390000Y-33735000D01*
X64600000Y-24200000D02*
X68400000Y-24200000D01*
X68400000Y-24200000D02*
X68400000Y-29800000D01*
X68400000Y-29800000D02*
X64600000Y-29800000D01*
X64600000Y-29800000D02*
X64600000Y-24200000D01*
X61100000Y-21950000D02*
X61100000Y-25050000D01*
X61100000Y-21950000D02*
X62900000Y-21950000D01*
X62900000Y-25050000D02*
X61100000Y-25050000D01*
X62900000Y-25050000D02*
X62900000Y-21950000D01*
X38620000Y-25750000D02*
X38620000Y-29250000D01*
X38620000Y-25750000D02*
X40370000Y-25750000D01*
X40370000Y-29250000D02*
X38620000Y-29250000D01*
X40370000Y-29250000D02*
X40370000Y-25750000D01*
X72750000Y-28120000D02*
X69250000Y-28120000D01*
X72750000Y-28120000D02*
X72750000Y-29870000D01*
X69250000Y-29870000D02*
X69250000Y-28120000D01*
X69250000Y-29870000D02*
X72750000Y-29870000D01*
X72750000Y-32120000D02*
X69250000Y-32120000D01*
X72750000Y-32120000D02*
X72750000Y-33870000D01*
X69250000Y-33870000D02*
X69250000Y-32120000D01*
X69250000Y-33870000D02*
X72750000Y-33870000D01*
X72750000Y-26120000D02*
X69250000Y-26120000D01*
X72750000Y-26120000D02*
X72750000Y-27870000D01*
X69250000Y-27870000D02*
X69250000Y-26120000D01*
X69250000Y-27870000D02*
X72750000Y-27870000D01*
X72750000Y-22120000D02*
X69250000Y-22120000D01*
X72750000Y-22120000D02*
X72750000Y-23870000D01*
X69250000Y-23870000D02*
X69250000Y-22120000D01*
X69250000Y-23870000D02*
X72750000Y-23870000D01*
X72750000Y-30120000D02*
X69250000Y-30120000D01*
X72750000Y-30120000D02*
X72750000Y-31870000D01*
X69250000Y-31870000D02*
X69250000Y-30120000D01*
X69250000Y-31870000D02*
X72750000Y-31870000D01*
X49972000Y-28335000D02*
X49972000Y-33735000D01*
X42512000Y-28335000D02*
X42512000Y-33735000D01*
X49972000Y-28335000D02*
X42512000Y-28335000D01*
X49972000Y-33735000D02*
X42512000Y-33735000D01*
X74950000Y-35150000D02*
X74950000Y-36850000D01*
X74950000Y-36850000D02*
X78850000Y-36850000D01*
X78850000Y-36850000D02*
X78850000Y-35150000D01*
X78850000Y-35150000D02*
X74950000Y-35150000D01*
X74550000Y-35100000D02*
X71450000Y-35100000D01*
X74550000Y-35100000D02*
X74550000Y-36900000D01*
X71450000Y-36900000D02*
X71450000Y-35100000D01*
X71450000Y-36900000D02*
X74550000Y-36900000D01*
M02*
