%FSLAX45Y45*%
G04 Gerber Fmt 4.5, Leading zero omitted, Abs format (unit mm)*
G04 Created by KiCad (PCBNEW 4.0.7-e2-6376~58~ubuntu16.04.1) date Wed Dec  6 16:16:50 2017*
%MOMM*%
%LPD*%
G01*
G04 APERTURE LIST*
%ADD10C,0.127000*%
%ADD11C,0.150000*%
%ADD12C,0.200000*%
%ADD13C,0.300000*%
G04 APERTURE END LIST*
D10*
D11*
X7934400Y-2087500D02*
X7934400Y-3738500D01*
X2803600Y-3738500D02*
X7934400Y-3738500D01*
X2803600Y-2087500D02*
X7934400Y-2087500D01*
X2803600Y-3738500D02*
X2803600Y-2087500D01*
D12*
X3633249Y-2920753D02*
X3673249Y-2960753D01*
X3673249Y-2920753D02*
X3633249Y-2960753D01*
X3730000Y-3330000D02*
X3770000Y-3370000D01*
X3770000Y-3330000D02*
X3730000Y-3370000D01*
X3930000Y-3330000D02*
X3970000Y-3370000D01*
X3970000Y-3330000D02*
X3930000Y-3370000D01*
X4130000Y-3330000D02*
X4170000Y-3370000D01*
X4170000Y-3330000D02*
X4130000Y-3370000D01*
X4330037Y-2530032D02*
X4370037Y-2570032D01*
X4370037Y-2530032D02*
X4330037Y-2570032D01*
X4365531Y-2665408D02*
X4405531Y-2705408D01*
X4405531Y-2665408D02*
X4365531Y-2705408D01*
X4535238Y-2628002D02*
X4575238Y-2668002D01*
X4575238Y-2628002D02*
X4535238Y-2668002D01*
X4580305Y-3230112D02*
X4620305Y-3270112D01*
X4620305Y-3230112D02*
X4580305Y-3270112D01*
X4699664Y-2507702D02*
X4739664Y-2547702D01*
X4739664Y-2507702D02*
X4699664Y-2547702D01*
X4721331Y-2695203D02*
X4761331Y-2735203D01*
X4761331Y-2695203D02*
X4721331Y-2735203D01*
X4757624Y-3458151D02*
X4797624Y-3498151D01*
X4797624Y-3458151D02*
X4757624Y-3498151D01*
X5029816Y-3079041D02*
X5069816Y-3119041D01*
X5069816Y-3079041D02*
X5029816Y-3119041D01*
X5130000Y-2430000D02*
X5170000Y-2470000D01*
X5170000Y-2430000D02*
X5130000Y-2470000D01*
X5230000Y-2230000D02*
X5270000Y-2270000D01*
X5270000Y-2230000D02*
X5230000Y-2270000D01*
X5230000Y-2330000D02*
X5270000Y-2370000D01*
X5270000Y-2330000D02*
X5230000Y-2370000D01*
X5230000Y-2430000D02*
X5270000Y-2470000D01*
X5270000Y-2430000D02*
X5230000Y-2470000D01*
X5230000Y-2530000D02*
X5270000Y-2570000D01*
X5270000Y-2530000D02*
X5230000Y-2570000D01*
X5230000Y-2630000D02*
X5270000Y-2670000D01*
X5270000Y-2630000D02*
X5230000Y-2670000D01*
X5630000Y-3430000D02*
X5670000Y-3470000D01*
X5670000Y-3430000D02*
X5630000Y-3470000D01*
X5730000Y-2230000D02*
X5770000Y-2270000D01*
X5770000Y-2230000D02*
X5730000Y-2270000D01*
X5730000Y-2330000D02*
X5770000Y-2370000D01*
X5770000Y-2330000D02*
X5730000Y-2370000D01*
X5730000Y-2430000D02*
X5770000Y-2470000D01*
X5770000Y-2430000D02*
X5730000Y-2470000D01*
X5730000Y-2530000D02*
X5770000Y-2570000D01*
X5770000Y-2530000D02*
X5730000Y-2570000D01*
X5730000Y-2630000D02*
X5770000Y-2670000D01*
X5770000Y-2630000D02*
X5730000Y-2670000D01*
X5730000Y-2730000D02*
X5770000Y-2770000D01*
X5770000Y-2730000D02*
X5730000Y-2770000D01*
X5930168Y-3380206D02*
X5970168Y-3420206D01*
X5970168Y-3380206D02*
X5930168Y-3420206D01*
X5948511Y-2535565D02*
X5988511Y-2575565D01*
X5988511Y-2535565D02*
X5948511Y-2575565D01*
X6080000Y-2530000D02*
X6120000Y-2570000D01*
X6120000Y-2530000D02*
X6080000Y-2570000D01*
X6080000Y-3180000D02*
X6120000Y-3220000D01*
X6120000Y-3180000D02*
X6080000Y-3220000D01*
X6080006Y-2930003D02*
X6120006Y-2970003D01*
X6120006Y-2930003D02*
X6080006Y-2970003D01*
X6080013Y-2830035D02*
X6120013Y-2870035D01*
X6120013Y-2830035D02*
X6080013Y-2870035D01*
X6080120Y-2734633D02*
X6120120Y-2774633D01*
X6120120Y-2734633D02*
X6080120Y-2774633D01*
X6227604Y-3480513D02*
X6267604Y-3520513D01*
X6267604Y-3480513D02*
X6227604Y-3520513D01*
X6328776Y-3565305D02*
X6368776Y-3605305D01*
X6368776Y-3565305D02*
X6328776Y-3605305D01*
X6355299Y-2247225D02*
X6395299Y-2287225D01*
X6395299Y-2247225D02*
X6355299Y-2287225D01*
X6443383Y-2670813D02*
X6483383Y-2710813D01*
X6483383Y-2670813D02*
X6443383Y-2710813D01*
X6580000Y-2730000D02*
X6620000Y-2770000D01*
X6620000Y-2730000D02*
X6580000Y-2770000D01*
X6780000Y-3365363D02*
X6820000Y-3405363D01*
X6820000Y-3365363D02*
X6780000Y-3405363D01*
X6856749Y-3163467D02*
X6896749Y-3203467D01*
X6896749Y-3163467D02*
X6856749Y-3203467D01*
X6930048Y-3579985D02*
X6970048Y-3619985D01*
X6970048Y-3579985D02*
X6930048Y-3619985D01*
X7067030Y-3589214D02*
X7107030Y-3629214D01*
X7107030Y-3589214D02*
X7067030Y-3629214D01*
X7379841Y-3380096D02*
X7419841Y-3420096D01*
X7419841Y-3380096D02*
X7379841Y-3420096D01*
X7380000Y-2430000D02*
X7420000Y-2470000D01*
X7420000Y-2430000D02*
X7380000Y-2470000D01*
X7480000Y-2630000D02*
X7520000Y-2670000D01*
X7520000Y-2630000D02*
X7480000Y-2670000D01*
X3260000Y-2278000D02*
G75*
G03X3260000Y-2278000I-50000J0D01*
G01*
X3260000Y-2532000D02*
G75*
G03X3260000Y-2532000I-50000J0D01*
G01*
X3260000Y-2786000D02*
G75*
G03X3260000Y-2786000I-50000J0D01*
G01*
X3260000Y-3040000D02*
G75*
G03X3260000Y-3040000I-50000J0D01*
G01*
X3260000Y-3294000D02*
G75*
G03X3260000Y-3294000I-50000J0D01*
G01*
X3260000Y-3548000D02*
G75*
G03X3260000Y-3548000I-50000J0D01*
G01*
X3514000Y-2278000D02*
G75*
G03X3514000Y-2278000I-50000J0D01*
G01*
X3514000Y-2532000D02*
G75*
G03X3514000Y-2532000I-50000J0D01*
G01*
X3514000Y-2786000D02*
G75*
G03X3514000Y-2786000I-50000J0D01*
G01*
X3514000Y-3040000D02*
G75*
G03X3514000Y-3040000I-50000J0D01*
G01*
X3514000Y-3294000D02*
G75*
G03X3514000Y-3294000I-50000J0D01*
G01*
X3514000Y-3548000D02*
G75*
G03X3514000Y-3548000I-50000J0D01*
G01*
X7750000Y-2532000D02*
G75*
G03X7750000Y-2532000I-50000J0D01*
G01*
X7750000Y-2786000D02*
G75*
G03X7750000Y-2786000I-50000J0D01*
G01*
X7750000Y-3040000D02*
G75*
G03X7750000Y-3040000I-50000J0D01*
G01*
X7750000Y-3294000D02*
G75*
G03X7750000Y-3294000I-50000J0D01*
G01*
D13*
X3067528Y-4211714D02*
X3067528Y-3911714D01*
X3138957Y-3911714D01*
X3181814Y-3926000D01*
X3210386Y-3954571D01*
X3224671Y-3983143D01*
X3238957Y-4040286D01*
X3238957Y-4083143D01*
X3224671Y-4140286D01*
X3210386Y-4168857D01*
X3181814Y-4197429D01*
X3138957Y-4211714D01*
X3067528Y-4211714D01*
X3367528Y-4211714D02*
X3367528Y-4011714D01*
X3367528Y-4068857D02*
X3381814Y-4040286D01*
X3396100Y-4026000D01*
X3424671Y-4011714D01*
X3453243Y-4011714D01*
X3553243Y-4211714D02*
X3553243Y-4011714D01*
X3553243Y-3911714D02*
X3538957Y-3926000D01*
X3553243Y-3940286D01*
X3567528Y-3926000D01*
X3553243Y-3911714D01*
X3553243Y-3940286D01*
X3738957Y-4211714D02*
X3710386Y-4197429D01*
X3696100Y-4168857D01*
X3696100Y-3911714D01*
X3896100Y-4211714D02*
X3867528Y-4197429D01*
X3853243Y-4168857D01*
X3853243Y-3911714D01*
X4238957Y-4211714D02*
X4238957Y-3911714D01*
X4338957Y-4126000D01*
X4438957Y-3911714D01*
X4438957Y-4211714D01*
X4710386Y-4211714D02*
X4710386Y-4054571D01*
X4696100Y-4026000D01*
X4667529Y-4011714D01*
X4610386Y-4011714D01*
X4581814Y-4026000D01*
X4710386Y-4197429D02*
X4681814Y-4211714D01*
X4610386Y-4211714D01*
X4581814Y-4197429D01*
X4567529Y-4168857D01*
X4567529Y-4140286D01*
X4581814Y-4111714D01*
X4610386Y-4097429D01*
X4681814Y-4097429D01*
X4710386Y-4083143D01*
X4853243Y-4011714D02*
X4853243Y-4311714D01*
X4853243Y-4026000D02*
X4881814Y-4011714D01*
X4938957Y-4011714D01*
X4967529Y-4026000D01*
X4981814Y-4040286D01*
X4996100Y-4068857D01*
X4996100Y-4154571D01*
X4981814Y-4183143D01*
X4967529Y-4197429D01*
X4938957Y-4211714D01*
X4881814Y-4211714D01*
X4853243Y-4197429D01*
X5124671Y-4183143D02*
X5138957Y-4197429D01*
X5124671Y-4211714D01*
X5110386Y-4197429D01*
X5124671Y-4183143D01*
X5124671Y-4211714D01*
X5124671Y-4026000D02*
X5138957Y-4040286D01*
X5124671Y-4054571D01*
X5110386Y-4040286D01*
X5124671Y-4026000D01*
X5124671Y-4054571D01*
X2756100Y-4686000D02*
X2796100Y-4726000D01*
X2796100Y-4686000D02*
X2756100Y-4726000D01*
X3124671Y-4541714D02*
X3153243Y-4541714D01*
X3181814Y-4556000D01*
X3196100Y-4570286D01*
X3210386Y-4598857D01*
X3224671Y-4656000D01*
X3224671Y-4727429D01*
X3210386Y-4784572D01*
X3196100Y-4813143D01*
X3181814Y-4827429D01*
X3153243Y-4841714D01*
X3124671Y-4841714D01*
X3096100Y-4827429D01*
X3081814Y-4813143D01*
X3067528Y-4784572D01*
X3053243Y-4727429D01*
X3053243Y-4656000D01*
X3067528Y-4598857D01*
X3081814Y-4570286D01*
X3096100Y-4556000D01*
X3124671Y-4541714D01*
X3353243Y-4813143D02*
X3367528Y-4827429D01*
X3353243Y-4841714D01*
X3338957Y-4827429D01*
X3353243Y-4813143D01*
X3353243Y-4841714D01*
X3624671Y-4641714D02*
X3624671Y-4841714D01*
X3553243Y-4527429D02*
X3481814Y-4741714D01*
X3667528Y-4741714D01*
X3838957Y-4541714D02*
X3867528Y-4541714D01*
X3896100Y-4556000D01*
X3910386Y-4570286D01*
X3924671Y-4598857D01*
X3938957Y-4656000D01*
X3938957Y-4727429D01*
X3924671Y-4784572D01*
X3910386Y-4813143D01*
X3896100Y-4827429D01*
X3867528Y-4841714D01*
X3838957Y-4841714D01*
X3810386Y-4827429D01*
X3796100Y-4813143D01*
X3781814Y-4784572D01*
X3767528Y-4727429D01*
X3767528Y-4656000D01*
X3781814Y-4598857D01*
X3796100Y-4570286D01*
X3810386Y-4556000D01*
X3838957Y-4541714D01*
X4067528Y-4841714D02*
X4067528Y-4641714D01*
X4067528Y-4670286D02*
X4081814Y-4656000D01*
X4110386Y-4641714D01*
X4153243Y-4641714D01*
X4181814Y-4656000D01*
X4196100Y-4684572D01*
X4196100Y-4841714D01*
X4196100Y-4684572D02*
X4210386Y-4656000D01*
X4238957Y-4641714D01*
X4281814Y-4641714D01*
X4310386Y-4656000D01*
X4324671Y-4684572D01*
X4324671Y-4841714D01*
X4467529Y-4841714D02*
X4467529Y-4641714D01*
X4467529Y-4670286D02*
X4481814Y-4656000D01*
X4510386Y-4641714D01*
X4553243Y-4641714D01*
X4581814Y-4656000D01*
X4596100Y-4684572D01*
X4596100Y-4841714D01*
X4596100Y-4684572D02*
X4610386Y-4656000D01*
X4638957Y-4641714D01*
X4681814Y-4641714D01*
X4710386Y-4656000D01*
X4724671Y-4684572D01*
X4724671Y-4841714D01*
X5310386Y-4527429D02*
X5053243Y-4913143D01*
X5696100Y-4541714D02*
X5724671Y-4541714D01*
X5753243Y-4556000D01*
X5767528Y-4570286D01*
X5781814Y-4598857D01*
X5796100Y-4656000D01*
X5796100Y-4727429D01*
X5781814Y-4784572D01*
X5767528Y-4813143D01*
X5753243Y-4827429D01*
X5724671Y-4841714D01*
X5696100Y-4841714D01*
X5667528Y-4827429D01*
X5653243Y-4813143D01*
X5638957Y-4784572D01*
X5624671Y-4727429D01*
X5624671Y-4656000D01*
X5638957Y-4598857D01*
X5653243Y-4570286D01*
X5667528Y-4556000D01*
X5696100Y-4541714D01*
X5924671Y-4813143D02*
X5938957Y-4827429D01*
X5924671Y-4841714D01*
X5910386Y-4827429D01*
X5924671Y-4813143D01*
X5924671Y-4841714D01*
X6124671Y-4541714D02*
X6153243Y-4541714D01*
X6181814Y-4556000D01*
X6196100Y-4570286D01*
X6210385Y-4598857D01*
X6224671Y-4656000D01*
X6224671Y-4727429D01*
X6210385Y-4784572D01*
X6196100Y-4813143D01*
X6181814Y-4827429D01*
X6153243Y-4841714D01*
X6124671Y-4841714D01*
X6096100Y-4827429D01*
X6081814Y-4813143D01*
X6067528Y-4784572D01*
X6053243Y-4727429D01*
X6053243Y-4656000D01*
X6067528Y-4598857D01*
X6081814Y-4570286D01*
X6096100Y-4556000D01*
X6124671Y-4541714D01*
X6510385Y-4841714D02*
X6338957Y-4841714D01*
X6424671Y-4841714D02*
X6424671Y-4541714D01*
X6396100Y-4584572D01*
X6367528Y-4613143D01*
X6338957Y-4627429D01*
X6767528Y-4541714D02*
X6710385Y-4541714D01*
X6681814Y-4556000D01*
X6667528Y-4570286D01*
X6638957Y-4613143D01*
X6624671Y-4670286D01*
X6624671Y-4784572D01*
X6638957Y-4813143D01*
X6653243Y-4827429D01*
X6681814Y-4841714D01*
X6738957Y-4841714D01*
X6767528Y-4827429D01*
X6781814Y-4813143D01*
X6796100Y-4784572D01*
X6796100Y-4713143D01*
X6781814Y-4684572D01*
X6767528Y-4670286D01*
X6738957Y-4656000D01*
X6681814Y-4656000D01*
X6653243Y-4670286D01*
X6638957Y-4684572D01*
X6624671Y-4713143D01*
X6910386Y-4541714D02*
X6910386Y-4598857D01*
X7024671Y-4541714D02*
X7024671Y-4598857D01*
X7467528Y-4956000D02*
X7453243Y-4941714D01*
X7424671Y-4898857D01*
X7410385Y-4870286D01*
X7396100Y-4827429D01*
X7381814Y-4756000D01*
X7381814Y-4698857D01*
X7396100Y-4627429D01*
X7410385Y-4584572D01*
X7424671Y-4556000D01*
X7453243Y-4513143D01*
X7467528Y-4498857D01*
X7710385Y-4641714D02*
X7710385Y-4841714D01*
X7638957Y-4527429D02*
X7567528Y-4741714D01*
X7753243Y-4741714D01*
X7996100Y-4641714D02*
X7996100Y-4841714D01*
X7924671Y-4527429D02*
X7853243Y-4741714D01*
X8038957Y-4741714D01*
X8381814Y-4841714D02*
X8381814Y-4541714D01*
X8510386Y-4841714D02*
X8510386Y-4684572D01*
X8496100Y-4656000D01*
X8467528Y-4641714D01*
X8424671Y-4641714D01*
X8396100Y-4656000D01*
X8381814Y-4670286D01*
X8696100Y-4841714D02*
X8667528Y-4827429D01*
X8653243Y-4813143D01*
X8638957Y-4784572D01*
X8638957Y-4698857D01*
X8653243Y-4670286D01*
X8667528Y-4656000D01*
X8696100Y-4641714D01*
X8738957Y-4641714D01*
X8767528Y-4656000D01*
X8781814Y-4670286D01*
X8796100Y-4698857D01*
X8796100Y-4784572D01*
X8781814Y-4813143D01*
X8767528Y-4827429D01*
X8738957Y-4841714D01*
X8696100Y-4841714D01*
X8967528Y-4841714D02*
X8938957Y-4827429D01*
X8924671Y-4798857D01*
X8924671Y-4541714D01*
X9196100Y-4827429D02*
X9167529Y-4841714D01*
X9110386Y-4841714D01*
X9081814Y-4827429D01*
X9067529Y-4798857D01*
X9067529Y-4684572D01*
X9081814Y-4656000D01*
X9110386Y-4641714D01*
X9167529Y-4641714D01*
X9196100Y-4656000D01*
X9210386Y-4684572D01*
X9210386Y-4713143D01*
X9067529Y-4741714D01*
X9324671Y-4827429D02*
X9353243Y-4841714D01*
X9410386Y-4841714D01*
X9438957Y-4827429D01*
X9453243Y-4798857D01*
X9453243Y-4784572D01*
X9438957Y-4756000D01*
X9410386Y-4741714D01*
X9367529Y-4741714D01*
X9338957Y-4727429D01*
X9324671Y-4698857D01*
X9324671Y-4684572D01*
X9338957Y-4656000D01*
X9367529Y-4641714D01*
X9410386Y-4641714D01*
X9438957Y-4656000D01*
X9553243Y-4956000D02*
X9567529Y-4941714D01*
X9596100Y-4898857D01*
X9610386Y-4870286D01*
X9624671Y-4827429D01*
X9638957Y-4756000D01*
X9638957Y-4698857D01*
X9624671Y-4627429D01*
X9610386Y-4584572D01*
X9596100Y-4556000D01*
X9567529Y-4513143D01*
X9553243Y-4498857D01*
X2796100Y-5102000D02*
G75*
G03X2796100Y-5102000I-50000J0D01*
G01*
X3224671Y-5237714D02*
X3053243Y-5237714D01*
X3138957Y-5237714D02*
X3138957Y-4937714D01*
X3110386Y-4980572D01*
X3081814Y-5009143D01*
X3053243Y-5023429D01*
X3353243Y-5209143D02*
X3367528Y-5223429D01*
X3353243Y-5237714D01*
X3338957Y-5223429D01*
X3353243Y-5209143D01*
X3353243Y-5237714D01*
X3553243Y-4937714D02*
X3581814Y-4937714D01*
X3610386Y-4952000D01*
X3624671Y-4966286D01*
X3638957Y-4994857D01*
X3653243Y-5052000D01*
X3653243Y-5123429D01*
X3638957Y-5180572D01*
X3624671Y-5209143D01*
X3610386Y-5223429D01*
X3581814Y-5237714D01*
X3553243Y-5237714D01*
X3524671Y-5223429D01*
X3510386Y-5209143D01*
X3496100Y-5180572D01*
X3481814Y-5123429D01*
X3481814Y-5052000D01*
X3496100Y-4994857D01*
X3510386Y-4966286D01*
X3524671Y-4952000D01*
X3553243Y-4937714D01*
X3838957Y-4937714D02*
X3867528Y-4937714D01*
X3896100Y-4952000D01*
X3910386Y-4966286D01*
X3924671Y-4994857D01*
X3938957Y-5052000D01*
X3938957Y-5123429D01*
X3924671Y-5180572D01*
X3910386Y-5209143D01*
X3896100Y-5223429D01*
X3867528Y-5237714D01*
X3838957Y-5237714D01*
X3810386Y-5223429D01*
X3796100Y-5209143D01*
X3781814Y-5180572D01*
X3767528Y-5123429D01*
X3767528Y-5052000D01*
X3781814Y-4994857D01*
X3796100Y-4966286D01*
X3810386Y-4952000D01*
X3838957Y-4937714D01*
X4067528Y-5237714D02*
X4067528Y-5037714D01*
X4067528Y-5066286D02*
X4081814Y-5052000D01*
X4110386Y-5037714D01*
X4153243Y-5037714D01*
X4181814Y-5052000D01*
X4196100Y-5080572D01*
X4196100Y-5237714D01*
X4196100Y-5080572D02*
X4210386Y-5052000D01*
X4238957Y-5037714D01*
X4281814Y-5037714D01*
X4310386Y-5052000D01*
X4324671Y-5080572D01*
X4324671Y-5237714D01*
X4467529Y-5237714D02*
X4467529Y-5037714D01*
X4467529Y-5066286D02*
X4481814Y-5052000D01*
X4510386Y-5037714D01*
X4553243Y-5037714D01*
X4581814Y-5052000D01*
X4596100Y-5080572D01*
X4596100Y-5237714D01*
X4596100Y-5080572D02*
X4610386Y-5052000D01*
X4638957Y-5037714D01*
X4681814Y-5037714D01*
X4710386Y-5052000D01*
X4724671Y-5080572D01*
X4724671Y-5237714D01*
X5310386Y-4923429D02*
X5053243Y-5309143D01*
X5696100Y-4937714D02*
X5724671Y-4937714D01*
X5753243Y-4952000D01*
X5767528Y-4966286D01*
X5781814Y-4994857D01*
X5796100Y-5052000D01*
X5796100Y-5123429D01*
X5781814Y-5180572D01*
X5767528Y-5209143D01*
X5753243Y-5223429D01*
X5724671Y-5237714D01*
X5696100Y-5237714D01*
X5667528Y-5223429D01*
X5653243Y-5209143D01*
X5638957Y-5180572D01*
X5624671Y-5123429D01*
X5624671Y-5052000D01*
X5638957Y-4994857D01*
X5653243Y-4966286D01*
X5667528Y-4952000D01*
X5696100Y-4937714D01*
X5924671Y-5209143D02*
X5938957Y-5223429D01*
X5924671Y-5237714D01*
X5910386Y-5223429D01*
X5924671Y-5209143D01*
X5924671Y-5237714D01*
X6124671Y-4937714D02*
X6153243Y-4937714D01*
X6181814Y-4952000D01*
X6196100Y-4966286D01*
X6210385Y-4994857D01*
X6224671Y-5052000D01*
X6224671Y-5123429D01*
X6210385Y-5180572D01*
X6196100Y-5209143D01*
X6181814Y-5223429D01*
X6153243Y-5237714D01*
X6124671Y-5237714D01*
X6096100Y-5223429D01*
X6081814Y-5209143D01*
X6067528Y-5180572D01*
X6053243Y-5123429D01*
X6053243Y-5052000D01*
X6067528Y-4994857D01*
X6081814Y-4966286D01*
X6096100Y-4952000D01*
X6124671Y-4937714D01*
X6324671Y-4937714D02*
X6510385Y-4937714D01*
X6410385Y-5052000D01*
X6453243Y-5052000D01*
X6481814Y-5066286D01*
X6496100Y-5080572D01*
X6510385Y-5109143D01*
X6510385Y-5180572D01*
X6496100Y-5209143D01*
X6481814Y-5223429D01*
X6453243Y-5237714D01*
X6367528Y-5237714D01*
X6338957Y-5223429D01*
X6324671Y-5209143D01*
X6653243Y-5237714D02*
X6710385Y-5237714D01*
X6738957Y-5223429D01*
X6753243Y-5209143D01*
X6781814Y-5166286D01*
X6796100Y-5109143D01*
X6796100Y-4994857D01*
X6781814Y-4966286D01*
X6767528Y-4952000D01*
X6738957Y-4937714D01*
X6681814Y-4937714D01*
X6653243Y-4952000D01*
X6638957Y-4966286D01*
X6624671Y-4994857D01*
X6624671Y-5066286D01*
X6638957Y-5094857D01*
X6653243Y-5109143D01*
X6681814Y-5123429D01*
X6738957Y-5123429D01*
X6767528Y-5109143D01*
X6781814Y-5094857D01*
X6796100Y-5066286D01*
X6910386Y-4937714D02*
X6910386Y-4994857D01*
X7024671Y-4937714D02*
X7024671Y-4994857D01*
X7467528Y-5352000D02*
X7453243Y-5337714D01*
X7424671Y-5294857D01*
X7410385Y-5266286D01*
X7396100Y-5223429D01*
X7381814Y-5152000D01*
X7381814Y-5094857D01*
X7396100Y-5023429D01*
X7410385Y-4980572D01*
X7424671Y-4952000D01*
X7453243Y-4909143D01*
X7467528Y-4894857D01*
X7738957Y-5237714D02*
X7567528Y-5237714D01*
X7653243Y-5237714D02*
X7653243Y-4937714D01*
X7624671Y-4980572D01*
X7596100Y-5009143D01*
X7567528Y-5023429D01*
X7996100Y-4937714D02*
X7938957Y-4937714D01*
X7910385Y-4952000D01*
X7896100Y-4966286D01*
X7867528Y-5009143D01*
X7853243Y-5066286D01*
X7853243Y-5180572D01*
X7867528Y-5209143D01*
X7881814Y-5223429D01*
X7910385Y-5237714D01*
X7967528Y-5237714D01*
X7996100Y-5223429D01*
X8010385Y-5209143D01*
X8024671Y-5180572D01*
X8024671Y-5109143D01*
X8010385Y-5080572D01*
X7996100Y-5066286D01*
X7967528Y-5052000D01*
X7910385Y-5052000D01*
X7881814Y-5066286D01*
X7867528Y-5080572D01*
X7853243Y-5109143D01*
X8381814Y-5237714D02*
X8381814Y-4937714D01*
X8510386Y-5237714D02*
X8510386Y-5080572D01*
X8496100Y-5052000D01*
X8467528Y-5037714D01*
X8424671Y-5037714D01*
X8396100Y-5052000D01*
X8381814Y-5066286D01*
X8696100Y-5237714D02*
X8667528Y-5223429D01*
X8653243Y-5209143D01*
X8638957Y-5180572D01*
X8638957Y-5094857D01*
X8653243Y-5066286D01*
X8667528Y-5052000D01*
X8696100Y-5037714D01*
X8738957Y-5037714D01*
X8767528Y-5052000D01*
X8781814Y-5066286D01*
X8796100Y-5094857D01*
X8796100Y-5180572D01*
X8781814Y-5209143D01*
X8767528Y-5223429D01*
X8738957Y-5237714D01*
X8696100Y-5237714D01*
X8967528Y-5237714D02*
X8938957Y-5223429D01*
X8924671Y-5194857D01*
X8924671Y-4937714D01*
X9196100Y-5223429D02*
X9167529Y-5237714D01*
X9110386Y-5237714D01*
X9081814Y-5223429D01*
X9067529Y-5194857D01*
X9067529Y-5080572D01*
X9081814Y-5052000D01*
X9110386Y-5037714D01*
X9167529Y-5037714D01*
X9196100Y-5052000D01*
X9210386Y-5080572D01*
X9210386Y-5109143D01*
X9067529Y-5137714D01*
X9324671Y-5223429D02*
X9353243Y-5237714D01*
X9410386Y-5237714D01*
X9438957Y-5223429D01*
X9453243Y-5194857D01*
X9453243Y-5180572D01*
X9438957Y-5152000D01*
X9410386Y-5137714D01*
X9367529Y-5137714D01*
X9338957Y-5123429D01*
X9324671Y-5094857D01*
X9324671Y-5080572D01*
X9338957Y-5052000D01*
X9367529Y-5037714D01*
X9410386Y-5037714D01*
X9438957Y-5052000D01*
X9553243Y-5352000D02*
X9567529Y-5337714D01*
X9596100Y-5294857D01*
X9610386Y-5266286D01*
X9624671Y-5223429D01*
X9638957Y-5152000D01*
X9638957Y-5094857D01*
X9624671Y-5023429D01*
X9610386Y-4980572D01*
X9596100Y-4952000D01*
X9567529Y-4909143D01*
X9553243Y-4894857D01*
M02*
