%TF.GenerationSoftware,KiCad,Pcbnew,4.0.7-e2-6376~58~ubuntu16.04.1*%
%TF.CreationDate,2017-12-06T16:05:08+02:00*%
%TF.ProjectId,ecu_emu,6563755F656D752E6B696361645F7063,rev?*%
%TF.FileFunction,Other,Fab,Top*%
%FSLAX46Y46*%
G04 Gerber Fmt 4.6, Leading zero omitted, Abs format (unit mm)*
G04 Created by KiCad (PCBNEW 4.0.7-e2-6376~58~ubuntu16.04.1) date Wed Dec  6 16:05:08 2017*
%MOMM*%
%LPD*%
G01*
G04 APERTURE LIST*
%ADD10C,0.100000*%
%ADD11C,0.150000*%
%ADD12C,0.075000*%
%ADD13C,0.120000*%
G04 APERTURE END LIST*
D10*
X42120000Y-24000000D02*
X40880000Y-24000000D01*
X42120000Y-22000000D02*
X42120000Y-24000000D01*
X40880000Y-22000000D02*
X42120000Y-22000000D01*
X40880000Y-24000000D02*
X40880000Y-22000000D01*
X40880000Y-25500000D02*
X42120000Y-25500000D01*
X40880000Y-27500000D02*
X40880000Y-25500000D01*
X42120000Y-27500000D02*
X40880000Y-27500000D01*
X42120000Y-25500000D02*
X42120000Y-27500000D01*
X52380000Y-34000000D02*
X53620000Y-34000000D01*
X52380000Y-36000000D02*
X52380000Y-34000000D01*
X53620000Y-36000000D02*
X52380000Y-36000000D01*
X53620000Y-34000000D02*
X53620000Y-36000000D01*
X40000000Y-22353000D02*
X40000000Y-26953000D01*
X40000000Y-26953000D02*
X37000000Y-26953000D01*
X37000000Y-22353000D02*
X40000000Y-22353000D01*
X37000000Y-22353000D02*
X37000000Y-26953000D01*
X38501020Y-25302440D02*
X38501020Y-26204140D01*
X38501020Y-24151820D02*
X38501020Y-23153600D01*
X37700920Y-25302440D02*
X39301120Y-25302440D01*
X39250320Y-24151820D02*
X37700920Y-24151820D01*
X38501020Y-25302440D02*
X39250320Y-24151820D01*
X38501020Y-25302440D02*
X37700920Y-24151820D01*
X55400000Y-35150000D02*
X54600000Y-35150000D01*
X55400000Y-33850000D02*
X55400000Y-35150000D01*
X54600000Y-33850000D02*
X55400000Y-33850000D01*
X54600000Y-35150000D02*
X54600000Y-33850000D01*
X55000000Y-34700000D02*
X54775000Y-34300000D01*
X55000000Y-34700000D02*
X55000000Y-34975000D01*
X55225000Y-34300000D02*
X55000000Y-34700000D01*
X54775000Y-34300000D02*
X55225000Y-34300000D01*
X54725000Y-34700000D02*
X55275000Y-34700000D01*
X55000000Y-34300000D02*
X55000000Y-34050000D01*
X29965000Y-36750000D02*
X28060000Y-36750000D01*
X28060000Y-36750000D02*
X28060000Y-21510000D01*
X28060000Y-21510000D02*
X30600000Y-21510000D01*
X30600000Y-21510000D02*
X30600000Y-36115000D01*
X30600000Y-36115000D02*
X29965000Y-36750000D01*
X34960000Y-35800000D02*
X30600000Y-35800000D01*
X34960000Y-35800000D02*
X34960000Y-35160000D01*
X34960000Y-35160000D02*
X30600000Y-35160000D01*
X28060000Y-35800000D02*
X22060000Y-35800000D01*
X22060000Y-35800000D02*
X22060000Y-35160000D01*
X28060000Y-35160000D02*
X22060000Y-35160000D01*
X34960000Y-33260000D02*
X30600000Y-33260000D01*
X34960000Y-33260000D02*
X34960000Y-32620000D01*
X34960000Y-32620000D02*
X30600000Y-32620000D01*
X28060000Y-33260000D02*
X22060000Y-33260000D01*
X22060000Y-33260000D02*
X22060000Y-32620000D01*
X28060000Y-32620000D02*
X22060000Y-32620000D01*
X34960000Y-30720000D02*
X30600000Y-30720000D01*
X34960000Y-30720000D02*
X34960000Y-30080000D01*
X34960000Y-30080000D02*
X30600000Y-30080000D01*
X28060000Y-30720000D02*
X22060000Y-30720000D01*
X22060000Y-30720000D02*
X22060000Y-30080000D01*
X28060000Y-30080000D02*
X22060000Y-30080000D01*
X34960000Y-28180000D02*
X30600000Y-28180000D01*
X34960000Y-28180000D02*
X34960000Y-27540000D01*
X34960000Y-27540000D02*
X30600000Y-27540000D01*
X28060000Y-28180000D02*
X22060000Y-28180000D01*
X22060000Y-28180000D02*
X22060000Y-27540000D01*
X28060000Y-27540000D02*
X22060000Y-27540000D01*
X34960000Y-25640000D02*
X30600000Y-25640000D01*
X34960000Y-25640000D02*
X34960000Y-25000000D01*
X34960000Y-25000000D02*
X30600000Y-25000000D01*
X28060000Y-25640000D02*
X22060000Y-25640000D01*
X22060000Y-25640000D02*
X22060000Y-25000000D01*
X28060000Y-25000000D02*
X22060000Y-25000000D01*
X34960000Y-23100000D02*
X30600000Y-23100000D01*
X34960000Y-23100000D02*
X34960000Y-22460000D01*
X34960000Y-22460000D02*
X30600000Y-22460000D01*
X28060000Y-23100000D02*
X22060000Y-23100000D01*
X22060000Y-23100000D02*
X22060000Y-22460000D01*
X28060000Y-22460000D02*
X22060000Y-22460000D01*
X42120000Y-32450000D02*
X40880000Y-32450000D01*
X42120000Y-30450000D02*
X42120000Y-32450000D01*
X40880000Y-30450000D02*
X42120000Y-30450000D01*
X40880000Y-32450000D02*
X40880000Y-30450000D01*
X38120000Y-32450000D02*
X36880000Y-32450000D01*
X38120000Y-30450000D02*
X38120000Y-32450000D01*
X36880000Y-30450000D02*
X38120000Y-30450000D01*
X36880000Y-32450000D02*
X36880000Y-30450000D01*
X40120000Y-32450000D02*
X38880000Y-32450000D01*
X40120000Y-30450000D02*
X40120000Y-32450000D01*
X38880000Y-30450000D02*
X40120000Y-30450000D01*
X38880000Y-32450000D02*
X38880000Y-30450000D01*
X42120000Y-36550000D02*
X40880000Y-36550000D01*
X42120000Y-34550000D02*
X42120000Y-36550000D01*
X40880000Y-34550000D02*
X42120000Y-34550000D01*
X40880000Y-36550000D02*
X40880000Y-34550000D01*
X38120000Y-36550000D02*
X36880000Y-36550000D01*
X38120000Y-34550000D02*
X38120000Y-36550000D01*
X36880000Y-34550000D02*
X38120000Y-34550000D01*
X36880000Y-36550000D02*
X36880000Y-34550000D01*
X40120000Y-36550000D02*
X38880000Y-36550000D01*
X40120000Y-34550000D02*
X40120000Y-36550000D01*
X38880000Y-34550000D02*
X40120000Y-34550000D01*
X38880000Y-36550000D02*
X38880000Y-34550000D01*
X50300000Y-22450000D02*
X51300000Y-21450000D01*
X50300000Y-22450000D02*
X50300000Y-28150000D01*
X51300000Y-21450000D02*
X54000000Y-21450000D01*
X50300000Y-28150000D02*
X54000000Y-28150000D01*
X54000000Y-21450000D02*
X54000000Y-28150000D01*
D11*
X64250000Y-24250000D02*
X73250000Y-24250000D01*
X73250000Y-24250000D02*
X73250000Y-34250000D01*
X73250000Y-34250000D02*
X63250000Y-34250000D01*
X63250000Y-34250000D02*
X63250000Y-25250000D01*
X63250000Y-25250000D02*
X64250000Y-24250000D01*
D10*
X42900000Y-30025000D02*
X47100000Y-30025000D01*
X47100000Y-30025000D02*
X47100000Y-22725000D01*
X47100000Y-22725000D02*
X42900000Y-22725000D01*
X42900000Y-22725000D02*
X42900000Y-30025000D01*
X42900000Y-29295000D02*
X47100000Y-29295000D01*
X42900000Y-28930000D02*
X47100000Y-28930000D01*
X50375000Y-36600000D02*
X50375000Y-33400000D01*
X50375000Y-33400000D02*
X44375000Y-33400000D01*
X44375000Y-33400000D02*
X44375000Y-36600000D01*
X44375000Y-36600000D02*
X50375000Y-36600000D01*
X49775000Y-36600000D02*
X49775000Y-33400000D01*
X49475000Y-36600000D02*
X49475000Y-33400000D01*
X78520000Y-34210000D02*
X78520000Y-31670000D01*
X78520000Y-31670000D02*
X87030000Y-31670000D01*
X87030000Y-31670000D02*
X87030000Y-34210000D01*
X87030000Y-34210000D02*
X78520000Y-34210000D01*
X77000000Y-33260000D02*
X77000000Y-32620000D01*
X77000000Y-32620000D02*
X78520000Y-32620000D01*
X78520000Y-32620000D02*
X78520000Y-33260000D01*
X78520000Y-33260000D02*
X77000000Y-33260000D01*
X78520000Y-31670000D02*
X78520000Y-29130000D01*
X78520000Y-29130000D02*
X87030000Y-29130000D01*
X87030000Y-29130000D02*
X87030000Y-31670000D01*
X87030000Y-31670000D02*
X78520000Y-31670000D01*
X77000000Y-30720000D02*
X77000000Y-30080000D01*
X77000000Y-30080000D02*
X78520000Y-30080000D01*
X78520000Y-30080000D02*
X78520000Y-30720000D01*
X78520000Y-30720000D02*
X77000000Y-30720000D01*
X78520000Y-29130000D02*
X78520000Y-26590000D01*
X78520000Y-26590000D02*
X87030000Y-26590000D01*
X87030000Y-26590000D02*
X87030000Y-29130000D01*
X87030000Y-29130000D02*
X78520000Y-29130000D01*
X77000000Y-28180000D02*
X77000000Y-27540000D01*
X77000000Y-27540000D02*
X78520000Y-27540000D01*
X78520000Y-27540000D02*
X78520000Y-28180000D01*
X78520000Y-28180000D02*
X77000000Y-28180000D01*
X78520000Y-26590000D02*
X78520000Y-24050000D01*
X78520000Y-24050000D02*
X87030000Y-24050000D01*
X87030000Y-24050000D02*
X87030000Y-26590000D01*
X87030000Y-26590000D02*
X78520000Y-26590000D01*
X77000000Y-25640000D02*
X77000000Y-25000000D01*
X77000000Y-25000000D02*
X78520000Y-25000000D01*
X78520000Y-25000000D02*
X78520000Y-25640000D01*
X78520000Y-25640000D02*
X77000000Y-25640000D01*
D11*
X43702381Y-24071428D02*
X43702381Y-24642857D01*
X43702381Y-24357143D02*
X42702381Y-24357143D01*
X42845238Y-24452381D01*
X42940476Y-24547619D01*
X42988095Y-24642857D01*
X42702381Y-23452381D02*
X42702381Y-23357142D01*
X42750000Y-23261904D01*
X42797619Y-23214285D01*
X42892857Y-23166666D01*
X43083333Y-23119047D01*
X43321429Y-23119047D01*
X43511905Y-23166666D01*
X43607143Y-23214285D01*
X43654762Y-23261904D01*
X43702381Y-23357142D01*
X43702381Y-23452381D01*
X43654762Y-23547619D01*
X43607143Y-23595238D01*
X43511905Y-23642857D01*
X43321429Y-23690476D01*
X43083333Y-23690476D01*
X42892857Y-23642857D01*
X42797619Y-23595238D01*
X42750000Y-23547619D01*
X42702381Y-23452381D01*
X43035714Y-22690476D02*
X43702381Y-22690476D01*
X43130952Y-22690476D02*
X43083333Y-22642857D01*
X43035714Y-22547619D01*
X43035714Y-22404761D01*
X43083333Y-22309523D01*
X43178571Y-22261904D01*
X43702381Y-22261904D01*
X43178571Y-21452380D02*
X43178571Y-21785714D01*
X43702381Y-21785714D02*
X42702381Y-21785714D01*
X42702381Y-21309523D01*
X40357143Y-23166666D02*
X40404762Y-23214285D01*
X40452381Y-23357142D01*
X40452381Y-23452380D01*
X40404762Y-23595238D01*
X40309524Y-23690476D01*
X40214286Y-23738095D01*
X40023810Y-23785714D01*
X39880952Y-23785714D01*
X39690476Y-23738095D01*
X39595238Y-23690476D01*
X39500000Y-23595238D01*
X39452381Y-23452380D01*
X39452381Y-23357142D01*
X39500000Y-23214285D01*
X39547619Y-23166666D01*
X40452381Y-22214285D02*
X40452381Y-22785714D01*
X40452381Y-22500000D02*
X39452381Y-22500000D01*
X39595238Y-22595238D01*
X39690476Y-22690476D01*
X39738095Y-22785714D01*
X40202381Y-28047619D02*
X40202381Y-28619048D01*
X40202381Y-28333334D02*
X39202381Y-28333334D01*
X39345238Y-28428572D01*
X39440476Y-28523810D01*
X39488095Y-28619048D01*
X39202381Y-27428572D02*
X39202381Y-27333333D01*
X39250000Y-27238095D01*
X39297619Y-27190476D01*
X39392857Y-27142857D01*
X39583333Y-27095238D01*
X39821429Y-27095238D01*
X40011905Y-27142857D01*
X40107143Y-27190476D01*
X40154762Y-27238095D01*
X40202381Y-27333333D01*
X40202381Y-27428572D01*
X40154762Y-27523810D01*
X40107143Y-27571429D01*
X40011905Y-27619048D01*
X39821429Y-27666667D01*
X39583333Y-27666667D01*
X39392857Y-27619048D01*
X39297619Y-27571429D01*
X39250000Y-27523810D01*
X39202381Y-27428572D01*
X39202381Y-26476191D02*
X39202381Y-26380952D01*
X39250000Y-26285714D01*
X39297619Y-26238095D01*
X39392857Y-26190476D01*
X39583333Y-26142857D01*
X39821429Y-26142857D01*
X40011905Y-26190476D01*
X40107143Y-26238095D01*
X40154762Y-26285714D01*
X40202381Y-26380952D01*
X40202381Y-26476191D01*
X40154762Y-26571429D01*
X40107143Y-26619048D01*
X40011905Y-26666667D01*
X39821429Y-26714286D01*
X39583333Y-26714286D01*
X39392857Y-26666667D01*
X39297619Y-26619048D01*
X39250000Y-26571429D01*
X39202381Y-26476191D01*
X39535714Y-25714286D02*
X40202381Y-25714286D01*
X39630952Y-25714286D02*
X39583333Y-25666667D01*
X39535714Y-25571429D01*
X39535714Y-25428571D01*
X39583333Y-25333333D01*
X39678571Y-25285714D01*
X40202381Y-25285714D01*
X39678571Y-24476190D02*
X39678571Y-24809524D01*
X40202381Y-24809524D02*
X39202381Y-24809524D01*
X39202381Y-24333333D01*
X40857143Y-26666666D02*
X40904762Y-26714285D01*
X40952381Y-26857142D01*
X40952381Y-26952380D01*
X40904762Y-27095238D01*
X40809524Y-27190476D01*
X40714286Y-27238095D01*
X40523810Y-27285714D01*
X40380952Y-27285714D01*
X40190476Y-27238095D01*
X40095238Y-27190476D01*
X40000000Y-27095238D01*
X39952381Y-26952380D01*
X39952381Y-26857142D01*
X40000000Y-26714285D01*
X40047619Y-26666666D01*
X39952381Y-26333333D02*
X39952381Y-25714285D01*
X40333333Y-26047619D01*
X40333333Y-25904761D01*
X40380952Y-25809523D01*
X40428571Y-25761904D01*
X40523810Y-25714285D01*
X40761905Y-25714285D01*
X40857143Y-25761904D01*
X40904762Y-25809523D01*
X40952381Y-25904761D01*
X40952381Y-26190476D01*
X40904762Y-26285714D01*
X40857143Y-26333333D01*
X51702381Y-36071428D02*
X51702381Y-36642857D01*
X51702381Y-36357143D02*
X50702381Y-36357143D01*
X50845238Y-36452381D01*
X50940476Y-36547619D01*
X50988095Y-36642857D01*
X50702381Y-35452381D02*
X50702381Y-35357142D01*
X50750000Y-35261904D01*
X50797619Y-35214285D01*
X50892857Y-35166666D01*
X51083333Y-35119047D01*
X51321429Y-35119047D01*
X51511905Y-35166666D01*
X51607143Y-35214285D01*
X51654762Y-35261904D01*
X51702381Y-35357142D01*
X51702381Y-35452381D01*
X51654762Y-35547619D01*
X51607143Y-35595238D01*
X51511905Y-35642857D01*
X51321429Y-35690476D01*
X51083333Y-35690476D01*
X50892857Y-35642857D01*
X50797619Y-35595238D01*
X50750000Y-35547619D01*
X50702381Y-35452381D01*
X51035714Y-34261904D02*
X51702381Y-34261904D01*
X51035714Y-34690476D02*
X51559524Y-34690476D01*
X51654762Y-34642857D01*
X51702381Y-34547619D01*
X51702381Y-34404761D01*
X51654762Y-34309523D01*
X51607143Y-34261904D01*
X51178571Y-33452380D02*
X51178571Y-33785714D01*
X51702381Y-33785714D02*
X50702381Y-33785714D01*
X50702381Y-33309523D01*
X54857143Y-35166666D02*
X54904762Y-35214285D01*
X54952381Y-35357142D01*
X54952381Y-35452380D01*
X54904762Y-35595238D01*
X54809524Y-35690476D01*
X54714286Y-35738095D01*
X54523810Y-35785714D01*
X54380952Y-35785714D01*
X54190476Y-35738095D01*
X54095238Y-35690476D01*
X54000000Y-35595238D01*
X53952381Y-35452380D01*
X53952381Y-35357142D01*
X54000000Y-35214285D01*
X54047619Y-35166666D01*
X53952381Y-34309523D02*
X53952381Y-34500000D01*
X54000000Y-34595238D01*
X54047619Y-34642857D01*
X54190476Y-34738095D01*
X54380952Y-34785714D01*
X54761905Y-34785714D01*
X54857143Y-34738095D01*
X54904762Y-34690476D01*
X54952381Y-34595238D01*
X54952381Y-34404761D01*
X54904762Y-34309523D01*
X54857143Y-34261904D01*
X54761905Y-34214285D01*
X54523810Y-34214285D01*
X54428571Y-34261904D01*
X54380952Y-34309523D01*
X54333333Y-34404761D01*
X54333333Y-34595238D01*
X54380952Y-34690476D01*
X54428571Y-34738095D01*
X54523810Y-34785714D01*
X41504762Y-33295858D02*
X41552381Y-33153001D01*
X41552381Y-32914905D01*
X41504762Y-32819667D01*
X41457143Y-32772048D01*
X41361905Y-32724429D01*
X41266667Y-32724429D01*
X41171429Y-32772048D01*
X41123810Y-32819667D01*
X41076190Y-32914905D01*
X41028571Y-33105382D01*
X40980952Y-33200620D01*
X40933333Y-33248239D01*
X40838095Y-33295858D01*
X40742857Y-33295858D01*
X40647619Y-33248239D01*
X40600000Y-33200620D01*
X40552381Y-33105382D01*
X40552381Y-32867286D01*
X40600000Y-32724429D01*
X41504762Y-32343477D02*
X41552381Y-32200620D01*
X41552381Y-31962524D01*
X41504762Y-31867286D01*
X41457143Y-31819667D01*
X41361905Y-31772048D01*
X41266667Y-31772048D01*
X41171429Y-31819667D01*
X41123810Y-31867286D01*
X41076190Y-31962524D01*
X41028571Y-32153001D01*
X40980952Y-32248239D01*
X40933333Y-32295858D01*
X40838095Y-32343477D01*
X40742857Y-32343477D01*
X40647619Y-32295858D01*
X40600000Y-32248239D01*
X40552381Y-32153001D01*
X40552381Y-31914905D01*
X40600000Y-31772048D01*
X40647619Y-31391096D02*
X40600000Y-31343477D01*
X40552381Y-31248239D01*
X40552381Y-31010143D01*
X40600000Y-30914905D01*
X40647619Y-30867286D01*
X40742857Y-30819667D01*
X40838095Y-30819667D01*
X40980952Y-30867286D01*
X41552381Y-31438715D01*
X41552381Y-30819667D01*
X40647619Y-30438715D02*
X40600000Y-30391096D01*
X40552381Y-30295858D01*
X40552381Y-30057762D01*
X40600000Y-29962524D01*
X40647619Y-29914905D01*
X40742857Y-29867286D01*
X40838095Y-29867286D01*
X40980952Y-29914905D01*
X41552381Y-30486334D01*
X41552381Y-29867286D01*
X41266667Y-29486334D02*
X41266667Y-29010143D01*
X41552381Y-29581572D02*
X40552381Y-29248239D01*
X41552381Y-28914905D01*
X41171429Y-28581572D02*
X41171429Y-27819667D01*
X41504762Y-27391096D02*
X41552381Y-27248239D01*
X41552381Y-27010143D01*
X41504762Y-26914905D01*
X41457143Y-26867286D01*
X41361905Y-26819667D01*
X41266667Y-26819667D01*
X41171429Y-26867286D01*
X41123810Y-26914905D01*
X41076190Y-27010143D01*
X41028571Y-27200620D01*
X40980952Y-27295858D01*
X40933333Y-27343477D01*
X40838095Y-27391096D01*
X40742857Y-27391096D01*
X40647619Y-27343477D01*
X40600000Y-27295858D01*
X40552381Y-27200620D01*
X40552381Y-26962524D01*
X40600000Y-26819667D01*
X41504762Y-26438715D02*
X41552381Y-26295858D01*
X41552381Y-26057762D01*
X41504762Y-25962524D01*
X41457143Y-25914905D01*
X41361905Y-25867286D01*
X41266667Y-25867286D01*
X41171429Y-25914905D01*
X41123810Y-25962524D01*
X41076190Y-26057762D01*
X41028571Y-26248239D01*
X40980952Y-26343477D01*
X40933333Y-26391096D01*
X40838095Y-26438715D01*
X40742857Y-26438715D01*
X40647619Y-26391096D01*
X40600000Y-26343477D01*
X40552381Y-26248239D01*
X40552381Y-26010143D01*
X40600000Y-25867286D01*
X40647619Y-25486334D02*
X40600000Y-25438715D01*
X40552381Y-25343477D01*
X40552381Y-25105381D01*
X40600000Y-25010143D01*
X40647619Y-24962524D01*
X40742857Y-24914905D01*
X40838095Y-24914905D01*
X40980952Y-24962524D01*
X41552381Y-25533953D01*
X41552381Y-24914905D01*
X41552381Y-23962524D02*
X41552381Y-24533953D01*
X41552381Y-24248239D02*
X40552381Y-24248239D01*
X40695238Y-24343477D01*
X40790476Y-24438715D01*
X40838095Y-24533953D01*
X40552381Y-23343477D02*
X40552381Y-23248238D01*
X40600000Y-23153000D01*
X40647619Y-23105381D01*
X40742857Y-23057762D01*
X40933333Y-23010143D01*
X41171429Y-23010143D01*
X41361905Y-23057762D01*
X41457143Y-23105381D01*
X41504762Y-23153000D01*
X41552381Y-23248238D01*
X41552381Y-23343477D01*
X41504762Y-23438715D01*
X41457143Y-23486334D01*
X41361905Y-23533953D01*
X41171429Y-23581572D01*
X40933333Y-23581572D01*
X40742857Y-23533953D01*
X40647619Y-23486334D01*
X40600000Y-23438715D01*
X40552381Y-23343477D01*
X41266667Y-22629191D02*
X41266667Y-22153000D01*
X41552381Y-22724429D02*
X40552381Y-22391096D01*
X41552381Y-22057762D01*
X41171429Y-21724429D02*
X41171429Y-20962524D01*
X40600000Y-19962524D02*
X40552381Y-20057762D01*
X40552381Y-20200619D01*
X40600000Y-20343477D01*
X40695238Y-20438715D01*
X40790476Y-20486334D01*
X40980952Y-20533953D01*
X41123810Y-20533953D01*
X41314286Y-20486334D01*
X41409524Y-20438715D01*
X41504762Y-20343477D01*
X41552381Y-20200619D01*
X41552381Y-20105381D01*
X41504762Y-19962524D01*
X41457143Y-19914905D01*
X41123810Y-19914905D01*
X41123810Y-20105381D01*
X41552381Y-19057762D02*
X41028571Y-19057762D01*
X40933333Y-19105381D01*
X40885714Y-19200619D01*
X40885714Y-19391096D01*
X40933333Y-19486334D01*
X41504762Y-19057762D02*
X41552381Y-19153000D01*
X41552381Y-19391096D01*
X41504762Y-19486334D01*
X41409524Y-19533953D01*
X41314286Y-19533953D01*
X41219048Y-19486334D01*
X41171429Y-19391096D01*
X41171429Y-19153000D01*
X41123810Y-19057762D01*
X41552381Y-18438715D02*
X41504762Y-18533953D01*
X41409524Y-18581572D01*
X40552381Y-18581572D01*
X41552381Y-17629190D02*
X41028571Y-17629190D01*
X40933333Y-17676809D01*
X40885714Y-17772047D01*
X40885714Y-17962524D01*
X40933333Y-18057762D01*
X41504762Y-17629190D02*
X41552381Y-17724428D01*
X41552381Y-17962524D01*
X41504762Y-18057762D01*
X41409524Y-18105381D01*
X41314286Y-18105381D01*
X41219048Y-18057762D01*
X41171429Y-17962524D01*
X41171429Y-17724428D01*
X41123810Y-17629190D01*
X41552381Y-17248238D02*
X40885714Y-16724428D01*
X40885714Y-17248238D02*
X41552381Y-16724428D01*
X40885714Y-16438714D02*
X41552381Y-16200619D01*
X40885714Y-15962523D02*
X41552381Y-16200619D01*
X41790476Y-16295857D01*
X41838095Y-16343476D01*
X41885714Y-16438714D01*
X36952381Y-25238095D02*
X35952381Y-25238095D01*
X35952381Y-25000000D01*
X36000000Y-24857142D01*
X36095238Y-24761904D01*
X36190476Y-24714285D01*
X36380952Y-24666666D01*
X36523810Y-24666666D01*
X36714286Y-24714285D01*
X36809524Y-24761904D01*
X36904762Y-24857142D01*
X36952381Y-25000000D01*
X36952381Y-25238095D01*
X36952381Y-23714285D02*
X36952381Y-24285714D01*
X36952381Y-24000000D02*
X35952381Y-24000000D01*
X36095238Y-24095238D01*
X36190476Y-24190476D01*
X36238095Y-24285714D01*
X56952381Y-40119048D02*
X55952381Y-40119048D01*
X55952381Y-39738095D01*
X56000000Y-39642857D01*
X56047619Y-39595238D01*
X56142857Y-39547619D01*
X56285714Y-39547619D01*
X56380952Y-39595238D01*
X56428571Y-39642857D01*
X56476190Y-39738095D01*
X56476190Y-40119048D01*
X56952381Y-39119048D02*
X55952381Y-39119048D01*
X56666667Y-38785714D01*
X55952381Y-38452381D01*
X56952381Y-38452381D01*
X56952381Y-37500000D02*
X56952381Y-37976191D01*
X55952381Y-37976191D01*
X56952381Y-36690476D02*
X56952381Y-37166667D01*
X55952381Y-37166667D01*
X56285714Y-35928571D02*
X56952381Y-35928571D01*
X55904762Y-36166667D02*
X56619048Y-36404762D01*
X56619048Y-35785714D01*
X56952381Y-34880952D02*
X56952381Y-35452381D01*
X56952381Y-35166667D02*
X55952381Y-35166667D01*
X56095238Y-35261905D01*
X56190476Y-35357143D01*
X56238095Y-35452381D01*
X56285714Y-34023809D02*
X56952381Y-34023809D01*
X55904762Y-34261905D02*
X56619048Y-34500000D01*
X56619048Y-33880952D01*
X56380952Y-33357143D02*
X56333333Y-33452381D01*
X56285714Y-33500000D01*
X56190476Y-33547619D01*
X56142857Y-33547619D01*
X56047619Y-33500000D01*
X56000000Y-33452381D01*
X55952381Y-33357143D01*
X55952381Y-33166666D01*
X56000000Y-33071428D01*
X56047619Y-33023809D01*
X56142857Y-32976190D01*
X56190476Y-32976190D01*
X56285714Y-33023809D01*
X56333333Y-33071428D01*
X56380952Y-33166666D01*
X56380952Y-33357143D01*
X56428571Y-33452381D01*
X56476190Y-33500000D01*
X56571429Y-33547619D01*
X56761905Y-33547619D01*
X56857143Y-33500000D01*
X56904762Y-33452381D01*
X56952381Y-33357143D01*
X56952381Y-33166666D01*
X56904762Y-33071428D01*
X56857143Y-33023809D01*
X56761905Y-32976190D01*
X56571429Y-32976190D01*
X56476190Y-33023809D01*
X56428571Y-33071428D01*
X56380952Y-33166666D01*
X56952381Y-32071428D02*
X56952381Y-32547619D01*
X55952381Y-32547619D01*
X56857143Y-31738095D02*
X56904762Y-31690476D01*
X56952381Y-31738095D01*
X56904762Y-31785714D01*
X56857143Y-31738095D01*
X56952381Y-31738095D01*
X56952381Y-30738095D02*
X56952381Y-31309524D01*
X56952381Y-31023810D02*
X55952381Y-31023810D01*
X56095238Y-31119048D01*
X56190476Y-31214286D01*
X56238095Y-31309524D01*
X56952381Y-29785714D02*
X56952381Y-30357143D01*
X56952381Y-30071429D02*
X55952381Y-30071429D01*
X56095238Y-30166667D01*
X56190476Y-30261905D01*
X56238095Y-30357143D01*
X55952381Y-28880952D02*
X55952381Y-29357143D01*
X56428571Y-29404762D01*
X56380952Y-29357143D01*
X56333333Y-29261905D01*
X56333333Y-29023809D01*
X56380952Y-28928571D01*
X56428571Y-28880952D01*
X56523810Y-28833333D01*
X56761905Y-28833333D01*
X56857143Y-28880952D01*
X56904762Y-28928571D01*
X56952381Y-29023809D01*
X56952381Y-29261905D01*
X56904762Y-29357143D01*
X56857143Y-29404762D01*
X54052381Y-35238095D02*
X53052381Y-35238095D01*
X53052381Y-35000000D01*
X53100000Y-34857142D01*
X53195238Y-34761904D01*
X53290476Y-34714285D01*
X53480952Y-34666666D01*
X53623810Y-34666666D01*
X53814286Y-34714285D01*
X53909524Y-34761904D01*
X54004762Y-34857142D01*
X54052381Y-35000000D01*
X54052381Y-35238095D01*
X53147619Y-34285714D02*
X53100000Y-34238095D01*
X53052381Y-34142857D01*
X53052381Y-33904761D01*
X53100000Y-33809523D01*
X53147619Y-33761904D01*
X53242857Y-33714285D01*
X53338095Y-33714285D01*
X53480952Y-33761904D01*
X54052381Y-34333333D01*
X54052381Y-33714285D01*
X21342142Y-20867143D02*
X21294523Y-20914762D01*
X21151666Y-20962381D01*
X21056428Y-20962381D01*
X20913570Y-20914762D01*
X20818332Y-20819524D01*
X20770713Y-20724286D01*
X20723094Y-20533810D01*
X20723094Y-20390952D01*
X20770713Y-20200476D01*
X20818332Y-20105238D01*
X20913570Y-20010000D01*
X21056428Y-19962381D01*
X21151666Y-19962381D01*
X21294523Y-20010000D01*
X21342142Y-20057619D01*
X21913570Y-20962381D02*
X21818332Y-20914762D01*
X21770713Y-20867143D01*
X21723094Y-20771905D01*
X21723094Y-20486190D01*
X21770713Y-20390952D01*
X21818332Y-20343333D01*
X21913570Y-20295714D01*
X22056428Y-20295714D01*
X22151666Y-20343333D01*
X22199285Y-20390952D01*
X22246904Y-20486190D01*
X22246904Y-20771905D01*
X22199285Y-20867143D01*
X22151666Y-20914762D01*
X22056428Y-20962381D01*
X21913570Y-20962381D01*
X22675475Y-20295714D02*
X22675475Y-20962381D01*
X22675475Y-20390952D02*
X22723094Y-20343333D01*
X22818332Y-20295714D01*
X22961190Y-20295714D01*
X23056428Y-20343333D01*
X23104047Y-20438571D01*
X23104047Y-20962381D01*
X23580237Y-20295714D02*
X23580237Y-20962381D01*
X23580237Y-20390952D02*
X23627856Y-20343333D01*
X23723094Y-20295714D01*
X23865952Y-20295714D01*
X23961190Y-20343333D01*
X24008809Y-20438571D01*
X24008809Y-20962381D01*
X24246904Y-21057619D02*
X25008809Y-21057619D01*
X25437380Y-19962381D02*
X25532619Y-19962381D01*
X25627857Y-20010000D01*
X25675476Y-20057619D01*
X25723095Y-20152857D01*
X25770714Y-20343333D01*
X25770714Y-20581429D01*
X25723095Y-20771905D01*
X25675476Y-20867143D01*
X25627857Y-20914762D01*
X25532619Y-20962381D01*
X25437380Y-20962381D01*
X25342142Y-20914762D01*
X25294523Y-20867143D01*
X25246904Y-20771905D01*
X25199285Y-20581429D01*
X25199285Y-20343333D01*
X25246904Y-20152857D01*
X25294523Y-20057619D01*
X25342142Y-20010000D01*
X25437380Y-19962381D01*
X26151666Y-20057619D02*
X26199285Y-20010000D01*
X26294523Y-19962381D01*
X26532619Y-19962381D01*
X26627857Y-20010000D01*
X26675476Y-20057619D01*
X26723095Y-20152857D01*
X26723095Y-20248095D01*
X26675476Y-20390952D01*
X26104047Y-20962381D01*
X26723095Y-20962381D01*
X27056428Y-20962381D02*
X27580238Y-20295714D01*
X27056428Y-20295714D02*
X27580238Y-20962381D01*
X28151666Y-19962381D02*
X28246905Y-19962381D01*
X28342143Y-20010000D01*
X28389762Y-20057619D01*
X28437381Y-20152857D01*
X28485000Y-20343333D01*
X28485000Y-20581429D01*
X28437381Y-20771905D01*
X28389762Y-20867143D01*
X28342143Y-20914762D01*
X28246905Y-20962381D01*
X28151666Y-20962381D01*
X28056428Y-20914762D01*
X28008809Y-20867143D01*
X27961190Y-20771905D01*
X27913571Y-20581429D01*
X27913571Y-20343333D01*
X27961190Y-20152857D01*
X28008809Y-20057619D01*
X28056428Y-20010000D01*
X28151666Y-19962381D01*
X29342143Y-19962381D02*
X29151666Y-19962381D01*
X29056428Y-20010000D01*
X29008809Y-20057619D01*
X28913571Y-20200476D01*
X28865952Y-20390952D01*
X28865952Y-20771905D01*
X28913571Y-20867143D01*
X28961190Y-20914762D01*
X29056428Y-20962381D01*
X29246905Y-20962381D01*
X29342143Y-20914762D01*
X29389762Y-20867143D01*
X29437381Y-20771905D01*
X29437381Y-20533810D01*
X29389762Y-20438571D01*
X29342143Y-20390952D01*
X29246905Y-20343333D01*
X29056428Y-20343333D01*
X28961190Y-20390952D01*
X28913571Y-20438571D01*
X28865952Y-20533810D01*
X29627857Y-21057619D02*
X30389762Y-21057619D01*
X30818333Y-19962381D02*
X31008810Y-19962381D01*
X31104048Y-20010000D01*
X31199286Y-20105238D01*
X31246905Y-20295714D01*
X31246905Y-20629048D01*
X31199286Y-20819524D01*
X31104048Y-20914762D01*
X31008810Y-20962381D01*
X30818333Y-20962381D01*
X30723095Y-20914762D01*
X30627857Y-20819524D01*
X30580238Y-20629048D01*
X30580238Y-20295714D01*
X30627857Y-20105238D01*
X30723095Y-20010000D01*
X30818333Y-19962381D01*
X32104048Y-20962381D02*
X32104048Y-19962381D01*
X32104048Y-20914762D02*
X32008810Y-20962381D01*
X31818333Y-20962381D01*
X31723095Y-20914762D01*
X31675476Y-20867143D01*
X31627857Y-20771905D01*
X31627857Y-20486190D01*
X31675476Y-20390952D01*
X31723095Y-20343333D01*
X31818333Y-20295714D01*
X32008810Y-20295714D01*
X32104048Y-20343333D01*
X33008810Y-20962381D02*
X33008810Y-19962381D01*
X33008810Y-20914762D02*
X32913572Y-20962381D01*
X32723095Y-20962381D01*
X32627857Y-20914762D01*
X32580238Y-20867143D01*
X32532619Y-20771905D01*
X32532619Y-20486190D01*
X32580238Y-20390952D01*
X32627857Y-20343333D01*
X32723095Y-20295714D01*
X32913572Y-20295714D01*
X33008810Y-20343333D01*
X33246905Y-21057619D02*
X34008810Y-21057619D01*
X34246905Y-20438571D02*
X34580239Y-20438571D01*
X34723096Y-20962381D02*
X34246905Y-20962381D01*
X34246905Y-19962381D01*
X34723096Y-19962381D01*
X35056429Y-20295714D02*
X35294524Y-20962381D01*
X35532620Y-20295714D01*
X36294525Y-20914762D02*
X36199287Y-20962381D01*
X36008810Y-20962381D01*
X35913572Y-20914762D01*
X35865953Y-20819524D01*
X35865953Y-20438571D01*
X35913572Y-20343333D01*
X36008810Y-20295714D01*
X36199287Y-20295714D01*
X36294525Y-20343333D01*
X36342144Y-20438571D01*
X36342144Y-20533810D01*
X35865953Y-20629048D01*
X36770715Y-20295714D02*
X36770715Y-20962381D01*
X36770715Y-20390952D02*
X36818334Y-20343333D01*
X36913572Y-20295714D01*
X37056430Y-20295714D01*
X37151668Y-20343333D01*
X37199287Y-20438571D01*
X37199287Y-20962381D01*
X28782381Y-29463333D02*
X29496667Y-29463333D01*
X29639524Y-29510953D01*
X29734762Y-29606191D01*
X29782381Y-29749048D01*
X29782381Y-29844286D01*
X29782381Y-28463333D02*
X29782381Y-29034762D01*
X29782381Y-28749048D02*
X28782381Y-28749048D01*
X28925238Y-28844286D01*
X29020476Y-28939524D01*
X29068095Y-29034762D01*
X43702381Y-32045238D02*
X43702381Y-31854762D01*
X43654762Y-31759523D01*
X43607143Y-31711904D01*
X43464286Y-31616666D01*
X43273810Y-31569047D01*
X42892857Y-31569047D01*
X42797619Y-31616666D01*
X42750000Y-31664285D01*
X42702381Y-31759523D01*
X42702381Y-31950000D01*
X42750000Y-32045238D01*
X42797619Y-32092857D01*
X42892857Y-32140476D01*
X43130952Y-32140476D01*
X43226190Y-32092857D01*
X43273810Y-32045238D01*
X43321429Y-31950000D01*
X43321429Y-31759523D01*
X43273810Y-31664285D01*
X43226190Y-31616666D01*
X43130952Y-31569047D01*
X43702381Y-31140476D02*
X42702381Y-31140476D01*
X43321429Y-31045238D02*
X43702381Y-30759523D01*
X43035714Y-30759523D02*
X43416667Y-31140476D01*
D12*
X41726190Y-31533333D02*
X41488095Y-31700000D01*
X41726190Y-31819047D02*
X41226190Y-31819047D01*
X41226190Y-31628571D01*
X41250000Y-31580952D01*
X41273810Y-31557143D01*
X41321429Y-31533333D01*
X41392857Y-31533333D01*
X41440476Y-31557143D01*
X41464286Y-31580952D01*
X41488095Y-31628571D01*
X41488095Y-31819047D01*
X41726190Y-31057143D02*
X41726190Y-31342857D01*
X41726190Y-31200000D02*
X41226190Y-31200000D01*
X41297619Y-31247619D01*
X41345238Y-31295238D01*
X41369048Y-31342857D01*
D11*
X39702381Y-32045238D02*
X39702381Y-31854762D01*
X39654762Y-31759523D01*
X39607143Y-31711904D01*
X39464286Y-31616666D01*
X39273810Y-31569047D01*
X38892857Y-31569047D01*
X38797619Y-31616666D01*
X38750000Y-31664285D01*
X38702381Y-31759523D01*
X38702381Y-31950000D01*
X38750000Y-32045238D01*
X38797619Y-32092857D01*
X38892857Y-32140476D01*
X39130952Y-32140476D01*
X39226190Y-32092857D01*
X39273810Y-32045238D01*
X39321429Y-31950000D01*
X39321429Y-31759523D01*
X39273810Y-31664285D01*
X39226190Y-31616666D01*
X39130952Y-31569047D01*
X39702381Y-31140476D02*
X38702381Y-31140476D01*
X39321429Y-31045238D02*
X39702381Y-30759523D01*
X39035714Y-30759523D02*
X39416667Y-31140476D01*
D12*
X37726190Y-31533333D02*
X37488095Y-31700000D01*
X37726190Y-31819047D02*
X37226190Y-31819047D01*
X37226190Y-31628571D01*
X37250000Y-31580952D01*
X37273810Y-31557143D01*
X37321429Y-31533333D01*
X37392857Y-31533333D01*
X37440476Y-31557143D01*
X37464286Y-31580952D01*
X37488095Y-31628571D01*
X37488095Y-31819047D01*
X37273810Y-31342857D02*
X37250000Y-31319047D01*
X37226190Y-31271428D01*
X37226190Y-31152381D01*
X37250000Y-31104762D01*
X37273810Y-31080952D01*
X37321429Y-31057143D01*
X37369048Y-31057143D01*
X37440476Y-31080952D01*
X37726190Y-31366666D01*
X37726190Y-31057143D01*
D11*
X41702381Y-32045238D02*
X41702381Y-31854762D01*
X41654762Y-31759523D01*
X41607143Y-31711904D01*
X41464286Y-31616666D01*
X41273810Y-31569047D01*
X40892857Y-31569047D01*
X40797619Y-31616666D01*
X40750000Y-31664285D01*
X40702381Y-31759523D01*
X40702381Y-31950000D01*
X40750000Y-32045238D01*
X40797619Y-32092857D01*
X40892857Y-32140476D01*
X41130952Y-32140476D01*
X41226190Y-32092857D01*
X41273810Y-32045238D01*
X41321429Y-31950000D01*
X41321429Y-31759523D01*
X41273810Y-31664285D01*
X41226190Y-31616666D01*
X41130952Y-31569047D01*
X41702381Y-31140476D02*
X40702381Y-31140476D01*
X41321429Y-31045238D02*
X41702381Y-30759523D01*
X41035714Y-30759523D02*
X41416667Y-31140476D01*
D12*
X39726190Y-31533333D02*
X39488095Y-31700000D01*
X39726190Y-31819047D02*
X39226190Y-31819047D01*
X39226190Y-31628571D01*
X39250000Y-31580952D01*
X39273810Y-31557143D01*
X39321429Y-31533333D01*
X39392857Y-31533333D01*
X39440476Y-31557143D01*
X39464286Y-31580952D01*
X39488095Y-31628571D01*
X39488095Y-31819047D01*
X39226190Y-31366666D02*
X39226190Y-31057143D01*
X39416667Y-31223809D01*
X39416667Y-31152381D01*
X39440476Y-31104762D01*
X39464286Y-31080952D01*
X39511905Y-31057143D01*
X39630952Y-31057143D01*
X39678571Y-31080952D01*
X39702381Y-31104762D01*
X39726190Y-31152381D01*
X39726190Y-31295238D01*
X39702381Y-31342857D01*
X39678571Y-31366666D01*
D11*
X42797619Y-36716667D02*
X42750000Y-36669048D01*
X42702381Y-36573810D01*
X42702381Y-36335714D01*
X42750000Y-36240476D01*
X42797619Y-36192857D01*
X42892857Y-36145238D01*
X42988095Y-36145238D01*
X43130952Y-36192857D01*
X43702381Y-36764286D01*
X43702381Y-36145238D01*
X43702381Y-35716667D02*
X42702381Y-35716667D01*
X43321429Y-35621429D02*
X43702381Y-35335714D01*
X43035714Y-35335714D02*
X43416667Y-35716667D01*
X42797619Y-34954762D02*
X42750000Y-34907143D01*
X42702381Y-34811905D01*
X42702381Y-34573809D01*
X42750000Y-34478571D01*
X42797619Y-34430952D01*
X42892857Y-34383333D01*
X42988095Y-34383333D01*
X43130952Y-34430952D01*
X43702381Y-35002381D01*
X43702381Y-34383333D01*
D12*
X41726190Y-35633333D02*
X41488095Y-35800000D01*
X41726190Y-35919047D02*
X41226190Y-35919047D01*
X41226190Y-35728571D01*
X41250000Y-35680952D01*
X41273810Y-35657143D01*
X41321429Y-35633333D01*
X41392857Y-35633333D01*
X41440476Y-35657143D01*
X41464286Y-35680952D01*
X41488095Y-35728571D01*
X41488095Y-35919047D01*
X41392857Y-35204762D02*
X41726190Y-35204762D01*
X41202381Y-35323809D02*
X41559524Y-35442857D01*
X41559524Y-35133333D01*
D11*
X38797619Y-36716667D02*
X38750000Y-36669048D01*
X38702381Y-36573810D01*
X38702381Y-36335714D01*
X38750000Y-36240476D01*
X38797619Y-36192857D01*
X38892857Y-36145238D01*
X38988095Y-36145238D01*
X39130952Y-36192857D01*
X39702381Y-36764286D01*
X39702381Y-36145238D01*
X39702381Y-35716667D02*
X38702381Y-35716667D01*
X39321429Y-35621429D02*
X39702381Y-35335714D01*
X39035714Y-35335714D02*
X39416667Y-35716667D01*
X38797619Y-34954762D02*
X38750000Y-34907143D01*
X38702381Y-34811905D01*
X38702381Y-34573809D01*
X38750000Y-34478571D01*
X38797619Y-34430952D01*
X38892857Y-34383333D01*
X38988095Y-34383333D01*
X39130952Y-34430952D01*
X39702381Y-35002381D01*
X39702381Y-34383333D01*
D12*
X37726190Y-35583333D02*
X37488095Y-35750000D01*
X37726190Y-35869047D02*
X37226190Y-35869047D01*
X37226190Y-35678571D01*
X37250000Y-35630952D01*
X37273810Y-35607143D01*
X37321429Y-35583333D01*
X37392857Y-35583333D01*
X37440476Y-35607143D01*
X37464286Y-35630952D01*
X37488095Y-35678571D01*
X37488095Y-35869047D01*
X37226190Y-35130952D02*
X37226190Y-35369047D01*
X37464286Y-35392857D01*
X37440476Y-35369047D01*
X37416667Y-35321428D01*
X37416667Y-35202381D01*
X37440476Y-35154762D01*
X37464286Y-35130952D01*
X37511905Y-35107143D01*
X37630952Y-35107143D01*
X37678571Y-35130952D01*
X37702381Y-35154762D01*
X37726190Y-35202381D01*
X37726190Y-35321428D01*
X37702381Y-35369047D01*
X37678571Y-35392857D01*
D11*
X40797619Y-36716667D02*
X40750000Y-36669048D01*
X40702381Y-36573810D01*
X40702381Y-36335714D01*
X40750000Y-36240476D01*
X40797619Y-36192857D01*
X40892857Y-36145238D01*
X40988095Y-36145238D01*
X41130952Y-36192857D01*
X41702381Y-36764286D01*
X41702381Y-36145238D01*
X41702381Y-35716667D02*
X40702381Y-35716667D01*
X41321429Y-35621429D02*
X41702381Y-35335714D01*
X41035714Y-35335714D02*
X41416667Y-35716667D01*
X40797619Y-34954762D02*
X40750000Y-34907143D01*
X40702381Y-34811905D01*
X40702381Y-34573809D01*
X40750000Y-34478571D01*
X40797619Y-34430952D01*
X40892857Y-34383333D01*
X40988095Y-34383333D01*
X41130952Y-34430952D01*
X41702381Y-35002381D01*
X41702381Y-34383333D01*
D12*
X39726190Y-35633333D02*
X39488095Y-35800000D01*
X39726190Y-35919047D02*
X39226190Y-35919047D01*
X39226190Y-35728571D01*
X39250000Y-35680952D01*
X39273810Y-35657143D01*
X39321429Y-35633333D01*
X39392857Y-35633333D01*
X39440476Y-35657143D01*
X39464286Y-35680952D01*
X39488095Y-35728571D01*
X39488095Y-35919047D01*
X39226190Y-35204762D02*
X39226190Y-35300000D01*
X39250000Y-35347619D01*
X39273810Y-35371428D01*
X39345238Y-35419047D01*
X39440476Y-35442857D01*
X39630952Y-35442857D01*
X39678571Y-35419047D01*
X39702381Y-35395238D01*
X39726190Y-35347619D01*
X39726190Y-35252381D01*
X39702381Y-35204762D01*
X39678571Y-35180952D01*
X39630952Y-35157143D01*
X39511905Y-35157143D01*
X39464286Y-35180952D01*
X39440476Y-35204762D01*
X39416667Y-35252381D01*
X39416667Y-35347619D01*
X39440476Y-35395238D01*
X39464286Y-35419047D01*
X39511905Y-35442857D01*
D11*
X44554762Y-29752381D02*
X44078571Y-29752381D01*
X44078571Y-28752381D01*
X44888095Y-29752381D02*
X44888095Y-28752381D01*
X45126190Y-28752381D01*
X45269048Y-28800000D01*
X45364286Y-28895238D01*
X45411905Y-28990476D01*
X45459524Y-29180952D01*
X45459524Y-29323810D01*
X45411905Y-29514286D01*
X45364286Y-29609524D01*
X45269048Y-29704762D01*
X45126190Y-29752381D01*
X44888095Y-29752381D01*
X46411905Y-29752381D02*
X45840476Y-29752381D01*
X46126190Y-29752381D02*
X46126190Y-28752381D01*
X46030952Y-28895238D01*
X45935714Y-28990476D01*
X45840476Y-29038095D01*
X47364286Y-29752381D02*
X46792857Y-29752381D01*
X47078571Y-29752381D02*
X47078571Y-28752381D01*
X46983333Y-28895238D01*
X46888095Y-28990476D01*
X46792857Y-29038095D01*
X48316667Y-29752381D02*
X47745238Y-29752381D01*
X48030952Y-29752381D02*
X48030952Y-28752381D01*
X47935714Y-28895238D01*
X47840476Y-28990476D01*
X47745238Y-29038095D01*
X48650000Y-28752381D02*
X49316667Y-28752381D01*
X48888095Y-29752381D01*
X49650000Y-29704762D02*
X49792857Y-29752381D01*
X50030953Y-29752381D01*
X50126191Y-29704762D01*
X50173810Y-29657143D01*
X50221429Y-29561905D01*
X50221429Y-29466667D01*
X50173810Y-29371429D01*
X50126191Y-29323810D01*
X50030953Y-29276190D01*
X49840476Y-29228571D01*
X49745238Y-29180952D01*
X49697619Y-29133333D01*
X49650000Y-29038095D01*
X49650000Y-28942857D01*
X49697619Y-28847619D01*
X49745238Y-28800000D01*
X49840476Y-28752381D01*
X50078572Y-28752381D01*
X50221429Y-28800000D01*
X50554762Y-28752381D02*
X51173810Y-28752381D01*
X50840476Y-29133333D01*
X50983334Y-29133333D01*
X51078572Y-29180952D01*
X51126191Y-29228571D01*
X51173810Y-29323810D01*
X51173810Y-29561905D01*
X51126191Y-29657143D01*
X51078572Y-29704762D01*
X50983334Y-29752381D01*
X50697619Y-29752381D01*
X50602381Y-29704762D01*
X50554762Y-29657143D01*
X51507143Y-28752381D02*
X52126191Y-28752381D01*
X51792857Y-29133333D01*
X51935715Y-29133333D01*
X52030953Y-29180952D01*
X52078572Y-29228571D01*
X52126191Y-29323810D01*
X52126191Y-29561905D01*
X52078572Y-29657143D01*
X52030953Y-29704762D01*
X51935715Y-29752381D01*
X51650000Y-29752381D01*
X51554762Y-29704762D01*
X51507143Y-29657143D01*
X52411905Y-28752381D02*
X52983334Y-28752381D01*
X52697619Y-29752381D02*
X52697619Y-28752381D01*
X53888096Y-29752381D02*
X53554762Y-29276190D01*
X53316667Y-29752381D02*
X53316667Y-28752381D01*
X53697620Y-28752381D01*
X53792858Y-28800000D01*
X53840477Y-28847619D01*
X53888096Y-28942857D01*
X53888096Y-29085714D01*
X53840477Y-29180952D01*
X53792858Y-29228571D01*
X53697620Y-29276190D01*
X53316667Y-29276190D01*
X54078572Y-29847619D02*
X54840477Y-29847619D01*
X55030953Y-29704762D02*
X55173810Y-29752381D01*
X55411906Y-29752381D01*
X55507144Y-29704762D01*
X55554763Y-29657143D01*
X55602382Y-29561905D01*
X55602382Y-29466667D01*
X55554763Y-29371429D01*
X55507144Y-29323810D01*
X55411906Y-29276190D01*
X55221429Y-29228571D01*
X55126191Y-29180952D01*
X55078572Y-29133333D01*
X55030953Y-29038095D01*
X55030953Y-28942857D01*
X55078572Y-28847619D01*
X55126191Y-28800000D01*
X55221429Y-28752381D01*
X55459525Y-28752381D01*
X55602382Y-28800000D01*
X56221429Y-28752381D02*
X56411906Y-28752381D01*
X56507144Y-28800000D01*
X56602382Y-28895238D01*
X56650001Y-29085714D01*
X56650001Y-29419048D01*
X56602382Y-29609524D01*
X56507144Y-29704762D01*
X56411906Y-29752381D01*
X56221429Y-29752381D01*
X56126191Y-29704762D01*
X56030953Y-29609524D01*
X55983334Y-29419048D01*
X55983334Y-29085714D01*
X56030953Y-28895238D01*
X56126191Y-28800000D01*
X56221429Y-28752381D01*
X56935715Y-28752381D02*
X57507144Y-28752381D01*
X57221429Y-29752381D02*
X57221429Y-28752381D01*
X57792858Y-28847619D02*
X57840477Y-28800000D01*
X57935715Y-28752381D01*
X58173811Y-28752381D01*
X58269049Y-28800000D01*
X58316668Y-28847619D01*
X58364287Y-28942857D01*
X58364287Y-29038095D01*
X58316668Y-29180952D01*
X57745239Y-29752381D01*
X58364287Y-29752381D01*
X58745239Y-28847619D02*
X58792858Y-28800000D01*
X58888096Y-28752381D01*
X59126192Y-28752381D01*
X59221430Y-28800000D01*
X59269049Y-28847619D01*
X59316668Y-28942857D01*
X59316668Y-29038095D01*
X59269049Y-29180952D01*
X58697620Y-29752381D01*
X59316668Y-29752381D01*
X59650001Y-28752381D02*
X60269049Y-28752381D01*
X59935715Y-29133333D01*
X60078573Y-29133333D01*
X60173811Y-29180952D01*
X60221430Y-29228571D01*
X60269049Y-29323810D01*
X60269049Y-29561905D01*
X60221430Y-29657143D01*
X60173811Y-29704762D01*
X60078573Y-29752381D01*
X59792858Y-29752381D01*
X59697620Y-29704762D01*
X59650001Y-29657143D01*
D13*
X51711905Y-25409524D02*
X52359524Y-25409524D01*
X52435714Y-25371429D01*
X52473810Y-25333333D01*
X52511905Y-25257143D01*
X52511905Y-25104762D01*
X52473810Y-25028571D01*
X52435714Y-24990476D01*
X52359524Y-24952381D01*
X51711905Y-24952381D01*
X52511905Y-24152381D02*
X52511905Y-24609524D01*
X52511905Y-24380953D02*
X51711905Y-24380953D01*
X51826190Y-24457143D01*
X51902381Y-24533334D01*
X51940476Y-24609524D01*
D11*
X62416666Y-36854762D02*
X62559523Y-36902381D01*
X62797619Y-36902381D01*
X62892857Y-36854762D01*
X62940476Y-36807143D01*
X62988095Y-36711905D01*
X62988095Y-36616667D01*
X62940476Y-36521429D01*
X62892857Y-36473810D01*
X62797619Y-36426190D01*
X62607142Y-36378571D01*
X62511904Y-36330952D01*
X62464285Y-36283333D01*
X62416666Y-36188095D01*
X62416666Y-36092857D01*
X62464285Y-35997619D01*
X62511904Y-35950000D01*
X62607142Y-35902381D01*
X62845238Y-35902381D01*
X62988095Y-35950000D01*
X63273809Y-35902381D02*
X63845238Y-35902381D01*
X63559523Y-36902381D02*
X63559523Y-35902381D01*
X64178571Y-36902381D02*
X64178571Y-35902381D01*
X64511905Y-36616667D01*
X64845238Y-35902381D01*
X64845238Y-36902381D01*
X65226190Y-35902381D02*
X65845238Y-35902381D01*
X65511904Y-36283333D01*
X65654762Y-36283333D01*
X65750000Y-36330952D01*
X65797619Y-36378571D01*
X65845238Y-36473810D01*
X65845238Y-36711905D01*
X65797619Y-36807143D01*
X65750000Y-36854762D01*
X65654762Y-36902381D01*
X65369047Y-36902381D01*
X65273809Y-36854762D01*
X65226190Y-36807143D01*
X66226190Y-35997619D02*
X66273809Y-35950000D01*
X66369047Y-35902381D01*
X66607143Y-35902381D01*
X66702381Y-35950000D01*
X66750000Y-35997619D01*
X66797619Y-36092857D01*
X66797619Y-36188095D01*
X66750000Y-36330952D01*
X66178571Y-36902381D01*
X66797619Y-36902381D01*
X67559524Y-36378571D02*
X67226190Y-36378571D01*
X67226190Y-36902381D02*
X67226190Y-35902381D01*
X67702381Y-35902381D01*
X68607143Y-36902381D02*
X68035714Y-36902381D01*
X68321428Y-36902381D02*
X68321428Y-35902381D01*
X68226190Y-36045238D01*
X68130952Y-36140476D01*
X68035714Y-36188095D01*
X69226190Y-35902381D02*
X69321429Y-35902381D01*
X69416667Y-35950000D01*
X69464286Y-35997619D01*
X69511905Y-36092857D01*
X69559524Y-36283333D01*
X69559524Y-36521429D01*
X69511905Y-36711905D01*
X69464286Y-36807143D01*
X69416667Y-36854762D01*
X69321429Y-36902381D01*
X69226190Y-36902381D01*
X69130952Y-36854762D01*
X69083333Y-36807143D01*
X69035714Y-36711905D01*
X68988095Y-36521429D01*
X68988095Y-36283333D01*
X69035714Y-36092857D01*
X69083333Y-35997619D01*
X69130952Y-35950000D01*
X69226190Y-35902381D01*
X70464286Y-35902381D02*
X69988095Y-35902381D01*
X69940476Y-36378571D01*
X69988095Y-36330952D01*
X70083333Y-36283333D01*
X70321429Y-36283333D01*
X70416667Y-36330952D01*
X70464286Y-36378571D01*
X70511905Y-36473810D01*
X70511905Y-36711905D01*
X70464286Y-36807143D01*
X70416667Y-36854762D01*
X70321429Y-36902381D01*
X70083333Y-36902381D01*
X69988095Y-36854762D01*
X69940476Y-36807143D01*
X71511905Y-36902381D02*
X71178571Y-36426190D01*
X70940476Y-36902381D02*
X70940476Y-35902381D01*
X71321429Y-35902381D01*
X71416667Y-35950000D01*
X71464286Y-35997619D01*
X71511905Y-36092857D01*
X71511905Y-36235714D01*
X71464286Y-36330952D01*
X71416667Y-36378571D01*
X71321429Y-36426190D01*
X70940476Y-36426190D01*
X72273810Y-36378571D02*
X72416667Y-36426190D01*
X72464286Y-36473810D01*
X72511905Y-36569048D01*
X72511905Y-36711905D01*
X72464286Y-36807143D01*
X72416667Y-36854762D01*
X72321429Y-36902381D01*
X71940476Y-36902381D01*
X71940476Y-35902381D01*
X72273810Y-35902381D01*
X72369048Y-35950000D01*
X72416667Y-35997619D01*
X72464286Y-36092857D01*
X72464286Y-36188095D01*
X72416667Y-36283333D01*
X72369048Y-36330952D01*
X72273810Y-36378571D01*
X71940476Y-36378571D01*
X72797619Y-35902381D02*
X73369048Y-35902381D01*
X73083333Y-36902381D02*
X73083333Y-35902381D01*
X73607143Y-36902381D02*
X74130953Y-36235714D01*
X73607143Y-36235714D02*
X74130953Y-36902381D01*
X67488095Y-28702381D02*
X67488095Y-29511905D01*
X67535714Y-29607143D01*
X67583333Y-29654762D01*
X67678571Y-29702381D01*
X67869048Y-29702381D01*
X67964286Y-29654762D01*
X68011905Y-29607143D01*
X68059524Y-29511905D01*
X68059524Y-28702381D01*
X68488095Y-28797619D02*
X68535714Y-28750000D01*
X68630952Y-28702381D01*
X68869048Y-28702381D01*
X68964286Y-28750000D01*
X69011905Y-28797619D01*
X69059524Y-28892857D01*
X69059524Y-28988095D01*
X69011905Y-29130952D01*
X68440476Y-29702381D01*
X69059524Y-29702381D01*
X48397619Y-31041667D02*
X48350000Y-30994048D01*
X48302381Y-30898810D01*
X48302381Y-30660714D01*
X48350000Y-30565476D01*
X48397619Y-30517857D01*
X48492857Y-30470238D01*
X48588095Y-30470238D01*
X48730952Y-30517857D01*
X49302381Y-31089286D01*
X49302381Y-30470238D01*
X48397619Y-30089286D02*
X48350000Y-30041667D01*
X48302381Y-29946429D01*
X48302381Y-29708333D01*
X48350000Y-29613095D01*
X48397619Y-29565476D01*
X48492857Y-29517857D01*
X48588095Y-29517857D01*
X48730952Y-29565476D01*
X49302381Y-30136905D01*
X49302381Y-29517857D01*
X48302381Y-28898810D02*
X48302381Y-28803571D01*
X48350000Y-28708333D01*
X48397619Y-28660714D01*
X48492857Y-28613095D01*
X48683333Y-28565476D01*
X48921429Y-28565476D01*
X49111905Y-28613095D01*
X49207143Y-28660714D01*
X49254762Y-28708333D01*
X49302381Y-28803571D01*
X49302381Y-28898810D01*
X49254762Y-28994048D01*
X49207143Y-29041667D01*
X49111905Y-29089286D01*
X48921429Y-29136905D01*
X48683333Y-29136905D01*
X48492857Y-29089286D01*
X48397619Y-29041667D01*
X48350000Y-28994048D01*
X48302381Y-28898810D01*
X48635714Y-27708333D02*
X49302381Y-27708333D01*
X48635714Y-28136905D02*
X49159524Y-28136905D01*
X49254762Y-28089286D01*
X49302381Y-27994048D01*
X49302381Y-27851190D01*
X49254762Y-27755952D01*
X49207143Y-27708333D01*
X48778571Y-26898809D02*
X48778571Y-27232143D01*
X49302381Y-27232143D02*
X48302381Y-27232143D01*
X48302381Y-26755952D01*
X49302381Y-25708333D02*
X48635714Y-25184523D01*
X48635714Y-25708333D02*
X49302381Y-25184523D01*
X48302381Y-24136904D02*
X48302381Y-23517856D01*
X48683333Y-23851190D01*
X48683333Y-23708332D01*
X48730952Y-23613094D01*
X48778571Y-23565475D01*
X48873810Y-23517856D01*
X49111905Y-23517856D01*
X49207143Y-23565475D01*
X49254762Y-23613094D01*
X49302381Y-23708332D01*
X49302381Y-23994047D01*
X49254762Y-24089285D01*
X49207143Y-24136904D01*
X48302381Y-22898809D02*
X48302381Y-22803570D01*
X48350000Y-22708332D01*
X48397619Y-22660713D01*
X48492857Y-22613094D01*
X48683333Y-22565475D01*
X48921429Y-22565475D01*
X49111905Y-22613094D01*
X49207143Y-22660713D01*
X49254762Y-22708332D01*
X49302381Y-22803570D01*
X49302381Y-22898809D01*
X49254762Y-22994047D01*
X49207143Y-23041666D01*
X49111905Y-23089285D01*
X48921429Y-23136904D01*
X48683333Y-23136904D01*
X48492857Y-23089285D01*
X48397619Y-23041666D01*
X48350000Y-22994047D01*
X48302381Y-22898809D01*
X48302381Y-22279761D02*
X49302381Y-21946428D01*
X48302381Y-21613094D01*
X45357143Y-26541666D02*
X45404762Y-26589285D01*
X45452381Y-26732142D01*
X45452381Y-26827380D01*
X45404762Y-26970238D01*
X45309524Y-27065476D01*
X45214286Y-27113095D01*
X45023810Y-27160714D01*
X44880952Y-27160714D01*
X44690476Y-27113095D01*
X44595238Y-27065476D01*
X44500000Y-26970238D01*
X44452381Y-26827380D01*
X44452381Y-26732142D01*
X44500000Y-26589285D01*
X44547619Y-26541666D01*
X44547619Y-26160714D02*
X44500000Y-26113095D01*
X44452381Y-26017857D01*
X44452381Y-25779761D01*
X44500000Y-25684523D01*
X44547619Y-25636904D01*
X44642857Y-25589285D01*
X44738095Y-25589285D01*
X44880952Y-25636904D01*
X45452381Y-26208333D01*
X45452381Y-25589285D01*
X43660714Y-31435714D02*
X43660714Y-32102381D01*
X43422618Y-31054762D02*
X43184523Y-31769048D01*
X43803571Y-31769048D01*
X44089285Y-31102381D02*
X44755952Y-31102381D01*
X44327380Y-32102381D01*
X45565476Y-31435714D02*
X45565476Y-32102381D01*
X45136904Y-31435714D02*
X45136904Y-31959524D01*
X45184523Y-32054762D01*
X45279761Y-32102381D01*
X45422619Y-32102381D01*
X45517857Y-32054762D01*
X45565476Y-32007143D01*
X46375000Y-31578571D02*
X46041666Y-31578571D01*
X46041666Y-32102381D02*
X46041666Y-31102381D01*
X46517857Y-31102381D01*
X47565476Y-32102381D02*
X48089286Y-31435714D01*
X47565476Y-31435714D02*
X48089286Y-32102381D01*
X49755953Y-32102381D02*
X49184524Y-32102381D01*
X49470238Y-32102381D02*
X49470238Y-31102381D01*
X49375000Y-31245238D01*
X49279762Y-31340476D01*
X49184524Y-31388095D01*
X50613096Y-31102381D02*
X50422619Y-31102381D01*
X50327381Y-31150000D01*
X50279762Y-31197619D01*
X50184524Y-31340476D01*
X50136905Y-31530952D01*
X50136905Y-31911905D01*
X50184524Y-32007143D01*
X50232143Y-32054762D01*
X50327381Y-32102381D01*
X50517858Y-32102381D01*
X50613096Y-32054762D01*
X50660715Y-32007143D01*
X50708334Y-31911905D01*
X50708334Y-31673810D01*
X50660715Y-31578571D01*
X50613096Y-31530952D01*
X50517858Y-31483333D01*
X50327381Y-31483333D01*
X50232143Y-31530952D01*
X50184524Y-31578571D01*
X50136905Y-31673810D01*
X50994048Y-31102381D02*
X51327381Y-32102381D01*
X51660715Y-31102381D01*
X47208334Y-35357143D02*
X47160715Y-35404762D01*
X47017858Y-35452381D01*
X46922620Y-35452381D01*
X46779762Y-35404762D01*
X46684524Y-35309524D01*
X46636905Y-35214286D01*
X46589286Y-35023810D01*
X46589286Y-34880952D01*
X46636905Y-34690476D01*
X46684524Y-34595238D01*
X46779762Y-34500000D01*
X46922620Y-34452381D01*
X47017858Y-34452381D01*
X47160715Y-34500000D01*
X47208334Y-34547619D01*
X47541667Y-34452381D02*
X48208334Y-34452381D01*
X47779762Y-35452381D01*
X75546666Y-23407143D02*
X75499047Y-23454762D01*
X75356190Y-23502381D01*
X75260952Y-23502381D01*
X75118094Y-23454762D01*
X75022856Y-23359524D01*
X74975237Y-23264286D01*
X74927618Y-23073810D01*
X74927618Y-22930952D01*
X74975237Y-22740476D01*
X75022856Y-22645238D01*
X75118094Y-22550000D01*
X75260952Y-22502381D01*
X75356190Y-22502381D01*
X75499047Y-22550000D01*
X75546666Y-22597619D01*
X76118094Y-23502381D02*
X76022856Y-23454762D01*
X75975237Y-23407143D01*
X75927618Y-23311905D01*
X75927618Y-23026190D01*
X75975237Y-22930952D01*
X76022856Y-22883333D01*
X76118094Y-22835714D01*
X76260952Y-22835714D01*
X76356190Y-22883333D01*
X76403809Y-22930952D01*
X76451428Y-23026190D01*
X76451428Y-23311905D01*
X76403809Y-23407143D01*
X76356190Y-23454762D01*
X76260952Y-23502381D01*
X76118094Y-23502381D01*
X76879999Y-22835714D02*
X76879999Y-23502381D01*
X76879999Y-22930952D02*
X76927618Y-22883333D01*
X77022856Y-22835714D01*
X77165714Y-22835714D01*
X77260952Y-22883333D01*
X77308571Y-22978571D01*
X77308571Y-23502381D01*
X77784761Y-22835714D02*
X77784761Y-23502381D01*
X77784761Y-22930952D02*
X77832380Y-22883333D01*
X77927618Y-22835714D01*
X78070476Y-22835714D01*
X78165714Y-22883333D01*
X78213333Y-22978571D01*
X78213333Y-23502381D01*
X78451428Y-23597619D02*
X79213333Y-23597619D01*
X79641904Y-22502381D02*
X79737143Y-22502381D01*
X79832381Y-22550000D01*
X79880000Y-22597619D01*
X79927619Y-22692857D01*
X79975238Y-22883333D01*
X79975238Y-23121429D01*
X79927619Y-23311905D01*
X79880000Y-23407143D01*
X79832381Y-23454762D01*
X79737143Y-23502381D01*
X79641904Y-23502381D01*
X79546666Y-23454762D01*
X79499047Y-23407143D01*
X79451428Y-23311905D01*
X79403809Y-23121429D01*
X79403809Y-22883333D01*
X79451428Y-22692857D01*
X79499047Y-22597619D01*
X79546666Y-22550000D01*
X79641904Y-22502381D01*
X80927619Y-23502381D02*
X80356190Y-23502381D01*
X80641904Y-23502381D02*
X80641904Y-22502381D01*
X80546666Y-22645238D01*
X80451428Y-22740476D01*
X80356190Y-22788095D01*
X81260952Y-23502381D02*
X81784762Y-22835714D01*
X81260952Y-22835714D02*
X81784762Y-23502381D01*
X82356190Y-22502381D02*
X82451429Y-22502381D01*
X82546667Y-22550000D01*
X82594286Y-22597619D01*
X82641905Y-22692857D01*
X82689524Y-22883333D01*
X82689524Y-23121429D01*
X82641905Y-23311905D01*
X82594286Y-23407143D01*
X82546667Y-23454762D01*
X82451429Y-23502381D01*
X82356190Y-23502381D01*
X82260952Y-23454762D01*
X82213333Y-23407143D01*
X82165714Y-23311905D01*
X82118095Y-23121429D01*
X82118095Y-22883333D01*
X82165714Y-22692857D01*
X82213333Y-22597619D01*
X82260952Y-22550000D01*
X82356190Y-22502381D01*
X83546667Y-22835714D02*
X83546667Y-23502381D01*
X83308571Y-22454762D02*
X83070476Y-23169048D01*
X83689524Y-23169048D01*
X83832381Y-23597619D02*
X84594286Y-23597619D01*
X84832381Y-23502381D02*
X84832381Y-22502381D01*
X85165715Y-23216667D01*
X85499048Y-22502381D01*
X85499048Y-23502381D01*
X86403810Y-23502381D02*
X86403810Y-22978571D01*
X86356191Y-22883333D01*
X86260953Y-22835714D01*
X86070476Y-22835714D01*
X85975238Y-22883333D01*
X86403810Y-23454762D02*
X86308572Y-23502381D01*
X86070476Y-23502381D01*
X85975238Y-23454762D01*
X85927619Y-23359524D01*
X85927619Y-23264286D01*
X85975238Y-23169048D01*
X86070476Y-23121429D01*
X86308572Y-23121429D01*
X86403810Y-23073810D01*
X87022857Y-23502381D02*
X86927619Y-23454762D01*
X86880000Y-23359524D01*
X86880000Y-22502381D01*
X87784763Y-23454762D02*
X87689525Y-23502381D01*
X87499048Y-23502381D01*
X87403810Y-23454762D01*
X87356191Y-23359524D01*
X87356191Y-22978571D01*
X87403810Y-22883333D01*
X87499048Y-22835714D01*
X87689525Y-22835714D01*
X87784763Y-22883333D01*
X87832382Y-22978571D01*
X87832382Y-23073810D01*
X87356191Y-23169048D01*
X77166667Y-22452381D02*
X77166667Y-23166667D01*
X77119047Y-23309524D01*
X77023809Y-23404762D01*
X76880952Y-23452381D01*
X76785714Y-23452381D01*
X77595238Y-22547619D02*
X77642857Y-22500000D01*
X77738095Y-22452381D01*
X77976191Y-22452381D01*
X78071429Y-22500000D01*
X78119048Y-22547619D01*
X78166667Y-22642857D01*
X78166667Y-22738095D01*
X78119048Y-22880952D01*
X77547619Y-23452381D01*
X78166667Y-23452381D01*
M02*
