%TF.GenerationSoftware,KiCad,Pcbnew,4.0.7-e2-6376~58~ubuntu16.04.1*%
%TF.CreationDate,2017-12-06T16:05:08+02:00*%
%TF.ProjectId,ecu_emu,6563755F656D752E6B696361645F7063,rev?*%
%TF.FileFunction,Soldermask,Bot*%
%FSLAX46Y46*%
G04 Gerber Fmt 4.6, Leading zero omitted, Abs format (unit mm)*
G04 Created by KiCad (PCBNEW 4.0.7-e2-6376~58~ubuntu16.04.1) date Wed Dec  6 16:05:08 2017*
%MOMM*%
%LPD*%
G01*
G04 APERTURE LIST*
%ADD10C,0.100000*%
%ADD11R,1.400000X1.650000*%
%ADD12R,2.100000X2.100000*%
%ADD13O,2.100000X2.100000*%
%ADD14R,1.700000X1.100000*%
%ADD15R,1.950000X1.000000*%
%ADD16R,1.700000X2.000000*%
%ADD17R,1.650000X1.400000*%
%ADD18R,1.600000X1.600000*%
%ADD19R,1.100000X1.700000*%
G04 APERTURE END LIST*
D10*
D11*
X65500000Y-23000000D03*
X67500000Y-23000000D03*
X65500000Y-31000000D03*
X67500000Y-31000000D03*
X72000000Y-25000000D03*
X70000000Y-25000000D03*
D12*
X34640000Y-35480000D03*
D13*
X32100000Y-35480000D03*
X34640000Y-32940000D03*
X32100000Y-32940000D03*
X34640000Y-30400000D03*
X32100000Y-30400000D03*
X34640000Y-27860000D03*
X32100000Y-27860000D03*
X34640000Y-25320000D03*
X32100000Y-25320000D03*
X34640000Y-22780000D03*
X32100000Y-22780000D03*
D14*
X59500000Y-22550000D03*
X59500000Y-24450000D03*
X39500000Y-32400000D03*
X39500000Y-30500000D03*
D15*
X57820000Y-29130000D03*
X57820000Y-30400000D03*
X57820000Y-31670000D03*
X57820000Y-32940000D03*
X52420000Y-32940000D03*
X52420000Y-31670000D03*
X52420000Y-30400000D03*
X52420000Y-29130000D03*
D16*
X67500000Y-25350000D03*
X67500000Y-28650000D03*
X65500000Y-28650000D03*
X65500000Y-25350000D03*
D14*
X62000000Y-22550000D03*
X62000000Y-24450000D03*
D17*
X39500000Y-26500000D03*
X39500000Y-28500000D03*
D11*
X72000000Y-29000000D03*
X70000000Y-29000000D03*
X72000000Y-33000000D03*
X70000000Y-33000000D03*
X72000000Y-27000000D03*
X70000000Y-27000000D03*
X72000000Y-23000000D03*
X70000000Y-23000000D03*
X72000000Y-31000000D03*
X70000000Y-31000000D03*
D15*
X48942000Y-29130000D03*
X48942000Y-30400000D03*
X48942000Y-31670000D03*
X48942000Y-32940000D03*
X43542000Y-32940000D03*
X43542000Y-31670000D03*
X43542000Y-30400000D03*
X43542000Y-29130000D03*
D12*
X77000000Y-32940000D03*
D13*
X77000000Y-30400000D03*
X77000000Y-27860000D03*
X77000000Y-25320000D03*
D18*
X75800000Y-36000000D03*
X78000000Y-36000000D03*
D19*
X73950000Y-36000000D03*
X72050000Y-36000000D03*
M02*
