%TF.GenerationSoftware,KiCad,Pcbnew,4.0.7-e2-6376~58~ubuntu16.04.1*%
%TF.CreationDate,2017-12-06T16:05:08+02:00*%
%TF.ProjectId,ecu_emu,6563755F656D752E6B696361645F7063,rev?*%
%TF.FileFunction,Legend,Top*%
%FSLAX46Y46*%
G04 Gerber Fmt 4.6, Leading zero omitted, Abs format (unit mm)*
G04 Created by KiCad (PCBNEW 4.0.7-e2-6376~58~ubuntu16.04.1) date Wed Dec  6 16:05:08 2017*
%MOMM*%
%LPD*%
G01*
G04 APERTURE LIST*
%ADD10C,0.100000*%
%ADD11C,0.120000*%
%ADD12C,0.150000*%
%ADD13R,1.650000X1.400000*%
%ADD14R,2.200000X2.900000*%
%ADD15R,0.750000X0.750000*%
%ADD16R,2.100000X2.100000*%
%ADD17O,2.100000X2.100000*%
%ADD18R,1.700000X1.100000*%
%ADD19R,2.400000X4.200000*%
%ADD20R,2.400000X1.900000*%
%ADD21R,1.400000X0.650000*%
%ADD22R,0.650000X1.400000*%
%ADD23R,3.100000X3.350000*%
%ADD24R,3.150000X2.200000*%
G04 APERTURE END LIST*
D10*
D11*
X40650000Y-22500000D02*
X40650000Y-23500000D01*
X42350000Y-23500000D02*
X42350000Y-22500000D01*
X42350000Y-27000000D02*
X42350000Y-26000000D01*
X40650000Y-26000000D02*
X40650000Y-27000000D01*
X53850000Y-35500000D02*
X53850000Y-34500000D01*
X52150000Y-34500000D02*
X52150000Y-35500000D01*
X36850000Y-28053000D02*
X40150000Y-28053000D01*
X40150000Y-28053000D02*
X40150000Y-22653000D01*
X36850000Y-28053000D02*
X36850000Y-22653000D01*
X55550000Y-35500000D02*
X55550000Y-33800000D01*
X54450000Y-35500000D02*
X55550000Y-35500000D01*
X54450000Y-33800000D02*
X54450000Y-35500000D01*
X30660000Y-36810000D02*
X30660000Y-21450000D01*
X30660000Y-21450000D02*
X28000000Y-21450000D01*
X28000000Y-21450000D02*
X28000000Y-36810000D01*
X28000000Y-36810000D02*
X30660000Y-36810000D01*
X28000000Y-35860000D02*
X22000000Y-35860000D01*
X22000000Y-35860000D02*
X22000000Y-35100000D01*
X22000000Y-35100000D02*
X28000000Y-35100000D01*
X28000000Y-35800000D02*
X22000000Y-35800000D01*
X28000000Y-35680000D02*
X22000000Y-35680000D01*
X28000000Y-35560000D02*
X22000000Y-35560000D01*
X28000000Y-35440000D02*
X22000000Y-35440000D01*
X28000000Y-35320000D02*
X22000000Y-35320000D01*
X28000000Y-35200000D02*
X22000000Y-35200000D01*
X31057071Y-35860000D02*
X30660000Y-35860000D01*
X31057071Y-35100000D02*
X30660000Y-35100000D01*
X33530000Y-35860000D02*
X33142929Y-35860000D01*
X33530000Y-35100000D02*
X33142929Y-35100000D01*
X30660000Y-34210000D02*
X28000000Y-34210000D01*
X28000000Y-33320000D02*
X22000000Y-33320000D01*
X22000000Y-33320000D02*
X22000000Y-32560000D01*
X22000000Y-32560000D02*
X28000000Y-32560000D01*
X31057071Y-33320000D02*
X30660000Y-33320000D01*
X31057071Y-32560000D02*
X30660000Y-32560000D01*
X33597071Y-33320000D02*
X33142929Y-33320000D01*
X33597071Y-32560000D02*
X33142929Y-32560000D01*
X30660000Y-31670000D02*
X28000000Y-31670000D01*
X28000000Y-30780000D02*
X22000000Y-30780000D01*
X22000000Y-30780000D02*
X22000000Y-30020000D01*
X22000000Y-30020000D02*
X28000000Y-30020000D01*
X31057071Y-30780000D02*
X30660000Y-30780000D01*
X31057071Y-30020000D02*
X30660000Y-30020000D01*
X33597071Y-30780000D02*
X33142929Y-30780000D01*
X33597071Y-30020000D02*
X33142929Y-30020000D01*
X30660000Y-29130000D02*
X28000000Y-29130000D01*
X28000000Y-28240000D02*
X22000000Y-28240000D01*
X22000000Y-28240000D02*
X22000000Y-27480000D01*
X22000000Y-27480000D02*
X28000000Y-27480000D01*
X31057071Y-28240000D02*
X30660000Y-28240000D01*
X31057071Y-27480000D02*
X30660000Y-27480000D01*
X33597071Y-28240000D02*
X33142929Y-28240000D01*
X33597071Y-27480000D02*
X33142929Y-27480000D01*
X30660000Y-26590000D02*
X28000000Y-26590000D01*
X28000000Y-25700000D02*
X22000000Y-25700000D01*
X22000000Y-25700000D02*
X22000000Y-24940000D01*
X22000000Y-24940000D02*
X28000000Y-24940000D01*
X31057071Y-25700000D02*
X30660000Y-25700000D01*
X31057071Y-24940000D02*
X30660000Y-24940000D01*
X33597071Y-25700000D02*
X33142929Y-25700000D01*
X33597071Y-24940000D02*
X33142929Y-24940000D01*
X30660000Y-24050000D02*
X28000000Y-24050000D01*
X28000000Y-23160000D02*
X22000000Y-23160000D01*
X22000000Y-23160000D02*
X22000000Y-22400000D01*
X22000000Y-22400000D02*
X28000000Y-22400000D01*
X31057071Y-23160000D02*
X30660000Y-23160000D01*
X31057071Y-22400000D02*
X30660000Y-22400000D01*
X33597071Y-23160000D02*
X33142929Y-23160000D01*
X33597071Y-22400000D02*
X33142929Y-22400000D01*
X35910000Y-35480000D02*
X35910000Y-36750000D01*
X35910000Y-36750000D02*
X34640000Y-36750000D01*
X42380000Y-30850000D02*
X42380000Y-32050000D01*
X40620000Y-32050000D02*
X40620000Y-30850000D01*
X38380000Y-30850000D02*
X38380000Y-32050000D01*
X36620000Y-32050000D02*
X36620000Y-30850000D01*
X40380000Y-30850000D02*
X40380000Y-32050000D01*
X38620000Y-32050000D02*
X38620000Y-30850000D01*
X42380000Y-34950000D02*
X42380000Y-36150000D01*
X40620000Y-36150000D02*
X40620000Y-34950000D01*
X38380000Y-34950000D02*
X38380000Y-36150000D01*
X36620000Y-36150000D02*
X36620000Y-34950000D01*
X40380000Y-34950000D02*
X40380000Y-36150000D01*
X38620000Y-36150000D02*
X38620000Y-34950000D01*
X54060000Y-28210000D02*
X54060000Y-26950000D01*
X54060000Y-21390000D02*
X54060000Y-22650000D01*
X50300000Y-28210000D02*
X54060000Y-28210000D01*
X48050000Y-21390000D02*
X54060000Y-21390000D01*
D12*
X63075000Y-24075000D02*
X63075000Y-25075000D01*
X73425000Y-24075000D02*
X73425000Y-25150000D01*
X73425000Y-34425000D02*
X73425000Y-33350000D01*
X63075000Y-34425000D02*
X63075000Y-33350000D01*
X63075000Y-24075000D02*
X64150000Y-24075000D01*
X63075000Y-34425000D02*
X64150000Y-34425000D01*
X73425000Y-34425000D02*
X72350000Y-34425000D01*
X73425000Y-24075000D02*
X72350000Y-24075000D01*
X63075000Y-25075000D02*
X62050000Y-25075000D01*
D11*
X42650000Y-31525000D02*
X42650000Y-22725000D01*
X47350000Y-31525000D02*
X47350000Y-22725000D01*
X42650000Y-31525000D02*
X47350000Y-31525000D01*
X51675000Y-36850000D02*
X44375000Y-36850000D01*
X51675000Y-33150000D02*
X44375000Y-33150000D01*
X51675000Y-36850000D02*
X51675000Y-33150000D01*
X78460000Y-34270000D02*
X78460000Y-31670000D01*
X78460000Y-31670000D02*
X87090000Y-31670000D01*
X87090000Y-31670000D02*
X87090000Y-34270000D01*
X87090000Y-34270000D02*
X78460000Y-34270000D01*
X78030000Y-33320000D02*
X78460000Y-33320000D01*
X78030000Y-32560000D02*
X78460000Y-32560000D01*
X78460000Y-34090000D02*
X87090000Y-34090000D01*
X78460000Y-33970000D02*
X87090000Y-33970000D01*
X78460000Y-33850000D02*
X87090000Y-33850000D01*
X78460000Y-33730000D02*
X87090000Y-33730000D01*
X78460000Y-33610000D02*
X87090000Y-33610000D01*
X78460000Y-33490000D02*
X87090000Y-33490000D01*
X78460000Y-33370000D02*
X87090000Y-33370000D01*
X78460000Y-33250000D02*
X87090000Y-33250000D01*
X78460000Y-33130000D02*
X87090000Y-33130000D01*
X78460000Y-33010000D02*
X87090000Y-33010000D01*
X78460000Y-32890000D02*
X87090000Y-32890000D01*
X78460000Y-32770000D02*
X87090000Y-32770000D01*
X78460000Y-32650000D02*
X87090000Y-32650000D01*
X78460000Y-32530000D02*
X87090000Y-32530000D01*
X78460000Y-32410000D02*
X87090000Y-32410000D01*
X78460000Y-32290000D02*
X87090000Y-32290000D01*
X78460000Y-32170000D02*
X87090000Y-32170000D01*
X78460000Y-32050000D02*
X87090000Y-32050000D01*
X78460000Y-31930000D02*
X87090000Y-31930000D01*
X78460000Y-31810000D02*
X87090000Y-31810000D01*
X78460000Y-31690000D02*
X87090000Y-31690000D01*
X78460000Y-31570000D02*
X87090000Y-31570000D01*
X78460000Y-31670000D02*
X78460000Y-29130000D01*
X78460000Y-29130000D02*
X87090000Y-29130000D01*
X87090000Y-29130000D02*
X87090000Y-31670000D01*
X87090000Y-31670000D02*
X78460000Y-31670000D01*
X78030000Y-30780000D02*
X78460000Y-30780000D01*
X78030000Y-30020000D02*
X78460000Y-30020000D01*
X78460000Y-29130000D02*
X78460000Y-26590000D01*
X78460000Y-26590000D02*
X87090000Y-26590000D01*
X87090000Y-26590000D02*
X87090000Y-29130000D01*
X87090000Y-29130000D02*
X78460000Y-29130000D01*
X78030000Y-28240000D02*
X78460000Y-28240000D01*
X78030000Y-27480000D02*
X78460000Y-27480000D01*
X78460000Y-26590000D02*
X78460000Y-23990000D01*
X78460000Y-23990000D02*
X87090000Y-23990000D01*
X87090000Y-23990000D02*
X87090000Y-26590000D01*
X87090000Y-26590000D02*
X78460000Y-26590000D01*
X78030000Y-25700000D02*
X78460000Y-25700000D01*
X78030000Y-24940000D02*
X78460000Y-24940000D01*
X77000000Y-34210000D02*
X75730000Y-34210000D01*
X75730000Y-34210000D02*
X75730000Y-32940000D01*
D12*
X40357143Y-23166666D02*
X40404762Y-23214285D01*
X40452381Y-23357142D01*
X40452381Y-23452380D01*
X40404762Y-23595238D01*
X40309524Y-23690476D01*
X40214286Y-23738095D01*
X40023810Y-23785714D01*
X39880952Y-23785714D01*
X39690476Y-23738095D01*
X39595238Y-23690476D01*
X39500000Y-23595238D01*
X39452381Y-23452380D01*
X39452381Y-23357142D01*
X39500000Y-23214285D01*
X39547619Y-23166666D01*
X40452381Y-22214285D02*
X40452381Y-22785714D01*
X40452381Y-22500000D02*
X39452381Y-22500000D01*
X39595238Y-22595238D01*
X39690476Y-22690476D01*
X39738095Y-22785714D01*
X40857143Y-26666666D02*
X40904762Y-26714285D01*
X40952381Y-26857142D01*
X40952381Y-26952380D01*
X40904762Y-27095238D01*
X40809524Y-27190476D01*
X40714286Y-27238095D01*
X40523810Y-27285714D01*
X40380952Y-27285714D01*
X40190476Y-27238095D01*
X40095238Y-27190476D01*
X40000000Y-27095238D01*
X39952381Y-26952380D01*
X39952381Y-26857142D01*
X40000000Y-26714285D01*
X40047619Y-26666666D01*
X39952381Y-26333333D02*
X39952381Y-25714285D01*
X40333333Y-26047619D01*
X40333333Y-25904761D01*
X40380952Y-25809523D01*
X40428571Y-25761904D01*
X40523810Y-25714285D01*
X40761905Y-25714285D01*
X40857143Y-25761904D01*
X40904762Y-25809523D01*
X40952381Y-25904761D01*
X40952381Y-26190476D01*
X40904762Y-26285714D01*
X40857143Y-26333333D01*
X53357143Y-32166666D02*
X53404762Y-32214285D01*
X53452381Y-32357142D01*
X53452381Y-32452380D01*
X53404762Y-32595238D01*
X53309524Y-32690476D01*
X53214286Y-32738095D01*
X53023810Y-32785714D01*
X52880952Y-32785714D01*
X52690476Y-32738095D01*
X52595238Y-32690476D01*
X52500000Y-32595238D01*
X52452381Y-32452380D01*
X52452381Y-32357142D01*
X52500000Y-32214285D01*
X52547619Y-32166666D01*
X52452381Y-31309523D02*
X52452381Y-31500000D01*
X52500000Y-31595238D01*
X52547619Y-31642857D01*
X52690476Y-31738095D01*
X52880952Y-31785714D01*
X53261905Y-31785714D01*
X53357143Y-31738095D01*
X53404762Y-31690476D01*
X53452381Y-31595238D01*
X53452381Y-31404761D01*
X53404762Y-31309523D01*
X53357143Y-31261904D01*
X53261905Y-31214285D01*
X53023810Y-31214285D01*
X52928571Y-31261904D01*
X52880952Y-31309523D01*
X52833333Y-31404761D01*
X52833333Y-31595238D01*
X52880952Y-31690476D01*
X52928571Y-31738095D01*
X53023810Y-31785714D01*
X36952381Y-25238095D02*
X35952381Y-25238095D01*
X35952381Y-25000000D01*
X36000000Y-24857142D01*
X36095238Y-24761904D01*
X36190476Y-24714285D01*
X36380952Y-24666666D01*
X36523810Y-24666666D01*
X36714286Y-24714285D01*
X36809524Y-24761904D01*
X36904762Y-24857142D01*
X36952381Y-25000000D01*
X36952381Y-25238095D01*
X36952381Y-23714285D02*
X36952381Y-24285714D01*
X36952381Y-24000000D02*
X35952381Y-24000000D01*
X36095238Y-24095238D01*
X36190476Y-24190476D01*
X36238095Y-24285714D01*
X55452381Y-32738095D02*
X54452381Y-32738095D01*
X54452381Y-32500000D01*
X54500000Y-32357142D01*
X54595238Y-32261904D01*
X54690476Y-32214285D01*
X54880952Y-32166666D01*
X55023810Y-32166666D01*
X55214286Y-32214285D01*
X55309524Y-32261904D01*
X55404762Y-32357142D01*
X55452381Y-32500000D01*
X55452381Y-32738095D01*
X54547619Y-31785714D02*
X54500000Y-31738095D01*
X54452381Y-31642857D01*
X54452381Y-31404761D01*
X54500000Y-31309523D01*
X54547619Y-31261904D01*
X54642857Y-31214285D01*
X54738095Y-31214285D01*
X54880952Y-31261904D01*
X55452381Y-31833333D01*
X55452381Y-31214285D01*
X28952381Y-29333333D02*
X29666667Y-29333333D01*
X29809524Y-29380953D01*
X29904762Y-29476191D01*
X29952381Y-29619048D01*
X29952381Y-29714286D01*
X29952381Y-28333333D02*
X29952381Y-28904762D01*
X29952381Y-28619048D02*
X28952381Y-28619048D01*
X29095238Y-28714286D01*
X29190476Y-28809524D01*
X29238095Y-28904762D01*
X41952381Y-29166666D02*
X41476190Y-29500000D01*
X41952381Y-29738095D02*
X40952381Y-29738095D01*
X40952381Y-29357142D01*
X41000000Y-29261904D01*
X41047619Y-29214285D01*
X41142857Y-29166666D01*
X41285714Y-29166666D01*
X41380952Y-29214285D01*
X41428571Y-29261904D01*
X41476190Y-29357142D01*
X41476190Y-29738095D01*
X41952381Y-28214285D02*
X41952381Y-28785714D01*
X41952381Y-28500000D02*
X40952381Y-28500000D01*
X41095238Y-28595238D01*
X41190476Y-28690476D01*
X41238095Y-28785714D01*
X37952381Y-29166666D02*
X37476190Y-29500000D01*
X37952381Y-29738095D02*
X36952381Y-29738095D01*
X36952381Y-29357142D01*
X37000000Y-29261904D01*
X37047619Y-29214285D01*
X37142857Y-29166666D01*
X37285714Y-29166666D01*
X37380952Y-29214285D01*
X37428571Y-29261904D01*
X37476190Y-29357142D01*
X37476190Y-29738095D01*
X37047619Y-28785714D02*
X37000000Y-28738095D01*
X36952381Y-28642857D01*
X36952381Y-28404761D01*
X37000000Y-28309523D01*
X37047619Y-28261904D01*
X37142857Y-28214285D01*
X37238095Y-28214285D01*
X37380952Y-28261904D01*
X37952381Y-28833333D01*
X37952381Y-28214285D01*
X39952381Y-29166666D02*
X39476190Y-29500000D01*
X39952381Y-29738095D02*
X38952381Y-29738095D01*
X38952381Y-29357142D01*
X39000000Y-29261904D01*
X39047619Y-29214285D01*
X39142857Y-29166666D01*
X39285714Y-29166666D01*
X39380952Y-29214285D01*
X39428571Y-29261904D01*
X39476190Y-29357142D01*
X39476190Y-29738095D01*
X38952381Y-28833333D02*
X38952381Y-28214285D01*
X39333333Y-28547619D01*
X39333333Y-28404761D01*
X39380952Y-28309523D01*
X39428571Y-28261904D01*
X39523810Y-28214285D01*
X39761905Y-28214285D01*
X39857143Y-28261904D01*
X39904762Y-28309523D01*
X39952381Y-28404761D01*
X39952381Y-28690476D01*
X39904762Y-28785714D01*
X39857143Y-28833333D01*
X41952381Y-33666666D02*
X41476190Y-34000000D01*
X41952381Y-34238095D02*
X40952381Y-34238095D01*
X40952381Y-33857142D01*
X41000000Y-33761904D01*
X41047619Y-33714285D01*
X41142857Y-33666666D01*
X41285714Y-33666666D01*
X41380952Y-33714285D01*
X41428571Y-33761904D01*
X41476190Y-33857142D01*
X41476190Y-34238095D01*
X41285714Y-32809523D02*
X41952381Y-32809523D01*
X40904762Y-33047619D02*
X41619048Y-33285714D01*
X41619048Y-32666666D01*
X37952381Y-33666666D02*
X37476190Y-34000000D01*
X37952381Y-34238095D02*
X36952381Y-34238095D01*
X36952381Y-33857142D01*
X37000000Y-33761904D01*
X37047619Y-33714285D01*
X37142857Y-33666666D01*
X37285714Y-33666666D01*
X37380952Y-33714285D01*
X37428571Y-33761904D01*
X37476190Y-33857142D01*
X37476190Y-34238095D01*
X36952381Y-32761904D02*
X36952381Y-33238095D01*
X37428571Y-33285714D01*
X37380952Y-33238095D01*
X37333333Y-33142857D01*
X37333333Y-32904761D01*
X37380952Y-32809523D01*
X37428571Y-32761904D01*
X37523810Y-32714285D01*
X37761905Y-32714285D01*
X37857143Y-32761904D01*
X37904762Y-32809523D01*
X37952381Y-32904761D01*
X37952381Y-33142857D01*
X37904762Y-33238095D01*
X37857143Y-33285714D01*
X39952381Y-33666666D02*
X39476190Y-34000000D01*
X39952381Y-34238095D02*
X38952381Y-34238095D01*
X38952381Y-33857142D01*
X39000000Y-33761904D01*
X39047619Y-33714285D01*
X39142857Y-33666666D01*
X39285714Y-33666666D01*
X39380952Y-33714285D01*
X39428571Y-33761904D01*
X39476190Y-33857142D01*
X39476190Y-34238095D01*
X38952381Y-32809523D02*
X38952381Y-33000000D01*
X39000000Y-33095238D01*
X39047619Y-33142857D01*
X39190476Y-33238095D01*
X39380952Y-33285714D01*
X39761905Y-33285714D01*
X39857143Y-33238095D01*
X39904762Y-33190476D01*
X39952381Y-33095238D01*
X39952381Y-32904761D01*
X39904762Y-32809523D01*
X39857143Y-32761904D01*
X39761905Y-32714285D01*
X39523810Y-32714285D01*
X39428571Y-32761904D01*
X39380952Y-32809523D01*
X39333333Y-32904761D01*
X39333333Y-33095238D01*
X39380952Y-33190476D01*
X39428571Y-33238095D01*
X39523810Y-33285714D01*
X54238095Y-21452381D02*
X54238095Y-22261905D01*
X54285714Y-22357143D01*
X54333333Y-22404762D01*
X54428571Y-22452381D01*
X54619048Y-22452381D01*
X54714286Y-22404762D01*
X54761905Y-22357143D01*
X54809524Y-22261905D01*
X54809524Y-21452381D01*
X55809524Y-22452381D02*
X55238095Y-22452381D01*
X55523809Y-22452381D02*
X55523809Y-21452381D01*
X55428571Y-21595238D01*
X55333333Y-21690476D01*
X55238095Y-21738095D01*
X67488095Y-21502381D02*
X67488095Y-22311905D01*
X67535714Y-22407143D01*
X67583333Y-22454762D01*
X67678571Y-22502381D01*
X67869048Y-22502381D01*
X67964286Y-22454762D01*
X68011905Y-22407143D01*
X68059524Y-22311905D01*
X68059524Y-21502381D01*
X68488095Y-21597619D02*
X68535714Y-21550000D01*
X68630952Y-21502381D01*
X68869048Y-21502381D01*
X68964286Y-21550000D01*
X69011905Y-21597619D01*
X69059524Y-21692857D01*
X69059524Y-21788095D01*
X69011905Y-21930952D01*
X68440476Y-22502381D01*
X69059524Y-22502381D01*
X48857143Y-29666666D02*
X48904762Y-29714285D01*
X48952381Y-29857142D01*
X48952381Y-29952380D01*
X48904762Y-30095238D01*
X48809524Y-30190476D01*
X48714286Y-30238095D01*
X48523810Y-30285714D01*
X48380952Y-30285714D01*
X48190476Y-30238095D01*
X48095238Y-30190476D01*
X48000000Y-30095238D01*
X47952381Y-29952380D01*
X47952381Y-29857142D01*
X48000000Y-29714285D01*
X48047619Y-29666666D01*
X48047619Y-29285714D02*
X48000000Y-29238095D01*
X47952381Y-29142857D01*
X47952381Y-28904761D01*
X48000000Y-28809523D01*
X48047619Y-28761904D01*
X48142857Y-28714285D01*
X48238095Y-28714285D01*
X48380952Y-28761904D01*
X48952381Y-29333333D01*
X48952381Y-28714285D01*
X47208334Y-32857143D02*
X47160715Y-32904762D01*
X47017858Y-32952381D01*
X46922620Y-32952381D01*
X46779762Y-32904762D01*
X46684524Y-32809524D01*
X46636905Y-32714286D01*
X46589286Y-32523810D01*
X46589286Y-32380952D01*
X46636905Y-32190476D01*
X46684524Y-32095238D01*
X46779762Y-32000000D01*
X46922620Y-31952381D01*
X47017858Y-31952381D01*
X47160715Y-32000000D01*
X47208334Y-32047619D01*
X47541667Y-31952381D02*
X48208334Y-31952381D01*
X47779762Y-32952381D01*
X77166667Y-22452381D02*
X77166667Y-23166667D01*
X77119047Y-23309524D01*
X77023809Y-23404762D01*
X76880952Y-23452381D01*
X76785714Y-23452381D01*
X77595238Y-22547619D02*
X77642857Y-22500000D01*
X77738095Y-22452381D01*
X77976191Y-22452381D01*
X78071429Y-22500000D01*
X78119048Y-22547619D01*
X78166667Y-22642857D01*
X78166667Y-22738095D01*
X78119048Y-22880952D01*
X77547619Y-23452381D01*
X78166667Y-23452381D01*
%LPC*%
D13*
X41500000Y-24000000D03*
X41500000Y-22000000D03*
X41500000Y-25500000D03*
X41500000Y-27500000D03*
X53000000Y-34000000D03*
X53000000Y-36000000D03*
D14*
X38500000Y-26653000D03*
X38500000Y-22653000D03*
D15*
X55000000Y-33775000D03*
X55000000Y-35225000D03*
D16*
X34640000Y-35480000D03*
D17*
X32100000Y-35480000D03*
X34640000Y-32940000D03*
X32100000Y-32940000D03*
X34640000Y-30400000D03*
X32100000Y-30400000D03*
X34640000Y-27860000D03*
X32100000Y-27860000D03*
X34640000Y-25320000D03*
X32100000Y-25320000D03*
X34640000Y-22780000D03*
X32100000Y-22780000D03*
D18*
X41500000Y-32400000D03*
X41500000Y-30500000D03*
X37500000Y-32400000D03*
X37500000Y-30500000D03*
X39500000Y-32400000D03*
X39500000Y-30500000D03*
X41500000Y-36500000D03*
X41500000Y-34600000D03*
X37500000Y-36500000D03*
X37500000Y-34600000D03*
X39500000Y-36500000D03*
X39500000Y-34600000D03*
D19*
X55300000Y-24800000D03*
D20*
X49000000Y-24800000D03*
X49000000Y-27100000D03*
X49000000Y-22500000D03*
D21*
X62550000Y-25500000D03*
X62550000Y-26000000D03*
X62550000Y-26500000D03*
X62550000Y-27000000D03*
X62550000Y-27500000D03*
X62550000Y-28000000D03*
X62550000Y-28500000D03*
X62550000Y-29000000D03*
X62550000Y-29500000D03*
X62550000Y-30000000D03*
X62550000Y-30500000D03*
X62550000Y-31000000D03*
X62550000Y-31500000D03*
X62550000Y-32000000D03*
X62550000Y-32500000D03*
X62550000Y-33000000D03*
D22*
X64500000Y-34950000D03*
X65000000Y-34950000D03*
X65500000Y-34950000D03*
X66000000Y-34950000D03*
X66500000Y-34950000D03*
X67000000Y-34950000D03*
X67500000Y-34950000D03*
X68000000Y-34950000D03*
X68500000Y-34950000D03*
X69000000Y-34950000D03*
X69500000Y-34950000D03*
X70000000Y-34950000D03*
X70500000Y-34950000D03*
X71000000Y-34950000D03*
X71500000Y-34950000D03*
X72000000Y-34950000D03*
D21*
X73950000Y-33000000D03*
X73950000Y-32500000D03*
X73950000Y-32000000D03*
X73950000Y-31500000D03*
X73950000Y-31000000D03*
X73950000Y-30500000D03*
X73950000Y-30000000D03*
X73950000Y-29500000D03*
X73950000Y-29000000D03*
X73950000Y-28500000D03*
X73950000Y-28000000D03*
X73950000Y-27500000D03*
X73950000Y-27000000D03*
X73950000Y-26500000D03*
X73950000Y-26000000D03*
X73950000Y-25500000D03*
D22*
X72000000Y-23550000D03*
X71500000Y-23550000D03*
X71000000Y-23550000D03*
X70500000Y-23550000D03*
X70000000Y-23550000D03*
X69500000Y-23550000D03*
X69000000Y-23550000D03*
X68500000Y-23550000D03*
X68000000Y-23550000D03*
X67500000Y-23550000D03*
X67000000Y-23550000D03*
X66500000Y-23550000D03*
X66000000Y-23550000D03*
X65500000Y-23550000D03*
X65000000Y-23550000D03*
X64500000Y-23550000D03*
D23*
X45000000Y-29750000D03*
X45000000Y-23000000D03*
D24*
X50000000Y-35000000D03*
X44750000Y-35000000D03*
D16*
X77000000Y-32940000D03*
D17*
X77000000Y-30400000D03*
X77000000Y-27860000D03*
X77000000Y-25320000D03*
M02*
