%TF.GenerationSoftware,KiCad,Pcbnew,4.0.7-e2-6376~58~ubuntu16.04.1*%
%TF.CreationDate,2017-12-06T16:05:08+02:00*%
%TF.ProjectId,ecu_emu,6563755F656D752E6B696361645F7063,rev?*%
%TF.FileFunction,Copper,L1,Top,Signal*%
%FSLAX46Y46*%
G04 Gerber Fmt 4.6, Leading zero omitted, Abs format (unit mm)*
G04 Created by KiCad (PCBNEW 4.0.7-e2-6376~58~ubuntu16.04.1) date Wed Dec  6 16:05:08 2017*
%MOMM*%
%LPD*%
G01*
G04 APERTURE LIST*
%ADD10C,0.100000*%
%ADD11R,1.250000X1.000000*%
%ADD12R,1.800000X2.500000*%
%ADD13R,0.350000X0.350000*%
%ADD14R,1.700000X1.700000*%
%ADD15O,1.700000X1.700000*%
%ADD16R,1.300000X0.700000*%
%ADD17R,2.000000X3.800000*%
%ADD18R,2.000000X1.500000*%
%ADD19R,1.000000X0.250000*%
%ADD20R,0.250000X1.000000*%
%ADD21R,2.700000X2.950000*%
%ADD22R,2.750000X1.800000*%
%ADD23C,0.600000*%
%ADD24C,0.200000*%
%ADD25C,0.300000*%
%ADD26C,0.600000*%
%ADD27C,0.250000*%
%ADD28C,0.025400*%
G04 APERTURE END LIST*
D10*
D11*
X41500000Y-24000000D03*
X41500000Y-22000000D03*
X41500000Y-25500000D03*
X41500000Y-27500000D03*
X53000000Y-34000000D03*
X53000000Y-36000000D03*
D12*
X38500000Y-26653000D03*
X38500000Y-22653000D03*
D13*
X55000000Y-33775000D03*
X55000000Y-35225000D03*
D14*
X34640000Y-35480000D03*
D15*
X32100000Y-35480000D03*
X34640000Y-32940000D03*
X32100000Y-32940000D03*
X34640000Y-30400000D03*
X32100000Y-30400000D03*
X34640000Y-27860000D03*
X32100000Y-27860000D03*
X34640000Y-25320000D03*
X32100000Y-25320000D03*
X34640000Y-22780000D03*
X32100000Y-22780000D03*
D16*
X41500000Y-32400000D03*
X41500000Y-30500000D03*
X37500000Y-32400000D03*
X37500000Y-30500000D03*
X39500000Y-32400000D03*
X39500000Y-30500000D03*
X41500000Y-36500000D03*
X41500000Y-34600000D03*
X37500000Y-36500000D03*
X37500000Y-34600000D03*
X39500000Y-36500000D03*
X39500000Y-34600000D03*
D17*
X55300000Y-24800000D03*
D18*
X49000000Y-24800000D03*
X49000000Y-27100000D03*
X49000000Y-22500000D03*
D19*
X62550000Y-25500000D03*
X62550000Y-26000000D03*
X62550000Y-26500000D03*
X62550000Y-27000000D03*
X62550000Y-27500000D03*
X62550000Y-28000000D03*
X62550000Y-28500000D03*
X62550000Y-29000000D03*
X62550000Y-29500000D03*
X62550000Y-30000000D03*
X62550000Y-30500000D03*
X62550000Y-31000000D03*
X62550000Y-31500000D03*
X62550000Y-32000000D03*
X62550000Y-32500000D03*
X62550000Y-33000000D03*
D20*
X64500000Y-34950000D03*
X65000000Y-34950000D03*
X65500000Y-34950000D03*
X66000000Y-34950000D03*
X66500000Y-34950000D03*
X67000000Y-34950000D03*
X67500000Y-34950000D03*
X68000000Y-34950000D03*
X68500000Y-34950000D03*
X69000000Y-34950000D03*
X69500000Y-34950000D03*
X70000000Y-34950000D03*
X70500000Y-34950000D03*
X71000000Y-34950000D03*
X71500000Y-34950000D03*
X72000000Y-34950000D03*
D19*
X73950000Y-33000000D03*
X73950000Y-32500000D03*
X73950000Y-32000000D03*
X73950000Y-31500000D03*
X73950000Y-31000000D03*
X73950000Y-30500000D03*
X73950000Y-30000000D03*
X73950000Y-29500000D03*
X73950000Y-29000000D03*
X73950000Y-28500000D03*
X73950000Y-28000000D03*
X73950000Y-27500000D03*
X73950000Y-27000000D03*
X73950000Y-26500000D03*
X73950000Y-26000000D03*
X73950000Y-25500000D03*
D20*
X72000000Y-23550000D03*
X71500000Y-23550000D03*
X71000000Y-23550000D03*
X70500000Y-23550000D03*
X70000000Y-23550000D03*
X69500000Y-23550000D03*
X69000000Y-23550000D03*
X68500000Y-23550000D03*
X68000000Y-23550000D03*
X67500000Y-23550000D03*
X67000000Y-23550000D03*
X66500000Y-23550000D03*
X66000000Y-23550000D03*
X65500000Y-23550000D03*
X65000000Y-23550000D03*
X64500000Y-23550000D03*
D21*
X45000000Y-29750000D03*
X45000000Y-23000000D03*
D22*
X50000000Y-35000000D03*
X44750000Y-35000000D03*
D14*
X77000000Y-32940000D03*
D15*
X77000000Y-30400000D03*
X77000000Y-27860000D03*
X77000000Y-25320000D03*
D23*
X47776239Y-34781506D03*
X68767493Y-31834671D03*
X47196638Y-25277015D03*
X45552384Y-26480015D03*
X43855310Y-26854083D03*
X64633833Y-26908132D03*
X66000000Y-27500000D03*
X51500000Y-24500000D03*
X52500000Y-26500000D03*
X52500000Y-25500000D03*
X52500000Y-24500000D03*
X52500000Y-23500000D03*
X52500000Y-22500000D03*
X57500000Y-27500000D03*
X57500000Y-26500000D03*
X57500000Y-25500000D03*
X57500000Y-24500000D03*
X57500000Y-23500000D03*
X57500000Y-22500000D03*
X74000000Y-24500000D03*
X73998414Y-34000962D03*
X63487764Y-35853046D03*
X56500000Y-34500000D03*
X63752992Y-22672254D03*
X36532494Y-29407533D03*
X59685111Y-25555653D03*
X62476045Y-35005131D03*
X75000000Y-26500000D03*
X61001200Y-27546326D03*
X41500000Y-33500000D03*
X61000131Y-28500355D03*
X37500000Y-33500000D03*
X61000059Y-29500026D03*
X39500000Y-33500000D03*
X61000000Y-25500000D03*
X59501682Y-34002064D03*
X50498162Y-30990414D03*
X61000000Y-32000000D03*
X47413306Y-27152032D03*
X43500370Y-25500316D03*
X46003049Y-32501122D03*
X69500476Y-35999854D03*
X70870305Y-36092142D03*
X68000000Y-33853631D03*
D24*
X47557745Y-35000000D02*
X47776239Y-34781506D01*
X44750000Y-35000000D02*
X47557745Y-35000000D01*
X67000000Y-29500000D02*
X67000000Y-30067178D01*
X67000000Y-30067178D02*
X68467494Y-31534672D01*
X68467494Y-31534672D02*
X68767493Y-31834671D01*
X49000000Y-22500000D02*
X48934234Y-22565766D01*
X48934234Y-22565766D02*
X47316074Y-22565766D01*
X47316074Y-22565766D02*
X46881840Y-23000000D01*
X46881840Y-23000000D02*
X45000000Y-23000000D01*
X45993638Y-26480015D02*
X46896639Y-25577014D01*
X46896639Y-25577014D02*
X47196638Y-25277015D01*
X45552384Y-26480015D02*
X45993638Y-26480015D01*
X71389350Y-36500000D02*
X74490000Y-36500000D01*
X77000000Y-33990000D02*
X77000000Y-32940000D01*
X74490000Y-36500000D02*
X77000000Y-33990000D01*
X71092876Y-36796474D02*
X71389350Y-36500000D01*
X71389350Y-36500000D02*
X71500000Y-36389350D01*
D25*
X45000000Y-25927631D02*
X45252385Y-26180016D01*
X45000000Y-23000000D02*
X45000000Y-25927631D01*
X45178316Y-26854083D02*
X45252385Y-26780014D01*
X43855310Y-26854083D02*
X45178316Y-26854083D01*
X45252385Y-26180016D02*
X45552384Y-26480015D01*
X45252385Y-26780014D02*
X45552384Y-26480015D01*
X43209393Y-27500000D02*
X43555311Y-27154082D01*
X41500000Y-27500000D02*
X43209393Y-27500000D01*
X43555311Y-27154082D02*
X43855310Y-26854083D01*
D24*
X45000000Y-23000000D02*
X45322385Y-22677615D01*
X41500000Y-22000000D02*
X42420571Y-22000000D01*
X42420571Y-22000000D02*
X43412329Y-22991758D01*
X44991758Y-22991758D02*
X45000000Y-23000000D01*
X43412329Y-22991758D02*
X44991758Y-22991758D01*
X34640000Y-35480000D02*
X35690000Y-35480000D01*
X35690000Y-35480000D02*
X36710000Y-36500000D01*
X36710000Y-36500000D02*
X37500000Y-36500000D01*
X71000000Y-25500000D02*
X67000000Y-29500000D01*
X67000000Y-29500000D02*
X65600009Y-30899991D01*
X65000000Y-36000000D02*
X65796474Y-36796474D01*
X65796474Y-36796474D02*
X71092876Y-36796474D01*
X71500000Y-36389350D02*
X71500000Y-36000000D01*
X59984788Y-36603056D02*
X64396944Y-36603056D01*
X64396944Y-36603056D02*
X65000000Y-36000000D01*
X53000000Y-36000000D02*
X59381732Y-36000000D01*
X59381732Y-36000000D02*
X59984788Y-36603056D01*
X53000000Y-36000000D02*
X52175000Y-36000000D01*
X52175000Y-36000000D02*
X51824999Y-36350001D01*
X51824999Y-36350001D02*
X47675001Y-36350001D01*
X44750000Y-35000000D02*
X46325000Y-35000000D01*
X46325000Y-35000000D02*
X47675001Y-36350001D01*
X71500000Y-36000000D02*
X71500000Y-34950000D01*
X65000000Y-36000000D02*
X65000000Y-34950000D01*
X41500000Y-36500000D02*
X44350000Y-36500000D01*
X44350000Y-36500000D02*
X44750000Y-36100000D01*
X44750000Y-36100000D02*
X44750000Y-35000000D01*
X65500000Y-31000000D02*
X62550000Y-31000000D01*
X65600009Y-30899991D02*
X65500000Y-31000000D01*
X65000000Y-24500000D02*
X65000000Y-23550000D01*
X65500000Y-25000000D02*
X65000000Y-24500000D01*
X70500000Y-25000000D02*
X65500000Y-25000000D01*
X71000000Y-25500000D02*
X70500000Y-25000000D01*
X72000000Y-26000000D02*
X73950000Y-26000000D01*
X71500000Y-25500000D02*
X72000000Y-26000000D01*
X71000000Y-25500000D02*
X71500000Y-25500000D01*
X39500000Y-36500000D02*
X41500000Y-36500000D01*
X37500000Y-36500000D02*
X39500000Y-36500000D01*
X34640000Y-35480000D02*
X33590000Y-35480000D01*
X33590000Y-35480000D02*
X32100000Y-35480000D01*
X64333834Y-27208131D02*
X64633833Y-26908132D01*
X64041965Y-27500000D02*
X64333834Y-27208131D01*
X62550000Y-27500000D02*
X64041965Y-27500000D01*
X66000000Y-27500000D02*
X65500000Y-28000000D01*
X65500000Y-28000000D02*
X62550000Y-28000000D01*
D25*
X52500000Y-25500000D02*
X52500000Y-26500000D01*
X52500000Y-23500000D02*
X52500000Y-24500000D01*
X55300000Y-23900000D02*
X53900000Y-22500000D01*
X53900000Y-22500000D02*
X52500000Y-22500000D01*
X57500000Y-25500000D02*
X57500000Y-26500000D01*
X57500000Y-23500000D02*
X57500000Y-24500000D01*
X55300000Y-24800000D02*
X55300000Y-23900000D01*
X55300000Y-23900000D02*
X56700000Y-22500000D01*
X56700000Y-22500000D02*
X57500000Y-22500000D01*
X50000000Y-35000000D02*
X49211427Y-34211427D01*
X49211427Y-34211427D02*
X49211427Y-29536011D01*
X49211427Y-29536011D02*
X51450000Y-27297438D01*
X51450000Y-27297438D02*
X51450000Y-27000000D01*
X52875000Y-34000000D02*
X51875000Y-35000000D01*
X53000000Y-34000000D02*
X52875000Y-34000000D01*
X51875000Y-35000000D02*
X51675000Y-35000000D01*
X51675000Y-35000000D02*
X50000000Y-35000000D01*
X53000000Y-34000000D02*
X54775000Y-34000000D01*
X54775000Y-34000000D02*
X55000000Y-33775000D01*
X53974561Y-24774561D02*
X52421288Y-24774561D01*
X52421288Y-24774561D02*
X51450000Y-25745849D01*
X55300000Y-24800000D02*
X54000000Y-24800000D01*
X54000000Y-24800000D02*
X53974561Y-24774561D01*
X51450000Y-25745849D02*
X51450000Y-27000000D01*
X51450000Y-27000000D02*
X49250000Y-24800000D01*
X49250000Y-24800000D02*
X49000000Y-24800000D01*
D26*
X41500000Y-30500000D02*
X41500000Y-29550000D01*
X41500000Y-29550000D02*
X40453001Y-28503001D01*
X40453001Y-28503001D02*
X37119999Y-28503001D01*
X36500000Y-27883002D02*
X36500000Y-23153000D01*
X37119999Y-28503001D02*
X36500000Y-27883002D01*
X36500000Y-23153000D02*
X36871894Y-22781106D01*
X36871894Y-22781106D02*
X38371894Y-22781106D01*
X38371894Y-22781106D02*
X38500000Y-22653000D01*
X34640000Y-22780000D02*
X38373000Y-22780000D01*
X38373000Y-22780000D02*
X38500000Y-22653000D01*
D25*
X63752992Y-23500000D02*
X63752992Y-22672254D01*
X62550000Y-25025000D02*
X62550000Y-23875246D01*
X62550000Y-23875246D02*
X62925246Y-23500000D01*
X62925246Y-23500000D02*
X63752992Y-23500000D01*
X65500000Y-32000000D02*
X65500000Y-32714867D01*
X65838764Y-33053631D02*
X71375900Y-33053631D01*
X65500000Y-32714867D02*
X65838764Y-33053631D01*
X71375900Y-33053631D02*
X72000000Y-33677731D01*
X74000000Y-24500000D02*
X74000000Y-25324999D01*
D27*
X74000000Y-25324999D02*
X73950000Y-25500000D01*
X63500000Y-23500000D02*
X64500000Y-23500000D01*
D25*
X63752992Y-23247008D02*
X63500000Y-23500000D01*
X63752992Y-22672254D02*
X63752992Y-23247008D01*
X72000000Y-33677731D02*
X73675183Y-33677731D01*
D27*
X72000000Y-33677731D02*
X72000000Y-34950000D01*
D25*
X73675183Y-33677731D02*
X73698415Y-33700963D01*
X73698415Y-33700963D02*
X73998414Y-34000962D01*
X63487764Y-35428782D02*
X63487764Y-35853046D01*
X63487764Y-34012236D02*
X63487764Y-35428782D01*
X63063500Y-35853046D02*
X63487764Y-35853046D01*
X65500000Y-32000000D02*
X63487764Y-34012236D01*
X60083321Y-35853046D02*
X63063500Y-35853046D01*
X59455275Y-35225000D02*
X60083321Y-35853046D01*
X55000000Y-35225000D02*
X59455275Y-35225000D01*
X56500000Y-34500000D02*
X56486551Y-34500000D01*
X56486551Y-34500000D02*
X55761551Y-35225000D01*
X55761551Y-35225000D02*
X55000000Y-35225000D01*
D27*
X65500000Y-32000000D02*
X65500000Y-34950000D01*
D25*
X65500000Y-32000000D02*
X65000000Y-31500000D01*
D27*
X65000000Y-31500000D02*
X62550000Y-31500000D01*
X62550000Y-25025000D02*
X62550000Y-25500000D01*
D26*
X36956758Y-29407533D02*
X36532494Y-29407533D01*
X39500000Y-29550000D02*
X39357533Y-29407533D01*
X39500000Y-30500000D02*
X39500000Y-29550000D01*
X39357533Y-29407533D02*
X36956758Y-29407533D01*
X37500000Y-30500000D02*
X35871803Y-30500000D01*
X35871803Y-30500000D02*
X35862326Y-30490523D01*
X35862326Y-30490523D02*
X34730523Y-30490523D01*
X34730523Y-30490523D02*
X34640000Y-30400000D01*
D24*
X59685111Y-25979917D02*
X59685111Y-25555653D01*
X62476045Y-35005131D02*
X59685111Y-32214197D01*
X59685111Y-32214197D02*
X59685111Y-25979917D01*
X77000000Y-30400000D02*
X75699999Y-29099999D01*
X75699999Y-29099999D02*
X75699999Y-24564093D01*
X75699999Y-24564093D02*
X74685906Y-23550000D01*
X74685906Y-23550000D02*
X72325000Y-23550000D01*
X72325000Y-23550000D02*
X72000000Y-23550000D01*
X75000000Y-26500000D02*
X73950000Y-26500000D01*
X61301199Y-27846325D02*
X61001200Y-27546326D01*
X61749999Y-28295125D02*
X61301199Y-27846325D01*
X62550000Y-29000000D02*
X61999646Y-29000000D01*
X61999646Y-29000000D02*
X61749999Y-28750353D01*
X61749999Y-28750353D02*
X61749999Y-28295125D01*
X41500000Y-33500000D02*
X41500000Y-34600000D01*
X41500000Y-32400000D02*
X41500000Y-33500000D01*
X61850000Y-29500000D02*
X61000131Y-28650131D01*
X61000131Y-28650131D02*
X61000131Y-28500355D01*
X62550000Y-29500000D02*
X61850000Y-29500000D01*
X37500000Y-33500000D02*
X37500000Y-34600000D01*
X37500000Y-32400000D02*
X37500000Y-33500000D01*
X61500033Y-30000000D02*
X61300058Y-29800025D01*
X62550000Y-30000000D02*
X61500033Y-30000000D01*
X61300058Y-29800025D02*
X61000059Y-29500026D01*
X39500000Y-34600000D02*
X39500000Y-33500000D01*
X39500000Y-32400000D02*
X39500000Y-33500000D01*
X60112083Y-30112083D02*
X60500000Y-30500000D01*
X60500000Y-30500000D02*
X62550000Y-30500000D01*
X61000000Y-25500000D02*
X60112083Y-26387917D01*
X60112083Y-26387917D02*
X60112083Y-30112083D01*
X50498162Y-30990414D02*
X52008980Y-32501232D01*
X52008980Y-32501232D02*
X58000850Y-32501232D01*
X58000850Y-32501232D02*
X59201683Y-33702065D01*
X59201683Y-33702065D02*
X59501682Y-34002064D01*
X61000000Y-32000000D02*
X62550000Y-32000000D01*
D26*
X45000000Y-29625000D02*
X47413306Y-27211694D01*
X47413306Y-27211694D02*
X47413306Y-27152032D01*
X47837570Y-27152032D02*
X47413306Y-27152032D01*
X48947968Y-27152032D02*
X47837570Y-27152032D01*
X45000000Y-29750000D02*
X45000000Y-29625000D01*
X49000000Y-27100000D02*
X48947968Y-27152032D01*
X41500000Y-25500000D02*
X43500054Y-25500000D01*
X43500054Y-25500000D02*
X43500370Y-25500316D01*
X45676122Y-32501122D02*
X46003049Y-32501122D01*
X45000000Y-31825000D02*
X45676122Y-32501122D01*
X45000000Y-29750000D02*
X45000000Y-31825000D01*
X41500000Y-25500000D02*
X39653000Y-25500000D01*
X39653000Y-25500000D02*
X38500000Y-26653000D01*
X41500000Y-24000000D02*
X41500000Y-25500000D01*
D24*
X70500000Y-34950000D02*
X70500000Y-35513619D01*
X70500000Y-35513619D02*
X70013765Y-35999854D01*
X70013765Y-35999854D02*
X69924740Y-35999854D01*
X69924740Y-35999854D02*
X69500476Y-35999854D01*
X71000000Y-35962447D02*
X70870305Y-36092142D01*
X71000000Y-34950000D02*
X71000000Y-35962447D01*
X68000000Y-33853631D02*
X68603631Y-33853631D01*
X68603631Y-33853631D02*
X69000000Y-34250000D01*
X69000000Y-34250000D02*
X69000000Y-34950000D01*
D28*
G36*
X37306293Y-21278959D02*
X37281174Y-21403000D01*
X37281174Y-22167300D01*
X35624884Y-22167300D01*
X35484932Y-21957847D01*
X35107725Y-21705805D01*
X34662779Y-21617300D01*
X34617221Y-21617300D01*
X34172275Y-21705805D01*
X33795068Y-21957847D01*
X33543026Y-22335054D01*
X33454521Y-22780000D01*
X33543026Y-23224946D01*
X33795068Y-23602153D01*
X34172275Y-23854195D01*
X34617221Y-23942700D01*
X34662779Y-23942700D01*
X35107725Y-23854195D01*
X35484932Y-23602153D01*
X35624884Y-23392700D01*
X35887300Y-23392700D01*
X35887300Y-27883002D01*
X35933939Y-28117472D01*
X36066756Y-28316246D01*
X36545343Y-28794833D01*
X36533601Y-28794833D01*
X36411155Y-28794726D01*
X36185880Y-28887808D01*
X36013375Y-29060013D01*
X35919900Y-29285125D01*
X35919687Y-29528872D01*
X36012769Y-29754147D01*
X36145690Y-29887300D01*
X35909970Y-29887300D01*
X35862326Y-29877823D01*
X35685370Y-29877823D01*
X35484932Y-29577847D01*
X35107725Y-29325805D01*
X34662779Y-29237300D01*
X34617221Y-29237300D01*
X34172275Y-29325805D01*
X33795068Y-29577847D01*
X33543026Y-29955054D01*
X33454521Y-30400000D01*
X33543026Y-30844946D01*
X33795068Y-31222153D01*
X34172275Y-31474195D01*
X34617221Y-31562700D01*
X34662779Y-31562700D01*
X35107725Y-31474195D01*
X35484932Y-31222153D01*
X35564399Y-31103223D01*
X35824159Y-31103223D01*
X35871803Y-31112700D01*
X36680579Y-31112700D01*
X36725959Y-31143707D01*
X36850000Y-31168826D01*
X38150000Y-31168826D01*
X38265880Y-31147022D01*
X38372308Y-31078537D01*
X38443707Y-30974041D01*
X38468826Y-30850000D01*
X38468826Y-30150000D01*
X38447022Y-30034120D01*
X38438086Y-30020233D01*
X38560205Y-30020233D01*
X38556293Y-30025959D01*
X38531174Y-30150000D01*
X38531174Y-30850000D01*
X38552978Y-30965880D01*
X38621463Y-31072308D01*
X38725959Y-31143707D01*
X38850000Y-31168826D01*
X40150000Y-31168826D01*
X40265880Y-31147022D01*
X40372308Y-31078537D01*
X40443707Y-30974041D01*
X40468826Y-30850000D01*
X40468826Y-30150000D01*
X40447022Y-30034120D01*
X40378537Y-29927692D01*
X40274041Y-29856293D01*
X40150000Y-29831174D01*
X40112700Y-29831174D01*
X40112700Y-29550000D01*
X40066061Y-29315530D01*
X39933244Y-29116756D01*
X39932189Y-29115701D01*
X40199213Y-29115701D01*
X40887300Y-29803788D01*
X40887300Y-29831174D01*
X40850000Y-29831174D01*
X40734120Y-29852978D01*
X40627692Y-29921463D01*
X40556293Y-30025959D01*
X40531174Y-30150000D01*
X40531174Y-30850000D01*
X40552978Y-30965880D01*
X40621463Y-31072308D01*
X40725959Y-31143707D01*
X40850000Y-31168826D01*
X42150000Y-31168826D01*
X42265880Y-31147022D01*
X42372308Y-31078537D01*
X42443707Y-30974041D01*
X42468826Y-30850000D01*
X42468826Y-30150000D01*
X42447022Y-30034120D01*
X42378537Y-29927692D01*
X42274041Y-29856293D01*
X42150000Y-29831174D01*
X42112700Y-29831174D01*
X42112700Y-29550000D01*
X42066061Y-29315530D01*
X41933244Y-29116756D01*
X41232857Y-28416369D01*
X41258700Y-28390525D01*
X41258700Y-27741300D01*
X41741300Y-27741300D01*
X41741300Y-28390525D01*
X41871475Y-28520700D01*
X42228573Y-28520700D01*
X42419953Y-28441428D01*
X42566428Y-28294953D01*
X42645700Y-28103574D01*
X42645700Y-27871475D01*
X42515525Y-27741300D01*
X41741300Y-27741300D01*
X41258700Y-27741300D01*
X40484475Y-27741300D01*
X40354300Y-27871475D01*
X40354300Y-27890301D01*
X39718826Y-27890301D01*
X39718826Y-26896426D01*
X40354300Y-26896426D01*
X40354300Y-27128525D01*
X40484475Y-27258700D01*
X41258700Y-27258700D01*
X41258700Y-26609475D01*
X41741300Y-26609475D01*
X41741300Y-27258700D01*
X42515525Y-27258700D01*
X42645700Y-27128525D01*
X42645700Y-26896426D01*
X42566428Y-26705047D01*
X42419953Y-26558572D01*
X42228573Y-26479300D01*
X41871475Y-26479300D01*
X41741300Y-26609475D01*
X41258700Y-26609475D01*
X41128525Y-26479300D01*
X40771427Y-26479300D01*
X40580047Y-26558572D01*
X40433572Y-26705047D01*
X40354300Y-26896426D01*
X39718826Y-26896426D01*
X39718826Y-26300662D01*
X39906788Y-26112700D01*
X40577380Y-26112700D01*
X40577978Y-26115880D01*
X40646463Y-26222308D01*
X40750959Y-26293707D01*
X40875000Y-26318826D01*
X42125000Y-26318826D01*
X42240880Y-26297022D01*
X42347308Y-26228537D01*
X42418707Y-26124041D01*
X42421004Y-26112700D01*
X43377456Y-26112700D01*
X43377962Y-26112910D01*
X43621709Y-26113123D01*
X43846984Y-26020041D01*
X44019489Y-25847836D01*
X44112964Y-25622724D01*
X44113177Y-25378977D01*
X44020095Y-25153702D01*
X43862368Y-24995700D01*
X44628525Y-24995700D01*
X44758700Y-24865525D01*
X44758700Y-23241300D01*
X45241300Y-23241300D01*
X45241300Y-24865525D01*
X45371475Y-24995700D01*
X46453573Y-24995700D01*
X46644953Y-24916428D01*
X46791428Y-24769953D01*
X46870700Y-24578574D01*
X46870700Y-23371475D01*
X46740525Y-23241300D01*
X45241300Y-23241300D01*
X44758700Y-23241300D01*
X43259475Y-23241300D01*
X43129300Y-23371475D01*
X43129300Y-24578574D01*
X43208572Y-24769953D01*
X43325919Y-24887300D01*
X42422620Y-24887300D01*
X42422022Y-24884120D01*
X42353537Y-24777692D01*
X42313467Y-24750313D01*
X42347308Y-24728537D01*
X42418707Y-24624041D01*
X42443826Y-24500000D01*
X42443826Y-23500000D01*
X42422022Y-23384120D01*
X42353537Y-23277692D01*
X42249041Y-23206293D01*
X42125000Y-23181174D01*
X40875000Y-23181174D01*
X40759120Y-23202978D01*
X40652692Y-23271463D01*
X40581293Y-23375959D01*
X40556174Y-23500000D01*
X40556174Y-24500000D01*
X40577978Y-24615880D01*
X40646463Y-24722308D01*
X40686533Y-24749687D01*
X40652692Y-24771463D01*
X40581293Y-24875959D01*
X40578996Y-24887300D01*
X39653000Y-24887300D01*
X39418530Y-24933939D01*
X39219756Y-25066756D01*
X39202338Y-25084174D01*
X37600000Y-25084174D01*
X37484120Y-25105978D01*
X37377692Y-25174463D01*
X37306293Y-25278959D01*
X37281174Y-25403000D01*
X37281174Y-27797688D01*
X37112700Y-27629214D01*
X37112700Y-23406788D01*
X37125683Y-23393806D01*
X37281174Y-23393806D01*
X37281174Y-23903000D01*
X37302978Y-24018880D01*
X37371463Y-24125308D01*
X37475959Y-24196707D01*
X37600000Y-24221826D01*
X39400000Y-24221826D01*
X39515880Y-24200022D01*
X39622308Y-24131537D01*
X39693707Y-24027041D01*
X39718826Y-23903000D01*
X39718826Y-22371475D01*
X40354300Y-22371475D01*
X40354300Y-22603574D01*
X40433572Y-22794953D01*
X40580047Y-22941428D01*
X40771427Y-23020700D01*
X41128525Y-23020700D01*
X41258700Y-22890525D01*
X41258700Y-22241300D01*
X41741300Y-22241300D01*
X41741300Y-22890525D01*
X41871475Y-23020700D01*
X42228573Y-23020700D01*
X42419953Y-22941428D01*
X42566428Y-22794953D01*
X42645700Y-22603574D01*
X42645700Y-22371475D01*
X42515525Y-22241300D01*
X41741300Y-22241300D01*
X41258700Y-22241300D01*
X40484475Y-22241300D01*
X40354300Y-22371475D01*
X39718826Y-22371475D01*
X39718826Y-21403000D01*
X39697022Y-21287120D01*
X39681308Y-21262700D01*
X40409691Y-21262700D01*
X40354300Y-21396426D01*
X40354300Y-21628525D01*
X40484475Y-21758700D01*
X41258700Y-21758700D01*
X41258700Y-21738700D01*
X41741300Y-21738700D01*
X41741300Y-21758700D01*
X42515525Y-21758700D01*
X42645700Y-21628525D01*
X42645700Y-21396426D01*
X42590309Y-21262700D01*
X43195047Y-21262700D01*
X43129300Y-21421426D01*
X43129300Y-22628525D01*
X43259475Y-22758700D01*
X44758700Y-22758700D01*
X44758700Y-22738700D01*
X45241300Y-22738700D01*
X45241300Y-22758700D01*
X46740525Y-22758700D01*
X46870700Y-22628525D01*
X46870700Y-21421426D01*
X46804953Y-21262700D01*
X47687300Y-21262700D01*
X47687300Y-21326319D01*
X47558572Y-21455047D01*
X47479300Y-21646427D01*
X47479300Y-22128525D01*
X47609475Y-22258700D01*
X47687300Y-22258700D01*
X47687300Y-22741300D01*
X47609475Y-22741300D01*
X47479300Y-22871475D01*
X47479300Y-23353573D01*
X47558572Y-23544953D01*
X47687300Y-23673681D01*
X47687300Y-23865190D01*
X47659330Y-23906125D01*
X47630195Y-24050000D01*
X47630195Y-25550000D01*
X47655486Y-25684408D01*
X47687300Y-25733849D01*
X47687300Y-26319749D01*
X47681174Y-26350000D01*
X47681174Y-26539332D01*
X47414413Y-26539332D01*
X47291967Y-26539225D01*
X47066692Y-26632307D01*
X46894187Y-26804512D01*
X46851714Y-26906798D01*
X45802338Y-27956174D01*
X43650000Y-27956174D01*
X43534120Y-27977978D01*
X43427692Y-28046463D01*
X43356293Y-28150959D01*
X43331174Y-28275000D01*
X43331174Y-31225000D01*
X43352978Y-31340880D01*
X43421463Y-31447308D01*
X43525959Y-31518707D01*
X43650000Y-31543826D01*
X44387300Y-31543826D01*
X44387300Y-31825000D01*
X44433939Y-32059470D01*
X44566756Y-32258244D01*
X45242878Y-32934366D01*
X45441652Y-33067183D01*
X45676122Y-33113822D01*
X46001942Y-33113822D01*
X46124388Y-33113929D01*
X46349663Y-33020847D01*
X46522168Y-32848642D01*
X46615643Y-32623530D01*
X46615856Y-32379783D01*
X46522774Y-32154508D01*
X46350569Y-31982003D01*
X46125457Y-31888528D01*
X45929845Y-31888357D01*
X45612700Y-31571212D01*
X45612700Y-31543826D01*
X46350000Y-31543826D01*
X46465880Y-31522022D01*
X46572308Y-31453537D01*
X46643707Y-31349041D01*
X46668826Y-31225000D01*
X46668826Y-28822662D01*
X47681174Y-27810314D01*
X47681174Y-27850000D01*
X47687300Y-27882557D01*
X47687300Y-32500000D01*
X47708685Y-32613653D01*
X47775854Y-32718037D01*
X47878342Y-32788064D01*
X48000000Y-32812700D01*
X48698727Y-32812700D01*
X48698727Y-33730195D01*
X48625000Y-33730195D01*
X48490592Y-33755486D01*
X48367146Y-33834921D01*
X48284330Y-33956125D01*
X48255195Y-34100000D01*
X48255195Y-35900000D01*
X48280486Y-36034408D01*
X48359921Y-36157854D01*
X48481125Y-36240670D01*
X48625000Y-36269805D01*
X51375000Y-36269805D01*
X51509408Y-36244514D01*
X51632854Y-36165079D01*
X51715670Y-36043875D01*
X51744805Y-35900000D01*
X51744805Y-35512700D01*
X51854300Y-35512700D01*
X51854300Y-35628525D01*
X51984475Y-35758700D01*
X52758700Y-35758700D01*
X52758700Y-35109475D01*
X53241300Y-35109475D01*
X53241300Y-35758700D01*
X54015525Y-35758700D01*
X54145700Y-35628525D01*
X54145700Y-35396426D01*
X54066428Y-35205047D01*
X53919953Y-35058572D01*
X53728573Y-34979300D01*
X53371475Y-34979300D01*
X53241300Y-35109475D01*
X52758700Y-35109475D01*
X52628525Y-34979300D01*
X52620768Y-34979300D01*
X52730263Y-34869805D01*
X53625000Y-34869805D01*
X53759408Y-34844514D01*
X53882854Y-34765079D01*
X53965670Y-34643875D01*
X53992233Y-34512700D01*
X54775000Y-34512700D01*
X54971202Y-34473673D01*
X55137534Y-34362534D01*
X55181483Y-34318585D01*
X55309408Y-34294514D01*
X55432854Y-34215079D01*
X55515670Y-34093875D01*
X55544805Y-33950000D01*
X55544805Y-33600000D01*
X55519514Y-33465592D01*
X55440079Y-33342146D01*
X55318875Y-33259330D01*
X55175000Y-33230195D01*
X54825000Y-33230195D01*
X54690592Y-33255486D01*
X54567146Y-33334921D01*
X54484330Y-33456125D01*
X54478017Y-33487300D01*
X53992415Y-33487300D01*
X53969514Y-33365592D01*
X53890079Y-33242146D01*
X53768875Y-33159330D01*
X53625000Y-33130195D01*
X52375000Y-33130195D01*
X52240592Y-33155486D01*
X52117146Y-33234921D01*
X52034330Y-33356125D01*
X52005195Y-33500000D01*
X52005195Y-34144737D01*
X51744805Y-34405127D01*
X51744805Y-34100000D01*
X51719514Y-33965592D01*
X51640079Y-33842146D01*
X51518875Y-33759330D01*
X51375000Y-33730195D01*
X49724127Y-33730195D01*
X49724127Y-32812700D01*
X51746558Y-32812700D01*
X51851047Y-32882517D01*
X52008980Y-32913932D01*
X57829904Y-32913932D01*
X58889006Y-33973034D01*
X58888875Y-34123403D01*
X58981957Y-34348678D01*
X59154162Y-34521183D01*
X59379274Y-34614658D01*
X59623021Y-34614871D01*
X59848296Y-34521789D01*
X60020801Y-34349584D01*
X60114276Y-34124472D01*
X60114489Y-33880725D01*
X60021407Y-33655450D01*
X59849202Y-33482945D01*
X59624090Y-33389470D01*
X59472602Y-33389338D01*
X58895964Y-32812700D01*
X59699968Y-32812700D01*
X61863369Y-34976101D01*
X61863238Y-35126470D01*
X61951610Y-35340346D01*
X60295689Y-35340346D01*
X59817809Y-34862466D01*
X59651477Y-34751327D01*
X59455275Y-34712300D01*
X57129406Y-34712300D01*
X57162585Y-34632397D01*
X57162815Y-34368759D01*
X57062137Y-34125101D01*
X56875879Y-33938518D01*
X56632397Y-33837415D01*
X56368759Y-33837185D01*
X56125101Y-33937863D01*
X55938518Y-34124121D01*
X55837415Y-34367603D01*
X55837366Y-34424117D01*
X55549183Y-34712300D01*
X55323222Y-34712300D01*
X55318875Y-34709330D01*
X55175000Y-34680195D01*
X54825000Y-34680195D01*
X54690592Y-34705486D01*
X54567146Y-34784921D01*
X54484330Y-34906125D01*
X54455195Y-35050000D01*
X54455195Y-35400000D01*
X54480486Y-35534408D01*
X54559921Y-35657854D01*
X54681125Y-35740670D01*
X54825000Y-35769805D01*
X55175000Y-35769805D01*
X55309408Y-35744514D01*
X55319997Y-35737700D01*
X59242907Y-35737700D01*
X59720787Y-36215580D01*
X59887119Y-36326719D01*
X60083321Y-36365746D01*
X63063188Y-36365746D01*
X63111885Y-36414528D01*
X63355367Y-36515631D01*
X63619005Y-36515861D01*
X63862663Y-36415183D01*
X64049246Y-36228925D01*
X64150349Y-35985443D01*
X64150579Y-35721805D01*
X64100817Y-35601373D01*
X64146463Y-35672308D01*
X64250959Y-35743707D01*
X64375000Y-35768826D01*
X64457445Y-35768826D01*
X64580047Y-35891428D01*
X64771427Y-35970700D01*
X64807325Y-35970700D01*
X64937500Y-35840525D01*
X64937500Y-35481239D01*
X64943826Y-35450000D01*
X64943826Y-34450000D01*
X64937500Y-34416380D01*
X64937500Y-34059475D01*
X64807325Y-33929300D01*
X64771427Y-33929300D01*
X64580047Y-34008572D01*
X64457445Y-34131174D01*
X64375000Y-34131174D01*
X64259120Y-34152978D01*
X64152692Y-34221463D01*
X64081293Y-34325959D01*
X64056174Y-34450000D01*
X64056174Y-35450000D01*
X64071144Y-35529558D01*
X64049901Y-35478147D01*
X64000464Y-35428624D01*
X64000464Y-34224604D01*
X65012300Y-33212767D01*
X65012300Y-34414914D01*
X65005195Y-34450000D01*
X65005195Y-35450000D01*
X65030486Y-35584408D01*
X65062500Y-35634159D01*
X65062500Y-35840525D01*
X65192675Y-35970700D01*
X65228573Y-35970700D01*
X65419953Y-35891428D01*
X65491576Y-35819805D01*
X65625000Y-35819805D01*
X65759408Y-35794514D01*
X65817442Y-35757170D01*
X65875000Y-35768826D01*
X66125000Y-35768826D01*
X66240880Y-35747022D01*
X66248569Y-35742074D01*
X66250959Y-35743707D01*
X66375000Y-35768826D01*
X66625000Y-35768826D01*
X66740880Y-35747022D01*
X66748569Y-35742074D01*
X66750959Y-35743707D01*
X66875000Y-35768826D01*
X67125000Y-35768826D01*
X67240880Y-35747022D01*
X67248569Y-35742074D01*
X67250959Y-35743707D01*
X67375000Y-35768826D01*
X67625000Y-35768826D01*
X67740880Y-35747022D01*
X67748569Y-35742074D01*
X67750959Y-35743707D01*
X67875000Y-35768826D01*
X68125000Y-35768826D01*
X68240880Y-35747022D01*
X68248569Y-35742074D01*
X68250959Y-35743707D01*
X68375000Y-35768826D01*
X68625000Y-35768826D01*
X68740880Y-35747022D01*
X68748569Y-35742074D01*
X68750959Y-35743707D01*
X68875000Y-35768826D01*
X68932985Y-35768826D01*
X68887882Y-35877446D01*
X68887669Y-36121193D01*
X68980751Y-36346468D01*
X69152956Y-36518973D01*
X69378068Y-36612448D01*
X69621815Y-36612661D01*
X69847090Y-36519579D01*
X69954301Y-36412554D01*
X70013765Y-36412554D01*
X70171699Y-36381139D01*
X70293222Y-36299940D01*
X70350580Y-36438756D01*
X70522785Y-36611261D01*
X70747897Y-36704736D01*
X70991644Y-36704949D01*
X71216919Y-36611867D01*
X71389424Y-36439662D01*
X71482899Y-36214550D01*
X71483112Y-35970803D01*
X71431685Y-35846340D01*
X71437500Y-35840525D01*
X71437500Y-35481239D01*
X71443826Y-35450000D01*
X71443826Y-34450000D01*
X71437500Y-34416380D01*
X71437500Y-34059475D01*
X71307325Y-33929300D01*
X71271427Y-33929300D01*
X71080047Y-34008572D01*
X70957445Y-34131174D01*
X70875000Y-34131174D01*
X70759120Y-34152978D01*
X70751431Y-34157926D01*
X70749041Y-34156293D01*
X70625000Y-34131174D01*
X70375000Y-34131174D01*
X70259120Y-34152978D01*
X70251431Y-34157926D01*
X70249041Y-34156293D01*
X70125000Y-34131174D01*
X69875000Y-34131174D01*
X69759120Y-34152978D01*
X69751431Y-34157926D01*
X69749041Y-34156293D01*
X69625000Y-34131174D01*
X69389064Y-34131174D01*
X69381285Y-34092067D01*
X69291823Y-33958177D01*
X68899977Y-33566331D01*
X71163532Y-33566331D01*
X71512300Y-33915098D01*
X71512300Y-34414914D01*
X71505195Y-34450000D01*
X71505195Y-35450000D01*
X71530486Y-35584408D01*
X71562500Y-35634159D01*
X71562500Y-35840525D01*
X71692675Y-35970700D01*
X71728573Y-35970700D01*
X71919953Y-35891428D01*
X71991576Y-35819805D01*
X72125000Y-35819805D01*
X72259408Y-35794514D01*
X72382854Y-35715079D01*
X72465670Y-35593875D01*
X72494805Y-35450000D01*
X72494805Y-34450000D01*
X72487700Y-34412241D01*
X72487700Y-34190431D01*
X73359658Y-34190431D01*
X73436277Y-34375861D01*
X73622535Y-34562444D01*
X73866017Y-34663547D01*
X74129655Y-34663777D01*
X74373313Y-34563099D01*
X74559896Y-34376841D01*
X74660999Y-34133359D01*
X74661229Y-33869721D01*
X74560551Y-33626063D01*
X74378631Y-33443826D01*
X74450000Y-33443826D01*
X74565880Y-33422022D01*
X74672308Y-33353537D01*
X74701047Y-33311475D01*
X75629300Y-33311475D01*
X75629300Y-33893573D01*
X75708572Y-34084953D01*
X75855047Y-34231428D01*
X76046426Y-34310700D01*
X76628525Y-34310700D01*
X76758700Y-34180525D01*
X76758700Y-33181300D01*
X77241300Y-33181300D01*
X77241300Y-34180525D01*
X77371475Y-34310700D01*
X77953574Y-34310700D01*
X78144953Y-34231428D01*
X78291428Y-34084953D01*
X78370700Y-33893573D01*
X78370700Y-33311475D01*
X78240525Y-33181300D01*
X77241300Y-33181300D01*
X76758700Y-33181300D01*
X75759475Y-33181300D01*
X75629300Y-33311475D01*
X74701047Y-33311475D01*
X74743707Y-33249041D01*
X74768826Y-33125000D01*
X74768826Y-32875000D01*
X74747022Y-32759120D01*
X74742074Y-32751431D01*
X74743707Y-32749041D01*
X74768826Y-32625000D01*
X74768826Y-32375000D01*
X74747022Y-32259120D01*
X74742074Y-32251431D01*
X74743707Y-32249041D01*
X74768826Y-32125000D01*
X74768826Y-31986427D01*
X75629300Y-31986427D01*
X75629300Y-32568525D01*
X75759475Y-32698700D01*
X76758700Y-32698700D01*
X76758700Y-31699475D01*
X77241300Y-31699475D01*
X77241300Y-32698700D01*
X78240525Y-32698700D01*
X78370700Y-32568525D01*
X78370700Y-31986427D01*
X78291428Y-31795047D01*
X78144953Y-31648572D01*
X77953574Y-31569300D01*
X77371475Y-31569300D01*
X77241300Y-31699475D01*
X76758700Y-31699475D01*
X76628525Y-31569300D01*
X76046426Y-31569300D01*
X75855047Y-31648572D01*
X75708572Y-31795047D01*
X75629300Y-31986427D01*
X74768826Y-31986427D01*
X74768826Y-31875000D01*
X74747022Y-31759120D01*
X74742074Y-31751431D01*
X74743707Y-31749041D01*
X74768826Y-31625000D01*
X74768826Y-31375000D01*
X74747022Y-31259120D01*
X74742074Y-31251431D01*
X74743707Y-31249041D01*
X74768826Y-31125000D01*
X74768826Y-30875000D01*
X74747022Y-30759120D01*
X74742074Y-30751431D01*
X74743707Y-30749041D01*
X74768826Y-30625000D01*
X74768826Y-30375000D01*
X74747022Y-30259120D01*
X74742074Y-30251431D01*
X74743707Y-30249041D01*
X74768826Y-30125000D01*
X74768826Y-29875000D01*
X74747022Y-29759120D01*
X74742074Y-29751431D01*
X74743707Y-29749041D01*
X74768826Y-29625000D01*
X74768826Y-29375000D01*
X74747022Y-29259120D01*
X74742074Y-29251431D01*
X74743707Y-29249041D01*
X74768826Y-29125000D01*
X74768826Y-28875000D01*
X74747022Y-28759120D01*
X74742074Y-28751431D01*
X74743707Y-28749041D01*
X74768826Y-28625000D01*
X74768826Y-28375000D01*
X74747022Y-28259120D01*
X74742074Y-28251431D01*
X74743707Y-28249041D01*
X74768826Y-28125000D01*
X74768826Y-27875000D01*
X74747022Y-27759120D01*
X74742074Y-27751431D01*
X74743707Y-27749041D01*
X74768826Y-27625000D01*
X74768826Y-27375000D01*
X74747022Y-27259120D01*
X74742074Y-27251431D01*
X74743707Y-27249041D01*
X74768826Y-27125000D01*
X74768826Y-27067430D01*
X74877592Y-27112594D01*
X75121339Y-27112807D01*
X75287299Y-27044234D01*
X75287299Y-29099999D01*
X75318714Y-29257933D01*
X75408176Y-29391822D01*
X75930416Y-29914062D01*
X75903026Y-29955054D01*
X75814521Y-30400000D01*
X75903026Y-30844946D01*
X76155068Y-31222153D01*
X76532275Y-31474195D01*
X76977221Y-31562700D01*
X77022779Y-31562700D01*
X77467725Y-31474195D01*
X77844932Y-31222153D01*
X78096974Y-30844946D01*
X78185479Y-30400000D01*
X78096974Y-29955054D01*
X77844932Y-29577847D01*
X77467725Y-29325805D01*
X77022779Y-29237300D01*
X76977221Y-29237300D01*
X76532275Y-29325805D01*
X76518593Y-29334947D01*
X76112699Y-28929053D01*
X76112699Y-28618743D01*
X76155068Y-28682153D01*
X76532275Y-28934195D01*
X76977221Y-29022700D01*
X77022779Y-29022700D01*
X77467725Y-28934195D01*
X77844932Y-28682153D01*
X78096974Y-28304946D01*
X78185479Y-27860000D01*
X78096974Y-27415054D01*
X77844932Y-27037847D01*
X77467725Y-26785805D01*
X77022779Y-26697300D01*
X76977221Y-26697300D01*
X76532275Y-26785805D01*
X76155068Y-27037847D01*
X76112699Y-27101257D01*
X76112699Y-26168476D01*
X76118734Y-26177508D01*
X76512162Y-26440389D01*
X76976242Y-26532700D01*
X77023758Y-26532700D01*
X77487838Y-26440389D01*
X77881266Y-26177508D01*
X78144147Y-25784080D01*
X78236458Y-25320000D01*
X78144147Y-24855920D01*
X77881266Y-24462492D01*
X77487838Y-24199611D01*
X77023758Y-24107300D01*
X76976242Y-24107300D01*
X76512162Y-24199611D01*
X76118734Y-24462492D01*
X76098510Y-24492760D01*
X76081284Y-24406160D01*
X76081284Y-24406159D01*
X75991822Y-24272270D01*
X74977729Y-23258177D01*
X74843840Y-23168715D01*
X74685906Y-23137300D01*
X72443826Y-23137300D01*
X72443826Y-23050000D01*
X72422022Y-22934120D01*
X72353537Y-22827692D01*
X72249041Y-22756293D01*
X72125000Y-22731174D01*
X71875000Y-22731174D01*
X71759120Y-22752978D01*
X71751431Y-22757926D01*
X71749041Y-22756293D01*
X71625000Y-22731174D01*
X71375000Y-22731174D01*
X71259120Y-22752978D01*
X71251431Y-22757926D01*
X71249041Y-22756293D01*
X71125000Y-22731174D01*
X70875000Y-22731174D01*
X70759120Y-22752978D01*
X70751431Y-22757926D01*
X70749041Y-22756293D01*
X70625000Y-22731174D01*
X70375000Y-22731174D01*
X70259120Y-22752978D01*
X70251431Y-22757926D01*
X70249041Y-22756293D01*
X70125000Y-22731174D01*
X69875000Y-22731174D01*
X69759120Y-22752978D01*
X69751431Y-22757926D01*
X69749041Y-22756293D01*
X69625000Y-22731174D01*
X69375000Y-22731174D01*
X69259120Y-22752978D01*
X69251431Y-22757926D01*
X69249041Y-22756293D01*
X69125000Y-22731174D01*
X68875000Y-22731174D01*
X68759120Y-22752978D01*
X68751431Y-22757926D01*
X68749041Y-22756293D01*
X68625000Y-22731174D01*
X68375000Y-22731174D01*
X68259120Y-22752978D01*
X68251431Y-22757926D01*
X68249041Y-22756293D01*
X68125000Y-22731174D01*
X67875000Y-22731174D01*
X67759120Y-22752978D01*
X67751431Y-22757926D01*
X67749041Y-22756293D01*
X67625000Y-22731174D01*
X67375000Y-22731174D01*
X67259120Y-22752978D01*
X67251431Y-22757926D01*
X67249041Y-22756293D01*
X67125000Y-22731174D01*
X66875000Y-22731174D01*
X66759120Y-22752978D01*
X66751431Y-22757926D01*
X66749041Y-22756293D01*
X66625000Y-22731174D01*
X66375000Y-22731174D01*
X66259120Y-22752978D01*
X66251431Y-22757926D01*
X66249041Y-22756293D01*
X66125000Y-22731174D01*
X65875000Y-22731174D01*
X65759120Y-22752978D01*
X65751431Y-22757926D01*
X65749041Y-22756293D01*
X65625000Y-22731174D01*
X65542555Y-22731174D01*
X65419953Y-22608572D01*
X65228573Y-22529300D01*
X65192675Y-22529300D01*
X65062500Y-22659475D01*
X65062500Y-23018761D01*
X65056174Y-23050000D01*
X65056174Y-24050000D01*
X65062500Y-24083620D01*
X65062500Y-24440525D01*
X65192675Y-24570700D01*
X65228573Y-24570700D01*
X65419953Y-24491428D01*
X65542555Y-24368826D01*
X65625000Y-24368826D01*
X65740880Y-24347022D01*
X65748569Y-24342074D01*
X65750959Y-24343707D01*
X65875000Y-24368826D01*
X66125000Y-24368826D01*
X66240880Y-24347022D01*
X66248569Y-24342074D01*
X66250959Y-24343707D01*
X66375000Y-24368826D01*
X66625000Y-24368826D01*
X66740880Y-24347022D01*
X66748569Y-24342074D01*
X66750959Y-24343707D01*
X66875000Y-24368826D01*
X67125000Y-24368826D01*
X67240880Y-24347022D01*
X67248569Y-24342074D01*
X67250959Y-24343707D01*
X67375000Y-24368826D01*
X67625000Y-24368826D01*
X67740880Y-24347022D01*
X67748569Y-24342074D01*
X67750959Y-24343707D01*
X67875000Y-24368826D01*
X68125000Y-24368826D01*
X68240880Y-24347022D01*
X68248569Y-24342074D01*
X68250959Y-24343707D01*
X68375000Y-24368826D01*
X68625000Y-24368826D01*
X68740880Y-24347022D01*
X68748569Y-24342074D01*
X68750959Y-24343707D01*
X68875000Y-24368826D01*
X69125000Y-24368826D01*
X69240880Y-24347022D01*
X69248569Y-24342074D01*
X69250959Y-24343707D01*
X69375000Y-24368826D01*
X69625000Y-24368826D01*
X69740880Y-24347022D01*
X69748569Y-24342074D01*
X69750959Y-24343707D01*
X69875000Y-24368826D01*
X70125000Y-24368826D01*
X70240880Y-24347022D01*
X70248569Y-24342074D01*
X70250959Y-24343707D01*
X70375000Y-24368826D01*
X70625000Y-24368826D01*
X70740880Y-24347022D01*
X70748569Y-24342074D01*
X70750959Y-24343707D01*
X70875000Y-24368826D01*
X71125000Y-24368826D01*
X71240880Y-24347022D01*
X71248569Y-24342074D01*
X71250959Y-24343707D01*
X71375000Y-24368826D01*
X71625000Y-24368826D01*
X71740880Y-24347022D01*
X71748569Y-24342074D01*
X71750959Y-24343707D01*
X71875000Y-24368826D01*
X72125000Y-24368826D01*
X72240880Y-24347022D01*
X72347308Y-24278537D01*
X72418707Y-24174041D01*
X72443826Y-24050000D01*
X72443826Y-23962700D01*
X73600221Y-23962700D01*
X73438518Y-24124121D01*
X73337415Y-24367603D01*
X73337185Y-24631241D01*
X73437863Y-24874899D01*
X73487300Y-24924422D01*
X73487300Y-25005195D01*
X73450000Y-25005195D01*
X73315592Y-25030486D01*
X73192146Y-25109921D01*
X73109330Y-25231125D01*
X73080195Y-25375000D01*
X73080195Y-25508424D01*
X73008572Y-25580047D01*
X72929300Y-25771427D01*
X72929300Y-25807325D01*
X73059475Y-25937500D01*
X73264897Y-25937500D01*
X73306125Y-25965670D01*
X73450000Y-25994805D01*
X74211300Y-25994805D01*
X74211300Y-26056174D01*
X73450000Y-26056174D01*
X73416380Y-26062500D01*
X73059475Y-26062500D01*
X72929300Y-26192675D01*
X72929300Y-26228573D01*
X73008572Y-26419953D01*
X73131174Y-26542555D01*
X73131174Y-26625000D01*
X73152978Y-26740880D01*
X73157926Y-26748569D01*
X73156293Y-26750959D01*
X73131174Y-26875000D01*
X73131174Y-27125000D01*
X73152978Y-27240880D01*
X73157926Y-27248569D01*
X73156293Y-27250959D01*
X73131174Y-27375000D01*
X73131174Y-27625000D01*
X73152978Y-27740880D01*
X73157926Y-27748569D01*
X73156293Y-27750959D01*
X73131174Y-27875000D01*
X73131174Y-28125000D01*
X73152978Y-28240880D01*
X73157926Y-28248569D01*
X73156293Y-28250959D01*
X73131174Y-28375000D01*
X73131174Y-28625000D01*
X73152978Y-28740880D01*
X73157926Y-28748569D01*
X73156293Y-28750959D01*
X73131174Y-28875000D01*
X73131174Y-29125000D01*
X73152978Y-29240880D01*
X73157926Y-29248569D01*
X73156293Y-29250959D01*
X73131174Y-29375000D01*
X73131174Y-29625000D01*
X73152978Y-29740880D01*
X73157926Y-29748569D01*
X73156293Y-29750959D01*
X73131174Y-29875000D01*
X73131174Y-30125000D01*
X73152978Y-30240880D01*
X73157926Y-30248569D01*
X73156293Y-30250959D01*
X73131174Y-30375000D01*
X73131174Y-30625000D01*
X73152978Y-30740880D01*
X73157926Y-30748569D01*
X73156293Y-30750959D01*
X73131174Y-30875000D01*
X73131174Y-31125000D01*
X73152978Y-31240880D01*
X73157926Y-31248569D01*
X73156293Y-31250959D01*
X73131174Y-31375000D01*
X73131174Y-31625000D01*
X73152978Y-31740880D01*
X73157926Y-31748569D01*
X73156293Y-31750959D01*
X73131174Y-31875000D01*
X73131174Y-32125000D01*
X73152978Y-32240880D01*
X73157926Y-32248569D01*
X73156293Y-32250959D01*
X73131174Y-32375000D01*
X73131174Y-32625000D01*
X73152978Y-32740880D01*
X73157926Y-32748569D01*
X73156293Y-32750959D01*
X73131174Y-32875000D01*
X73131174Y-33125000D01*
X73138706Y-33165031D01*
X72212367Y-33165031D01*
X71738434Y-32691097D01*
X71572102Y-32579958D01*
X71375900Y-32540931D01*
X66051131Y-32540931D01*
X66012700Y-32502499D01*
X66012700Y-32000005D01*
X66012701Y-32000000D01*
X65973673Y-31803799D01*
X65973673Y-31803798D01*
X65862534Y-31637466D01*
X65862531Y-31637464D01*
X65362534Y-31137466D01*
X65196202Y-31026327D01*
X65000000Y-30987300D01*
X64874316Y-31012300D01*
X63085086Y-31012300D01*
X63050000Y-31005195D01*
X62288700Y-31005195D01*
X62288700Y-30943826D01*
X63050000Y-30943826D01*
X63083620Y-30937500D01*
X63440525Y-30937500D01*
X63570700Y-30807325D01*
X63570700Y-30771427D01*
X63491428Y-30580047D01*
X63368826Y-30457445D01*
X63368826Y-30375000D01*
X63347022Y-30259120D01*
X63342074Y-30251431D01*
X63343707Y-30249041D01*
X63368826Y-30125000D01*
X63368826Y-29875000D01*
X63347022Y-29759120D01*
X63342074Y-29751431D01*
X63343707Y-29749041D01*
X63368826Y-29625000D01*
X63368826Y-29375000D01*
X63347022Y-29259120D01*
X63342074Y-29251431D01*
X63343707Y-29249041D01*
X63368826Y-29125000D01*
X63368826Y-28875000D01*
X63347022Y-28759120D01*
X63342074Y-28751431D01*
X63343707Y-28749041D01*
X63368826Y-28625000D01*
X63368826Y-28412700D01*
X65500000Y-28412700D01*
X65657934Y-28381285D01*
X65791823Y-28291823D01*
X65970970Y-28112676D01*
X66121339Y-28112807D01*
X66346614Y-28019725D01*
X66519119Y-27847520D01*
X66612594Y-27622408D01*
X66612807Y-27378661D01*
X66519725Y-27153386D01*
X66347520Y-26980881D01*
X66122408Y-26887406D01*
X65878661Y-26887193D01*
X65653386Y-26980275D01*
X65480881Y-27152480D01*
X65387406Y-27377592D01*
X65387274Y-27529080D01*
X65329054Y-27587300D01*
X64538311Y-27587300D01*
X64604803Y-27520808D01*
X64755172Y-27520939D01*
X64980447Y-27427857D01*
X65152952Y-27255652D01*
X65246427Y-27030540D01*
X65246640Y-26786793D01*
X65153558Y-26561518D01*
X64981353Y-26389013D01*
X64756241Y-26295538D01*
X64512494Y-26295325D01*
X64287219Y-26388407D01*
X64114714Y-26560612D01*
X64021239Y-26785724D01*
X64021107Y-26937212D01*
X63871019Y-27087300D01*
X63368826Y-27087300D01*
X63368826Y-26875000D01*
X63347022Y-26759120D01*
X63342074Y-26751431D01*
X63343707Y-26749041D01*
X63368826Y-26625000D01*
X63368826Y-26375000D01*
X63347022Y-26259120D01*
X63342074Y-26251431D01*
X63343707Y-26249041D01*
X63368826Y-26125000D01*
X63368826Y-25875000D01*
X63357886Y-25816856D01*
X63390670Y-25768875D01*
X63419805Y-25625000D01*
X63419805Y-25375000D01*
X63394514Y-25240592D01*
X63315079Y-25117146D01*
X63193875Y-25034330D01*
X63062700Y-25007767D01*
X63062700Y-24087614D01*
X63137614Y-24012700D01*
X63752992Y-24012700D01*
X63878676Y-23987700D01*
X64005195Y-23987700D01*
X64005195Y-24050000D01*
X64030486Y-24184408D01*
X64109921Y-24307854D01*
X64231125Y-24390670D01*
X64375000Y-24419805D01*
X64508424Y-24419805D01*
X64580047Y-24491428D01*
X64771427Y-24570700D01*
X64807325Y-24570700D01*
X64937500Y-24440525D01*
X64937500Y-24235103D01*
X64965670Y-24193875D01*
X64994805Y-24050000D01*
X64994805Y-23050000D01*
X64969514Y-22915592D01*
X64937500Y-22865841D01*
X64937500Y-22659475D01*
X64807325Y-22529300D01*
X64771427Y-22529300D01*
X64580047Y-22608572D01*
X64508424Y-22680195D01*
X64415686Y-22680195D01*
X64415807Y-22541013D01*
X64315129Y-22297355D01*
X64128871Y-22110772D01*
X63885389Y-22009669D01*
X63621751Y-22009439D01*
X63378093Y-22110117D01*
X63191510Y-22296375D01*
X63090407Y-22539857D01*
X63090177Y-22803495D01*
X63166124Y-22987300D01*
X62925251Y-22987300D01*
X62925246Y-22987299D01*
X62729044Y-23026327D01*
X62562712Y-23137466D01*
X62187466Y-23512712D01*
X62076327Y-23679044D01*
X62037300Y-23875246D01*
X62037300Y-25007585D01*
X61915592Y-25030486D01*
X61812700Y-25096695D01*
X61812700Y-21262700D01*
X78956300Y-21262700D01*
X78956300Y-36997300D01*
X53785066Y-36997300D01*
X53919953Y-36941428D01*
X54066428Y-36794953D01*
X54145700Y-36603574D01*
X54145700Y-36371475D01*
X54015525Y-36241300D01*
X53241300Y-36241300D01*
X53241300Y-36261300D01*
X52758700Y-36261300D01*
X52758700Y-36241300D01*
X51984475Y-36241300D01*
X51854300Y-36371475D01*
X51854300Y-36603574D01*
X51933572Y-36794953D01*
X52080047Y-36941428D01*
X52214934Y-36997300D01*
X42652588Y-36997300D01*
X42670700Y-36953574D01*
X42670700Y-36805175D01*
X42540525Y-36675000D01*
X41741300Y-36675000D01*
X41741300Y-36761300D01*
X41258700Y-36761300D01*
X41258700Y-36675000D01*
X39741300Y-36675000D01*
X39741300Y-36761300D01*
X39258700Y-36761300D01*
X39258700Y-36675000D01*
X37741300Y-36675000D01*
X37741300Y-36761300D01*
X37258700Y-36761300D01*
X37258700Y-36675000D01*
X36459475Y-36675000D01*
X36329300Y-36805175D01*
X36329300Y-36953574D01*
X36347412Y-36997300D01*
X28423700Y-36997300D01*
X28423700Y-35929405D01*
X30805067Y-35929405D01*
X30866550Y-36077892D01*
X31189244Y-36504401D01*
X31650592Y-36774954D01*
X31858700Y-36699139D01*
X31858700Y-35721300D01*
X32341300Y-35721300D01*
X32341300Y-36699139D01*
X32549408Y-36774954D01*
X33010756Y-36504401D01*
X33269300Y-36162680D01*
X33269300Y-36433573D01*
X33348572Y-36624953D01*
X33495047Y-36771428D01*
X33686426Y-36850700D01*
X34268525Y-36850700D01*
X34398700Y-36720525D01*
X34398700Y-35721300D01*
X34881300Y-35721300D01*
X34881300Y-36720525D01*
X35011475Y-36850700D01*
X35593574Y-36850700D01*
X35784953Y-36771428D01*
X35931428Y-36624953D01*
X36010700Y-36433573D01*
X36010700Y-36046426D01*
X36329300Y-36046426D01*
X36329300Y-36194825D01*
X36459475Y-36325000D01*
X37258700Y-36325000D01*
X37258700Y-35759475D01*
X37741300Y-35759475D01*
X37741300Y-36325000D01*
X39258700Y-36325000D01*
X39258700Y-35759475D01*
X39741300Y-35759475D01*
X39741300Y-36325000D01*
X41258700Y-36325000D01*
X41258700Y-35759475D01*
X41741300Y-35759475D01*
X41741300Y-36325000D01*
X42540525Y-36325000D01*
X42670700Y-36194825D01*
X42670700Y-36046426D01*
X42591428Y-35855047D01*
X42444953Y-35708572D01*
X42253573Y-35629300D01*
X41871475Y-35629300D01*
X41741300Y-35759475D01*
X41258700Y-35759475D01*
X41128525Y-35629300D01*
X40746427Y-35629300D01*
X40555047Y-35708572D01*
X40500000Y-35763619D01*
X40444953Y-35708572D01*
X40253573Y-35629300D01*
X39871475Y-35629300D01*
X39741300Y-35759475D01*
X39258700Y-35759475D01*
X39128525Y-35629300D01*
X38746427Y-35629300D01*
X38555047Y-35708572D01*
X38500000Y-35763619D01*
X38444953Y-35708572D01*
X38253573Y-35629300D01*
X37871475Y-35629300D01*
X37741300Y-35759475D01*
X37258700Y-35759475D01*
X37128525Y-35629300D01*
X36746427Y-35629300D01*
X36555047Y-35708572D01*
X36408572Y-35855047D01*
X36329300Y-36046426D01*
X36010700Y-36046426D01*
X36010700Y-35851475D01*
X35880525Y-35721300D01*
X34881300Y-35721300D01*
X34398700Y-35721300D01*
X33399475Y-35721300D01*
X33339383Y-35781392D01*
X33316831Y-35721300D01*
X32341300Y-35721300D01*
X31858700Y-35721300D01*
X30883169Y-35721300D01*
X30805067Y-35929405D01*
X28423700Y-35929405D01*
X28423700Y-35371475D01*
X42854300Y-35371475D01*
X42854300Y-36003573D01*
X42933572Y-36194953D01*
X43080047Y-36341428D01*
X43271426Y-36420700D01*
X44378525Y-36420700D01*
X44508700Y-36290525D01*
X44508700Y-35241300D01*
X44991300Y-35241300D01*
X44991300Y-36290525D01*
X45121475Y-36420700D01*
X46228574Y-36420700D01*
X46419953Y-36341428D01*
X46566428Y-36194953D01*
X46645700Y-36003573D01*
X46645700Y-35371475D01*
X46515525Y-35241300D01*
X44991300Y-35241300D01*
X44508700Y-35241300D01*
X42984475Y-35241300D01*
X42854300Y-35371475D01*
X28423700Y-35371475D01*
X28423700Y-35030595D01*
X30805067Y-35030595D01*
X30883169Y-35238700D01*
X31858700Y-35238700D01*
X31858700Y-34260861D01*
X32341300Y-34260861D01*
X32341300Y-35238700D01*
X33316831Y-35238700D01*
X33339383Y-35178608D01*
X33399475Y-35238700D01*
X34398700Y-35238700D01*
X34398700Y-34239475D01*
X34881300Y-34239475D01*
X34881300Y-35238700D01*
X35880525Y-35238700D01*
X36010700Y-35108525D01*
X36010700Y-34526427D01*
X35931428Y-34335047D01*
X35784953Y-34188572D01*
X35593574Y-34109300D01*
X35011475Y-34109300D01*
X34881300Y-34239475D01*
X34398700Y-34239475D01*
X34268525Y-34109300D01*
X33686426Y-34109300D01*
X33495047Y-34188572D01*
X33348572Y-34335047D01*
X33269300Y-34526427D01*
X33269300Y-34797320D01*
X33010756Y-34455599D01*
X32549408Y-34185046D01*
X32341300Y-34260861D01*
X31858700Y-34260861D01*
X31650592Y-34185046D01*
X31189244Y-34455599D01*
X30866550Y-34882108D01*
X30805067Y-35030595D01*
X28423700Y-35030595D01*
X28423700Y-32940000D01*
X30914521Y-32940000D01*
X31003026Y-33384946D01*
X31255068Y-33762153D01*
X31632275Y-34014195D01*
X32077221Y-34102700D01*
X32122779Y-34102700D01*
X32567725Y-34014195D01*
X32944932Y-33762153D01*
X33196974Y-33384946D01*
X33285479Y-32940000D01*
X33454521Y-32940000D01*
X33543026Y-33384946D01*
X33795068Y-33762153D01*
X34172275Y-34014195D01*
X34617221Y-34102700D01*
X34662779Y-34102700D01*
X35107725Y-34014195D01*
X35484932Y-33762153D01*
X35736974Y-33384946D01*
X35825479Y-32940000D01*
X35736974Y-32495054D01*
X35484932Y-32117847D01*
X35383392Y-32050000D01*
X36531174Y-32050000D01*
X36531174Y-32750000D01*
X36552978Y-32865880D01*
X36621463Y-32972308D01*
X36725959Y-33043707D01*
X36850000Y-33068826D01*
X37064681Y-33068826D01*
X36980881Y-33152480D01*
X36887406Y-33377592D01*
X36887193Y-33621339D01*
X36980275Y-33846614D01*
X37064688Y-33931174D01*
X36850000Y-33931174D01*
X36734120Y-33952978D01*
X36627692Y-34021463D01*
X36556293Y-34125959D01*
X36531174Y-34250000D01*
X36531174Y-34950000D01*
X36552978Y-35065880D01*
X36621463Y-35172308D01*
X36725959Y-35243707D01*
X36850000Y-35268826D01*
X38150000Y-35268826D01*
X38265880Y-35247022D01*
X38372308Y-35178537D01*
X38443707Y-35074041D01*
X38468826Y-34950000D01*
X38468826Y-34250000D01*
X38447022Y-34134120D01*
X38378537Y-34027692D01*
X38274041Y-33956293D01*
X38150000Y-33931174D01*
X37935319Y-33931174D01*
X38019119Y-33847520D01*
X38112594Y-33622408D01*
X38112807Y-33378661D01*
X38019725Y-33153386D01*
X37935312Y-33068826D01*
X38150000Y-33068826D01*
X38265880Y-33047022D01*
X38372308Y-32978537D01*
X38443707Y-32874041D01*
X38468826Y-32750000D01*
X38468826Y-32050000D01*
X38531174Y-32050000D01*
X38531174Y-32750000D01*
X38552978Y-32865880D01*
X38621463Y-32972308D01*
X38725959Y-33043707D01*
X38850000Y-33068826D01*
X39064681Y-33068826D01*
X38980881Y-33152480D01*
X38887406Y-33377592D01*
X38887193Y-33621339D01*
X38980275Y-33846614D01*
X39064688Y-33931174D01*
X38850000Y-33931174D01*
X38734120Y-33952978D01*
X38627692Y-34021463D01*
X38556293Y-34125959D01*
X38531174Y-34250000D01*
X38531174Y-34950000D01*
X38552978Y-35065880D01*
X38621463Y-35172308D01*
X38725959Y-35243707D01*
X38850000Y-35268826D01*
X40150000Y-35268826D01*
X40265880Y-35247022D01*
X40372308Y-35178537D01*
X40443707Y-35074041D01*
X40468826Y-34950000D01*
X40468826Y-34250000D01*
X40447022Y-34134120D01*
X40378537Y-34027692D01*
X40274041Y-33956293D01*
X40150000Y-33931174D01*
X39935319Y-33931174D01*
X40019119Y-33847520D01*
X40112594Y-33622408D01*
X40112807Y-33378661D01*
X40019725Y-33153386D01*
X39935312Y-33068826D01*
X40150000Y-33068826D01*
X40265880Y-33047022D01*
X40372308Y-32978537D01*
X40443707Y-32874041D01*
X40468826Y-32750000D01*
X40468826Y-32050000D01*
X40531174Y-32050000D01*
X40531174Y-32750000D01*
X40552978Y-32865880D01*
X40621463Y-32972308D01*
X40725959Y-33043707D01*
X40850000Y-33068826D01*
X41064681Y-33068826D01*
X40980881Y-33152480D01*
X40887406Y-33377592D01*
X40887193Y-33621339D01*
X40980275Y-33846614D01*
X41064688Y-33931174D01*
X40850000Y-33931174D01*
X40734120Y-33952978D01*
X40627692Y-34021463D01*
X40556293Y-34125959D01*
X40531174Y-34250000D01*
X40531174Y-34950000D01*
X40552978Y-35065880D01*
X40621463Y-35172308D01*
X40725959Y-35243707D01*
X40850000Y-35268826D01*
X42150000Y-35268826D01*
X42265880Y-35247022D01*
X42372308Y-35178537D01*
X42443707Y-35074041D01*
X42468826Y-34950000D01*
X42468826Y-34250000D01*
X42447022Y-34134120D01*
X42378537Y-34027692D01*
X42332780Y-33996427D01*
X42854300Y-33996427D01*
X42854300Y-34628525D01*
X42984475Y-34758700D01*
X44508700Y-34758700D01*
X44508700Y-33709475D01*
X44991300Y-33709475D01*
X44991300Y-34758700D01*
X46515525Y-34758700D01*
X46645700Y-34628525D01*
X46645700Y-33996427D01*
X46566428Y-33805047D01*
X46419953Y-33658572D01*
X46228574Y-33579300D01*
X45121475Y-33579300D01*
X44991300Y-33709475D01*
X44508700Y-33709475D01*
X44378525Y-33579300D01*
X43271426Y-33579300D01*
X43080047Y-33658572D01*
X42933572Y-33805047D01*
X42854300Y-33996427D01*
X42332780Y-33996427D01*
X42274041Y-33956293D01*
X42150000Y-33931174D01*
X41935319Y-33931174D01*
X42019119Y-33847520D01*
X42112594Y-33622408D01*
X42112807Y-33378661D01*
X42019725Y-33153386D01*
X41935312Y-33068826D01*
X42150000Y-33068826D01*
X42265880Y-33047022D01*
X42372308Y-32978537D01*
X42443707Y-32874041D01*
X42468826Y-32750000D01*
X42468826Y-32050000D01*
X42447022Y-31934120D01*
X42378537Y-31827692D01*
X42274041Y-31756293D01*
X42150000Y-31731174D01*
X40850000Y-31731174D01*
X40734120Y-31752978D01*
X40627692Y-31821463D01*
X40556293Y-31925959D01*
X40531174Y-32050000D01*
X40468826Y-32050000D01*
X40447022Y-31934120D01*
X40378537Y-31827692D01*
X40274041Y-31756293D01*
X40150000Y-31731174D01*
X38850000Y-31731174D01*
X38734120Y-31752978D01*
X38627692Y-31821463D01*
X38556293Y-31925959D01*
X38531174Y-32050000D01*
X38468826Y-32050000D01*
X38447022Y-31934120D01*
X38378537Y-31827692D01*
X38274041Y-31756293D01*
X38150000Y-31731174D01*
X36850000Y-31731174D01*
X36734120Y-31752978D01*
X36627692Y-31821463D01*
X36556293Y-31925959D01*
X36531174Y-32050000D01*
X35383392Y-32050000D01*
X35107725Y-31865805D01*
X34662779Y-31777300D01*
X34617221Y-31777300D01*
X34172275Y-31865805D01*
X33795068Y-32117847D01*
X33543026Y-32495054D01*
X33454521Y-32940000D01*
X33285479Y-32940000D01*
X33196974Y-32495054D01*
X32944932Y-32117847D01*
X32567725Y-31865805D01*
X32122779Y-31777300D01*
X32077221Y-31777300D01*
X31632275Y-31865805D01*
X31255068Y-32117847D01*
X31003026Y-32495054D01*
X30914521Y-32940000D01*
X28423700Y-32940000D01*
X28423700Y-30400000D01*
X30914521Y-30400000D01*
X31003026Y-30844946D01*
X31255068Y-31222153D01*
X31632275Y-31474195D01*
X32077221Y-31562700D01*
X32122779Y-31562700D01*
X32567725Y-31474195D01*
X32944932Y-31222153D01*
X33196974Y-30844946D01*
X33285479Y-30400000D01*
X33196974Y-29955054D01*
X32944932Y-29577847D01*
X32567725Y-29325805D01*
X32122779Y-29237300D01*
X32077221Y-29237300D01*
X31632275Y-29325805D01*
X31255068Y-29577847D01*
X31003026Y-29955054D01*
X30914521Y-30400000D01*
X28423700Y-30400000D01*
X28423700Y-27860000D01*
X30914521Y-27860000D01*
X31003026Y-28304946D01*
X31255068Y-28682153D01*
X31632275Y-28934195D01*
X32077221Y-29022700D01*
X32122779Y-29022700D01*
X32567725Y-28934195D01*
X32944932Y-28682153D01*
X33196974Y-28304946D01*
X33285479Y-27860000D01*
X33454521Y-27860000D01*
X33543026Y-28304946D01*
X33795068Y-28682153D01*
X34172275Y-28934195D01*
X34617221Y-29022700D01*
X34662779Y-29022700D01*
X35107725Y-28934195D01*
X35484932Y-28682153D01*
X35736974Y-28304946D01*
X35825479Y-27860000D01*
X35736974Y-27415054D01*
X35484932Y-27037847D01*
X35107725Y-26785805D01*
X34662779Y-26697300D01*
X34617221Y-26697300D01*
X34172275Y-26785805D01*
X33795068Y-27037847D01*
X33543026Y-27415054D01*
X33454521Y-27860000D01*
X33285479Y-27860000D01*
X33196974Y-27415054D01*
X32944932Y-27037847D01*
X32567725Y-26785805D01*
X32122779Y-26697300D01*
X32077221Y-26697300D01*
X31632275Y-26785805D01*
X31255068Y-27037847D01*
X31003026Y-27415054D01*
X30914521Y-27860000D01*
X28423700Y-27860000D01*
X28423700Y-25320000D01*
X30914521Y-25320000D01*
X31003026Y-25764946D01*
X31255068Y-26142153D01*
X31632275Y-26394195D01*
X32077221Y-26482700D01*
X32122779Y-26482700D01*
X32567725Y-26394195D01*
X32944932Y-26142153D01*
X33196974Y-25764946D01*
X33285479Y-25320000D01*
X33454521Y-25320000D01*
X33543026Y-25764946D01*
X33795068Y-26142153D01*
X34172275Y-26394195D01*
X34617221Y-26482700D01*
X34662779Y-26482700D01*
X35107725Y-26394195D01*
X35484932Y-26142153D01*
X35736974Y-25764946D01*
X35825479Y-25320000D01*
X35736974Y-24875054D01*
X35484932Y-24497847D01*
X35107725Y-24245805D01*
X34662779Y-24157300D01*
X34617221Y-24157300D01*
X34172275Y-24245805D01*
X33795068Y-24497847D01*
X33543026Y-24875054D01*
X33454521Y-25320000D01*
X33285479Y-25320000D01*
X33196974Y-24875054D01*
X32944932Y-24497847D01*
X32567725Y-24245805D01*
X32122779Y-24157300D01*
X32077221Y-24157300D01*
X31632275Y-24245805D01*
X31255068Y-24497847D01*
X31003026Y-24875054D01*
X30914521Y-25320000D01*
X28423700Y-25320000D01*
X28423700Y-22780000D01*
X30914521Y-22780000D01*
X31003026Y-23224946D01*
X31255068Y-23602153D01*
X31632275Y-23854195D01*
X32077221Y-23942700D01*
X32122779Y-23942700D01*
X32567725Y-23854195D01*
X32944932Y-23602153D01*
X33196974Y-23224946D01*
X33285479Y-22780000D01*
X33196974Y-22335054D01*
X32944932Y-21957847D01*
X32567725Y-21705805D01*
X32122779Y-21617300D01*
X32077221Y-21617300D01*
X31632275Y-21705805D01*
X31255068Y-21957847D01*
X31003026Y-22335054D01*
X30914521Y-22780000D01*
X28423700Y-22780000D01*
X28423700Y-21262700D01*
X37317402Y-21262700D01*
X37306293Y-21278959D01*
X37306293Y-21278959D01*
G37*
X37306293Y-21278959D02*
X37281174Y-21403000D01*
X37281174Y-22167300D01*
X35624884Y-22167300D01*
X35484932Y-21957847D01*
X35107725Y-21705805D01*
X34662779Y-21617300D01*
X34617221Y-21617300D01*
X34172275Y-21705805D01*
X33795068Y-21957847D01*
X33543026Y-22335054D01*
X33454521Y-22780000D01*
X33543026Y-23224946D01*
X33795068Y-23602153D01*
X34172275Y-23854195D01*
X34617221Y-23942700D01*
X34662779Y-23942700D01*
X35107725Y-23854195D01*
X35484932Y-23602153D01*
X35624884Y-23392700D01*
X35887300Y-23392700D01*
X35887300Y-27883002D01*
X35933939Y-28117472D01*
X36066756Y-28316246D01*
X36545343Y-28794833D01*
X36533601Y-28794833D01*
X36411155Y-28794726D01*
X36185880Y-28887808D01*
X36013375Y-29060013D01*
X35919900Y-29285125D01*
X35919687Y-29528872D01*
X36012769Y-29754147D01*
X36145690Y-29887300D01*
X35909970Y-29887300D01*
X35862326Y-29877823D01*
X35685370Y-29877823D01*
X35484932Y-29577847D01*
X35107725Y-29325805D01*
X34662779Y-29237300D01*
X34617221Y-29237300D01*
X34172275Y-29325805D01*
X33795068Y-29577847D01*
X33543026Y-29955054D01*
X33454521Y-30400000D01*
X33543026Y-30844946D01*
X33795068Y-31222153D01*
X34172275Y-31474195D01*
X34617221Y-31562700D01*
X34662779Y-31562700D01*
X35107725Y-31474195D01*
X35484932Y-31222153D01*
X35564399Y-31103223D01*
X35824159Y-31103223D01*
X35871803Y-31112700D01*
X36680579Y-31112700D01*
X36725959Y-31143707D01*
X36850000Y-31168826D01*
X38150000Y-31168826D01*
X38265880Y-31147022D01*
X38372308Y-31078537D01*
X38443707Y-30974041D01*
X38468826Y-30850000D01*
X38468826Y-30150000D01*
X38447022Y-30034120D01*
X38438086Y-30020233D01*
X38560205Y-30020233D01*
X38556293Y-30025959D01*
X38531174Y-30150000D01*
X38531174Y-30850000D01*
X38552978Y-30965880D01*
X38621463Y-31072308D01*
X38725959Y-31143707D01*
X38850000Y-31168826D01*
X40150000Y-31168826D01*
X40265880Y-31147022D01*
X40372308Y-31078537D01*
X40443707Y-30974041D01*
X40468826Y-30850000D01*
X40468826Y-30150000D01*
X40447022Y-30034120D01*
X40378537Y-29927692D01*
X40274041Y-29856293D01*
X40150000Y-29831174D01*
X40112700Y-29831174D01*
X40112700Y-29550000D01*
X40066061Y-29315530D01*
X39933244Y-29116756D01*
X39932189Y-29115701D01*
X40199213Y-29115701D01*
X40887300Y-29803788D01*
X40887300Y-29831174D01*
X40850000Y-29831174D01*
X40734120Y-29852978D01*
X40627692Y-29921463D01*
X40556293Y-30025959D01*
X40531174Y-30150000D01*
X40531174Y-30850000D01*
X40552978Y-30965880D01*
X40621463Y-31072308D01*
X40725959Y-31143707D01*
X40850000Y-31168826D01*
X42150000Y-31168826D01*
X42265880Y-31147022D01*
X42372308Y-31078537D01*
X42443707Y-30974041D01*
X42468826Y-30850000D01*
X42468826Y-30150000D01*
X42447022Y-30034120D01*
X42378537Y-29927692D01*
X42274041Y-29856293D01*
X42150000Y-29831174D01*
X42112700Y-29831174D01*
X42112700Y-29550000D01*
X42066061Y-29315530D01*
X41933244Y-29116756D01*
X41232857Y-28416369D01*
X41258700Y-28390525D01*
X41258700Y-27741300D01*
X41741300Y-27741300D01*
X41741300Y-28390525D01*
X41871475Y-28520700D01*
X42228573Y-28520700D01*
X42419953Y-28441428D01*
X42566428Y-28294953D01*
X42645700Y-28103574D01*
X42645700Y-27871475D01*
X42515525Y-27741300D01*
X41741300Y-27741300D01*
X41258700Y-27741300D01*
X40484475Y-27741300D01*
X40354300Y-27871475D01*
X40354300Y-27890301D01*
X39718826Y-27890301D01*
X39718826Y-26896426D01*
X40354300Y-26896426D01*
X40354300Y-27128525D01*
X40484475Y-27258700D01*
X41258700Y-27258700D01*
X41258700Y-26609475D01*
X41741300Y-26609475D01*
X41741300Y-27258700D01*
X42515525Y-27258700D01*
X42645700Y-27128525D01*
X42645700Y-26896426D01*
X42566428Y-26705047D01*
X42419953Y-26558572D01*
X42228573Y-26479300D01*
X41871475Y-26479300D01*
X41741300Y-26609475D01*
X41258700Y-26609475D01*
X41128525Y-26479300D01*
X40771427Y-26479300D01*
X40580047Y-26558572D01*
X40433572Y-26705047D01*
X40354300Y-26896426D01*
X39718826Y-26896426D01*
X39718826Y-26300662D01*
X39906788Y-26112700D01*
X40577380Y-26112700D01*
X40577978Y-26115880D01*
X40646463Y-26222308D01*
X40750959Y-26293707D01*
X40875000Y-26318826D01*
X42125000Y-26318826D01*
X42240880Y-26297022D01*
X42347308Y-26228537D01*
X42418707Y-26124041D01*
X42421004Y-26112700D01*
X43377456Y-26112700D01*
X43377962Y-26112910D01*
X43621709Y-26113123D01*
X43846984Y-26020041D01*
X44019489Y-25847836D01*
X44112964Y-25622724D01*
X44113177Y-25378977D01*
X44020095Y-25153702D01*
X43862368Y-24995700D01*
X44628525Y-24995700D01*
X44758700Y-24865525D01*
X44758700Y-23241300D01*
X45241300Y-23241300D01*
X45241300Y-24865525D01*
X45371475Y-24995700D01*
X46453573Y-24995700D01*
X46644953Y-24916428D01*
X46791428Y-24769953D01*
X46870700Y-24578574D01*
X46870700Y-23371475D01*
X46740525Y-23241300D01*
X45241300Y-23241300D01*
X44758700Y-23241300D01*
X43259475Y-23241300D01*
X43129300Y-23371475D01*
X43129300Y-24578574D01*
X43208572Y-24769953D01*
X43325919Y-24887300D01*
X42422620Y-24887300D01*
X42422022Y-24884120D01*
X42353537Y-24777692D01*
X42313467Y-24750313D01*
X42347308Y-24728537D01*
X42418707Y-24624041D01*
X42443826Y-24500000D01*
X42443826Y-23500000D01*
X42422022Y-23384120D01*
X42353537Y-23277692D01*
X42249041Y-23206293D01*
X42125000Y-23181174D01*
X40875000Y-23181174D01*
X40759120Y-23202978D01*
X40652692Y-23271463D01*
X40581293Y-23375959D01*
X40556174Y-23500000D01*
X40556174Y-24500000D01*
X40577978Y-24615880D01*
X40646463Y-24722308D01*
X40686533Y-24749687D01*
X40652692Y-24771463D01*
X40581293Y-24875959D01*
X40578996Y-24887300D01*
X39653000Y-24887300D01*
X39418530Y-24933939D01*
X39219756Y-25066756D01*
X39202338Y-25084174D01*
X37600000Y-25084174D01*
X37484120Y-25105978D01*
X37377692Y-25174463D01*
X37306293Y-25278959D01*
X37281174Y-25403000D01*
X37281174Y-27797688D01*
X37112700Y-27629214D01*
X37112700Y-23406788D01*
X37125683Y-23393806D01*
X37281174Y-23393806D01*
X37281174Y-23903000D01*
X37302978Y-24018880D01*
X37371463Y-24125308D01*
X37475959Y-24196707D01*
X37600000Y-24221826D01*
X39400000Y-24221826D01*
X39515880Y-24200022D01*
X39622308Y-24131537D01*
X39693707Y-24027041D01*
X39718826Y-23903000D01*
X39718826Y-22371475D01*
X40354300Y-22371475D01*
X40354300Y-22603574D01*
X40433572Y-22794953D01*
X40580047Y-22941428D01*
X40771427Y-23020700D01*
X41128525Y-23020700D01*
X41258700Y-22890525D01*
X41258700Y-22241300D01*
X41741300Y-22241300D01*
X41741300Y-22890525D01*
X41871475Y-23020700D01*
X42228573Y-23020700D01*
X42419953Y-22941428D01*
X42566428Y-22794953D01*
X42645700Y-22603574D01*
X42645700Y-22371475D01*
X42515525Y-22241300D01*
X41741300Y-22241300D01*
X41258700Y-22241300D01*
X40484475Y-22241300D01*
X40354300Y-22371475D01*
X39718826Y-22371475D01*
X39718826Y-21403000D01*
X39697022Y-21287120D01*
X39681308Y-21262700D01*
X40409691Y-21262700D01*
X40354300Y-21396426D01*
X40354300Y-21628525D01*
X40484475Y-21758700D01*
X41258700Y-21758700D01*
X41258700Y-21738700D01*
X41741300Y-21738700D01*
X41741300Y-21758700D01*
X42515525Y-21758700D01*
X42645700Y-21628525D01*
X42645700Y-21396426D01*
X42590309Y-21262700D01*
X43195047Y-21262700D01*
X43129300Y-21421426D01*
X43129300Y-22628525D01*
X43259475Y-22758700D01*
X44758700Y-22758700D01*
X44758700Y-22738700D01*
X45241300Y-22738700D01*
X45241300Y-22758700D01*
X46740525Y-22758700D01*
X46870700Y-22628525D01*
X46870700Y-21421426D01*
X46804953Y-21262700D01*
X47687300Y-21262700D01*
X47687300Y-21326319D01*
X47558572Y-21455047D01*
X47479300Y-21646427D01*
X47479300Y-22128525D01*
X47609475Y-22258700D01*
X47687300Y-22258700D01*
X47687300Y-22741300D01*
X47609475Y-22741300D01*
X47479300Y-22871475D01*
X47479300Y-23353573D01*
X47558572Y-23544953D01*
X47687300Y-23673681D01*
X47687300Y-23865190D01*
X47659330Y-23906125D01*
X47630195Y-24050000D01*
X47630195Y-25550000D01*
X47655486Y-25684408D01*
X47687300Y-25733849D01*
X47687300Y-26319749D01*
X47681174Y-26350000D01*
X47681174Y-26539332D01*
X47414413Y-26539332D01*
X47291967Y-26539225D01*
X47066692Y-26632307D01*
X46894187Y-26804512D01*
X46851714Y-26906798D01*
X45802338Y-27956174D01*
X43650000Y-27956174D01*
X43534120Y-27977978D01*
X43427692Y-28046463D01*
X43356293Y-28150959D01*
X43331174Y-28275000D01*
X43331174Y-31225000D01*
X43352978Y-31340880D01*
X43421463Y-31447308D01*
X43525959Y-31518707D01*
X43650000Y-31543826D01*
X44387300Y-31543826D01*
X44387300Y-31825000D01*
X44433939Y-32059470D01*
X44566756Y-32258244D01*
X45242878Y-32934366D01*
X45441652Y-33067183D01*
X45676122Y-33113822D01*
X46001942Y-33113822D01*
X46124388Y-33113929D01*
X46349663Y-33020847D01*
X46522168Y-32848642D01*
X46615643Y-32623530D01*
X46615856Y-32379783D01*
X46522774Y-32154508D01*
X46350569Y-31982003D01*
X46125457Y-31888528D01*
X45929845Y-31888357D01*
X45612700Y-31571212D01*
X45612700Y-31543826D01*
X46350000Y-31543826D01*
X46465880Y-31522022D01*
X46572308Y-31453537D01*
X46643707Y-31349041D01*
X46668826Y-31225000D01*
X46668826Y-28822662D01*
X47681174Y-27810314D01*
X47681174Y-27850000D01*
X47687300Y-27882557D01*
X47687300Y-32500000D01*
X47708685Y-32613653D01*
X47775854Y-32718037D01*
X47878342Y-32788064D01*
X48000000Y-32812700D01*
X48698727Y-32812700D01*
X48698727Y-33730195D01*
X48625000Y-33730195D01*
X48490592Y-33755486D01*
X48367146Y-33834921D01*
X48284330Y-33956125D01*
X48255195Y-34100000D01*
X48255195Y-35900000D01*
X48280486Y-36034408D01*
X48359921Y-36157854D01*
X48481125Y-36240670D01*
X48625000Y-36269805D01*
X51375000Y-36269805D01*
X51509408Y-36244514D01*
X51632854Y-36165079D01*
X51715670Y-36043875D01*
X51744805Y-35900000D01*
X51744805Y-35512700D01*
X51854300Y-35512700D01*
X51854300Y-35628525D01*
X51984475Y-35758700D01*
X52758700Y-35758700D01*
X52758700Y-35109475D01*
X53241300Y-35109475D01*
X53241300Y-35758700D01*
X54015525Y-35758700D01*
X54145700Y-35628525D01*
X54145700Y-35396426D01*
X54066428Y-35205047D01*
X53919953Y-35058572D01*
X53728573Y-34979300D01*
X53371475Y-34979300D01*
X53241300Y-35109475D01*
X52758700Y-35109475D01*
X52628525Y-34979300D01*
X52620768Y-34979300D01*
X52730263Y-34869805D01*
X53625000Y-34869805D01*
X53759408Y-34844514D01*
X53882854Y-34765079D01*
X53965670Y-34643875D01*
X53992233Y-34512700D01*
X54775000Y-34512700D01*
X54971202Y-34473673D01*
X55137534Y-34362534D01*
X55181483Y-34318585D01*
X55309408Y-34294514D01*
X55432854Y-34215079D01*
X55515670Y-34093875D01*
X55544805Y-33950000D01*
X55544805Y-33600000D01*
X55519514Y-33465592D01*
X55440079Y-33342146D01*
X55318875Y-33259330D01*
X55175000Y-33230195D01*
X54825000Y-33230195D01*
X54690592Y-33255486D01*
X54567146Y-33334921D01*
X54484330Y-33456125D01*
X54478017Y-33487300D01*
X53992415Y-33487300D01*
X53969514Y-33365592D01*
X53890079Y-33242146D01*
X53768875Y-33159330D01*
X53625000Y-33130195D01*
X52375000Y-33130195D01*
X52240592Y-33155486D01*
X52117146Y-33234921D01*
X52034330Y-33356125D01*
X52005195Y-33500000D01*
X52005195Y-34144737D01*
X51744805Y-34405127D01*
X51744805Y-34100000D01*
X51719514Y-33965592D01*
X51640079Y-33842146D01*
X51518875Y-33759330D01*
X51375000Y-33730195D01*
X49724127Y-33730195D01*
X49724127Y-32812700D01*
X51746558Y-32812700D01*
X51851047Y-32882517D01*
X52008980Y-32913932D01*
X57829904Y-32913932D01*
X58889006Y-33973034D01*
X58888875Y-34123403D01*
X58981957Y-34348678D01*
X59154162Y-34521183D01*
X59379274Y-34614658D01*
X59623021Y-34614871D01*
X59848296Y-34521789D01*
X60020801Y-34349584D01*
X60114276Y-34124472D01*
X60114489Y-33880725D01*
X60021407Y-33655450D01*
X59849202Y-33482945D01*
X59624090Y-33389470D01*
X59472602Y-33389338D01*
X58895964Y-32812700D01*
X59699968Y-32812700D01*
X61863369Y-34976101D01*
X61863238Y-35126470D01*
X61951610Y-35340346D01*
X60295689Y-35340346D01*
X59817809Y-34862466D01*
X59651477Y-34751327D01*
X59455275Y-34712300D01*
X57129406Y-34712300D01*
X57162585Y-34632397D01*
X57162815Y-34368759D01*
X57062137Y-34125101D01*
X56875879Y-33938518D01*
X56632397Y-33837415D01*
X56368759Y-33837185D01*
X56125101Y-33937863D01*
X55938518Y-34124121D01*
X55837415Y-34367603D01*
X55837366Y-34424117D01*
X55549183Y-34712300D01*
X55323222Y-34712300D01*
X55318875Y-34709330D01*
X55175000Y-34680195D01*
X54825000Y-34680195D01*
X54690592Y-34705486D01*
X54567146Y-34784921D01*
X54484330Y-34906125D01*
X54455195Y-35050000D01*
X54455195Y-35400000D01*
X54480486Y-35534408D01*
X54559921Y-35657854D01*
X54681125Y-35740670D01*
X54825000Y-35769805D01*
X55175000Y-35769805D01*
X55309408Y-35744514D01*
X55319997Y-35737700D01*
X59242907Y-35737700D01*
X59720787Y-36215580D01*
X59887119Y-36326719D01*
X60083321Y-36365746D01*
X63063188Y-36365746D01*
X63111885Y-36414528D01*
X63355367Y-36515631D01*
X63619005Y-36515861D01*
X63862663Y-36415183D01*
X64049246Y-36228925D01*
X64150349Y-35985443D01*
X64150579Y-35721805D01*
X64100817Y-35601373D01*
X64146463Y-35672308D01*
X64250959Y-35743707D01*
X64375000Y-35768826D01*
X64457445Y-35768826D01*
X64580047Y-35891428D01*
X64771427Y-35970700D01*
X64807325Y-35970700D01*
X64937500Y-35840525D01*
X64937500Y-35481239D01*
X64943826Y-35450000D01*
X64943826Y-34450000D01*
X64937500Y-34416380D01*
X64937500Y-34059475D01*
X64807325Y-33929300D01*
X64771427Y-33929300D01*
X64580047Y-34008572D01*
X64457445Y-34131174D01*
X64375000Y-34131174D01*
X64259120Y-34152978D01*
X64152692Y-34221463D01*
X64081293Y-34325959D01*
X64056174Y-34450000D01*
X64056174Y-35450000D01*
X64071144Y-35529558D01*
X64049901Y-35478147D01*
X64000464Y-35428624D01*
X64000464Y-34224604D01*
X65012300Y-33212767D01*
X65012300Y-34414914D01*
X65005195Y-34450000D01*
X65005195Y-35450000D01*
X65030486Y-35584408D01*
X65062500Y-35634159D01*
X65062500Y-35840525D01*
X65192675Y-35970700D01*
X65228573Y-35970700D01*
X65419953Y-35891428D01*
X65491576Y-35819805D01*
X65625000Y-35819805D01*
X65759408Y-35794514D01*
X65817442Y-35757170D01*
X65875000Y-35768826D01*
X66125000Y-35768826D01*
X66240880Y-35747022D01*
X66248569Y-35742074D01*
X66250959Y-35743707D01*
X66375000Y-35768826D01*
X66625000Y-35768826D01*
X66740880Y-35747022D01*
X66748569Y-35742074D01*
X66750959Y-35743707D01*
X66875000Y-35768826D01*
X67125000Y-35768826D01*
X67240880Y-35747022D01*
X67248569Y-35742074D01*
X67250959Y-35743707D01*
X67375000Y-35768826D01*
X67625000Y-35768826D01*
X67740880Y-35747022D01*
X67748569Y-35742074D01*
X67750959Y-35743707D01*
X67875000Y-35768826D01*
X68125000Y-35768826D01*
X68240880Y-35747022D01*
X68248569Y-35742074D01*
X68250959Y-35743707D01*
X68375000Y-35768826D01*
X68625000Y-35768826D01*
X68740880Y-35747022D01*
X68748569Y-35742074D01*
X68750959Y-35743707D01*
X68875000Y-35768826D01*
X68932985Y-35768826D01*
X68887882Y-35877446D01*
X68887669Y-36121193D01*
X68980751Y-36346468D01*
X69152956Y-36518973D01*
X69378068Y-36612448D01*
X69621815Y-36612661D01*
X69847090Y-36519579D01*
X69954301Y-36412554D01*
X70013765Y-36412554D01*
X70171699Y-36381139D01*
X70293222Y-36299940D01*
X70350580Y-36438756D01*
X70522785Y-36611261D01*
X70747897Y-36704736D01*
X70991644Y-36704949D01*
X71216919Y-36611867D01*
X71389424Y-36439662D01*
X71482899Y-36214550D01*
X71483112Y-35970803D01*
X71431685Y-35846340D01*
X71437500Y-35840525D01*
X71437500Y-35481239D01*
X71443826Y-35450000D01*
X71443826Y-34450000D01*
X71437500Y-34416380D01*
X71437500Y-34059475D01*
X71307325Y-33929300D01*
X71271427Y-33929300D01*
X71080047Y-34008572D01*
X70957445Y-34131174D01*
X70875000Y-34131174D01*
X70759120Y-34152978D01*
X70751431Y-34157926D01*
X70749041Y-34156293D01*
X70625000Y-34131174D01*
X70375000Y-34131174D01*
X70259120Y-34152978D01*
X70251431Y-34157926D01*
X70249041Y-34156293D01*
X70125000Y-34131174D01*
X69875000Y-34131174D01*
X69759120Y-34152978D01*
X69751431Y-34157926D01*
X69749041Y-34156293D01*
X69625000Y-34131174D01*
X69389064Y-34131174D01*
X69381285Y-34092067D01*
X69291823Y-33958177D01*
X68899977Y-33566331D01*
X71163532Y-33566331D01*
X71512300Y-33915098D01*
X71512300Y-34414914D01*
X71505195Y-34450000D01*
X71505195Y-35450000D01*
X71530486Y-35584408D01*
X71562500Y-35634159D01*
X71562500Y-35840525D01*
X71692675Y-35970700D01*
X71728573Y-35970700D01*
X71919953Y-35891428D01*
X71991576Y-35819805D01*
X72125000Y-35819805D01*
X72259408Y-35794514D01*
X72382854Y-35715079D01*
X72465670Y-35593875D01*
X72494805Y-35450000D01*
X72494805Y-34450000D01*
X72487700Y-34412241D01*
X72487700Y-34190431D01*
X73359658Y-34190431D01*
X73436277Y-34375861D01*
X73622535Y-34562444D01*
X73866017Y-34663547D01*
X74129655Y-34663777D01*
X74373313Y-34563099D01*
X74559896Y-34376841D01*
X74660999Y-34133359D01*
X74661229Y-33869721D01*
X74560551Y-33626063D01*
X74378631Y-33443826D01*
X74450000Y-33443826D01*
X74565880Y-33422022D01*
X74672308Y-33353537D01*
X74701047Y-33311475D01*
X75629300Y-33311475D01*
X75629300Y-33893573D01*
X75708572Y-34084953D01*
X75855047Y-34231428D01*
X76046426Y-34310700D01*
X76628525Y-34310700D01*
X76758700Y-34180525D01*
X76758700Y-33181300D01*
X77241300Y-33181300D01*
X77241300Y-34180525D01*
X77371475Y-34310700D01*
X77953574Y-34310700D01*
X78144953Y-34231428D01*
X78291428Y-34084953D01*
X78370700Y-33893573D01*
X78370700Y-33311475D01*
X78240525Y-33181300D01*
X77241300Y-33181300D01*
X76758700Y-33181300D01*
X75759475Y-33181300D01*
X75629300Y-33311475D01*
X74701047Y-33311475D01*
X74743707Y-33249041D01*
X74768826Y-33125000D01*
X74768826Y-32875000D01*
X74747022Y-32759120D01*
X74742074Y-32751431D01*
X74743707Y-32749041D01*
X74768826Y-32625000D01*
X74768826Y-32375000D01*
X74747022Y-32259120D01*
X74742074Y-32251431D01*
X74743707Y-32249041D01*
X74768826Y-32125000D01*
X74768826Y-31986427D01*
X75629300Y-31986427D01*
X75629300Y-32568525D01*
X75759475Y-32698700D01*
X76758700Y-32698700D01*
X76758700Y-31699475D01*
X77241300Y-31699475D01*
X77241300Y-32698700D01*
X78240525Y-32698700D01*
X78370700Y-32568525D01*
X78370700Y-31986427D01*
X78291428Y-31795047D01*
X78144953Y-31648572D01*
X77953574Y-31569300D01*
X77371475Y-31569300D01*
X77241300Y-31699475D01*
X76758700Y-31699475D01*
X76628525Y-31569300D01*
X76046426Y-31569300D01*
X75855047Y-31648572D01*
X75708572Y-31795047D01*
X75629300Y-31986427D01*
X74768826Y-31986427D01*
X74768826Y-31875000D01*
X74747022Y-31759120D01*
X74742074Y-31751431D01*
X74743707Y-31749041D01*
X74768826Y-31625000D01*
X74768826Y-31375000D01*
X74747022Y-31259120D01*
X74742074Y-31251431D01*
X74743707Y-31249041D01*
X74768826Y-31125000D01*
X74768826Y-30875000D01*
X74747022Y-30759120D01*
X74742074Y-30751431D01*
X74743707Y-30749041D01*
X74768826Y-30625000D01*
X74768826Y-30375000D01*
X74747022Y-30259120D01*
X74742074Y-30251431D01*
X74743707Y-30249041D01*
X74768826Y-30125000D01*
X74768826Y-29875000D01*
X74747022Y-29759120D01*
X74742074Y-29751431D01*
X74743707Y-29749041D01*
X74768826Y-29625000D01*
X74768826Y-29375000D01*
X74747022Y-29259120D01*
X74742074Y-29251431D01*
X74743707Y-29249041D01*
X74768826Y-29125000D01*
X74768826Y-28875000D01*
X74747022Y-28759120D01*
X74742074Y-28751431D01*
X74743707Y-28749041D01*
X74768826Y-28625000D01*
X74768826Y-28375000D01*
X74747022Y-28259120D01*
X74742074Y-28251431D01*
X74743707Y-28249041D01*
X74768826Y-28125000D01*
X74768826Y-27875000D01*
X74747022Y-27759120D01*
X74742074Y-27751431D01*
X74743707Y-27749041D01*
X74768826Y-27625000D01*
X74768826Y-27375000D01*
X74747022Y-27259120D01*
X74742074Y-27251431D01*
X74743707Y-27249041D01*
X74768826Y-27125000D01*
X74768826Y-27067430D01*
X74877592Y-27112594D01*
X75121339Y-27112807D01*
X75287299Y-27044234D01*
X75287299Y-29099999D01*
X75318714Y-29257933D01*
X75408176Y-29391822D01*
X75930416Y-29914062D01*
X75903026Y-29955054D01*
X75814521Y-30400000D01*
X75903026Y-30844946D01*
X76155068Y-31222153D01*
X76532275Y-31474195D01*
X76977221Y-31562700D01*
X77022779Y-31562700D01*
X77467725Y-31474195D01*
X77844932Y-31222153D01*
X78096974Y-30844946D01*
X78185479Y-30400000D01*
X78096974Y-29955054D01*
X77844932Y-29577847D01*
X77467725Y-29325805D01*
X77022779Y-29237300D01*
X76977221Y-29237300D01*
X76532275Y-29325805D01*
X76518593Y-29334947D01*
X76112699Y-28929053D01*
X76112699Y-28618743D01*
X76155068Y-28682153D01*
X76532275Y-28934195D01*
X76977221Y-29022700D01*
X77022779Y-29022700D01*
X77467725Y-28934195D01*
X77844932Y-28682153D01*
X78096974Y-28304946D01*
X78185479Y-27860000D01*
X78096974Y-27415054D01*
X77844932Y-27037847D01*
X77467725Y-26785805D01*
X77022779Y-26697300D01*
X76977221Y-26697300D01*
X76532275Y-26785805D01*
X76155068Y-27037847D01*
X76112699Y-27101257D01*
X76112699Y-26168476D01*
X76118734Y-26177508D01*
X76512162Y-26440389D01*
X76976242Y-26532700D01*
X77023758Y-26532700D01*
X77487838Y-26440389D01*
X77881266Y-26177508D01*
X78144147Y-25784080D01*
X78236458Y-25320000D01*
X78144147Y-24855920D01*
X77881266Y-24462492D01*
X77487838Y-24199611D01*
X77023758Y-24107300D01*
X76976242Y-24107300D01*
X76512162Y-24199611D01*
X76118734Y-24462492D01*
X76098510Y-24492760D01*
X76081284Y-24406160D01*
X76081284Y-24406159D01*
X75991822Y-24272270D01*
X74977729Y-23258177D01*
X74843840Y-23168715D01*
X74685906Y-23137300D01*
X72443826Y-23137300D01*
X72443826Y-23050000D01*
X72422022Y-22934120D01*
X72353537Y-22827692D01*
X72249041Y-22756293D01*
X72125000Y-22731174D01*
X71875000Y-22731174D01*
X71759120Y-22752978D01*
X71751431Y-22757926D01*
X71749041Y-22756293D01*
X71625000Y-22731174D01*
X71375000Y-22731174D01*
X71259120Y-22752978D01*
X71251431Y-22757926D01*
X71249041Y-22756293D01*
X71125000Y-22731174D01*
X70875000Y-22731174D01*
X70759120Y-22752978D01*
X70751431Y-22757926D01*
X70749041Y-22756293D01*
X70625000Y-22731174D01*
X70375000Y-22731174D01*
X70259120Y-22752978D01*
X70251431Y-22757926D01*
X70249041Y-22756293D01*
X70125000Y-22731174D01*
X69875000Y-22731174D01*
X69759120Y-22752978D01*
X69751431Y-22757926D01*
X69749041Y-22756293D01*
X69625000Y-22731174D01*
X69375000Y-22731174D01*
X69259120Y-22752978D01*
X69251431Y-22757926D01*
X69249041Y-22756293D01*
X69125000Y-22731174D01*
X68875000Y-22731174D01*
X68759120Y-22752978D01*
X68751431Y-22757926D01*
X68749041Y-22756293D01*
X68625000Y-22731174D01*
X68375000Y-22731174D01*
X68259120Y-22752978D01*
X68251431Y-22757926D01*
X68249041Y-22756293D01*
X68125000Y-22731174D01*
X67875000Y-22731174D01*
X67759120Y-22752978D01*
X67751431Y-22757926D01*
X67749041Y-22756293D01*
X67625000Y-22731174D01*
X67375000Y-22731174D01*
X67259120Y-22752978D01*
X67251431Y-22757926D01*
X67249041Y-22756293D01*
X67125000Y-22731174D01*
X66875000Y-22731174D01*
X66759120Y-22752978D01*
X66751431Y-22757926D01*
X66749041Y-22756293D01*
X66625000Y-22731174D01*
X66375000Y-22731174D01*
X66259120Y-22752978D01*
X66251431Y-22757926D01*
X66249041Y-22756293D01*
X66125000Y-22731174D01*
X65875000Y-22731174D01*
X65759120Y-22752978D01*
X65751431Y-22757926D01*
X65749041Y-22756293D01*
X65625000Y-22731174D01*
X65542555Y-22731174D01*
X65419953Y-22608572D01*
X65228573Y-22529300D01*
X65192675Y-22529300D01*
X65062500Y-22659475D01*
X65062500Y-23018761D01*
X65056174Y-23050000D01*
X65056174Y-24050000D01*
X65062500Y-24083620D01*
X65062500Y-24440525D01*
X65192675Y-24570700D01*
X65228573Y-24570700D01*
X65419953Y-24491428D01*
X65542555Y-24368826D01*
X65625000Y-24368826D01*
X65740880Y-24347022D01*
X65748569Y-24342074D01*
X65750959Y-24343707D01*
X65875000Y-24368826D01*
X66125000Y-24368826D01*
X66240880Y-24347022D01*
X66248569Y-24342074D01*
X66250959Y-24343707D01*
X66375000Y-24368826D01*
X66625000Y-24368826D01*
X66740880Y-24347022D01*
X66748569Y-24342074D01*
X66750959Y-24343707D01*
X66875000Y-24368826D01*
X67125000Y-24368826D01*
X67240880Y-24347022D01*
X67248569Y-24342074D01*
X67250959Y-24343707D01*
X67375000Y-24368826D01*
X67625000Y-24368826D01*
X67740880Y-24347022D01*
X67748569Y-24342074D01*
X67750959Y-24343707D01*
X67875000Y-24368826D01*
X68125000Y-24368826D01*
X68240880Y-24347022D01*
X68248569Y-24342074D01*
X68250959Y-24343707D01*
X68375000Y-24368826D01*
X68625000Y-24368826D01*
X68740880Y-24347022D01*
X68748569Y-24342074D01*
X68750959Y-24343707D01*
X68875000Y-24368826D01*
X69125000Y-24368826D01*
X69240880Y-24347022D01*
X69248569Y-24342074D01*
X69250959Y-24343707D01*
X69375000Y-24368826D01*
X69625000Y-24368826D01*
X69740880Y-24347022D01*
X69748569Y-24342074D01*
X69750959Y-24343707D01*
X69875000Y-24368826D01*
X70125000Y-24368826D01*
X70240880Y-24347022D01*
X70248569Y-24342074D01*
X70250959Y-24343707D01*
X70375000Y-24368826D01*
X70625000Y-24368826D01*
X70740880Y-24347022D01*
X70748569Y-24342074D01*
X70750959Y-24343707D01*
X70875000Y-24368826D01*
X71125000Y-24368826D01*
X71240880Y-24347022D01*
X71248569Y-24342074D01*
X71250959Y-24343707D01*
X71375000Y-24368826D01*
X71625000Y-24368826D01*
X71740880Y-24347022D01*
X71748569Y-24342074D01*
X71750959Y-24343707D01*
X71875000Y-24368826D01*
X72125000Y-24368826D01*
X72240880Y-24347022D01*
X72347308Y-24278537D01*
X72418707Y-24174041D01*
X72443826Y-24050000D01*
X72443826Y-23962700D01*
X73600221Y-23962700D01*
X73438518Y-24124121D01*
X73337415Y-24367603D01*
X73337185Y-24631241D01*
X73437863Y-24874899D01*
X73487300Y-24924422D01*
X73487300Y-25005195D01*
X73450000Y-25005195D01*
X73315592Y-25030486D01*
X73192146Y-25109921D01*
X73109330Y-25231125D01*
X73080195Y-25375000D01*
X73080195Y-25508424D01*
X73008572Y-25580047D01*
X72929300Y-25771427D01*
X72929300Y-25807325D01*
X73059475Y-25937500D01*
X73264897Y-25937500D01*
X73306125Y-25965670D01*
X73450000Y-25994805D01*
X74211300Y-25994805D01*
X74211300Y-26056174D01*
X73450000Y-26056174D01*
X73416380Y-26062500D01*
X73059475Y-26062500D01*
X72929300Y-26192675D01*
X72929300Y-26228573D01*
X73008572Y-26419953D01*
X73131174Y-26542555D01*
X73131174Y-26625000D01*
X73152978Y-26740880D01*
X73157926Y-26748569D01*
X73156293Y-26750959D01*
X73131174Y-26875000D01*
X73131174Y-27125000D01*
X73152978Y-27240880D01*
X73157926Y-27248569D01*
X73156293Y-27250959D01*
X73131174Y-27375000D01*
X73131174Y-27625000D01*
X73152978Y-27740880D01*
X73157926Y-27748569D01*
X73156293Y-27750959D01*
X73131174Y-27875000D01*
X73131174Y-28125000D01*
X73152978Y-28240880D01*
X73157926Y-28248569D01*
X73156293Y-28250959D01*
X73131174Y-28375000D01*
X73131174Y-28625000D01*
X73152978Y-28740880D01*
X73157926Y-28748569D01*
X73156293Y-28750959D01*
X73131174Y-28875000D01*
X73131174Y-29125000D01*
X73152978Y-29240880D01*
X73157926Y-29248569D01*
X73156293Y-29250959D01*
X73131174Y-29375000D01*
X73131174Y-29625000D01*
X73152978Y-29740880D01*
X73157926Y-29748569D01*
X73156293Y-29750959D01*
X73131174Y-29875000D01*
X73131174Y-30125000D01*
X73152978Y-30240880D01*
X73157926Y-30248569D01*
X73156293Y-30250959D01*
X73131174Y-30375000D01*
X73131174Y-30625000D01*
X73152978Y-30740880D01*
X73157926Y-30748569D01*
X73156293Y-30750959D01*
X73131174Y-30875000D01*
X73131174Y-31125000D01*
X73152978Y-31240880D01*
X73157926Y-31248569D01*
X73156293Y-31250959D01*
X73131174Y-31375000D01*
X73131174Y-31625000D01*
X73152978Y-31740880D01*
X73157926Y-31748569D01*
X73156293Y-31750959D01*
X73131174Y-31875000D01*
X73131174Y-32125000D01*
X73152978Y-32240880D01*
X73157926Y-32248569D01*
X73156293Y-32250959D01*
X73131174Y-32375000D01*
X73131174Y-32625000D01*
X73152978Y-32740880D01*
X73157926Y-32748569D01*
X73156293Y-32750959D01*
X73131174Y-32875000D01*
X73131174Y-33125000D01*
X73138706Y-33165031D01*
X72212367Y-33165031D01*
X71738434Y-32691097D01*
X71572102Y-32579958D01*
X71375900Y-32540931D01*
X66051131Y-32540931D01*
X66012700Y-32502499D01*
X66012700Y-32000005D01*
X66012701Y-32000000D01*
X65973673Y-31803799D01*
X65973673Y-31803798D01*
X65862534Y-31637466D01*
X65862531Y-31637464D01*
X65362534Y-31137466D01*
X65196202Y-31026327D01*
X65000000Y-30987300D01*
X64874316Y-31012300D01*
X63085086Y-31012300D01*
X63050000Y-31005195D01*
X62288700Y-31005195D01*
X62288700Y-30943826D01*
X63050000Y-30943826D01*
X63083620Y-30937500D01*
X63440525Y-30937500D01*
X63570700Y-30807325D01*
X63570700Y-30771427D01*
X63491428Y-30580047D01*
X63368826Y-30457445D01*
X63368826Y-30375000D01*
X63347022Y-30259120D01*
X63342074Y-30251431D01*
X63343707Y-30249041D01*
X63368826Y-30125000D01*
X63368826Y-29875000D01*
X63347022Y-29759120D01*
X63342074Y-29751431D01*
X63343707Y-29749041D01*
X63368826Y-29625000D01*
X63368826Y-29375000D01*
X63347022Y-29259120D01*
X63342074Y-29251431D01*
X63343707Y-29249041D01*
X63368826Y-29125000D01*
X63368826Y-28875000D01*
X63347022Y-28759120D01*
X63342074Y-28751431D01*
X63343707Y-28749041D01*
X63368826Y-28625000D01*
X63368826Y-28412700D01*
X65500000Y-28412700D01*
X65657934Y-28381285D01*
X65791823Y-28291823D01*
X65970970Y-28112676D01*
X66121339Y-28112807D01*
X66346614Y-28019725D01*
X66519119Y-27847520D01*
X66612594Y-27622408D01*
X66612807Y-27378661D01*
X66519725Y-27153386D01*
X66347520Y-26980881D01*
X66122408Y-26887406D01*
X65878661Y-26887193D01*
X65653386Y-26980275D01*
X65480881Y-27152480D01*
X65387406Y-27377592D01*
X65387274Y-27529080D01*
X65329054Y-27587300D01*
X64538311Y-27587300D01*
X64604803Y-27520808D01*
X64755172Y-27520939D01*
X64980447Y-27427857D01*
X65152952Y-27255652D01*
X65246427Y-27030540D01*
X65246640Y-26786793D01*
X65153558Y-26561518D01*
X64981353Y-26389013D01*
X64756241Y-26295538D01*
X64512494Y-26295325D01*
X64287219Y-26388407D01*
X64114714Y-26560612D01*
X64021239Y-26785724D01*
X64021107Y-26937212D01*
X63871019Y-27087300D01*
X63368826Y-27087300D01*
X63368826Y-26875000D01*
X63347022Y-26759120D01*
X63342074Y-26751431D01*
X63343707Y-26749041D01*
X63368826Y-26625000D01*
X63368826Y-26375000D01*
X63347022Y-26259120D01*
X63342074Y-26251431D01*
X63343707Y-26249041D01*
X63368826Y-26125000D01*
X63368826Y-25875000D01*
X63357886Y-25816856D01*
X63390670Y-25768875D01*
X63419805Y-25625000D01*
X63419805Y-25375000D01*
X63394514Y-25240592D01*
X63315079Y-25117146D01*
X63193875Y-25034330D01*
X63062700Y-25007767D01*
X63062700Y-24087614D01*
X63137614Y-24012700D01*
X63752992Y-24012700D01*
X63878676Y-23987700D01*
X64005195Y-23987700D01*
X64005195Y-24050000D01*
X64030486Y-24184408D01*
X64109921Y-24307854D01*
X64231125Y-24390670D01*
X64375000Y-24419805D01*
X64508424Y-24419805D01*
X64580047Y-24491428D01*
X64771427Y-24570700D01*
X64807325Y-24570700D01*
X64937500Y-24440525D01*
X64937500Y-24235103D01*
X64965670Y-24193875D01*
X64994805Y-24050000D01*
X64994805Y-23050000D01*
X64969514Y-22915592D01*
X64937500Y-22865841D01*
X64937500Y-22659475D01*
X64807325Y-22529300D01*
X64771427Y-22529300D01*
X64580047Y-22608572D01*
X64508424Y-22680195D01*
X64415686Y-22680195D01*
X64415807Y-22541013D01*
X64315129Y-22297355D01*
X64128871Y-22110772D01*
X63885389Y-22009669D01*
X63621751Y-22009439D01*
X63378093Y-22110117D01*
X63191510Y-22296375D01*
X63090407Y-22539857D01*
X63090177Y-22803495D01*
X63166124Y-22987300D01*
X62925251Y-22987300D01*
X62925246Y-22987299D01*
X62729044Y-23026327D01*
X62562712Y-23137466D01*
X62187466Y-23512712D01*
X62076327Y-23679044D01*
X62037300Y-23875246D01*
X62037300Y-25007585D01*
X61915592Y-25030486D01*
X61812700Y-25096695D01*
X61812700Y-21262700D01*
X78956300Y-21262700D01*
X78956300Y-36997300D01*
X53785066Y-36997300D01*
X53919953Y-36941428D01*
X54066428Y-36794953D01*
X54145700Y-36603574D01*
X54145700Y-36371475D01*
X54015525Y-36241300D01*
X53241300Y-36241300D01*
X53241300Y-36261300D01*
X52758700Y-36261300D01*
X52758700Y-36241300D01*
X51984475Y-36241300D01*
X51854300Y-36371475D01*
X51854300Y-36603574D01*
X51933572Y-36794953D01*
X52080047Y-36941428D01*
X52214934Y-36997300D01*
X42652588Y-36997300D01*
X42670700Y-36953574D01*
X42670700Y-36805175D01*
X42540525Y-36675000D01*
X41741300Y-36675000D01*
X41741300Y-36761300D01*
X41258700Y-36761300D01*
X41258700Y-36675000D01*
X39741300Y-36675000D01*
X39741300Y-36761300D01*
X39258700Y-36761300D01*
X39258700Y-36675000D01*
X37741300Y-36675000D01*
X37741300Y-36761300D01*
X37258700Y-36761300D01*
X37258700Y-36675000D01*
X36459475Y-36675000D01*
X36329300Y-36805175D01*
X36329300Y-36953574D01*
X36347412Y-36997300D01*
X28423700Y-36997300D01*
X28423700Y-35929405D01*
X30805067Y-35929405D01*
X30866550Y-36077892D01*
X31189244Y-36504401D01*
X31650592Y-36774954D01*
X31858700Y-36699139D01*
X31858700Y-35721300D01*
X32341300Y-35721300D01*
X32341300Y-36699139D01*
X32549408Y-36774954D01*
X33010756Y-36504401D01*
X33269300Y-36162680D01*
X33269300Y-36433573D01*
X33348572Y-36624953D01*
X33495047Y-36771428D01*
X33686426Y-36850700D01*
X34268525Y-36850700D01*
X34398700Y-36720525D01*
X34398700Y-35721300D01*
X34881300Y-35721300D01*
X34881300Y-36720525D01*
X35011475Y-36850700D01*
X35593574Y-36850700D01*
X35784953Y-36771428D01*
X35931428Y-36624953D01*
X36010700Y-36433573D01*
X36010700Y-36046426D01*
X36329300Y-36046426D01*
X36329300Y-36194825D01*
X36459475Y-36325000D01*
X37258700Y-36325000D01*
X37258700Y-35759475D01*
X37741300Y-35759475D01*
X37741300Y-36325000D01*
X39258700Y-36325000D01*
X39258700Y-35759475D01*
X39741300Y-35759475D01*
X39741300Y-36325000D01*
X41258700Y-36325000D01*
X41258700Y-35759475D01*
X41741300Y-35759475D01*
X41741300Y-36325000D01*
X42540525Y-36325000D01*
X42670700Y-36194825D01*
X42670700Y-36046426D01*
X42591428Y-35855047D01*
X42444953Y-35708572D01*
X42253573Y-35629300D01*
X41871475Y-35629300D01*
X41741300Y-35759475D01*
X41258700Y-35759475D01*
X41128525Y-35629300D01*
X40746427Y-35629300D01*
X40555047Y-35708572D01*
X40500000Y-35763619D01*
X40444953Y-35708572D01*
X40253573Y-35629300D01*
X39871475Y-35629300D01*
X39741300Y-35759475D01*
X39258700Y-35759475D01*
X39128525Y-35629300D01*
X38746427Y-35629300D01*
X38555047Y-35708572D01*
X38500000Y-35763619D01*
X38444953Y-35708572D01*
X38253573Y-35629300D01*
X37871475Y-35629300D01*
X37741300Y-35759475D01*
X37258700Y-35759475D01*
X37128525Y-35629300D01*
X36746427Y-35629300D01*
X36555047Y-35708572D01*
X36408572Y-35855047D01*
X36329300Y-36046426D01*
X36010700Y-36046426D01*
X36010700Y-35851475D01*
X35880525Y-35721300D01*
X34881300Y-35721300D01*
X34398700Y-35721300D01*
X33399475Y-35721300D01*
X33339383Y-35781392D01*
X33316831Y-35721300D01*
X32341300Y-35721300D01*
X31858700Y-35721300D01*
X30883169Y-35721300D01*
X30805067Y-35929405D01*
X28423700Y-35929405D01*
X28423700Y-35371475D01*
X42854300Y-35371475D01*
X42854300Y-36003573D01*
X42933572Y-36194953D01*
X43080047Y-36341428D01*
X43271426Y-36420700D01*
X44378525Y-36420700D01*
X44508700Y-36290525D01*
X44508700Y-35241300D01*
X44991300Y-35241300D01*
X44991300Y-36290525D01*
X45121475Y-36420700D01*
X46228574Y-36420700D01*
X46419953Y-36341428D01*
X46566428Y-36194953D01*
X46645700Y-36003573D01*
X46645700Y-35371475D01*
X46515525Y-35241300D01*
X44991300Y-35241300D01*
X44508700Y-35241300D01*
X42984475Y-35241300D01*
X42854300Y-35371475D01*
X28423700Y-35371475D01*
X28423700Y-35030595D01*
X30805067Y-35030595D01*
X30883169Y-35238700D01*
X31858700Y-35238700D01*
X31858700Y-34260861D01*
X32341300Y-34260861D01*
X32341300Y-35238700D01*
X33316831Y-35238700D01*
X33339383Y-35178608D01*
X33399475Y-35238700D01*
X34398700Y-35238700D01*
X34398700Y-34239475D01*
X34881300Y-34239475D01*
X34881300Y-35238700D01*
X35880525Y-35238700D01*
X36010700Y-35108525D01*
X36010700Y-34526427D01*
X35931428Y-34335047D01*
X35784953Y-34188572D01*
X35593574Y-34109300D01*
X35011475Y-34109300D01*
X34881300Y-34239475D01*
X34398700Y-34239475D01*
X34268525Y-34109300D01*
X33686426Y-34109300D01*
X33495047Y-34188572D01*
X33348572Y-34335047D01*
X33269300Y-34526427D01*
X33269300Y-34797320D01*
X33010756Y-34455599D01*
X32549408Y-34185046D01*
X32341300Y-34260861D01*
X31858700Y-34260861D01*
X31650592Y-34185046D01*
X31189244Y-34455599D01*
X30866550Y-34882108D01*
X30805067Y-35030595D01*
X28423700Y-35030595D01*
X28423700Y-32940000D01*
X30914521Y-32940000D01*
X31003026Y-33384946D01*
X31255068Y-33762153D01*
X31632275Y-34014195D01*
X32077221Y-34102700D01*
X32122779Y-34102700D01*
X32567725Y-34014195D01*
X32944932Y-33762153D01*
X33196974Y-33384946D01*
X33285479Y-32940000D01*
X33454521Y-32940000D01*
X33543026Y-33384946D01*
X33795068Y-33762153D01*
X34172275Y-34014195D01*
X34617221Y-34102700D01*
X34662779Y-34102700D01*
X35107725Y-34014195D01*
X35484932Y-33762153D01*
X35736974Y-33384946D01*
X35825479Y-32940000D01*
X35736974Y-32495054D01*
X35484932Y-32117847D01*
X35383392Y-32050000D01*
X36531174Y-32050000D01*
X36531174Y-32750000D01*
X36552978Y-32865880D01*
X36621463Y-32972308D01*
X36725959Y-33043707D01*
X36850000Y-33068826D01*
X37064681Y-33068826D01*
X36980881Y-33152480D01*
X36887406Y-33377592D01*
X36887193Y-33621339D01*
X36980275Y-33846614D01*
X37064688Y-33931174D01*
X36850000Y-33931174D01*
X36734120Y-33952978D01*
X36627692Y-34021463D01*
X36556293Y-34125959D01*
X36531174Y-34250000D01*
X36531174Y-34950000D01*
X36552978Y-35065880D01*
X36621463Y-35172308D01*
X36725959Y-35243707D01*
X36850000Y-35268826D01*
X38150000Y-35268826D01*
X38265880Y-35247022D01*
X38372308Y-35178537D01*
X38443707Y-35074041D01*
X38468826Y-34950000D01*
X38468826Y-34250000D01*
X38447022Y-34134120D01*
X38378537Y-34027692D01*
X38274041Y-33956293D01*
X38150000Y-33931174D01*
X37935319Y-33931174D01*
X38019119Y-33847520D01*
X38112594Y-33622408D01*
X38112807Y-33378661D01*
X38019725Y-33153386D01*
X37935312Y-33068826D01*
X38150000Y-33068826D01*
X38265880Y-33047022D01*
X38372308Y-32978537D01*
X38443707Y-32874041D01*
X38468826Y-32750000D01*
X38468826Y-32050000D01*
X38531174Y-32050000D01*
X38531174Y-32750000D01*
X38552978Y-32865880D01*
X38621463Y-32972308D01*
X38725959Y-33043707D01*
X38850000Y-33068826D01*
X39064681Y-33068826D01*
X38980881Y-33152480D01*
X38887406Y-33377592D01*
X38887193Y-33621339D01*
X38980275Y-33846614D01*
X39064688Y-33931174D01*
X38850000Y-33931174D01*
X38734120Y-33952978D01*
X38627692Y-34021463D01*
X38556293Y-34125959D01*
X38531174Y-34250000D01*
X38531174Y-34950000D01*
X38552978Y-35065880D01*
X38621463Y-35172308D01*
X38725959Y-35243707D01*
X38850000Y-35268826D01*
X40150000Y-35268826D01*
X40265880Y-35247022D01*
X40372308Y-35178537D01*
X40443707Y-35074041D01*
X40468826Y-34950000D01*
X40468826Y-34250000D01*
X40447022Y-34134120D01*
X40378537Y-34027692D01*
X40274041Y-33956293D01*
X40150000Y-33931174D01*
X39935319Y-33931174D01*
X40019119Y-33847520D01*
X40112594Y-33622408D01*
X40112807Y-33378661D01*
X40019725Y-33153386D01*
X39935312Y-33068826D01*
X40150000Y-33068826D01*
X40265880Y-33047022D01*
X40372308Y-32978537D01*
X40443707Y-32874041D01*
X40468826Y-32750000D01*
X40468826Y-32050000D01*
X40531174Y-32050000D01*
X40531174Y-32750000D01*
X40552978Y-32865880D01*
X40621463Y-32972308D01*
X40725959Y-33043707D01*
X40850000Y-33068826D01*
X41064681Y-33068826D01*
X40980881Y-33152480D01*
X40887406Y-33377592D01*
X40887193Y-33621339D01*
X40980275Y-33846614D01*
X41064688Y-33931174D01*
X40850000Y-33931174D01*
X40734120Y-33952978D01*
X40627692Y-34021463D01*
X40556293Y-34125959D01*
X40531174Y-34250000D01*
X40531174Y-34950000D01*
X40552978Y-35065880D01*
X40621463Y-35172308D01*
X40725959Y-35243707D01*
X40850000Y-35268826D01*
X42150000Y-35268826D01*
X42265880Y-35247022D01*
X42372308Y-35178537D01*
X42443707Y-35074041D01*
X42468826Y-34950000D01*
X42468826Y-34250000D01*
X42447022Y-34134120D01*
X42378537Y-34027692D01*
X42332780Y-33996427D01*
X42854300Y-33996427D01*
X42854300Y-34628525D01*
X42984475Y-34758700D01*
X44508700Y-34758700D01*
X44508700Y-33709475D01*
X44991300Y-33709475D01*
X44991300Y-34758700D01*
X46515525Y-34758700D01*
X46645700Y-34628525D01*
X46645700Y-33996427D01*
X46566428Y-33805047D01*
X46419953Y-33658572D01*
X46228574Y-33579300D01*
X45121475Y-33579300D01*
X44991300Y-33709475D01*
X44508700Y-33709475D01*
X44378525Y-33579300D01*
X43271426Y-33579300D01*
X43080047Y-33658572D01*
X42933572Y-33805047D01*
X42854300Y-33996427D01*
X42332780Y-33996427D01*
X42274041Y-33956293D01*
X42150000Y-33931174D01*
X41935319Y-33931174D01*
X42019119Y-33847520D01*
X42112594Y-33622408D01*
X42112807Y-33378661D01*
X42019725Y-33153386D01*
X41935312Y-33068826D01*
X42150000Y-33068826D01*
X42265880Y-33047022D01*
X42372308Y-32978537D01*
X42443707Y-32874041D01*
X42468826Y-32750000D01*
X42468826Y-32050000D01*
X42447022Y-31934120D01*
X42378537Y-31827692D01*
X42274041Y-31756293D01*
X42150000Y-31731174D01*
X40850000Y-31731174D01*
X40734120Y-31752978D01*
X40627692Y-31821463D01*
X40556293Y-31925959D01*
X40531174Y-32050000D01*
X40468826Y-32050000D01*
X40447022Y-31934120D01*
X40378537Y-31827692D01*
X40274041Y-31756293D01*
X40150000Y-31731174D01*
X38850000Y-31731174D01*
X38734120Y-31752978D01*
X38627692Y-31821463D01*
X38556293Y-31925959D01*
X38531174Y-32050000D01*
X38468826Y-32050000D01*
X38447022Y-31934120D01*
X38378537Y-31827692D01*
X38274041Y-31756293D01*
X38150000Y-31731174D01*
X36850000Y-31731174D01*
X36734120Y-31752978D01*
X36627692Y-31821463D01*
X36556293Y-31925959D01*
X36531174Y-32050000D01*
X35383392Y-32050000D01*
X35107725Y-31865805D01*
X34662779Y-31777300D01*
X34617221Y-31777300D01*
X34172275Y-31865805D01*
X33795068Y-32117847D01*
X33543026Y-32495054D01*
X33454521Y-32940000D01*
X33285479Y-32940000D01*
X33196974Y-32495054D01*
X32944932Y-32117847D01*
X32567725Y-31865805D01*
X32122779Y-31777300D01*
X32077221Y-31777300D01*
X31632275Y-31865805D01*
X31255068Y-32117847D01*
X31003026Y-32495054D01*
X30914521Y-32940000D01*
X28423700Y-32940000D01*
X28423700Y-30400000D01*
X30914521Y-30400000D01*
X31003026Y-30844946D01*
X31255068Y-31222153D01*
X31632275Y-31474195D01*
X32077221Y-31562700D01*
X32122779Y-31562700D01*
X32567725Y-31474195D01*
X32944932Y-31222153D01*
X33196974Y-30844946D01*
X33285479Y-30400000D01*
X33196974Y-29955054D01*
X32944932Y-29577847D01*
X32567725Y-29325805D01*
X32122779Y-29237300D01*
X32077221Y-29237300D01*
X31632275Y-29325805D01*
X31255068Y-29577847D01*
X31003026Y-29955054D01*
X30914521Y-30400000D01*
X28423700Y-30400000D01*
X28423700Y-27860000D01*
X30914521Y-27860000D01*
X31003026Y-28304946D01*
X31255068Y-28682153D01*
X31632275Y-28934195D01*
X32077221Y-29022700D01*
X32122779Y-29022700D01*
X32567725Y-28934195D01*
X32944932Y-28682153D01*
X33196974Y-28304946D01*
X33285479Y-27860000D01*
X33454521Y-27860000D01*
X33543026Y-28304946D01*
X33795068Y-28682153D01*
X34172275Y-28934195D01*
X34617221Y-29022700D01*
X34662779Y-29022700D01*
X35107725Y-28934195D01*
X35484932Y-28682153D01*
X35736974Y-28304946D01*
X35825479Y-27860000D01*
X35736974Y-27415054D01*
X35484932Y-27037847D01*
X35107725Y-26785805D01*
X34662779Y-26697300D01*
X34617221Y-26697300D01*
X34172275Y-26785805D01*
X33795068Y-27037847D01*
X33543026Y-27415054D01*
X33454521Y-27860000D01*
X33285479Y-27860000D01*
X33196974Y-27415054D01*
X32944932Y-27037847D01*
X32567725Y-26785805D01*
X32122779Y-26697300D01*
X32077221Y-26697300D01*
X31632275Y-26785805D01*
X31255068Y-27037847D01*
X31003026Y-27415054D01*
X30914521Y-27860000D01*
X28423700Y-27860000D01*
X28423700Y-25320000D01*
X30914521Y-25320000D01*
X31003026Y-25764946D01*
X31255068Y-26142153D01*
X31632275Y-26394195D01*
X32077221Y-26482700D01*
X32122779Y-26482700D01*
X32567725Y-26394195D01*
X32944932Y-26142153D01*
X33196974Y-25764946D01*
X33285479Y-25320000D01*
X33454521Y-25320000D01*
X33543026Y-25764946D01*
X33795068Y-26142153D01*
X34172275Y-26394195D01*
X34617221Y-26482700D01*
X34662779Y-26482700D01*
X35107725Y-26394195D01*
X35484932Y-26142153D01*
X35736974Y-25764946D01*
X35825479Y-25320000D01*
X35736974Y-24875054D01*
X35484932Y-24497847D01*
X35107725Y-24245805D01*
X34662779Y-24157300D01*
X34617221Y-24157300D01*
X34172275Y-24245805D01*
X33795068Y-24497847D01*
X33543026Y-24875054D01*
X33454521Y-25320000D01*
X33285479Y-25320000D01*
X33196974Y-24875054D01*
X32944932Y-24497847D01*
X32567725Y-24245805D01*
X32122779Y-24157300D01*
X32077221Y-24157300D01*
X31632275Y-24245805D01*
X31255068Y-24497847D01*
X31003026Y-24875054D01*
X30914521Y-25320000D01*
X28423700Y-25320000D01*
X28423700Y-22780000D01*
X30914521Y-22780000D01*
X31003026Y-23224946D01*
X31255068Y-23602153D01*
X31632275Y-23854195D01*
X32077221Y-23942700D01*
X32122779Y-23942700D01*
X32567725Y-23854195D01*
X32944932Y-23602153D01*
X33196974Y-23224946D01*
X33285479Y-22780000D01*
X33196974Y-22335054D01*
X32944932Y-21957847D01*
X32567725Y-21705805D01*
X32122779Y-21617300D01*
X32077221Y-21617300D01*
X31632275Y-21705805D01*
X31255068Y-21957847D01*
X31003026Y-22335054D01*
X30914521Y-22780000D01*
X28423700Y-22780000D01*
X28423700Y-21262700D01*
X37317402Y-21262700D01*
X37306293Y-21278959D01*
G36*
X61487300Y-25120905D02*
X61347520Y-24980881D01*
X61122408Y-24887406D01*
X60878661Y-24887193D01*
X60653386Y-24980275D01*
X60480881Y-25152480D01*
X60387406Y-25377592D01*
X60387274Y-25529080D01*
X60297757Y-25618597D01*
X60297918Y-25434314D01*
X60204836Y-25209039D01*
X60032631Y-25036534D01*
X59807519Y-24943059D01*
X59563772Y-24942846D01*
X59338497Y-25035928D01*
X59165992Y-25208133D01*
X59072517Y-25433245D01*
X59072304Y-25676992D01*
X59165386Y-25902267D01*
X59272411Y-26009478D01*
X59272411Y-32214197D01*
X59303826Y-32372131D01*
X59380780Y-32487300D01*
X58570564Y-32487300D01*
X58292673Y-32209409D01*
X58158784Y-32119947D01*
X58000850Y-32088532D01*
X52179926Y-32088532D01*
X51110838Y-31019444D01*
X51110969Y-30869075D01*
X51017887Y-30643800D01*
X50845682Y-30471295D01*
X50620570Y-30377820D01*
X50376823Y-30377607D01*
X50151548Y-30470689D01*
X49979043Y-30642894D01*
X49885568Y-30868006D01*
X49885355Y-31111753D01*
X49978437Y-31337028D01*
X50150642Y-31509533D01*
X50375754Y-31603008D01*
X50527242Y-31603140D01*
X51411402Y-32487300D01*
X48012700Y-32487300D01*
X48012700Y-28168826D01*
X50000000Y-28168826D01*
X50115880Y-28147022D01*
X50222308Y-28078537D01*
X50293707Y-27974041D01*
X50318826Y-27850000D01*
X50318826Y-26350000D01*
X50297022Y-26234120D01*
X50228537Y-26127692D01*
X50124041Y-26056293D01*
X50000000Y-26031174D01*
X48012700Y-26031174D01*
X48012700Y-23568826D01*
X50000000Y-23568826D01*
X50115880Y-23547022D01*
X50222308Y-23478537D01*
X50293707Y-23374041D01*
X50318826Y-23250000D01*
X50318826Y-21750000D01*
X50297022Y-21634120D01*
X50228537Y-21527692D01*
X50124041Y-21456293D01*
X50000000Y-21431174D01*
X48012700Y-21431174D01*
X48012700Y-21262700D01*
X61487300Y-21262700D01*
X61487300Y-25120905D01*
X61487300Y-25120905D01*
G37*
X61487300Y-25120905D02*
X61347520Y-24980881D01*
X61122408Y-24887406D01*
X60878661Y-24887193D01*
X60653386Y-24980275D01*
X60480881Y-25152480D01*
X60387406Y-25377592D01*
X60387274Y-25529080D01*
X60297757Y-25618597D01*
X60297918Y-25434314D01*
X60204836Y-25209039D01*
X60032631Y-25036534D01*
X59807519Y-24943059D01*
X59563772Y-24942846D01*
X59338497Y-25035928D01*
X59165992Y-25208133D01*
X59072517Y-25433245D01*
X59072304Y-25676992D01*
X59165386Y-25902267D01*
X59272411Y-26009478D01*
X59272411Y-32214197D01*
X59303826Y-32372131D01*
X59380780Y-32487300D01*
X58570564Y-32487300D01*
X58292673Y-32209409D01*
X58158784Y-32119947D01*
X58000850Y-32088532D01*
X52179926Y-32088532D01*
X51110838Y-31019444D01*
X51110969Y-30869075D01*
X51017887Y-30643800D01*
X50845682Y-30471295D01*
X50620570Y-30377820D01*
X50376823Y-30377607D01*
X50151548Y-30470689D01*
X49979043Y-30642894D01*
X49885568Y-30868006D01*
X49885355Y-31111753D01*
X49978437Y-31337028D01*
X50150642Y-31509533D01*
X50375754Y-31603008D01*
X50527242Y-31603140D01*
X51411402Y-32487300D01*
X48012700Y-32487300D01*
X48012700Y-28168826D01*
X50000000Y-28168826D01*
X50115880Y-28147022D01*
X50222308Y-28078537D01*
X50293707Y-27974041D01*
X50318826Y-27850000D01*
X50318826Y-26350000D01*
X50297022Y-26234120D01*
X50228537Y-26127692D01*
X50124041Y-26056293D01*
X50000000Y-26031174D01*
X48012700Y-26031174D01*
X48012700Y-23568826D01*
X50000000Y-23568826D01*
X50115880Y-23547022D01*
X50222308Y-23478537D01*
X50293707Y-23374041D01*
X50318826Y-23250000D01*
X50318826Y-21750000D01*
X50297022Y-21634120D01*
X50228537Y-21527692D01*
X50124041Y-21456293D01*
X50000000Y-21431174D01*
X48012700Y-21431174D01*
X48012700Y-21262700D01*
X61487300Y-21262700D01*
X61487300Y-25120905D01*
M02*
